M48
;Layer_Color=9474304
;FILE_FORMAT=2:4
INCH,TZ
;TYPE=PLATED
T1F00S00C0.0079
T2F00S00C0.0197
T3F00S00C0.0295
T5F00S00C0.0354
T6F00S00C0.0394
T7F00S00C0.0472
T8F00S00C0.0720
T9F00S00C0.1220
T10F00S00C0.1260
%
T01
X17850Y5536
Y5864
T02
X800Y5550
X2600Y5100
X3250Y4900
X5550Y1400
Y950
X7150Y1150
X14000Y5200
X16400Y4600
X16992Y5309
X18750Y5500
X20569Y5300
X18950Y3131
X18500
X22300Y3950
X22800
X22480Y10079
X21890
X21299
X21594Y10669
X22185
X22776
X22480Y11260
X21890
X21299
X21594Y11850
X22185
X22776
X21890Y12441
X21004Y11850
X20709Y11260
X21004Y10669
X20413
X20709Y10079
X18800Y10650
X18450Y10300
X17300Y10000
X16850Y8900
X15900Y9400
X15550Y9100
X15500Y8450
X15000Y7950
Y6550
X15500Y5900
X15925Y6275
X16400Y6650
Y7100
X18800Y7300
Y6650
X18750Y6100
X20569Y5750
X18450Y8300
X17950
Y11950
X17600Y12700
X17900Y14200
X16550Y14500
X16900Y14850
X17150Y15400
X17500Y15750
X17950Y16200
X18300Y16500
X18150Y17350
X17650
X16900Y19450
X15908
X14900
X13908
X11850
X10900
X9900
X8900
X6929
X6950Y20350
X7650Y17350
X8150
X12700
X13150
X13300Y11400
X13650Y11750
X14100Y12200
X14450Y12550
X15700Y13150
X16650Y11100
X19450Y11600
X19800Y11950
X20000Y13100
X20350Y13450
X19908Y19450
X18900
X4908
X1900
X929
X2700Y17350
X3150
X4000Y15000
X2650Y10350
X800Y11950
X700Y6650
X1908Y24800
X2650Y26850
X3150
X5500Y29050
X5400Y30300
X4850
X1850
X1250
X800Y29650
X350
X7850Y30350
X8450
X9500Y31150
X10200
X11450Y30350
X12000
X12103Y29153
X14450Y29250
Y28800
X14300Y27700
X13700
X13100
X13200Y26800
X12650
X13900Y24950
X14362Y24588
X14900Y24950
X15908Y24800
X16900Y24894
X16950Y24200
X17900Y24800
X18900
X19850
X21200Y26600
X20750Y27750
X18500Y27550
Y27100
X18150Y26800
X17700
X17800Y28150
X18250
X19000Y29150
X17518Y29750
Y30200
X18001Y30300
X17550Y31050
X17650Y31750
X19700Y32300
X16850Y28950
X15747Y28138
X15000Y30300
X8150Y26800
X7650
X6879Y24800
X8900
X9900
X21050Y22350
Y21900
X21700Y26900
X22200
X22850Y28000
X21450Y28500
Y28950
X21950Y31300
X22750
X23350Y29900
X23950Y30150
T03
X9800Y4950
X11300Y4900
X34700Y3702
X7100Y15000
X5000
X6550Y27450
X16500Y27400
X19600Y29800
X13950Y30650
X21600Y25750
X33400Y29800
Y30900
T05
X33800Y5666
Y6650
Y7634
T06
X33800Y10150
Y11134
X30559Y27953
X29559
X28559
X27559
T07
X5392Y33950
X6392
X7392
X8392
X9392
X10392
X11392
X12392
X14171
X15171
X16171
X17171
X18171
X19171
X20171
X21171
X22950
X23950
X24950
X25950
X26950
X27950
X28950
X29950
T08
X5157Y3986
X8157Y2986
Y4986
X27050Y5000
Y3000
X30050Y4000
T09
X25000Y16142
X32874
Y27953
X25000
T10
X1987Y1969
X33465
X1969Y33465
X33465
M30
