G04*
G04 #@! TF.GenerationSoftware,Altium Limited,Altium Designer,22.9.1 (49)*
G04*
G04 Layer_Color=16711935*
%FSLAX25Y25*%
%MOIN*%
G70*
G04*
G04 #@! TF.SameCoordinates,76B2CB67-AC7D-4B7C-BAB6-E888D97DABA5*
G04*
G04*
G04 #@! TF.FilePolarity,Negative*
G04*
G01*
G75*
%ADD66C,0.07493*%
%ADD67C,0.06800*%
%ADD68O,0.06706X0.06706*%
%ADD69O,0.05721X0.25800*%
%ADD70C,0.20800*%
%ADD71C,0.10945*%
%ADD72O,0.06706X0.06706*%
%ADD73O,0.10642X0.07690*%
%ADD74O,0.08674X0.12611*%
%ADD75C,0.02769*%
D66*
X305591Y279528D02*
D03*
X295590D02*
D03*
X285591D02*
D03*
X275590D02*
D03*
D67*
X328740Y161417D02*
D03*
X250000D02*
D03*
Y279528D02*
D03*
X328740D02*
D03*
D68*
X50000Y150000D02*
D03*
X71000D02*
D03*
X113000Y49000D02*
D03*
X98000Y49500D02*
D03*
X65500Y274500D02*
D03*
D69*
X78500Y111500D02*
D03*
X52909D02*
D03*
X299091Y109000D02*
D03*
X273500D02*
D03*
D70*
X19870Y19685D02*
D03*
X334646Y334646D02*
D03*
X19685D02*
D03*
X334646Y19685D02*
D03*
D71*
X300499Y40000D02*
D03*
X270499Y30000D02*
D03*
Y50000D02*
D03*
X51575Y39865D02*
D03*
X81575Y49865D02*
D03*
Y29865D02*
D03*
D72*
X139500Y306500D02*
D03*
X196000Y298000D02*
D03*
X165000Y274000D02*
D03*
X216000Y257500D02*
D03*
X347000Y37017D02*
D03*
X334000Y309000D02*
D03*
Y298000D02*
D03*
D73*
X338000Y76343D02*
D03*
Y56657D02*
D03*
Y66500D02*
D03*
Y111342D02*
D03*
Y101500D02*
D03*
D74*
X289500Y339500D02*
D03*
X249500D02*
D03*
X229500D02*
D03*
X299500D02*
D03*
X239500D02*
D03*
X259500D02*
D03*
X269500D02*
D03*
X279500D02*
D03*
X201712D02*
D03*
X161712D02*
D03*
X141712D02*
D03*
X211712D02*
D03*
X151712D02*
D03*
X171712D02*
D03*
X181712D02*
D03*
X191712D02*
D03*
X113923D02*
D03*
X73923D02*
D03*
X53923D02*
D03*
X123923D02*
D03*
X63923D02*
D03*
X83923D02*
D03*
X93923D02*
D03*
X103923D02*
D03*
D75*
X178500Y55362D02*
D03*
Y58638D02*
D03*
M02*
