G04*
G04 #@! TF.GenerationSoftware,Altium Limited,Altium Designer,22.9.1 (49)*
G04*
G04 Layer_Physical_Order=1*
G04 Layer_Color=255*
%FSLAX25Y25*%
%MOIN*%
G70*
G04*
G04 #@! TF.SameCoordinates,76B2CB67-AC7D-4B7C-BAB6-E888D97DABA5*
G04*
G04*
G04 #@! TF.FilePolarity,Positive*
G04*
G01*
G75*
%ADD10C,0.01000*%
G04:AMPARAMS|DCode=20|XSize=9.84mil|YSize=19.68mil|CornerRadius=1.97mil|HoleSize=0mil|Usage=FLASHONLY|Rotation=270.000|XOffset=0mil|YOffset=0mil|HoleType=Round|Shape=RoundedRectangle|*
%AMROUNDEDRECTD20*
21,1,0.00984,0.01575,0,0,270.0*
21,1,0.00591,0.01968,0,0,270.0*
1,1,0.00394,-0.00787,-0.00295*
1,1,0.00394,-0.00787,0.00295*
1,1,0.00394,0.00787,0.00295*
1,1,0.00394,0.00787,-0.00295*
%
%ADD20ROUNDEDRECTD20*%
%ADD21R,0.03740X0.03347*%
%ADD22R,0.08661X0.05512*%
%ADD23R,0.03347X0.03740*%
%ADD24R,0.03937X0.03543*%
G04:AMPARAMS|DCode=25|XSize=39.37mil|YSize=35.43mil|CornerRadius=0mil|HoleSize=0mil|Usage=FLASHONLY|Rotation=225.000|XOffset=0mil|YOffset=0mil|HoleType=Round|Shape=Rectangle|*
%AMROTATEDRECTD25*
4,1,4,0.00139,0.02645,0.02645,0.00139,-0.00139,-0.02645,-0.02645,-0.00139,0.00139,0.02645,0.0*
%
%ADD25ROTATEDRECTD25*%

%ADD26R,0.04134X0.02362*%
%ADD27R,0.03543X0.03937*%
G04:AMPARAMS|DCode=28|XSize=55.12mil|YSize=51.18mil|CornerRadius=0mil|HoleSize=0mil|Usage=FLASHONLY|Rotation=225.000|XOffset=0mil|YOffset=0mil|HoleType=Round|Shape=Rectangle|*
%AMROTATEDRECTD28*
4,1,4,0.00139,0.03758,0.03758,0.00139,-0.00139,-0.03758,-0.03758,-0.00139,0.00139,0.03758,0.0*
%
%ADD28ROTATEDRECTD28*%

G04:AMPARAMS|DCode=29|XSize=37.4mil|YSize=33.47mil|CornerRadius=0mil|HoleSize=0mil|Usage=FLASHONLY|Rotation=225.000|XOffset=0mil|YOffset=0mil|HoleType=Round|Shape=Rectangle|*
%AMROTATEDRECTD29*
4,1,4,0.00139,0.02506,0.02506,0.00139,-0.00139,-0.02506,-0.02506,-0.00139,0.00139,0.02506,0.0*
%
%ADD29ROTATEDRECTD29*%

G04:AMPARAMS|DCode=30|XSize=23.62mil|YSize=9.84mil|CornerRadius=1.97mil|HoleSize=0mil|Usage=FLASHONLY|Rotation=135.000|XOffset=0mil|YOffset=0mil|HoleType=Round|Shape=RoundedRectangle|*
%AMROUNDEDRECTD30*
21,1,0.02362,0.00591,0,0,135.0*
21,1,0.01968,0.00984,0,0,135.0*
1,1,0.00394,-0.00487,0.00905*
1,1,0.00394,0.00905,-0.00487*
1,1,0.00394,0.00487,-0.00905*
1,1,0.00394,-0.00905,0.00487*
%
%ADD30ROUNDEDRECTD30*%
G04:AMPARAMS|DCode=31|XSize=9.84mil|YSize=23.62mil|CornerRadius=1.97mil|HoleSize=0mil|Usage=FLASHONLY|Rotation=135.000|XOffset=0mil|YOffset=0mil|HoleType=Round|Shape=RoundedRectangle|*
%AMROUNDEDRECTD31*
21,1,0.00984,0.01968,0,0,135.0*
21,1,0.00591,0.02362,0,0,135.0*
1,1,0.00394,0.00487,0.00905*
1,1,0.00394,0.00905,0.00487*
1,1,0.00394,-0.00487,-0.00905*
1,1,0.00394,-0.00905,-0.00487*
%
%ADD31ROUNDEDRECTD31*%
G04:AMPARAMS|DCode=32|XSize=47.24mil|YSize=68.9mil|CornerRadius=0mil|HoleSize=0mil|Usage=FLASHONLY|Rotation=225.000|XOffset=0mil|YOffset=0mil|HoleType=Round|Shape=Rectangle|*
%AMROTATEDRECTD32*
4,1,4,-0.00766,0.04106,0.04106,-0.00766,0.00766,-0.04106,-0.04106,0.00766,-0.00766,0.04106,0.0*
%
%ADD32ROTATEDRECTD32*%

%ADD33P,0.06681X4X360.0*%
%ADD34P,0.06681X4X90.0*%
%ADD35R,0.09843X0.03937*%
%ADD36R,0.03937X0.09843*%
G04:AMPARAMS|DCode=37|XSize=98.43mil|YSize=39.37mil|CornerRadius=4.92mil|HoleSize=0mil|Usage=FLASHONLY|Rotation=90.000|XOffset=0mil|YOffset=0mil|HoleType=Round|Shape=RoundedRectangle|*
%AMROUNDEDRECTD37*
21,1,0.09843,0.02953,0,0,90.0*
21,1,0.08858,0.03937,0,0,90.0*
1,1,0.00984,0.01476,0.04429*
1,1,0.00984,0.01476,-0.04429*
1,1,0.00984,-0.01476,-0.04429*
1,1,0.00984,-0.01476,0.04429*
%
%ADD37ROUNDEDRECTD37*%
G04:AMPARAMS|DCode=38|XSize=59.06mil|YSize=59.06mil|CornerRadius=8.86mil|HoleSize=0mil|Usage=FLASHONLY|Rotation=90.000|XOffset=0mil|YOffset=0mil|HoleType=Round|Shape=RoundedRectangle|*
%AMROUNDEDRECTD38*
21,1,0.05906,0.04134,0,0,90.0*
21,1,0.04134,0.05906,0,0,90.0*
1,1,0.01772,0.02067,0.02067*
1,1,0.01772,0.02067,-0.02067*
1,1,0.01772,-0.02067,-0.02067*
1,1,0.01772,-0.02067,0.02067*
%
%ADD38ROUNDEDRECTD38*%
G04:AMPARAMS|DCode=39|XSize=55.12mil|YSize=82.68mil|CornerRadius=13.78mil|HoleSize=0mil|Usage=FLASHONLY|Rotation=90.000|XOffset=0mil|YOffset=0mil|HoleType=Round|Shape=RoundedRectangle|*
%AMROUNDEDRECTD39*
21,1,0.05512,0.05512,0,0,90.0*
21,1,0.02756,0.08268,0,0,90.0*
1,1,0.02756,0.02756,0.01378*
1,1,0.02756,0.02756,-0.01378*
1,1,0.02756,-0.02756,-0.01378*
1,1,0.02756,-0.02756,0.01378*
%
%ADD39ROUNDEDRECTD39*%
%ADD40R,0.03150X0.03937*%
%ADD41R,0.03347X0.01378*%
%ADD42R,0.03150X0.03150*%
%ADD43R,0.02362X0.02953*%
%ADD71C,0.10945*%
G04:AMPARAMS|DCode=76|XSize=33.07mil|YSize=94.49mil|CornerRadius=1.98mil|HoleSize=0mil|Usage=FLASHONLY|Rotation=180.000|XOffset=0mil|YOffset=0mil|HoleType=Round|Shape=RoundedRectangle|*
%AMROUNDEDRECTD76*
21,1,0.03307,0.09052,0,0,180.0*
21,1,0.02910,0.09449,0,0,180.0*
1,1,0.00397,-0.01455,0.04526*
1,1,0.00397,0.01455,0.04526*
1,1,0.00397,0.01455,-0.04526*
1,1,0.00397,-0.01455,-0.04526*
%
%ADD76ROUNDEDRECTD76*%
G04:AMPARAMS|DCode=77|XSize=33.47mil|YSize=27.56mil|CornerRadius=4mil|HoleSize=0mil|Usage=FLASHONLY|Rotation=135.000|XOffset=0mil|YOffset=0mil|HoleType=Round|Shape=RoundedRectangle|*
%AMROUNDEDRECTD77*
21,1,0.03347,0.01957,0,0,135.0*
21,1,0.02547,0.02756,0,0,135.0*
1,1,0.00799,-0.00209,0.01592*
1,1,0.00799,0.01592,-0.00209*
1,1,0.00799,0.00209,-0.01592*
1,1,0.00799,-0.01592,0.00209*
%
%ADD77ROUNDEDRECTD77*%
G04:AMPARAMS|DCode=78|XSize=57.09mil|YSize=13.78mil|CornerRadius=3.93mil|HoleSize=0mil|Usage=FLASHONLY|Rotation=135.000|XOffset=0mil|YOffset=0mil|HoleType=Round|Shape=RoundedRectangle|*
%AMROUNDEDRECTD78*
21,1,0.05709,0.00593,0,0,135.0*
21,1,0.04923,0.01378,0,0,135.0*
1,1,0.00785,-0.01531,0.01950*
1,1,0.00785,0.01950,-0.01531*
1,1,0.00785,0.01531,-0.01950*
1,1,0.00785,-0.01950,0.01531*
%
%ADD78ROUNDEDRECTD78*%
G04:AMPARAMS|DCode=79|XSize=70.87mil|YSize=13.78mil|CornerRadius=3.93mil|HoleSize=0mil|Usage=FLASHONLY|Rotation=135.000|XOffset=0mil|YOffset=0mil|HoleType=Round|Shape=RoundedRectangle|*
%AMROUNDEDRECTD79*
21,1,0.07087,0.00593,0,0,135.0*
21,1,0.06301,0.01378,0,0,135.0*
1,1,0.00785,-0.02018,0.02437*
1,1,0.00785,0.02437,-0.02018*
1,1,0.00785,0.02018,-0.02437*
1,1,0.00785,-0.02437,0.02018*
%
%ADD79ROUNDEDRECTD79*%
%ADD80C,0.06693*%
%ADD81C,0.06000*%
%ADD82O,0.05906X0.05906*%
%ADD83O,0.04921X0.25000*%
%ADD84C,0.20000*%
%ADD85O,0.05906X0.05906*%
%ADD86O,0.09843X0.06890*%
%ADD87O,0.07874X0.11811*%
%ADD88C,0.03937*%
%ADD89C,0.01968*%
G36*
X351366Y352742D02*
X352191Y352191D01*
X352742Y351366D01*
X352923Y350459D01*
X352910Y350394D01*
Y107520D01*
X342574D01*
X342413Y107993D01*
X342647Y108172D01*
X343359Y109101D01*
X343807Y110182D01*
X343894Y110842D01*
X338000D01*
X332106D01*
X332193Y110182D01*
X332641Y109101D01*
X333353Y108172D01*
X333587Y107993D01*
X333426Y107520D01*
X315520D01*
Y138500D01*
X315442Y138890D01*
X315221Y139221D01*
X314890Y139442D01*
X314500Y139520D01*
X286500D01*
X286110Y139442D01*
X285990Y139362D01*
X285871Y139442D01*
X285480Y139520D01*
X234000D01*
X233610Y139442D01*
X233520Y139382D01*
X233020Y139649D01*
Y146000D01*
X232942Y146390D01*
X232721Y146721D01*
X229221Y150221D01*
X228890Y150442D01*
X228500Y150520D01*
X228110Y150442D01*
X227779Y150221D01*
X227578Y150020D01*
X223520D01*
Y168500D01*
X223442Y168890D01*
X223221Y169221D01*
X222890Y169442D01*
X222500Y169520D01*
X199500D01*
X199110Y169442D01*
X198779Y169221D01*
X189935Y160377D01*
X189714Y160046D01*
X189636Y159656D01*
X189662Y159525D01*
X185475Y155338D01*
X185344Y155364D01*
X184954Y155286D01*
X184623Y155065D01*
X181935Y152377D01*
X181714Y152046D01*
X181710Y152027D01*
X176973Y147290D01*
X176954Y147286D01*
X176623Y147065D01*
X175279Y145721D01*
X175058Y145390D01*
X174980Y145000D01*
Y143922D01*
X164981Y133923D01*
X164520Y134115D01*
Y139000D01*
X164442Y139390D01*
X164221Y139721D01*
X161721Y142221D01*
X155721Y148221D01*
X155390Y148442D01*
X155000Y148520D01*
X154610Y148442D01*
X154279Y148221D01*
X148000Y141942D01*
X147779Y141611D01*
X147761Y141520D01*
X147500D01*
X147110Y141442D01*
X146779Y141221D01*
X139779Y134221D01*
X139558Y133890D01*
X139480Y133500D01*
X139558Y133110D01*
X139779Y132779D01*
X145133Y127425D01*
X145244Y127351D01*
X145344Y127263D01*
X145697Y127059D01*
X146060Y126697D01*
X146263Y126344D01*
X146351Y126244D01*
X146425Y126133D01*
X149279Y123279D01*
X149610Y123058D01*
X150000Y122980D01*
X151385D01*
X151576Y122519D01*
X149878Y120820D01*
X149878Y120820D01*
X149657Y120489D01*
X149644Y120424D01*
X146075Y116856D01*
X146011Y116843D01*
X146011Y116843D01*
X146011Y116843D01*
X145680Y116622D01*
X145680Y116622D01*
X141878Y112820D01*
X141878Y112820D01*
X141657Y112489D01*
X141657Y112489D01*
X141657Y112489D01*
X141644Y112425D01*
X138075Y108856D01*
X138011Y108843D01*
X137680Y108622D01*
X116000Y86942D01*
X106520Y96422D01*
Y128000D01*
X106442Y128390D01*
X106221Y128721D01*
X105890Y128942D01*
X105500Y129020D01*
X66520D01*
X66129Y128942D01*
X66010Y128862D01*
X65890Y128942D01*
X65500Y129020D01*
X38000D01*
X37610Y128942D01*
X37279Y128721D01*
X37058Y128390D01*
X36980Y128000D01*
Y23336D01*
X36518Y23144D01*
X11470Y48193D01*
X11677Y48693D01*
X15441D01*
Y53646D01*
X13242D01*
X10958Y55929D01*
X10766Y56646D01*
X10375Y57323D01*
X9823Y57875D01*
X9146Y58266D01*
X8391Y58469D01*
X7609D01*
X6854Y58266D01*
X6177Y57875D01*
X5625Y57323D01*
X5529Y57158D01*
X5029Y57292D01*
Y63633D01*
X5529Y63921D01*
X5854Y63734D01*
X6609Y63532D01*
X7391D01*
X8146Y63734D01*
X8823Y64125D01*
X9375Y64677D01*
X9545Y64971D01*
X10526D01*
Y63863D01*
X16266D01*
Y70125D01*
X17925D01*
Y69473D01*
X23075D01*
Y74623D01*
X17925D01*
Y73184D01*
X16266D01*
Y74328D01*
X11644D01*
X11453Y74790D01*
X14841Y78178D01*
X15173Y78675D01*
X15289Y79260D01*
Y101193D01*
X15941D01*
Y106146D01*
X14884D01*
Y109146D01*
X14767Y109731D01*
X14436Y110227D01*
X8595Y116068D01*
X8744Y116626D01*
X9146Y116734D01*
X9823Y117125D01*
X10375Y117677D01*
X10545Y117971D01*
X11026D01*
Y116827D01*
X16767D01*
Y123089D01*
X18425D01*
Y122331D01*
X23575D01*
Y127480D01*
X18425D01*
Y126147D01*
X16767D01*
Y127291D01*
X12107D01*
X11916Y127753D01*
X40134Y155971D01*
X52000D01*
X52585Y156087D01*
X53081Y156419D01*
X60081Y163419D01*
X60413Y163915D01*
X60529Y164500D01*
Y175422D01*
X62170D01*
X62560Y175500D01*
X62891Y175721D01*
X63112Y176052D01*
X63190Y176442D01*
Y186305D01*
X63164Y186436D01*
X63155Y186569D01*
X62940Y187370D01*
X62881Y187490D01*
X62839Y187616D01*
X62424Y188335D01*
X62336Y188435D01*
X62262Y188546D01*
X61676Y189132D01*
X61564Y189206D01*
X61464Y189294D01*
X60746Y189709D01*
X60620Y189752D01*
X60500Y189811D01*
X59699Y190025D01*
X59566Y190034D01*
X59435Y190060D01*
X58606D01*
X58475Y190034D01*
X58342Y190025D01*
X57541Y189811D01*
X57421Y189752D01*
X57295Y189709D01*
X56577Y189294D01*
X56477Y189206D01*
X56366Y189132D01*
X55779Y188546D01*
X55705Y188435D01*
X55617Y188335D01*
X55203Y187616D01*
X55160Y187490D01*
X55101Y187370D01*
X54886Y186569D01*
X54877Y186436D01*
X54851Y186305D01*
X54851Y185891D01*
Y176442D01*
X54929Y176052D01*
X55150Y175721D01*
X55481Y175500D01*
X55871Y175422D01*
X57471D01*
Y165134D01*
X51367Y159029D01*
X39500D01*
X38915Y158913D01*
X38418Y158581D01*
X3419Y123581D01*
X3087Y123085D01*
X2971Y122500D01*
Y118000D01*
X3087Y117415D01*
X3419Y116919D01*
X11825Y108512D01*
Y106146D01*
X11579D01*
Y101193D01*
X12230D01*
Y79893D01*
X2419Y70081D01*
X2087Y69585D01*
X1971Y69000D01*
Y54000D01*
X2087Y53415D01*
X2419Y52919D01*
X25732Y29605D01*
X25435Y29195D01*
X24093Y29879D01*
X22446Y30414D01*
X20736Y30685D01*
X20370D01*
Y20185D01*
X30870D01*
Y20551D01*
X30599Y22261D01*
X30064Y23908D01*
X29380Y25250D01*
X29790Y25547D01*
X38004Y17333D01*
X38500Y17001D01*
X39086Y16885D01*
X91914D01*
X92500Y17001D01*
X92996Y17333D01*
X114081Y38419D01*
X114413Y38915D01*
X114529Y39500D01*
Y45355D01*
X114993Y45547D01*
X115819Y46181D01*
X116453Y47007D01*
X116851Y47968D01*
X116987Y49000D01*
X116851Y50032D01*
X116453Y50993D01*
X115819Y51819D01*
X114993Y52453D01*
X114032Y52851D01*
X113000Y52987D01*
X111968Y52851D01*
X111007Y52453D01*
X110181Y51819D01*
X109547Y50993D01*
X109149Y50032D01*
X109013Y49000D01*
X109149Y47968D01*
X109547Y47007D01*
X110181Y46181D01*
X111007Y45547D01*
X111471Y45355D01*
Y40134D01*
X91281Y19944D01*
X89277D01*
X89141Y20215D01*
X89127Y20444D01*
X89213Y20500D01*
X89216Y20504D01*
X89221Y20507D01*
X89328Y20668D01*
X89438Y20828D01*
X89439Y20833D01*
X89442Y20838D01*
X89480Y21028D01*
X89520Y21217D01*
X89518Y21223D01*
X89520Y21228D01*
Y56480D01*
X138000D01*
X138390Y56558D01*
X138721Y56779D01*
X138942Y57110D01*
X139020Y57500D01*
Y70078D01*
X141922Y72980D01*
X170980D01*
Y62316D01*
X170480Y62149D01*
X170085Y62413D01*
X169500Y62529D01*
X166688D01*
X165136Y64081D01*
X164640Y64413D01*
X164054Y64529D01*
X161650D01*
X161625Y64573D01*
X161073Y65125D01*
X160396Y65516D01*
X159641Y65719D01*
X158859D01*
X158104Y65516D01*
X157427Y65125D01*
X156875Y64573D01*
X156484Y63896D01*
X156281Y63141D01*
Y62359D01*
X156320Y62215D01*
X155905Y61831D01*
X155391Y61968D01*
X154609D01*
X153854Y61766D01*
X153177Y61375D01*
X152625Y60823D01*
X152234Y60146D01*
X152032Y59391D01*
Y58609D01*
X152234Y57854D01*
X152625Y57177D01*
X153177Y56625D01*
X153854Y56234D01*
X154609Y56032D01*
X155391D01*
X156146Y56234D01*
X156265Y56302D01*
X157090Y55477D01*
X157586Y55146D01*
X158171Y55030D01*
X161130D01*
Y48768D01*
X161896D01*
X161933Y48716D01*
X162070Y48268D01*
X161625Y47823D01*
X161234Y47146D01*
X161031Y46391D01*
Y45609D01*
X161234Y44854D01*
X161625Y44177D01*
X162177Y43625D01*
X162854Y43234D01*
X163609Y43031D01*
X164391D01*
X165146Y43234D01*
X165823Y43625D01*
X166375Y44177D01*
X166766Y44854D01*
X166969Y45609D01*
Y46391D01*
X166766Y47146D01*
X166375Y47823D01*
X165930Y48268D01*
X166067Y48716D01*
X166104Y48768D01*
X166870D01*
X166870Y48768D01*
Y48768D01*
X167308Y48598D01*
X167488Y48419D01*
X167984Y48087D01*
X168569Y47971D01*
X173000D01*
X173230Y47782D01*
Y47740D01*
X173347Y47155D01*
X173678Y46659D01*
X178919Y41419D01*
X179415Y41087D01*
X180000Y40971D01*
X184531D01*
Y39543D01*
X190469D01*
Y40971D01*
X192268D01*
Y39630D01*
X196114D01*
X196601Y39519D01*
X196644Y39381D01*
X196672Y39240D01*
X196704Y39193D01*
X196720Y39139D01*
X196813Y39029D01*
X196893Y38909D01*
X196940Y38878D01*
X196976Y38835D01*
X197104Y38768D01*
X197224Y38688D01*
X197279Y38677D01*
X197329Y38651D01*
X197775Y38521D01*
X197919Y38508D01*
X198060Y38480D01*
X203500D01*
X203890Y38558D01*
X204221Y38779D01*
X211922Y46480D01*
X230500D01*
X230890Y46558D01*
X231221Y46779D01*
X265422Y80980D01*
X285480D01*
X285871Y81058D01*
X285990Y81138D01*
X286110Y81058D01*
X286500Y80980D01*
X315000D01*
X315390Y81058D01*
X315721Y81279D01*
X322422Y87980D01*
X352910D01*
Y3937D01*
X352923Y3871D01*
X352742Y2964D01*
X352191Y2139D01*
X351366Y1588D01*
X350459Y1408D01*
X350394Y1421D01*
X3937D01*
X3871Y1408D01*
X2964Y1588D01*
X2139Y2139D01*
X1588Y2964D01*
X1408Y3871D01*
X1421Y3937D01*
Y350394D01*
X1408Y350459D01*
X1588Y351366D01*
X2139Y352191D01*
X2964Y352742D01*
X3871Y352923D01*
X3937Y352910D01*
X350394D01*
X350459Y352923D01*
X351366Y352742D01*
D02*
G37*
G36*
X60236Y188826D02*
X60954Y188411D01*
X61541Y187825D01*
X61956Y187107D01*
X62170Y186305D01*
Y185891D01*
Y176442D01*
X55871Y176442D01*
Y185891D01*
X55871Y186305D01*
X56086Y187107D01*
X56500Y187825D01*
X57087Y188411D01*
X57805Y188826D01*
X58606Y189040D01*
X59435D01*
X60236Y188826D01*
D02*
G37*
G36*
X222500Y149000D02*
X216500Y143000D01*
X199000D01*
X197656Y141656D01*
X197366Y141945D01*
X192055Y136634D01*
X192344Y136344D01*
X191000Y135000D01*
X184500D01*
X183779Y134279D01*
X183758Y134301D01*
X179699Y130242D01*
X179299Y130000D01*
X174368D01*
X174287Y130081D01*
X173791Y130413D01*
X173205Y130529D01*
X170753D01*
X170168Y130413D01*
X169671Y130081D01*
X167942Y128353D01*
X167942Y128352D01*
X167903Y128294D01*
X167256Y127647D01*
X167178Y127529D01*
X166559Y127442D01*
X163354Y130646D01*
X163500Y131000D01*
X176000Y143500D01*
Y145000D01*
X177344Y146344D01*
X177407Y146282D01*
X182718Y151593D01*
X182656Y151656D01*
X185344Y154344D01*
X185634Y154055D01*
X190945Y159366D01*
X190656Y159656D01*
X199500Y168500D01*
X222500D01*
Y149000D01*
D02*
G37*
G36*
X215480Y128739D02*
X215389Y128721D01*
X215305Y128665D01*
X215213Y128627D01*
X215142Y128556D01*
X215058Y128500D01*
X199279Y112721D01*
X199058Y112390D01*
X198980Y112000D01*
Y97000D01*
X199058Y96610D01*
X199279Y96279D01*
X199610Y96058D01*
X200000Y95980D01*
X232000D01*
X232390Y96058D01*
X232480Y96118D01*
X232980Y95851D01*
Y78422D01*
X207933Y53375D01*
X207712Y53044D01*
X207684Y52903D01*
X207669Y52873D01*
X207501Y52248D01*
X207245Y51803D01*
X206882Y51441D01*
X206437Y51184D01*
X205942Y51051D01*
X205429D01*
X204933Y51184D01*
X204588Y51383D01*
X204524Y51405D01*
X204468Y51442D01*
X204338Y51468D01*
X204211Y51511D01*
X204144Y51507D01*
X204078Y51520D01*
X187947D01*
X187928Y51547D01*
X187926Y51579D01*
X188158Y52103D01*
X188646Y52234D01*
X189323Y52625D01*
X189875Y53177D01*
X190266Y53854D01*
X190469Y54609D01*
Y55391D01*
X190266Y56146D01*
X189875Y56823D01*
X189323Y57375D01*
X188705Y57732D01*
X188671Y58000D01*
X188705Y58268D01*
X189323Y58625D01*
X189875Y59177D01*
X190045Y59471D01*
X191867D01*
X192407Y58930D01*
X192215Y58469D01*
X191914D01*
Y52531D01*
X197457D01*
Y58469D01*
X196215D01*
Y58815D01*
X196098Y59400D01*
X195767Y59896D01*
X193581Y62081D01*
X193085Y62413D01*
X192500Y62529D01*
X190045D01*
X189875Y62823D01*
X189397Y63301D01*
X189376Y63647D01*
X189424Y63894D01*
X189823Y64125D01*
X190375Y64677D01*
X190766Y65354D01*
X190969Y66109D01*
Y66891D01*
X190766Y67646D01*
X190375Y68323D01*
X189823Y68875D01*
X189146Y69266D01*
X188391Y69468D01*
X187609D01*
X186854Y69266D01*
X186177Y68875D01*
X185625Y68323D01*
X185455Y68029D01*
X183000D01*
X182415Y67913D01*
X181919Y67581D01*
X181159Y66822D01*
X180827Y66325D01*
X180711Y65740D01*
Y62176D01*
X180590Y62095D01*
X180325Y61699D01*
X180233Y61232D01*
Y60642D01*
X180325Y60175D01*
X180474Y59953D01*
X180325Y59731D01*
X180233Y59264D01*
Y58673D01*
X180325Y58206D01*
X180590Y57810D01*
X180986Y57546D01*
X181453Y57453D01*
X182171D01*
X182240Y57439D01*
X184724D01*
X185111Y57516D01*
X185357Y57055D01*
X185125Y56823D01*
X184973Y56561D01*
X182288D01*
X182248Y56569D01*
X182139Y56547D01*
X181453D01*
X180986Y56454D01*
X180590Y56190D01*
X180325Y55794D01*
X180233Y55327D01*
Y54736D01*
X180325Y54269D01*
X180474Y54047D01*
X180336Y53841D01*
X180278Y53770D01*
X180263Y53722D01*
X180235Y53680D01*
X180206Y53533D01*
X180162Y53389D01*
X180167Y53339D01*
X180157Y53290D01*
Y52574D01*
X180114Y52354D01*
X180058Y52271D01*
X180038Y52172D01*
X180000Y52080D01*
Y51979D01*
X179980Y51881D01*
Y49500D01*
X180058Y49110D01*
X180279Y48779D01*
X183779Y45279D01*
X184110Y45058D01*
X184500Y44980D01*
X184531D01*
Y44029D01*
X180633D01*
X176289Y48374D01*
Y51824D01*
X176410Y51905D01*
X176675Y52301D01*
X176768Y52768D01*
Y53358D01*
X176675Y53825D01*
X176526Y54047D01*
X176675Y54269D01*
X176768Y54736D01*
Y55327D01*
X176675Y55794D01*
X176526Y56016D01*
X176675Y56238D01*
X176768Y56705D01*
Y57295D01*
X176675Y57762D01*
X176526Y57984D01*
X176675Y58206D01*
X176768Y58673D01*
Y59264D01*
X176675Y59731D01*
X176526Y59953D01*
X176664Y60159D01*
X176722Y60230D01*
X176737Y60278D01*
X176765Y60320D01*
X176794Y60467D01*
X176838Y60611D01*
X176833Y60661D01*
X176843Y60711D01*
Y61426D01*
X176876Y61596D01*
X176916Y61655D01*
X177018Y61723D01*
X177064Y61732D01*
X177148Y61788D01*
X177241Y61826D01*
X177312Y61897D01*
X177395Y61953D01*
X179221Y63779D01*
X179442Y64110D01*
X179520Y64500D01*
Y70209D01*
X184870D01*
Y71471D01*
X185455D01*
X185625Y71177D01*
X186177Y70625D01*
X186854Y70234D01*
X187609Y70031D01*
X188391D01*
X189146Y70234D01*
X189823Y70625D01*
X190375Y71177D01*
X190766Y71854D01*
X190969Y72609D01*
Y73391D01*
X190766Y74146D01*
X190375Y74823D01*
X189823Y75375D01*
X189529Y75545D01*
Y84500D01*
X189413Y85085D01*
X189081Y85581D01*
X186081Y88581D01*
X185585Y88913D01*
X185000Y89029D01*
X171905D01*
X171855Y89019D01*
X171468Y89337D01*
Y89391D01*
X171266Y90146D01*
X170875Y90823D01*
X170323Y91375D01*
X170029Y91545D01*
Y98208D01*
X170529Y98342D01*
X170625Y98177D01*
X171177Y97625D01*
X171854Y97234D01*
X172609Y97031D01*
X173391D01*
X174146Y97234D01*
X174823Y97625D01*
X175375Y98177D01*
X175766Y98854D01*
X175896Y99338D01*
X176450Y99491D01*
X176480Y99461D01*
X180539Y103520D01*
X176758Y107301D01*
X174529Y109529D01*
Y111565D01*
X175029Y111773D01*
X178482Y108320D01*
X182680Y112518D01*
X178760Y116438D01*
X177743Y115420D01*
X176101Y117062D01*
X175605Y117394D01*
X175020Y117510D01*
X174545D01*
X169479Y122576D01*
X169420Y122615D01*
X168773Y123262D01*
X168377Y123527D01*
X167910Y123619D01*
X167443Y123527D01*
X167047Y123262D01*
X166630Y122845D01*
X166365Y122449D01*
X166313Y122187D01*
X166051Y122135D01*
X165656Y121870D01*
X165238Y121453D01*
X165053Y121434D01*
X164906Y121581D01*
X164409Y121913D01*
X164295Y121936D01*
X164077Y122489D01*
X164213Y122691D01*
X164321Y123234D01*
X164213Y123778D01*
X163905Y124238D01*
X160423Y127720D01*
X159963Y128027D01*
X159699Y128080D01*
X159558Y128221D01*
X159227Y128442D01*
X158943Y128498D01*
X158173Y129269D01*
X158062Y129343D01*
X157962Y129431D01*
X157898Y129453D01*
X157842Y129490D01*
X157712Y129516D01*
X157585Y129559D01*
X157518Y129554D01*
X157452Y129568D01*
X157369Y129551D01*
X156743D01*
X156248Y129684D01*
X155803Y129940D01*
X155440Y130303D01*
X155184Y130748D01*
X155051Y131243D01*
Y131870D01*
X155068Y131952D01*
X155054Y132018D01*
X155059Y132085D01*
X155020Y132201D01*
Y132620D01*
X155049Y132685D01*
X155224Y132867D01*
X155520Y133046D01*
X155590Y133040D01*
X155604Y133044D01*
X155620Y133043D01*
X155794Y133102D01*
X155970Y133156D01*
X155982Y133166D01*
X155997Y133171D01*
X156248Y133316D01*
X156743Y133449D01*
X157257D01*
X157752Y133316D01*
X158197Y133060D01*
X158560Y132697D01*
X158816Y132252D01*
X158949Y131757D01*
Y131243D01*
X158896Y131046D01*
X158887Y130913D01*
X158861Y130782D01*
X158874Y130716D01*
X158870Y130649D01*
X158913Y130523D01*
X158939Y130392D01*
X158976Y130336D01*
X158998Y130272D01*
X159086Y130172D01*
X159160Y130061D01*
X160420Y128801D01*
X160472Y128537D01*
X160780Y128076D01*
X164261Y124595D01*
X164722Y124287D01*
X165266Y124179D01*
X165809Y124287D01*
X166270Y124595D01*
X166689Y125014D01*
X166996Y125475D01*
X167104Y126018D01*
X167145Y126340D01*
X167691Y126448D01*
X168154Y126758D01*
X169537Y128141D01*
X169847Y128604D01*
X169899Y128867D01*
X170321Y129289D01*
X170565Y129453D01*
X170853Y129510D01*
X173105D01*
X173393Y129453D01*
X173637Y129289D01*
X173647Y129279D01*
X173978Y129058D01*
X174368Y128980D01*
X179299D01*
X179376Y128996D01*
X179453Y128992D01*
X179569Y129034D01*
X179690Y129058D01*
X179754Y129101D01*
X179827Y129128D01*
X180227Y129369D01*
X180318Y129453D01*
X180420Y129521D01*
X183199Y126742D01*
X181517Y125061D01*
X174566D01*
X174563Y125062D01*
X173396D01*
X172466Y125991D01*
X172541Y126366D01*
X172448Y126833D01*
X172183Y127229D01*
X171766Y127647D01*
X171370Y127911D01*
X170903Y128004D01*
X170436Y127911D01*
X170040Y127647D01*
X169393Y127000D01*
X169334Y126961D01*
X169295Y126902D01*
X168648Y126255D01*
X168384Y125859D01*
X168291Y125392D01*
X168384Y124925D01*
X168648Y124529D01*
X169066Y124111D01*
X169462Y123847D01*
X169929Y123754D01*
X170303Y123829D01*
X171681Y122451D01*
X172177Y122119D01*
X172763Y122003D01*
X174559D01*
X174563Y122002D01*
X182150D01*
X182736Y122118D01*
X183232Y122450D01*
X185362Y124580D01*
X188861Y121080D01*
X192920Y125139D01*
X189139Y128920D01*
X188191Y127972D01*
X187391Y128772D01*
X187391Y128772D01*
X186591Y129572D01*
X187539Y130520D01*
X184500Y133558D01*
X184922Y133980D01*
X191000D01*
X191390Y134058D01*
X191721Y134279D01*
X193065Y135623D01*
X193286Y135954D01*
X193364Y136344D01*
X193338Y136475D01*
X197525Y140662D01*
X197656Y140636D01*
X198046Y140714D01*
X198377Y140935D01*
X199422Y141980D01*
X215480D01*
Y128739D01*
D02*
G37*
G36*
X232000Y146000D02*
Y128500D01*
X227370D01*
Y128614D01*
X221630D01*
Y128500D01*
X216500D01*
Y141980D01*
X216890Y142058D01*
X217221Y142279D01*
X223221Y148279D01*
X223442Y148610D01*
X223520Y149000D01*
X228000D01*
X228500Y149500D01*
X232000Y146000D01*
D02*
G37*
G36*
X161000Y141500D02*
X163500Y139000D01*
Y132500D01*
X163529Y132471D01*
X162779Y131721D01*
X162558Y131390D01*
X162412Y131037D01*
X162334Y130646D01*
X162412Y130256D01*
X162633Y129926D01*
X165838Y126720D01*
X165898Y126680D01*
X165946Y126626D01*
X166056Y126268D01*
X166053Y126099D01*
X166036Y126043D01*
X166031Y126031D01*
X165464Y125464D01*
X161815Y129112D01*
X161355Y129420D01*
X161216Y129447D01*
X159881Y130782D01*
X159968Y131109D01*
Y131891D01*
X159766Y132646D01*
X159375Y133323D01*
X158823Y133875D01*
X158146Y134266D01*
X157391Y134468D01*
X156609D01*
X155854Y134266D01*
X155487Y134054D01*
X155020Y134194D01*
Y134500D01*
X154942Y134890D01*
X154721Y135221D01*
X148721Y141221D01*
X155000Y147500D01*
X161000Y141500D01*
D02*
G37*
G36*
X154000Y134500D02*
X154000Y132000D01*
X154048Y131952D01*
X154032Y131891D01*
Y131109D01*
X154234Y130354D01*
X154625Y129677D01*
X155177Y129125D01*
X155854Y128734D01*
X156609Y128532D01*
X157391D01*
X157452Y128548D01*
X158500Y127500D01*
X158837D01*
X159053Y127284D01*
X159081Y127145D01*
X159388Y126685D01*
X163036Y123036D01*
X162522Y122522D01*
X162483Y122504D01*
X162207Y122470D01*
X161925Y122517D01*
X159721Y124721D01*
X159390Y124942D01*
X159000Y125020D01*
X154500D01*
X154110Y124942D01*
X153779Y124721D01*
X153058Y124000D01*
X150000D01*
X147146Y126854D01*
X146875Y127323D01*
X146323Y127875D01*
X145854Y128146D01*
X140500Y133500D01*
X147500Y140500D01*
X148000D01*
X154000Y134500D01*
D02*
G37*
G36*
X161204Y121796D02*
X161182Y121581D01*
X160181Y120580D01*
X160148Y120558D01*
X158419Y118829D01*
X158087Y118333D01*
X157971Y117747D01*
Y113000D01*
X158087Y112415D01*
X158419Y111919D01*
X160500Y109837D01*
Y107266D01*
X160139Y106920D01*
X160139D01*
X156080Y102861D01*
X156221Y102721D01*
X154099Y100599D01*
X153897Y100801D01*
X150097Y97000D01*
X150000D01*
Y96903D01*
X149699Y96603D01*
X150000Y96302D01*
Y82468D01*
X149609D01*
X148854Y82266D01*
X148393Y82000D01*
X147370D01*
Y82173D01*
X141630D01*
Y82000D01*
X140500D01*
X136020Y77520D01*
X125422D01*
X116721Y86221D01*
X138401Y107901D01*
X138482Y107820D01*
X142680Y112018D01*
X142599Y112099D01*
X146401Y115901D01*
X146482Y115820D01*
X150680Y120018D01*
X150599Y120099D01*
X154500Y124000D01*
X159000D01*
X161204Y121796D01*
D02*
G37*
G36*
X164532Y117629D02*
X164591Y117590D01*
X165238Y116943D01*
X165634Y116678D01*
X166101Y116586D01*
X166568Y116678D01*
X166964Y116943D01*
X167381Y117360D01*
X167567Y117379D01*
X171471Y113475D01*
Y109251D01*
X169080Y106861D01*
X169889Y106052D01*
X167419Y103581D01*
X167087Y103085D01*
X166971Y102500D01*
Y91545D01*
X166677Y91375D01*
X166125Y90823D01*
X165734Y90146D01*
X165532Y89391D01*
Y88609D01*
X165734Y87854D01*
X166125Y87177D01*
X166677Y86625D01*
X167274Y86280D01*
X167387Y86051D01*
X167452Y85690D01*
X167329Y85529D01*
X157797D01*
X157766Y85646D01*
X157375Y86323D01*
X156823Y86875D01*
X156146Y87266D01*
X155391Y87468D01*
X154609D01*
X153854Y87266D01*
X153177Y86875D01*
X152625Y86323D01*
X152234Y85646D01*
X152032Y84891D01*
Y84109D01*
X152234Y83354D01*
X152625Y82677D01*
X153177Y82125D01*
X153854Y81734D01*
X154609Y81532D01*
X155391D01*
X156146Y81734D01*
X156823Y82125D01*
X157169Y82471D01*
X168405D01*
X168991Y82587D01*
X169487Y82919D01*
X172539Y85971D01*
X184367D01*
X186471Y83867D01*
Y75545D01*
X186177Y75375D01*
X185625Y74823D01*
X185455Y74529D01*
X184870D01*
Y75555D01*
X179509D01*
X179442Y75890D01*
X179221Y76221D01*
X178221Y77221D01*
X177890Y77442D01*
X177500Y77520D01*
X152862D01*
X152573Y78020D01*
X152766Y78354D01*
X152969Y79109D01*
Y79891D01*
X152766Y80646D01*
X152375Y81323D01*
X151823Y81875D01*
X151146Y82266D01*
X150988Y82309D01*
X151020Y82468D01*
Y96302D01*
X150990Y96451D01*
X154123Y99584D01*
X154489Y99657D01*
X154820Y99878D01*
X156941Y102000D01*
X159861Y99080D01*
X163920Y103139D01*
X163111Y103948D01*
X164081Y104919D01*
X164413Y105415D01*
X164529Y106000D01*
Y109500D01*
X164413Y110085D01*
X164081Y110581D01*
X161029Y113634D01*
Y117114D01*
X162288Y118372D01*
X162321Y118395D01*
X162897Y118971D01*
X163191D01*
X164532Y117629D01*
D02*
G37*
G36*
X216110Y127558D02*
X216500Y127480D01*
X221630D01*
X222020Y127558D01*
X222075Y127595D01*
X226925D01*
X226980Y127558D01*
X227370Y127480D01*
X232000D01*
Y97000D01*
X200000D01*
Y112000D01*
X215779Y127779D01*
X216110Y127558D01*
D02*
G37*
G36*
X314500Y106500D02*
X352910D01*
Y89000D01*
X322000D01*
X315000Y82000D01*
X286500D01*
Y138500D01*
X314500D01*
Y106500D01*
D02*
G37*
G36*
X105500Y96000D02*
X125000Y76500D01*
X177500D01*
X178500Y75500D01*
Y64500D01*
X176674Y62674D01*
X176577Y62655D01*
X176181Y62390D01*
X175916Y61994D01*
X175823Y61526D01*
Y60711D01*
X175547Y60484D01*
X174829D01*
X174760Y60498D01*
X172165D01*
X172000Y60663D01*
Y74000D01*
X141500D01*
X138000Y70500D01*
Y57500D01*
X89520D01*
X89442Y57890D01*
X89221Y58221D01*
X88890Y58442D01*
X88500Y58520D01*
X74422D01*
X66520Y66422D01*
Y128000D01*
X105500D01*
Y96000D01*
D02*
G37*
G36*
X285480Y82000D02*
X265000D01*
X230500Y47500D01*
X211500D01*
X203500Y39500D01*
X198060D01*
X197614Y39630D01*
Y45370D01*
X197500D01*
Y45500D01*
X197000Y46000D01*
X184500D01*
X181000Y49500D01*
Y51881D01*
X181084Y52006D01*
X181177Y52474D01*
Y53290D01*
X181453Y53516D01*
X182171D01*
X182240Y53502D01*
X183998D01*
X187000Y50500D01*
X204078D01*
X204539Y50234D01*
X205294Y50032D01*
X206076D01*
X206831Y50234D01*
X207508Y50625D01*
X208061Y51177D01*
X208451Y51854D01*
X208654Y52609D01*
Y52654D01*
X234000Y78000D01*
Y138500D01*
X285480D01*
Y82000D01*
D02*
G37*
G36*
X65500Y66000D02*
X74000Y57500D01*
X88500D01*
Y21228D01*
X38000Y21777D01*
Y128000D01*
X65500D01*
Y66000D01*
D02*
G37*
%LPC*%
G36*
X299500Y346448D02*
X298211Y346278D01*
X297010Y345781D01*
X295979Y344990D01*
X295188Y343958D01*
X294771Y342952D01*
X294229D01*
X293812Y343958D01*
X293021Y344990D01*
X291990Y345781D01*
X290789Y346278D01*
X289500Y346448D01*
X288211Y346278D01*
X287010Y345781D01*
X285979Y344990D01*
X285188Y343958D01*
X284771Y342952D01*
X284229D01*
X283812Y343958D01*
X283021Y344990D01*
X281990Y345781D01*
X280789Y346278D01*
X279500Y346448D01*
X278211Y346278D01*
X277010Y345781D01*
X275979Y344990D01*
X275187Y343958D01*
X274771Y342952D01*
X274229D01*
X273813Y343958D01*
X273021Y344990D01*
X271990Y345781D01*
X270789Y346278D01*
X269500Y346448D01*
X268211Y346278D01*
X267010Y345781D01*
X265979Y344990D01*
X265188Y343958D01*
X264771Y342952D01*
X264229D01*
X263812Y343958D01*
X263021Y344990D01*
X261990Y345781D01*
X260789Y346278D01*
X259500Y346448D01*
X258211Y346278D01*
X257010Y345781D01*
X255979Y344990D01*
X255188Y343958D01*
X254771Y342952D01*
X254229D01*
X253813Y343958D01*
X253021Y344990D01*
X251990Y345781D01*
X250789Y346278D01*
X249500Y346448D01*
X248211Y346278D01*
X247010Y345781D01*
X245979Y344990D01*
X245187Y343958D01*
X244771Y342952D01*
X244229D01*
X243812Y343958D01*
X243021Y344990D01*
X241990Y345781D01*
X240789Y346278D01*
X239500Y346448D01*
X238211Y346278D01*
X237010Y345781D01*
X235979Y344990D01*
X235188Y343958D01*
X234771Y342952D01*
X234229D01*
X233812Y343958D01*
X233021Y344990D01*
X231990Y345781D01*
X230789Y346278D01*
X229500Y346448D01*
X228211Y346278D01*
X227010Y345781D01*
X225979Y344990D01*
X225187Y343958D01*
X224690Y342757D01*
X224520Y341469D01*
Y337531D01*
X224690Y336243D01*
X225187Y335042D01*
X225979Y334010D01*
X227010Y333219D01*
X227971Y332821D01*
Y331633D01*
X220866Y324529D01*
X199545D01*
X199375Y324823D01*
X198823Y325375D01*
X198146Y325766D01*
X197391Y325969D01*
X196609D01*
X195854Y325766D01*
X195177Y325375D01*
X194625Y324823D01*
X194234Y324146D01*
X194032Y323391D01*
Y322609D01*
X194234Y321854D01*
X194625Y321177D01*
X195177Y320625D01*
X195854Y320234D01*
X196609Y320031D01*
X197391D01*
X198146Y320234D01*
X198823Y320625D01*
X199375Y321177D01*
X199545Y321471D01*
X221500D01*
X222085Y321587D01*
X222581Y321919D01*
X230581Y329919D01*
X230913Y330415D01*
X231029Y331000D01*
Y332821D01*
X231990Y333219D01*
X233021Y334010D01*
X233812Y335042D01*
X234229Y336048D01*
X234771D01*
X235188Y335042D01*
X235979Y334010D01*
X237010Y333219D01*
X238211Y332722D01*
X239500Y332552D01*
X240789Y332722D01*
X241990Y333219D01*
X243021Y334010D01*
X243812Y335042D01*
X244229Y336048D01*
X244771D01*
X245187Y335042D01*
X245979Y334010D01*
X247010Y333219D01*
X248211Y332722D01*
X249500Y332552D01*
X250789Y332722D01*
X251990Y333219D01*
X253021Y334010D01*
X253813Y335042D01*
X254229Y336048D01*
X254771D01*
X255188Y335042D01*
X255979Y334010D01*
X257010Y333219D01*
X258211Y332722D01*
X259500Y332552D01*
X260789Y332722D01*
X261990Y333219D01*
X263021Y334010D01*
X263812Y335042D01*
X264229Y336048D01*
X264771D01*
X265188Y335042D01*
X265979Y334010D01*
X267010Y333219D01*
X267971Y332821D01*
Y327133D01*
X255366Y314529D01*
X230045D01*
X229875Y314823D01*
X229323Y315375D01*
X228646Y315766D01*
X227891Y315968D01*
X227109D01*
X226354Y315766D01*
X225677Y315375D01*
X225125Y314823D01*
X224734Y314146D01*
X224532Y313391D01*
Y312609D01*
X224734Y311854D01*
X225125Y311177D01*
X225677Y310625D01*
X225842Y310529D01*
X225708Y310029D01*
X224634D01*
X222381Y312282D01*
X222468Y312609D01*
Y313391D01*
X222266Y314146D01*
X221875Y314823D01*
X221323Y315375D01*
X220646Y315766D01*
X219891Y315968D01*
X219109D01*
X218354Y315766D01*
X217677Y315375D01*
X217125Y314823D01*
X216734Y314146D01*
X216531Y313391D01*
Y312609D01*
X216734Y311854D01*
X217125Y311177D01*
X217677Y310625D01*
X218354Y310234D01*
X219109Y310032D01*
X219891D01*
X220218Y310119D01*
X222919Y307419D01*
X223415Y307087D01*
X224000Y306971D01*
X261500D01*
X262085Y307087D01*
X262581Y307419D01*
X280581Y325419D01*
X280913Y325915D01*
X281029Y326500D01*
Y332821D01*
X281990Y333219D01*
X283021Y334010D01*
X283812Y335042D01*
X284229Y336048D01*
X284771D01*
X285188Y335042D01*
X285979Y334010D01*
X287010Y333219D01*
X287971Y332821D01*
Y330633D01*
X241491Y284154D01*
X241029Y284346D01*
Y298955D01*
X241323Y299125D01*
X241875Y299677D01*
X242266Y300354D01*
X242469Y301109D01*
Y301891D01*
X242266Y302646D01*
X241875Y303323D01*
X241323Y303875D01*
X240646Y304266D01*
X239891Y304468D01*
X239109D01*
X238354Y304266D01*
X237677Y303875D01*
X237125Y303323D01*
X236734Y302646D01*
X236531Y301891D01*
Y301109D01*
X236734Y300354D01*
X237125Y299677D01*
X237677Y299125D01*
X237971Y298955D01*
Y265134D01*
X213367Y240529D01*
X212346D01*
X212154Y240991D01*
X234581Y263419D01*
X234913Y263915D01*
X235029Y264500D01*
Y296455D01*
X235323Y296625D01*
X235875Y297177D01*
X236266Y297854D01*
X236469Y298609D01*
Y299391D01*
X236266Y300146D01*
X235875Y300823D01*
X235323Y301375D01*
X234646Y301766D01*
X233891Y301969D01*
X233109D01*
X232354Y301766D01*
X231677Y301375D01*
X231125Y300823D01*
X230734Y300146D01*
X230532Y299391D01*
Y298609D01*
X230734Y297854D01*
X231125Y297177D01*
X231677Y296625D01*
X231971Y296455D01*
Y265134D01*
X209866Y243029D01*
X189500D01*
X188915Y242913D01*
X188419Y242581D01*
X182702Y236865D01*
X174735D01*
X174528Y237365D01*
X180081Y242919D01*
X180413Y243415D01*
X180529Y244000D01*
Y245455D01*
X180823Y245625D01*
X181375Y246177D01*
X181766Y246854D01*
X181968Y247609D01*
Y248391D01*
X181766Y249146D01*
X181375Y249823D01*
X180823Y250375D01*
X180146Y250766D01*
X179391Y250969D01*
X178609D01*
X177854Y250766D01*
X177177Y250375D01*
X176625Y249823D01*
X176234Y249146D01*
X176031Y248391D01*
Y247609D01*
X176234Y246854D01*
X176625Y246177D01*
X177177Y245625D01*
X177471Y245455D01*
Y244634D01*
X172397Y239559D01*
X171921Y239610D01*
X171746Y240048D01*
X171875Y240177D01*
X172266Y240854D01*
X172468Y241609D01*
Y242391D01*
X172266Y243146D01*
X171875Y243823D01*
X171323Y244375D01*
X170646Y244766D01*
X169891Y244969D01*
X169109D01*
X168354Y244766D01*
X167677Y244375D01*
X167125Y243823D01*
X166955Y243529D01*
X146112D01*
X145921Y243991D01*
X145991Y244061D01*
X146382Y244738D01*
X146584Y245493D01*
Y246275D01*
X146382Y247030D01*
X145991Y247707D01*
X145439Y248260D01*
X144762Y248650D01*
X144007Y248853D01*
X143225D01*
X142470Y248650D01*
X142344Y248577D01*
X141914Y248907D01*
X141969Y249109D01*
Y249891D01*
X141766Y250646D01*
X141375Y251323D01*
X141025Y251673D01*
X141066Y252250D01*
X141089Y252287D01*
X141464Y252503D01*
X141565Y252591D01*
X141675Y252665D01*
X142262Y253252D01*
X142336Y253363D01*
X142424Y253463D01*
X142839Y254181D01*
X142881Y254307D01*
X142940Y254427D01*
X143155Y255228D01*
X143164Y255361D01*
X143190Y255492D01*
Y265355D01*
X143112Y265745D01*
X142891Y266076D01*
X142560Y266297D01*
X142170Y266375D01*
X135871Y266375D01*
X135481Y266297D01*
X135150Y266076D01*
X134929Y265745D01*
X134851Y265355D01*
X134851Y255492D01*
X134877Y255361D01*
X134886Y255228D01*
X135101Y254427D01*
X135160Y254307D01*
X135203Y254181D01*
X135617Y253463D01*
X135705Y253363D01*
X135779Y253252D01*
X136366Y252665D01*
X136477Y252591D01*
X136577Y252503D01*
X136923Y252303D01*
X136959Y252243D01*
X136989Y251688D01*
X136625Y251323D01*
X136234Y250646D01*
X136031Y249891D01*
Y249109D01*
X136234Y248354D01*
X136570Y247773D01*
X136393Y247272D01*
X121890D01*
X120529Y248634D01*
Y252001D01*
X120620Y252046D01*
X120746Y252089D01*
X121464Y252503D01*
X121565Y252591D01*
X121676Y252665D01*
X122262Y253252D01*
X122336Y253363D01*
X122424Y253463D01*
X122839Y254181D01*
X122881Y254307D01*
X122940Y254427D01*
X123155Y255228D01*
X123164Y255361D01*
X123190Y255492D01*
Y255907D01*
X123190Y255907D01*
Y265355D01*
X123112Y265745D01*
X122891Y266076D01*
X122560Y266297D01*
X122170Y266375D01*
X115871D01*
X115481Y266297D01*
X115150Y266076D01*
X114929Y265745D01*
X114851Y265355D01*
Y255492D01*
X114877Y255361D01*
X114886Y255228D01*
X115101Y254427D01*
X115160Y254307D01*
X115203Y254181D01*
X115617Y253463D01*
X115705Y253363D01*
X115779Y253252D01*
X116366Y252665D01*
X116477Y252591D01*
X116577Y252503D01*
X117295Y252089D01*
X117421Y252046D01*
X117471Y252021D01*
Y248000D01*
X117587Y247415D01*
X117919Y246919D01*
X120176Y244662D01*
X120672Y244330D01*
X121257Y244214D01*
X140880D01*
X141005Y244029D01*
X140740Y243529D01*
X95634D01*
X91881Y247282D01*
X91969Y247609D01*
Y248391D01*
X91766Y249146D01*
X91375Y249823D01*
X90823Y250375D01*
X90529Y250545D01*
Y252001D01*
X90620Y252046D01*
X90746Y252089D01*
X91464Y252503D01*
X91565Y252591D01*
X91676Y252665D01*
X92262Y253252D01*
X92336Y253363D01*
X92424Y253463D01*
X92839Y254181D01*
X92881Y254307D01*
X92940Y254427D01*
X93155Y255228D01*
X93164Y255361D01*
X93190Y255492D01*
X93190Y265355D01*
X93112Y265745D01*
X92891Y266076D01*
X92560Y266297D01*
X92170Y266375D01*
X85871Y266375D01*
X85481Y266297D01*
X85150Y266076D01*
X84929Y265745D01*
X84851Y265355D01*
Y255907D01*
X84851Y255907D01*
Y255492D01*
X84877Y255361D01*
X84886Y255228D01*
X85101Y254427D01*
X85160Y254307D01*
X85203Y254181D01*
X85617Y253463D01*
X85705Y253363D01*
X85779Y253252D01*
X86366Y252665D01*
X86477Y252591D01*
X86577Y252503D01*
X87295Y252089D01*
X87421Y252046D01*
X87471Y252021D01*
Y250545D01*
X87177Y250375D01*
X86625Y249823D01*
X86234Y249146D01*
X86032Y248391D01*
Y247609D01*
X86234Y246854D01*
X86625Y246177D01*
X87177Y245625D01*
X87854Y245234D01*
X88609Y245031D01*
X89391D01*
X89718Y245119D01*
X93919Y240919D01*
X94415Y240587D01*
X95000Y240471D01*
X166955D01*
X167125Y240177D01*
X167272Y240029D01*
X167065Y239529D01*
X62469D01*
X60613Y241385D01*
Y249468D01*
Y252042D01*
X60620Y252046D01*
X60746Y252089D01*
X61464Y252503D01*
X61564Y252591D01*
X61676Y252665D01*
X62262Y253252D01*
X62336Y253363D01*
X62424Y253463D01*
X62839Y254181D01*
X62881Y254307D01*
X62940Y254427D01*
X63155Y255228D01*
X63164Y255361D01*
X63190Y255492D01*
Y265355D01*
X63112Y265745D01*
X62891Y266076D01*
X62560Y266297D01*
X62170Y266375D01*
X55871Y266375D01*
X55481Y266297D01*
X55150Y266076D01*
X54929Y265745D01*
X54851Y265355D01*
Y255907D01*
X54851Y255492D01*
X54877Y255361D01*
X54886Y255228D01*
X55101Y254427D01*
X55160Y254307D01*
X55203Y254181D01*
X55617Y253463D01*
X55705Y253363D01*
X55779Y253252D01*
X56366Y252665D01*
X56477Y252591D01*
X56577Y252503D01*
X57295Y252089D01*
X57421Y252046D01*
X57541Y251987D01*
X57554Y251983D01*
Y249805D01*
X57471Y249385D01*
X57554Y248965D01*
Y240752D01*
X57671Y240167D01*
X58002Y239670D01*
X60308Y237365D01*
X60101Y236865D01*
X43835D01*
X43250Y236748D01*
X42754Y236417D01*
X26419Y220081D01*
X26087Y219585D01*
X25971Y219000D01*
Y213342D01*
X10010Y197381D01*
X9683Y197468D01*
X8901D01*
X8146Y197266D01*
X7469Y196875D01*
X6916Y196323D01*
X6526Y195646D01*
X6323Y194891D01*
Y194109D01*
X6526Y193354D01*
X6916Y192677D01*
X7469Y192125D01*
X7554Y192076D01*
Y189814D01*
X7541Y189811D01*
X7421Y189752D01*
X7295Y189709D01*
X6577Y189294D01*
X6477Y189206D01*
X6366Y189132D01*
X5779Y188546D01*
X5705Y188435D01*
X5617Y188335D01*
X5203Y187616D01*
X5160Y187490D01*
X5101Y187370D01*
X4886Y186569D01*
X4877Y186436D01*
X4851Y186305D01*
X4851Y185891D01*
Y176442D01*
X4929Y176052D01*
X5150Y175721D01*
X5481Y175500D01*
X5871Y175422D01*
X12170D01*
X12560Y175500D01*
X12891Y175721D01*
X13112Y176052D01*
X13190Y176442D01*
Y186305D01*
X13164Y186436D01*
X13155Y186569D01*
X12940Y187370D01*
X12881Y187490D01*
X12839Y187616D01*
X12424Y188335D01*
X12336Y188435D01*
X12262Y188546D01*
X11676Y189132D01*
X11564Y189206D01*
X11464Y189294D01*
X10746Y189709D01*
X10620Y189752D01*
X10613Y189755D01*
Y191835D01*
X11114Y192125D01*
X11667Y192677D01*
X12058Y193354D01*
X12260Y194109D01*
Y194891D01*
X12173Y195218D01*
X28471Y211516D01*
X28908Y211379D01*
X28971Y211331D01*
Y210633D01*
X17919Y199581D01*
X17587Y199085D01*
X17471Y198500D01*
Y197045D01*
X17177Y196875D01*
X16625Y196323D01*
X16234Y195646D01*
X16032Y194891D01*
Y194109D01*
X16234Y193354D01*
X16625Y192677D01*
X17177Y192125D01*
X17554Y191907D01*
Y189814D01*
X17541Y189811D01*
X17421Y189752D01*
X17295Y189709D01*
X16577Y189294D01*
X16477Y189206D01*
X16366Y189132D01*
X15779Y188546D01*
X15705Y188435D01*
X15617Y188334D01*
X15203Y187616D01*
X15160Y187490D01*
X15101Y187370D01*
X14886Y186569D01*
X14877Y186436D01*
X14851Y186305D01*
Y185891D01*
X14851Y185891D01*
Y176442D01*
X14929Y176052D01*
X15150Y175721D01*
X15481Y175500D01*
X15871Y175422D01*
X22170Y175422D01*
X22560Y175500D01*
X22891Y175721D01*
X23112Y176052D01*
X23190Y176442D01*
X23190Y186305D01*
X23164Y186436D01*
X23155Y186569D01*
X22940Y187370D01*
X22881Y187490D01*
X22839Y187616D01*
X22424Y188334D01*
X22336Y188435D01*
X22262Y188546D01*
X21676Y189132D01*
X21565Y189206D01*
X21464Y189294D01*
X20746Y189709D01*
X20620Y189752D01*
X20613Y189755D01*
Y192004D01*
X20823Y192125D01*
X21375Y192677D01*
X21766Y193354D01*
X21969Y194109D01*
Y194891D01*
X21766Y195646D01*
X21375Y196323D01*
X20823Y196875D01*
X20529Y197045D01*
Y197866D01*
X30862Y208199D01*
X31454Y208084D01*
X31731Y207669D01*
X32355Y207252D01*
X33091Y207105D01*
X37225D01*
X37960Y207252D01*
X38584Y207669D01*
X39001Y208293D01*
X39147Y209028D01*
Y213162D01*
X39001Y213898D01*
X38584Y214522D01*
X37960Y214939D01*
X37225Y215085D01*
X33091D01*
X32529Y214973D01*
X32029Y215277D01*
Y217367D01*
X45134Y230471D01*
X184270D01*
X184856Y230587D01*
X185352Y230919D01*
X189972Y235539D01*
X190083Y235524D01*
X190482Y234965D01*
X190471Y234910D01*
Y212500D01*
X190587Y211915D01*
X190919Y211419D01*
X192520Y209817D01*
X193016Y209486D01*
X193601Y209369D01*
X194220D01*
X194254Y209299D01*
X194297Y209173D01*
X194712Y208455D01*
X194800Y208355D01*
X194874Y208244D01*
X195460Y207657D01*
X195571Y207583D01*
X195671Y207495D01*
X196390Y207081D01*
X196516Y207038D01*
X196635Y206979D01*
X197437Y206764D01*
X197570Y206755D01*
X197700Y206729D01*
X207564D01*
X207954Y206807D01*
X208285Y207028D01*
X208506Y207359D01*
X208583Y207749D01*
X208583Y214048D01*
X208506Y214438D01*
X208285Y214769D01*
X207954Y214990D01*
X207564Y215068D01*
X197700Y215068D01*
X197570Y215042D01*
X197436Y215033D01*
X196635Y214818D01*
X196516Y214759D01*
X196390Y214717D01*
X195671Y214302D01*
X195571Y214214D01*
X195460Y214140D01*
X194874Y213554D01*
X194800Y213443D01*
X194712Y213342D01*
X194461Y212909D01*
X193897Y212814D01*
X193529Y213146D01*
Y229972D01*
X194029Y230038D01*
X194195Y229419D01*
X194254Y229299D01*
X194297Y229173D01*
X194712Y228455D01*
X194800Y228355D01*
X194874Y228244D01*
X195460Y227657D01*
X195571Y227583D01*
X195671Y227495D01*
X196390Y227081D01*
X196516Y227038D01*
X196635Y226979D01*
X197437Y226764D01*
X197570Y226755D01*
X197700Y226729D01*
X207564Y226729D01*
X207954Y226807D01*
X208285Y227028D01*
X208506Y227359D01*
X208583Y227749D01*
Y229369D01*
X212399D01*
X212984Y229486D01*
X213480Y229817D01*
X300582Y316919D01*
X300913Y317415D01*
X301029Y318000D01*
Y332821D01*
X301990Y333219D01*
X303021Y334010D01*
X303813Y335042D01*
X304310Y336243D01*
X304480Y337531D01*
Y341469D01*
X304310Y342757D01*
X303813Y343958D01*
X303021Y344990D01*
X301990Y345781D01*
X300789Y346278D01*
X299500Y346448D01*
D02*
G37*
G36*
X211712D02*
X210423Y346278D01*
X209222Y345781D01*
X208190Y344990D01*
X207399Y343958D01*
X206982Y342952D01*
X206441D01*
X206024Y343958D01*
X205233Y344990D01*
X204201Y345781D01*
X203000Y346278D01*
X201712Y346448D01*
X200423Y346278D01*
X199222Y345781D01*
X198190Y344990D01*
X197399Y343958D01*
X196982Y342952D01*
X196441D01*
X196024Y343958D01*
X195233Y344990D01*
X194201Y345781D01*
X193000Y346278D01*
X191712Y346448D01*
X190423Y346278D01*
X189222Y345781D01*
X188190Y344990D01*
X187399Y343958D01*
X186982Y342952D01*
X186441D01*
X186024Y343958D01*
X185233Y344990D01*
X184201Y345781D01*
X183000Y346278D01*
X181712Y346448D01*
X180423Y346278D01*
X179222Y345781D01*
X178191Y344990D01*
X177399Y343958D01*
X176982Y342952D01*
X176441D01*
X176024Y343958D01*
X175233Y344990D01*
X174201Y345781D01*
X173001Y346278D01*
X171712Y346448D01*
X170423Y346278D01*
X169222Y345781D01*
X168191Y344990D01*
X167399Y343958D01*
X166982Y342952D01*
X166441D01*
X166024Y343958D01*
X165233Y344990D01*
X164201Y345781D01*
X163000Y346278D01*
X161712Y346448D01*
X160423Y346278D01*
X159222Y345781D01*
X158191Y344990D01*
X157399Y343958D01*
X156982Y342952D01*
X156441D01*
X156024Y343958D01*
X155233Y344990D01*
X154201Y345781D01*
X153000Y346278D01*
X151712Y346448D01*
X150423Y346278D01*
X149222Y345781D01*
X148190Y344990D01*
X147399Y343958D01*
X146982Y342952D01*
X146441D01*
X146024Y343958D01*
X145233Y344990D01*
X144201Y345781D01*
X143000Y346278D01*
X141712Y346448D01*
X140423Y346278D01*
X139222Y345781D01*
X138190Y344990D01*
X137399Y343958D01*
X136902Y342757D01*
X136732Y341469D01*
Y337531D01*
X136902Y336243D01*
X137399Y335042D01*
X138190Y334010D01*
X139222Y333219D01*
X140423Y332722D01*
X141712Y332552D01*
X143000Y332722D01*
X144201Y333219D01*
X145233Y334010D01*
X146024Y335042D01*
X146441Y336048D01*
X146982D01*
X147399Y335042D01*
X148190Y334010D01*
X149222Y333219D01*
X150423Y332722D01*
X151712Y332552D01*
X153000Y332722D01*
X154201Y333219D01*
X155233Y334010D01*
X156024Y335042D01*
X156441Y336048D01*
X156982D01*
X157399Y335042D01*
X158191Y334010D01*
X159222Y333219D01*
X160423Y332722D01*
X161712Y332552D01*
X163000Y332722D01*
X164201Y333219D01*
X165233Y334010D01*
X166024Y335042D01*
X166441Y336048D01*
X166982D01*
X167399Y335042D01*
X168191Y334010D01*
X169222Y333219D01*
X170423Y332722D01*
X171712Y332552D01*
X173001Y332722D01*
X174201Y333219D01*
X175233Y334010D01*
X176024Y335042D01*
X176441Y336048D01*
X176982D01*
X177399Y335042D01*
X178191Y334010D01*
X179222Y333219D01*
X180423Y332722D01*
X180471Y332715D01*
Y323634D01*
X177218Y320381D01*
X176891Y320468D01*
X176109D01*
X175354Y320266D01*
X174677Y319875D01*
X174125Y319323D01*
X173734Y318646D01*
X173531Y317891D01*
Y317109D01*
X173734Y316354D01*
X174125Y315677D01*
X174677Y315125D01*
X175354Y314734D01*
X176109Y314531D01*
X176891D01*
X177646Y314734D01*
X178323Y315125D01*
X178875Y315677D01*
X179266Y316354D01*
X179469Y317109D01*
Y317891D01*
X179381Y318218D01*
X183081Y321919D01*
X183413Y322415D01*
X183529Y323000D01*
Y332941D01*
X184201Y333219D01*
X185233Y334010D01*
X186024Y335042D01*
X186441Y336048D01*
X186982D01*
X187399Y335042D01*
X188190Y334010D01*
X189222Y333219D01*
X190182Y332821D01*
Y322845D01*
X179367Y312029D01*
X178045D01*
X177875Y312323D01*
X177323Y312875D01*
X176646Y313266D01*
X175891Y313469D01*
X175109D01*
X174354Y313266D01*
X173677Y312875D01*
X173125Y312323D01*
X172734Y311646D01*
X172531Y310891D01*
Y310109D01*
X172734Y309354D01*
X173125Y308677D01*
X173677Y308125D01*
X174354Y307734D01*
X175109Y307531D01*
X175891D01*
X176646Y307734D01*
X177323Y308125D01*
X177875Y308677D01*
X178045Y308971D01*
X180000D01*
X180585Y309087D01*
X181081Y309419D01*
X192793Y321130D01*
X193125Y321626D01*
X193241Y322212D01*
Y332821D01*
X194201Y333219D01*
X195233Y334010D01*
X196024Y335042D01*
X196441Y336048D01*
X196982D01*
X197399Y335042D01*
X198190Y334010D01*
X199222Y333219D01*
X200423Y332722D01*
X201712Y332552D01*
X203000Y332722D01*
X204201Y333219D01*
X205233Y334010D01*
X206024Y335042D01*
X206441Y336048D01*
X206982D01*
X207399Y335042D01*
X208190Y334010D01*
X209222Y333219D01*
X210423Y332722D01*
X211712Y332552D01*
X213000Y332722D01*
X214201Y333219D01*
X215233Y334010D01*
X216024Y335042D01*
X216522Y336243D01*
X216691Y337531D01*
Y341469D01*
X216522Y342757D01*
X216024Y343958D01*
X215233Y344990D01*
X214201Y345781D01*
X213000Y346278D01*
X211712Y346448D01*
D02*
G37*
G36*
X113923D02*
X112634Y346278D01*
X111433Y345781D01*
X110402Y344990D01*
X109611Y343958D01*
X109194Y342952D01*
X108653D01*
X108236Y343958D01*
X107444Y344990D01*
X106413Y345781D01*
X105212Y346278D01*
X103923Y346448D01*
X102634Y346278D01*
X101433Y345781D01*
X100402Y344990D01*
X99611Y343958D01*
X99194Y342952D01*
X98653D01*
X98236Y343958D01*
X97444Y344990D01*
X96413Y345781D01*
X95212Y346278D01*
X93923Y346448D01*
X92634Y346278D01*
X91433Y345781D01*
X90402Y344990D01*
X89611Y343958D01*
X89194Y342952D01*
X88653D01*
X88236Y343958D01*
X87444Y344990D01*
X86413Y345781D01*
X85212Y346278D01*
X83923Y346448D01*
X82634Y346278D01*
X81433Y345781D01*
X80402Y344990D01*
X79611Y343958D01*
X79194Y342952D01*
X78653D01*
X78236Y343958D01*
X77444Y344990D01*
X76413Y345781D01*
X75212Y346278D01*
X73923Y346448D01*
X72634Y346278D01*
X71433Y345781D01*
X70402Y344990D01*
X69611Y343958D01*
X69194Y342952D01*
X68653D01*
X68236Y343958D01*
X67444Y344990D01*
X66413Y345781D01*
X65212Y346278D01*
X63923Y346448D01*
X62634Y346278D01*
X61433Y345781D01*
X60402Y344990D01*
X59611Y343958D01*
X59194Y342952D01*
X58653D01*
X58236Y343958D01*
X57444Y344990D01*
X56413Y345781D01*
X55212Y346278D01*
X53923Y346448D01*
X52634Y346278D01*
X51433Y345781D01*
X50402Y344990D01*
X49611Y343958D01*
X49113Y342757D01*
X48944Y341469D01*
Y337531D01*
X49113Y336243D01*
X49611Y335042D01*
X50402Y334010D01*
X51433Y333219D01*
X52634Y332722D01*
X53923Y332552D01*
X55212Y332722D01*
X56413Y333219D01*
X57444Y334010D01*
X58236Y335042D01*
X58653Y336048D01*
X59194D01*
X59611Y335042D01*
X60402Y334010D01*
X61433Y333219D01*
X62634Y332722D01*
X63923Y332552D01*
X65212Y332722D01*
X66413Y333219D01*
X67444Y334010D01*
X68236Y335042D01*
X68653Y336048D01*
X69194D01*
X69611Y335042D01*
X70402Y334010D01*
X71433Y333219D01*
X72394Y332821D01*
Y326577D01*
X72510Y325992D01*
X72842Y325495D01*
X87919Y310419D01*
X88415Y310087D01*
X89000Y309971D01*
X92455D01*
X92625Y309677D01*
X93177Y309125D01*
X93854Y308734D01*
X94609Y308531D01*
X95391D01*
X96146Y308734D01*
X96823Y309125D01*
X97375Y309677D01*
X97766Y310354D01*
X97969Y311109D01*
Y311891D01*
X97766Y312646D01*
X97468Y313162D01*
X97869Y313469D01*
X99119Y312218D01*
X99032Y311891D01*
Y311109D01*
X99234Y310354D01*
X99625Y309677D01*
X100177Y309125D01*
X100854Y308734D01*
X101609Y308531D01*
X102391D01*
X103146Y308734D01*
X103823Y309125D01*
X104375Y309677D01*
X104766Y310354D01*
X104969Y311109D01*
Y311662D01*
X105468Y311869D01*
X110919Y306419D01*
X111415Y306087D01*
X112000Y305971D01*
X123866D01*
X131471Y298366D01*
Y295191D01*
X131370Y294732D01*
X130971Y294732D01*
X125630D01*
Y293588D01*
X123169D01*
X122852Y293905D01*
X122175Y294296D01*
X121420Y294498D01*
X120639D01*
X119884Y294296D01*
X119207Y293905D01*
X118654Y293352D01*
X118263Y292675D01*
X118061Y291920D01*
Y291139D01*
X118263Y290384D01*
X118654Y289707D01*
X119207Y289154D01*
X119884Y288763D01*
X120639Y288561D01*
X121420D01*
X122175Y288763D01*
X122852Y289154D01*
X123405Y289707D01*
X123796Y290384D01*
X123835Y290530D01*
X125630D01*
Y284268D01*
X126971D01*
Y282633D01*
X126366Y282029D01*
X122477D01*
X122323Y282806D01*
X121797Y283592D01*
X121010Y284118D01*
X120083Y284302D01*
X114571D01*
X113643Y284118D01*
X112856Y283592D01*
X112331Y282806D01*
X112177Y282029D01*
X86650D01*
X86496Y282806D01*
X85970Y283592D01*
X85184Y284118D01*
X84256Y284302D01*
X78744D01*
X77816Y284118D01*
X77030Y283592D01*
X76504Y282806D01*
X76350Y282029D01*
X72687D01*
X71997Y282719D01*
Y283571D01*
X73436D01*
Y289114D01*
X67499D01*
Y283571D01*
X68938D01*
Y282086D01*
X69054Y281501D01*
X69386Y281004D01*
X70972Y279419D01*
X71468Y279087D01*
X72053Y278971D01*
X76350D01*
X76504Y278194D01*
X77030Y277408D01*
X77816Y276882D01*
X78744Y276697D01*
X84256D01*
X85184Y276882D01*
X85970Y277408D01*
X86496Y278194D01*
X86650Y278971D01*
X107554D01*
Y266375D01*
X105871D01*
X105481Y266297D01*
X105150Y266076D01*
X104929Y265745D01*
X104851Y265355D01*
Y255907D01*
X104851Y255907D01*
Y255492D01*
X104877Y255361D01*
X104886Y255228D01*
X105101Y254427D01*
X105160Y254307D01*
X105203Y254181D01*
X105617Y253463D01*
X105705Y253363D01*
X105779Y253252D01*
X106366Y252665D01*
X106477Y252591D01*
X106577Y252503D01*
X107295Y252089D01*
X107421Y252046D01*
X107541Y251987D01*
X108342Y251772D01*
X108475Y251763D01*
X108606Y251737D01*
X109435D01*
X109566Y251763D01*
X109699Y251772D01*
X110500Y251987D01*
X110620Y252046D01*
X110746Y252089D01*
X111464Y252503D01*
X111565Y252591D01*
X111676Y252665D01*
X112262Y253252D01*
X112336Y253363D01*
X112424Y253463D01*
X112839Y254181D01*
X112881Y254307D01*
X112940Y254427D01*
X113155Y255228D01*
X113164Y255361D01*
X113190Y255492D01*
X113190Y265355D01*
X113112Y265745D01*
X112891Y266076D01*
X112560Y266297D01*
X112170Y266375D01*
X110613D01*
Y278971D01*
X112177D01*
X112331Y278194D01*
X112856Y277408D01*
X113643Y276882D01*
X114571Y276697D01*
X120083D01*
X121010Y276882D01*
X121797Y277408D01*
X122323Y278194D01*
X122477Y278971D01*
X127000D01*
X127585Y279087D01*
X128081Y279419D01*
X129581Y280919D01*
X129913Y281415D01*
X130029Y282000D01*
Y283914D01*
X130383Y284268D01*
X131370Y284268D01*
X131471Y283809D01*
Y280030D01*
X131391Y279969D01*
X130609D01*
X129854Y279766D01*
X129177Y279375D01*
X128625Y278823D01*
X128234Y278146D01*
X128032Y277391D01*
Y276609D01*
X128234Y275854D01*
X128625Y275177D01*
X129177Y274625D01*
X129854Y274234D01*
X130609Y274031D01*
X131391D01*
X132146Y274234D01*
X132823Y274625D01*
X133375Y275177D01*
X133732Y275795D01*
X134000Y275829D01*
X134268Y275795D01*
X134625Y275177D01*
X135177Y274625D01*
X135854Y274234D01*
X136609Y274031D01*
X137391D01*
X138146Y274234D01*
X138823Y274625D01*
X139375Y275177D01*
X139732Y275795D01*
X140000Y275829D01*
X140268Y275795D01*
X140625Y275177D01*
X141177Y274625D01*
X141854Y274234D01*
X142609Y274031D01*
X143391D01*
X144146Y274234D01*
X144823Y274625D01*
X145375Y275177D01*
X145766Y275854D01*
X145968Y276609D01*
Y277391D01*
X145766Y278146D01*
X145375Y278823D01*
X144823Y279375D01*
X144146Y279766D01*
X143391Y279969D01*
X142609D01*
X142282Y279881D01*
X141529Y280633D01*
Y298140D01*
X141413Y298725D01*
X141081Y299221D01*
X138001Y302301D01*
X138285Y302725D01*
X138468Y302649D01*
X139500Y302513D01*
X140532Y302649D01*
X141493Y303047D01*
X142319Y303681D01*
X142953Y304507D01*
X143145Y304971D01*
X147133D01*
X147421Y304471D01*
X147234Y304146D01*
X147031Y303391D01*
Y302609D01*
X147234Y301854D01*
X147625Y301177D01*
X147932Y300870D01*
X147725Y300370D01*
X147209D01*
Y294630D01*
X153471D01*
Y293370D01*
X152327D01*
Y287630D01*
X157673D01*
Y288971D01*
X158000D01*
X158585Y289087D01*
X159081Y289419D01*
X160193Y290530D01*
X161496D01*
Y290370D01*
X166842D01*
Y293748D01*
X165699D01*
Y297031D01*
X166772D01*
Y302969D01*
X161228D01*
Y297031D01*
X162640D01*
Y293748D01*
X161496D01*
Y293588D01*
X159559D01*
X158974Y293472D01*
X158478Y293140D01*
X158135Y292798D01*
X157673Y292989D01*
Y293370D01*
X156529D01*
Y294630D01*
X157673D01*
Y300370D01*
X156529D01*
Y304000D01*
X156413Y304585D01*
X156081Y305081D01*
X153581Y307581D01*
X153085Y307913D01*
X152500Y308029D01*
X143145D01*
X142953Y308493D01*
X142319Y309319D01*
X141493Y309953D01*
X140532Y310351D01*
X139500Y310487D01*
X138468Y310351D01*
X137507Y309953D01*
X136681Y309319D01*
X136047Y308493D01*
X135649Y307532D01*
X135513Y306500D01*
X135649Y305468D01*
X135725Y305285D01*
X135301Y305001D01*
X115453Y324850D01*
Y332821D01*
X116413Y333219D01*
X117444Y334010D01*
X118236Y335042D01*
X118653Y336048D01*
X119194D01*
X119611Y335042D01*
X120402Y334010D01*
X121433Y333219D01*
X122634Y332722D01*
X123423Y332618D01*
Y339500D01*
Y346382D01*
X122634Y346278D01*
X121433Y345781D01*
X120402Y344990D01*
X119611Y343958D01*
X119194Y342952D01*
X118653D01*
X118236Y343958D01*
X117444Y344990D01*
X116413Y345781D01*
X115212Y346278D01*
X113923Y346448D01*
D02*
G37*
G36*
X124423Y346382D02*
Y340000D01*
X128903D01*
Y341469D01*
X128733Y342757D01*
X128236Y343958D01*
X127444Y344990D01*
X126413Y345781D01*
X125212Y346278D01*
X124423Y346382D01*
D02*
G37*
G36*
X335511Y345646D02*
X335146D01*
Y335146D01*
X345646D01*
Y335511D01*
X345375Y337222D01*
X344840Y338868D01*
X344054Y340411D01*
X343036Y341812D01*
X341812Y343036D01*
X340411Y344054D01*
X338868Y344840D01*
X337222Y345375D01*
X335511Y345646D01*
D02*
G37*
G36*
X334146D02*
X333780D01*
X332070Y345375D01*
X330423Y344840D01*
X328880Y344054D01*
X327480Y343036D01*
X326255Y341812D01*
X325238Y340411D01*
X324452Y338868D01*
X323917Y337222D01*
X323646Y335511D01*
Y335146D01*
X334146D01*
Y345646D01*
D02*
G37*
G36*
X20551D02*
X20185D01*
Y335146D01*
X30685D01*
Y335511D01*
X30414Y337222D01*
X29879Y338868D01*
X29093Y340411D01*
X28075Y341812D01*
X26851Y343036D01*
X25450Y344054D01*
X23908Y344840D01*
X22261Y345375D01*
X20551Y345646D01*
D02*
G37*
G36*
X19185D02*
X18819D01*
X17109Y345375D01*
X15462Y344840D01*
X13920Y344054D01*
X12519Y343036D01*
X11295Y341812D01*
X10277Y340411D01*
X9491Y338868D01*
X8956Y337222D01*
X8685Y335511D01*
Y335146D01*
X19185D01*
Y345646D01*
D02*
G37*
G36*
X128903Y339000D02*
X124423D01*
Y332618D01*
X125212Y332722D01*
X126413Y333219D01*
X127444Y334010D01*
X128236Y335042D01*
X128733Y336243D01*
X128903Y337531D01*
Y339000D01*
D02*
G37*
G36*
X345646Y334146D02*
X335146D01*
Y323646D01*
X335511D01*
X337222Y323917D01*
X338868Y324452D01*
X340411Y325238D01*
X341812Y326255D01*
X343036Y327480D01*
X344054Y328880D01*
X344840Y330423D01*
X345375Y332070D01*
X345646Y333780D01*
Y334146D01*
D02*
G37*
G36*
X334146D02*
X323646D01*
Y333780D01*
X323917Y332070D01*
X324452Y330423D01*
X325238Y328880D01*
X326255Y327480D01*
X327480Y326255D01*
X328880Y325238D01*
X330423Y324452D01*
X332070Y323917D01*
X333780Y323646D01*
X334146D01*
Y334146D01*
D02*
G37*
G36*
X30685D02*
X20185D01*
Y323646D01*
X20551D01*
X22261Y323917D01*
X23908Y324452D01*
X25450Y325238D01*
X26851Y326255D01*
X28075Y327480D01*
X29093Y328880D01*
X29879Y330423D01*
X30414Y332070D01*
X30685Y333780D01*
Y334146D01*
D02*
G37*
G36*
X19185D02*
X8685D01*
Y333780D01*
X8956Y332070D01*
X9491Y330423D01*
X10277Y328880D01*
X11295Y327480D01*
X12519Y326255D01*
X13920Y325238D01*
X15462Y324452D01*
X17109Y323917D01*
X18819Y323646D01*
X19185D01*
Y334146D01*
D02*
G37*
G36*
X334000Y312987D02*
X332968Y312851D01*
X332007Y312453D01*
X331181Y311819D01*
X330547Y310993D01*
X330355Y310529D01*
X315063D01*
X314478Y310413D01*
X313982Y310081D01*
X287401Y283501D01*
X287268Y283578D01*
X286163Y283874D01*
X285018D01*
X283913Y283578D01*
X282922Y283006D01*
X282113Y282196D01*
X281540Y281205D01*
X281244Y280100D01*
Y278955D01*
X281540Y277850D01*
X282113Y276859D01*
X282922Y276049D01*
X283913Y275477D01*
X285018Y275181D01*
X286163D01*
X287268Y275477D01*
X288259Y276049D01*
X289069Y276859D01*
X289641Y277850D01*
X289937Y278955D01*
Y280100D01*
X289641Y281205D01*
X289564Y281338D01*
X315697Y307471D01*
X330355D01*
X330547Y307007D01*
X331181Y306181D01*
X332007Y305547D01*
X332968Y305149D01*
X334000Y305013D01*
X335032Y305149D01*
X335993Y305547D01*
X336819Y306181D01*
X337453Y307007D01*
X337851Y307968D01*
X337987Y309000D01*
X337851Y310032D01*
X337453Y310993D01*
X336819Y311819D01*
X335993Y312453D01*
X335032Y312851D01*
X334000Y312987D01*
D02*
G37*
G36*
Y301987D02*
X332968Y301851D01*
X332007Y301453D01*
X331181Y300819D01*
X330547Y299993D01*
X330355Y299529D01*
X314063D01*
X313478Y299413D01*
X312982Y299081D01*
X297401Y283501D01*
X297268Y283578D01*
X296163Y283874D01*
X295018D01*
X293913Y283578D01*
X292922Y283006D01*
X292112Y282196D01*
X291540Y281205D01*
X291244Y280100D01*
Y278955D01*
X291540Y277850D01*
X292112Y276859D01*
X292922Y276049D01*
X293913Y275477D01*
X295018Y275181D01*
X296163D01*
X297268Y275477D01*
X298259Y276049D01*
X299069Y276859D01*
X299641Y277850D01*
X299937Y278955D01*
Y280100D01*
X299641Y281205D01*
X299564Y281338D01*
X314697Y296471D01*
X330355D01*
X330547Y296007D01*
X331181Y295181D01*
X332007Y294547D01*
X332968Y294149D01*
X334000Y294013D01*
X335032Y294149D01*
X335993Y294547D01*
X336819Y295181D01*
X337453Y296007D01*
X337851Y296968D01*
X337987Y298000D01*
X337851Y299032D01*
X337453Y299993D01*
X336819Y300819D01*
X335993Y301453D01*
X335032Y301851D01*
X334000Y301987D01*
D02*
G37*
G36*
X180405Y305971D02*
X179623D01*
X178868Y305769D01*
X178191Y305378D01*
X177639Y304826D01*
X177248Y304149D01*
X177046Y303394D01*
Y302612D01*
X177248Y301857D01*
X177639Y301180D01*
X178191Y300627D01*
X178471Y300466D01*
Y294929D01*
X177032D01*
Y293588D01*
X175504D01*
Y293748D01*
X170158D01*
Y290370D01*
X175504D01*
Y290530D01*
X177032D01*
Y289386D01*
X182968D01*
Y294929D01*
X181529D01*
Y300450D01*
X181837Y300627D01*
X182390Y301180D01*
X182780Y301857D01*
X182983Y302612D01*
Y303394D01*
X182780Y304149D01*
X182390Y304826D01*
X181837Y305378D01*
X181160Y305769D01*
X180405Y305971D01*
D02*
G37*
G36*
X65370Y294232D02*
X59630D01*
Y293088D01*
X56454D01*
X56146Y293266D01*
X55391Y293468D01*
X54609D01*
X53854Y293266D01*
X53177Y292875D01*
X52625Y292323D01*
X52234Y291646D01*
X52031Y290891D01*
Y290109D01*
X52234Y289354D01*
X52625Y288677D01*
X53177Y288125D01*
X53854Y287734D01*
X54609Y287531D01*
X55391D01*
X56146Y287734D01*
X56823Y288125D01*
X57375Y288677D01*
X57766Y289354D01*
X57947Y290030D01*
X59630D01*
Y283768D01*
X60398D01*
X60605Y283268D01*
X58867Y281529D01*
X56564D01*
X56409Y282306D01*
X55884Y283092D01*
X55097Y283618D01*
X54169Y283803D01*
X48658D01*
X47730Y283618D01*
X46943Y283092D01*
X46417Y282306D01*
X46263Y281529D01*
X20737D01*
X20583Y282306D01*
X20057Y283092D01*
X19270Y283618D01*
X18342Y283803D01*
X12831D01*
X11903Y283618D01*
X11116Y283092D01*
X10654Y282401D01*
X10107Y282241D01*
X9498Y282850D01*
X9490Y282890D01*
X9158Y283387D01*
X8468Y284076D01*
Y288114D01*
X2531D01*
Y282571D01*
X5648D01*
X6656Y281563D01*
X6664Y281523D01*
X6995Y281027D01*
X9104Y278919D01*
X9600Y278587D01*
X10185Y278471D01*
X10436D01*
X10591Y277694D01*
X11116Y276908D01*
X11903Y276382D01*
X12831Y276198D01*
X18342D01*
X19270Y276382D01*
X20057Y276908D01*
X20583Y277694D01*
X20737Y278471D01*
X37554D01*
Y266375D01*
X35871D01*
X35481Y266297D01*
X35150Y266076D01*
X34929Y265745D01*
X34851Y265355D01*
Y255907D01*
X34851Y255492D01*
X34877Y255361D01*
X34886Y255228D01*
X35101Y254427D01*
X35160Y254307D01*
X35203Y254181D01*
X35617Y253463D01*
X35705Y253363D01*
X35779Y253252D01*
X36366Y252665D01*
X36477Y252591D01*
X36577Y252503D01*
X37295Y252089D01*
X37421Y252046D01*
X37541Y251987D01*
X38342Y251772D01*
X38475Y251763D01*
X38606Y251737D01*
X39435D01*
X39566Y251763D01*
X39699Y251772D01*
X40500Y251987D01*
X40620Y252046D01*
X40746Y252089D01*
X41464Y252503D01*
X41565Y252591D01*
X41675Y252665D01*
X42262Y253252D01*
X42336Y253363D01*
X42424Y253463D01*
X42839Y254181D01*
X42881Y254307D01*
X42940Y254427D01*
X43155Y255228D01*
X43164Y255361D01*
X43190Y255492D01*
Y265355D01*
X43112Y265745D01*
X42891Y266076D01*
X42560Y266297D01*
X42170Y266375D01*
X40613D01*
Y278471D01*
X46263D01*
X46417Y277694D01*
X46943Y276908D01*
X47730Y276382D01*
X48658Y276198D01*
X54169D01*
X55097Y276382D01*
X55884Y276908D01*
X56409Y277694D01*
X56564Y278471D01*
X59500D01*
X60085Y278587D01*
X60581Y278919D01*
X63581Y281919D01*
X63913Y282415D01*
X64029Y283000D01*
Y283768D01*
X65370D01*
Y288886D01*
Y294232D01*
D02*
G37*
G36*
X175504Y288630D02*
X170158D01*
Y287561D01*
X166842D01*
Y288630D01*
X161496D01*
Y285252D01*
X162640D01*
Y283803D01*
X161271Y282434D01*
X161053Y282477D01*
X160254D01*
X160241Y282526D01*
X159850Y283203D01*
X159297Y283755D01*
X158620Y284146D01*
X157865Y284348D01*
X157084D01*
X156329Y284146D01*
X155652Y283755D01*
X155099Y283203D01*
X154708Y282526D01*
X154506Y281771D01*
Y280989D01*
X154708Y280234D01*
X155099Y279557D01*
X155652Y279004D01*
X156329Y278614D01*
X157084Y278411D01*
X157865D01*
X158620Y278614D01*
X159297Y279004D01*
X159711Y279418D01*
X160419D01*
X160915Y279087D01*
X161500Y278971D01*
X162085Y279087D01*
X162581Y279419D01*
X165251Y282088D01*
X165582Y282584D01*
X165699Y283169D01*
Y284203D01*
X166063Y284502D01*
X170937D01*
X171301Y284203D01*
Y282464D01*
X166496Y277659D01*
X166032Y277851D01*
X165000Y277987D01*
X163968Y277851D01*
X163007Y277453D01*
X162181Y276819D01*
X161547Y275993D01*
X161149Y275032D01*
X161013Y274000D01*
X161149Y272968D01*
X161547Y272007D01*
X162181Y271181D01*
X163007Y270547D01*
X163968Y270149D01*
X165000Y270013D01*
X166032Y270149D01*
X166993Y270547D01*
X167819Y271181D01*
X168453Y272007D01*
X168851Y272968D01*
X168987Y274000D01*
X168851Y275032D01*
X168659Y275496D01*
X173912Y280749D01*
X174244Y281245D01*
X174360Y281831D01*
Y285252D01*
X175504D01*
Y288630D01*
D02*
G37*
G36*
X196000Y301987D02*
X194968Y301851D01*
X194007Y301453D01*
X193181Y300819D01*
X192547Y299993D01*
X192149Y299032D01*
X192013Y298000D01*
X192149Y296968D01*
X192547Y296007D01*
X193181Y295181D01*
X194007Y294547D01*
X194471Y294355D01*
Y290500D01*
X194587Y289915D01*
X194919Y289419D01*
X197919Y286419D01*
X198415Y286087D01*
X199000Y285971D01*
X200571D01*
Y284531D01*
X201809D01*
Y281748D01*
X200665D01*
Y281588D01*
X197732D01*
Y282870D01*
X191529D01*
Y288955D01*
X191823Y289125D01*
X192375Y289677D01*
X192766Y290354D01*
X192968Y291109D01*
Y291891D01*
X192766Y292646D01*
X192375Y293323D01*
X191823Y293875D01*
X191146Y294266D01*
X190391Y294468D01*
X189609D01*
X188854Y294266D01*
X188177Y293875D01*
X187625Y293323D01*
X187234Y292646D01*
X187031Y291891D01*
Y291109D01*
X187234Y290354D01*
X187625Y289677D01*
X188177Y289125D01*
X188471Y288955D01*
Y282870D01*
X187268D01*
Y277130D01*
X193530D01*
Y275870D01*
X192386D01*
Y270130D01*
X197732D01*
Y275870D01*
X196588D01*
Y277130D01*
X197732D01*
Y278530D01*
X200665D01*
Y278370D01*
X206012D01*
Y281748D01*
X204868D01*
Y284531D01*
X206114D01*
Y290469D01*
X200571D01*
Y289029D01*
X199634D01*
X197529Y291133D01*
Y294355D01*
X197993Y294547D01*
X198819Y295181D01*
X199453Y296007D01*
X199851Y296968D01*
X199987Y298000D01*
X199851Y299032D01*
X199453Y299993D01*
X198819Y300819D01*
X197993Y301453D01*
X197032Y301851D01*
X196000Y301987D01*
D02*
G37*
G36*
X228891Y282968D02*
X228109D01*
X227354Y282766D01*
X226677Y282375D01*
X226125Y281823D01*
X225955Y281529D01*
X222468D01*
Y282429D01*
X216531D01*
Y281588D01*
X214673D01*
Y281748D01*
X209327D01*
Y278370D01*
X214673D01*
Y278530D01*
X216531D01*
Y276886D01*
X222468D01*
Y278471D01*
X225955D01*
X226125Y278177D01*
X226677Y277625D01*
X227354Y277234D01*
X228109Y277031D01*
X228891D01*
X229646Y277234D01*
X230323Y277625D01*
X230875Y278177D01*
X231266Y278854D01*
X231469Y279609D01*
Y280391D01*
X231266Y281146D01*
X230875Y281823D01*
X230323Y282375D01*
X229646Y282766D01*
X228891Y282968D01*
D02*
G37*
G36*
X306163Y283874D02*
X306090D01*
Y280028D01*
X309937D01*
Y280100D01*
X309641Y281205D01*
X309069Y282196D01*
X308259Y283006D01*
X307268Y283578D01*
X306163Y283874D01*
D02*
G37*
G36*
X305090D02*
X305018D01*
X303913Y283578D01*
X302922Y283006D01*
X302113Y282196D01*
X301540Y281205D01*
X301244Y280100D01*
Y280028D01*
X305090D01*
Y283874D01*
D02*
G37*
G36*
X214673Y276630D02*
X209327D01*
Y275561D01*
X206012D01*
Y276630D01*
X200665D01*
Y273252D01*
X203849D01*
X204151Y272950D01*
X204647Y272619D01*
X205232Y272502D01*
X210106D01*
X210471Y272203D01*
Y268545D01*
X210177Y268375D01*
X209625Y267823D01*
X209234Y267146D01*
X209032Y266391D01*
Y265609D01*
X209234Y264854D01*
X209625Y264177D01*
X210177Y263625D01*
X210854Y263234D01*
X211609Y263032D01*
X212391D01*
X212718Y263119D01*
X214245Y261593D01*
X214135Y261006D01*
X214007Y260953D01*
X213181Y260319D01*
X212547Y259493D01*
X212149Y258532D01*
X212013Y257500D01*
X212149Y256468D01*
X212547Y255507D01*
X213181Y254681D01*
X214007Y254047D01*
X214968Y253649D01*
X216000Y253513D01*
X217032Y253649D01*
X217993Y254047D01*
X218819Y254681D01*
X219453Y255507D01*
X219851Y256468D01*
X219987Y257500D01*
X219851Y258532D01*
X219453Y259493D01*
X218819Y260319D01*
X217993Y260953D01*
X217529Y261145D01*
Y262000D01*
X217413Y262585D01*
X217081Y263081D01*
X214881Y265282D01*
X214968Y265609D01*
Y266391D01*
X214766Y267146D01*
X214375Y267823D01*
X213823Y268375D01*
X213529Y268545D01*
Y273252D01*
X214673D01*
Y276630D01*
D02*
G37*
G36*
X309937Y279028D02*
X306090D01*
Y275181D01*
X306163D01*
X307268Y275477D01*
X308259Y276049D01*
X309069Y276859D01*
X309641Y277850D01*
X309937Y278955D01*
Y279028D01*
D02*
G37*
G36*
X305090D02*
X301244D01*
Y278955D01*
X301540Y277850D01*
X302113Y276859D01*
X302922Y276049D01*
X303913Y275477D01*
X305018Y275181D01*
X305090D01*
Y279028D01*
D02*
G37*
G36*
X276163Y283874D02*
X275018D01*
X273913Y283578D01*
X272922Y283006D01*
X272112Y282196D01*
X271540Y281205D01*
X271244Y280100D01*
Y278955D01*
X271540Y277850D01*
X272112Y276859D01*
X272922Y276049D01*
X273913Y275477D01*
X275018Y275181D01*
X276163D01*
X277268Y275477D01*
X278259Y276049D01*
X279069Y276859D01*
X279641Y277850D01*
X279937Y278955D01*
Y280100D01*
X279641Y281205D01*
X279069Y282196D01*
X278259Y283006D01*
X277268Y283578D01*
X276163Y283874D01*
D02*
G37*
G36*
X329440Y286630D02*
X328041D01*
X326669Y286357D01*
X325376Y285822D01*
X324213Y285044D01*
X323223Y284055D01*
X322446Y282892D01*
X321911Y281599D01*
X321638Y280227D01*
Y278828D01*
X321911Y277456D01*
X322446Y276163D01*
X323223Y275000D01*
X324213Y274011D01*
X325376Y273234D01*
X326669Y272698D01*
X328041Y272425D01*
X329440D01*
X330812Y272698D01*
X332104Y273234D01*
X333268Y274011D01*
X334257Y275000D01*
X335034Y276163D01*
X335570Y277456D01*
X335842Y278828D01*
Y280227D01*
X335570Y281599D01*
X335034Y282892D01*
X334257Y284055D01*
X333268Y285044D01*
X332104Y285822D01*
X330812Y286357D01*
X329440Y286630D01*
D02*
G37*
G36*
X65500Y278487D02*
X64468Y278351D01*
X63507Y277953D01*
X62681Y277319D01*
X62047Y276493D01*
X61855Y276029D01*
X56000D01*
X55415Y275913D01*
X54919Y275581D01*
X48002Y268665D01*
X47671Y268169D01*
X47554Y267584D01*
Y266375D01*
X45871D01*
X45481Y266297D01*
X45150Y266076D01*
X44929Y265745D01*
X44851Y265355D01*
X44851Y255492D01*
X44877Y255361D01*
X44886Y255228D01*
X45101Y254427D01*
X45160Y254307D01*
X45203Y254181D01*
X45617Y253463D01*
X45705Y253363D01*
X45779Y253252D01*
X46366Y252665D01*
X46477Y252591D01*
X46577Y252503D01*
X47295Y252089D01*
X47421Y252046D01*
X47541Y251987D01*
X48342Y251772D01*
X48475Y251763D01*
X48606Y251737D01*
X49435D01*
X49566Y251763D01*
X49699Y251772D01*
X50500Y251987D01*
X50620Y252046D01*
X50746Y252089D01*
X51464Y252503D01*
X51565Y252591D01*
X51675Y252665D01*
X52262Y253252D01*
X52336Y253363D01*
X52424Y253463D01*
X52839Y254181D01*
X52881Y254307D01*
X52940Y254427D01*
X53155Y255228D01*
X53164Y255361D01*
X53190Y255492D01*
Y265355D01*
X53112Y265745D01*
X52891Y266076D01*
X52560Y266297D01*
X52170Y266375D01*
X50613D01*
Y266950D01*
X56634Y272971D01*
X61855D01*
X62047Y272507D01*
X62681Y271681D01*
X63507Y271047D01*
X64468Y270649D01*
X65500Y270513D01*
X66532Y270649D01*
X67493Y271047D01*
X68319Y271681D01*
X68953Y272507D01*
X69351Y273468D01*
X69487Y274500D01*
X69351Y275532D01*
X68953Y276493D01*
X68319Y277319D01*
X67493Y277953D01*
X66532Y278351D01*
X65500Y278487D01*
D02*
G37*
G36*
X5871Y266375D02*
X5481Y266297D01*
X5150Y266076D01*
X4929Y265745D01*
X4851Y265355D01*
Y255907D01*
X4851Y255907D01*
Y255492D01*
X4877Y255361D01*
X4886Y255228D01*
X5101Y254427D01*
X5160Y254307D01*
X5203Y254181D01*
X5617Y253463D01*
X5705Y253363D01*
X5779Y253252D01*
X6366Y252665D01*
X6477Y252591D01*
X6577Y252503D01*
X7295Y252089D01*
X7421Y252046D01*
X7541Y251987D01*
X8342Y251772D01*
X8475Y251763D01*
X8606Y251737D01*
X9435D01*
X9566Y251763D01*
X9699Y251772D01*
X10500Y251987D01*
X10620Y252046D01*
X10746Y252089D01*
X11464Y252503D01*
X11564Y252591D01*
X11676Y252665D01*
X12262Y253252D01*
X12336Y253363D01*
X12424Y253463D01*
X12839Y254181D01*
X12881Y254307D01*
X12940Y254427D01*
X13155Y255228D01*
X13164Y255361D01*
X13190Y255492D01*
Y265355D01*
X13112Y265745D01*
X12891Y266076D01*
X12560Y266297D01*
X12170Y266375D01*
X5871Y266375D01*
D02*
G37*
G36*
X145871D02*
X145481Y266297D01*
X145150Y266076D01*
X144929Y265745D01*
X144851Y265355D01*
X144851Y255907D01*
X144851Y255907D01*
Y255492D01*
X144877Y255361D01*
X144886Y255228D01*
X145101Y254427D01*
X145160Y254307D01*
X145203Y254181D01*
X145617Y253463D01*
X145705Y253363D01*
X145779Y253252D01*
X146366Y252665D01*
X146477Y252591D01*
X146577Y252503D01*
X146923Y252303D01*
X146959Y252243D01*
X146990Y251688D01*
X146625Y251323D01*
X146234Y250646D01*
X146031Y249891D01*
Y249109D01*
X146234Y248354D01*
X146625Y247677D01*
X147177Y247125D01*
X147854Y246734D01*
X148609Y246532D01*
X149391D01*
X150146Y246734D01*
X150823Y247125D01*
X151375Y247677D01*
X151766Y248354D01*
X151969Y249109D01*
Y249891D01*
X151766Y250646D01*
X151375Y251323D01*
X151026Y251673D01*
X151066Y252250D01*
X151089Y252287D01*
X151464Y252503D01*
X151565Y252591D01*
X151675Y252665D01*
X152262Y253252D01*
X152336Y253363D01*
X152424Y253463D01*
X152839Y254181D01*
X152881Y254307D01*
X152940Y254427D01*
X153155Y255228D01*
X153164Y255361D01*
X153190Y255492D01*
Y265355D01*
X153112Y265745D01*
X152891Y266076D01*
X152560Y266297D01*
X152170Y266375D01*
X145871Y266375D01*
D02*
G37*
G36*
X172170D02*
X165871D01*
X165481Y266297D01*
X165150Y266076D01*
X164929Y265745D01*
X164851Y265355D01*
Y255907D01*
X164851Y255492D01*
X164877Y255361D01*
X164886Y255228D01*
X165101Y254427D01*
X165160Y254307D01*
X165203Y254181D01*
X165617Y253463D01*
X165705Y253363D01*
X165779Y253252D01*
X166366Y252665D01*
X166477Y252591D01*
X166577Y252503D01*
X167295Y252089D01*
X167421Y252046D01*
X167471Y252021D01*
Y251482D01*
X167177Y251312D01*
X166625Y250760D01*
X166234Y250083D01*
X166032Y249328D01*
Y248546D01*
X166234Y247791D01*
X166625Y247114D01*
X167177Y246562D01*
X167854Y246171D01*
X168609Y245969D01*
X169391D01*
X170146Y246171D01*
X170823Y246562D01*
X171375Y247114D01*
X171766Y247791D01*
X171968Y248546D01*
Y249328D01*
X171766Y250083D01*
X171375Y250760D01*
X170823Y251312D01*
X170529Y251482D01*
Y252001D01*
X170620Y252046D01*
X170746Y252089D01*
X171464Y252503D01*
X171565Y252591D01*
X171676Y252665D01*
X172262Y253252D01*
X172336Y253363D01*
X172424Y253463D01*
X172839Y254181D01*
X172881Y254307D01*
X172940Y254427D01*
X173155Y255228D01*
X173164Y255361D01*
X173190Y255492D01*
Y255907D01*
X173190Y255907D01*
X173190Y265355D01*
X173112Y265745D01*
X172891Y266076D01*
X172560Y266297D01*
X172170Y266375D01*
D02*
G37*
G36*
X202170Y266375D02*
X195871Y266375D01*
X195481Y266297D01*
X195150Y266076D01*
X194929Y265745D01*
X194851Y265355D01*
Y255907D01*
X194851Y255907D01*
Y255492D01*
X194877Y255361D01*
X194886Y255228D01*
X195101Y254427D01*
X195160Y254307D01*
X195203Y254181D01*
X195617Y253463D01*
X195705Y253363D01*
X195779Y253252D01*
X196366Y252665D01*
X196477Y252591D01*
X196577Y252503D01*
X197057Y252226D01*
Y250595D01*
X196677Y250375D01*
X196125Y249823D01*
X195734Y249146D01*
X195531Y248391D01*
Y247609D01*
X195734Y246854D01*
X196125Y246177D01*
X196677Y245625D01*
X197354Y245234D01*
X198109Y245031D01*
X198891D01*
X199646Y245234D01*
X200323Y245625D01*
X200875Y246177D01*
X201266Y246854D01*
X201468Y247609D01*
Y248391D01*
X201266Y249146D01*
X200875Y249823D01*
X200323Y250375D01*
X200116Y250495D01*
Y251884D01*
X200500Y251987D01*
X200620Y252046D01*
X200746Y252089D01*
X201464Y252503D01*
X201565Y252591D01*
X201676Y252665D01*
X202262Y253252D01*
X202336Y253363D01*
X202424Y253463D01*
X202839Y254181D01*
X202881Y254307D01*
X202940Y254427D01*
X203155Y255228D01*
X203164Y255361D01*
X203190Y255492D01*
Y255907D01*
X203190Y255907D01*
Y265355D01*
X203112Y265745D01*
X202891Y266076D01*
X202560Y266297D01*
X202170Y266375D01*
D02*
G37*
G36*
X192170Y266375D02*
X185871D01*
X185481Y266297D01*
X185150Y266076D01*
X184929Y265745D01*
X184851Y265355D01*
Y255907D01*
X184851Y255492D01*
X184877Y255361D01*
X184886Y255228D01*
X185101Y254427D01*
X185160Y254307D01*
X185203Y254181D01*
X185617Y253463D01*
X185705Y253363D01*
X185779Y253252D01*
X186366Y252665D01*
X186477Y252591D01*
X186577Y252503D01*
X187295Y252089D01*
X187421Y252046D01*
X187541Y251987D01*
X187554Y251983D01*
Y250593D01*
X187177Y250375D01*
X186625Y249823D01*
X186234Y249146D01*
X186031Y248391D01*
Y247609D01*
X186234Y246854D01*
X186625Y246177D01*
X187177Y245625D01*
X187854Y245234D01*
X188609Y245031D01*
X189391D01*
X190146Y245234D01*
X190823Y245625D01*
X191375Y246177D01*
X191766Y246854D01*
X191969Y247609D01*
Y248391D01*
X191766Y249146D01*
X191375Y249823D01*
X190823Y250375D01*
X190613Y250497D01*
Y252042D01*
X190620Y252046D01*
X190746Y252089D01*
X191464Y252503D01*
X191565Y252591D01*
X191675Y252665D01*
X192262Y253252D01*
X192336Y253363D01*
X192424Y253463D01*
X192839Y254181D01*
X192881Y254307D01*
X192940Y254427D01*
X193155Y255228D01*
X193164Y255361D01*
X193190Y255492D01*
Y265355D01*
X193112Y265745D01*
X192891Y266076D01*
X192560Y266297D01*
X192170Y266375D01*
D02*
G37*
G36*
X162170Y266375D02*
X155871Y266375D01*
X155481Y266297D01*
X155150Y266076D01*
X154929Y265745D01*
X154851Y265355D01*
Y255907D01*
X154851Y255492D01*
X154877Y255361D01*
X154886Y255228D01*
X155101Y254427D01*
X155160Y254307D01*
X155203Y254181D01*
X155617Y253463D01*
X155705Y253363D01*
X155779Y253252D01*
X156366Y252665D01*
X156477Y252591D01*
X156577Y252503D01*
X157295Y252089D01*
X157421Y252046D01*
X157541Y251987D01*
X157554Y251983D01*
Y250545D01*
X157261Y250375D01*
X156708Y249823D01*
X156317Y249146D01*
X156115Y248391D01*
Y247609D01*
X156317Y246854D01*
X156708Y246177D01*
X157261Y245625D01*
X157938Y245234D01*
X158693Y245031D01*
X159474D01*
X160229Y245234D01*
X160906Y245625D01*
X161459Y246177D01*
X161850Y246854D01*
X162052Y247609D01*
Y248391D01*
X161850Y249146D01*
X161459Y249823D01*
X160906Y250375D01*
X160613Y250545D01*
Y252042D01*
X160620Y252046D01*
X160746Y252089D01*
X161464Y252503D01*
X161565Y252591D01*
X161676Y252665D01*
X162262Y253252D01*
X162336Y253363D01*
X162424Y253463D01*
X162839Y254181D01*
X162881Y254307D01*
X162940Y254427D01*
X163155Y255228D01*
X163164Y255361D01*
X163190Y255492D01*
Y255907D01*
X163190Y255907D01*
X163190Y265355D01*
X163112Y265745D01*
X162891Y266076D01*
X162560Y266297D01*
X162170Y266375D01*
D02*
G37*
G36*
X102170Y266375D02*
X95871D01*
X95481Y266297D01*
X95150Y266076D01*
X94929Y265745D01*
X94851Y265355D01*
Y255492D01*
X94877Y255361D01*
X94886Y255228D01*
X95101Y254427D01*
X95160Y254307D01*
X95203Y254181D01*
X95617Y253463D01*
X95705Y253363D01*
X95779Y253252D01*
X96366Y252665D01*
X96477Y252591D01*
X96577Y252503D01*
X97295Y252089D01*
X97421Y252046D01*
X97471Y252021D01*
Y250545D01*
X97177Y250375D01*
X96625Y249823D01*
X96234Y249146D01*
X96031Y248391D01*
Y247609D01*
X96234Y246854D01*
X96625Y246177D01*
X97177Y245625D01*
X97854Y245234D01*
X98609Y245031D01*
X99391D01*
X100146Y245234D01*
X100823Y245625D01*
X101375Y246177D01*
X101766Y246854D01*
X101969Y247609D01*
Y248391D01*
X101766Y249146D01*
X101375Y249823D01*
X100823Y250375D01*
X100529Y250545D01*
Y252001D01*
X100620Y252046D01*
X100746Y252089D01*
X101464Y252503D01*
X101565Y252591D01*
X101675Y252665D01*
X102262Y253252D01*
X102336Y253363D01*
X102424Y253463D01*
X102839Y254181D01*
X102881Y254307D01*
X102940Y254427D01*
X103155Y255228D01*
X103164Y255361D01*
X103190Y255492D01*
Y255907D01*
X103190Y255907D01*
X103190Y265355D01*
X103112Y265745D01*
X102891Y266076D01*
X102560Y266297D01*
X102170Y266375D01*
D02*
G37*
G36*
X65871D02*
X65481Y266297D01*
X65150Y266076D01*
X64929Y265745D01*
X64851Y265355D01*
X64851Y255907D01*
X64851Y255492D01*
X64877Y255361D01*
X64886Y255228D01*
X65101Y254427D01*
X65160Y254307D01*
X65203Y254181D01*
X65617Y253463D01*
X65705Y253363D01*
X65779Y253252D01*
X66366Y252665D01*
X66477Y252591D01*
X66577Y252503D01*
X67295Y252089D01*
X67421Y252046D01*
X67541Y251987D01*
X67554Y251983D01*
Y250713D01*
X66969Y250375D01*
X66416Y249823D01*
X66026Y249146D01*
X65823Y248391D01*
Y247609D01*
X66026Y246854D01*
X66416Y246177D01*
X66969Y245625D01*
X67646Y245234D01*
X68401Y245031D01*
X69183D01*
X69938Y245234D01*
X70614Y245625D01*
X71167Y246177D01*
X71558Y246854D01*
X71760Y247609D01*
Y248391D01*
X71558Y249146D01*
X71167Y249823D01*
X70614Y250375D01*
X70613Y250376D01*
Y252042D01*
X70620Y252046D01*
X70746Y252089D01*
X71464Y252503D01*
X71565Y252591D01*
X71675Y252665D01*
X72262Y253252D01*
X72336Y253363D01*
X72424Y253463D01*
X72839Y254181D01*
X72881Y254307D01*
X72940Y254427D01*
X73155Y255228D01*
X73164Y255361D01*
X73190Y255492D01*
Y265355D01*
X73112Y265745D01*
X72891Y266076D01*
X72560Y266297D01*
X72170Y266375D01*
X65871Y266375D01*
D02*
G37*
G36*
X22170Y266375D02*
X15871Y266375D01*
X15481Y266297D01*
X15150Y266076D01*
X14929Y265745D01*
X14851Y265355D01*
Y255907D01*
X14851Y255907D01*
Y255492D01*
X14877Y255361D01*
X14886Y255228D01*
X15101Y254427D01*
X15160Y254307D01*
X15203Y254181D01*
X15617Y253463D01*
X15705Y253363D01*
X15779Y253252D01*
X16366Y252665D01*
X16477Y252591D01*
X16577Y252503D01*
X17295Y252089D01*
X17421Y252046D01*
X17541Y251987D01*
X17554Y251983D01*
Y250545D01*
X17261Y250375D01*
X16708Y249823D01*
X16317Y249146D01*
X16115Y248391D01*
Y247609D01*
X16317Y246854D01*
X16708Y246177D01*
X17261Y245625D01*
X17938Y245234D01*
X18693Y245031D01*
X19474D01*
X20229Y245234D01*
X20906Y245625D01*
X21459Y246177D01*
X21850Y246854D01*
X22052Y247609D01*
Y248391D01*
X21850Y249146D01*
X21459Y249823D01*
X20906Y250375D01*
X20613Y250545D01*
Y252042D01*
X20620Y252046D01*
X20746Y252089D01*
X21464Y252503D01*
X21565Y252591D01*
X21676Y252665D01*
X22262Y253252D01*
X22336Y253363D01*
X22424Y253463D01*
X22839Y254181D01*
X22881Y254307D01*
X22940Y254427D01*
X23155Y255228D01*
X23164Y255361D01*
X23190Y255492D01*
X23190Y265355D01*
X23112Y265745D01*
X22891Y266076D01*
X22560Y266297D01*
X22170Y266375D01*
D02*
G37*
G36*
X23445Y224927D02*
X19311D01*
X18575Y224781D01*
X17952Y224364D01*
X17535Y223740D01*
X17388Y223005D01*
Y218871D01*
X17535Y218135D01*
X17952Y217511D01*
X18575Y217094D01*
X19311Y216948D01*
X23445D01*
X24181Y217094D01*
X24804Y217511D01*
X25221Y218135D01*
X25368Y218871D01*
Y223005D01*
X25221Y223740D01*
X24804Y224364D01*
X24181Y224781D01*
X23445Y224927D01*
D02*
G37*
G36*
X10453Y228864D02*
X6319D01*
X5583Y228718D01*
X4959Y228301D01*
X4543Y227677D01*
X4396Y226942D01*
Y222808D01*
X4543Y222072D01*
X4959Y221448D01*
X5273Y221238D01*
Y220637D01*
X4959Y220427D01*
X4543Y219803D01*
X4396Y219068D01*
Y214934D01*
X4543Y214198D01*
X4959Y213574D01*
X5583Y213157D01*
X6319Y213011D01*
X10453D01*
X11188Y213157D01*
X11812Y213574D01*
X12229Y214198D01*
X12376Y214934D01*
Y219068D01*
X12229Y219803D01*
X11812Y220427D01*
X11498Y220637D01*
Y221238D01*
X11812Y221448D01*
X12229Y222072D01*
X12376Y222808D01*
Y226942D01*
X12229Y227677D01*
X11812Y228301D01*
X11188Y228718D01*
X10453Y228864D01*
D02*
G37*
G36*
X56910Y215085D02*
X52776D01*
X52040Y214939D01*
X51416Y214522D01*
X50999Y213898D01*
X50853Y213162D01*
Y209028D01*
X50999Y208293D01*
X51416Y207669D01*
X52040Y207252D01*
X52776Y207105D01*
X56910D01*
X57645Y207252D01*
X58269Y207669D01*
X58686Y208293D01*
X58832Y209028D01*
Y213162D01*
X58686Y213898D01*
X58269Y214522D01*
X57645Y214939D01*
X56910Y215085D01*
D02*
G37*
G36*
X47067D02*
X42933D01*
X42197Y214939D01*
X41574Y214522D01*
X41157Y213898D01*
X41010Y213162D01*
Y209028D01*
X41157Y208293D01*
X41574Y207669D01*
X42197Y207252D01*
X42933Y207105D01*
X47067D01*
X47803Y207252D01*
X48426Y207669D01*
X48843Y208293D01*
X48990Y209028D01*
Y213162D01*
X48843Y213898D01*
X48426Y214522D01*
X47803Y214939D01*
X47067Y215085D01*
D02*
G37*
G36*
X69891Y206469D02*
X69109D01*
X68354Y206266D01*
X67677Y205875D01*
X67125Y205323D01*
X66955Y205029D01*
X44500D01*
X43915Y204913D01*
X43419Y204581D01*
X38002Y199165D01*
X37671Y198669D01*
X37554Y198084D01*
Y189814D01*
X37541Y189811D01*
X37421Y189752D01*
X37295Y189709D01*
X36577Y189294D01*
X36477Y189206D01*
X36366Y189132D01*
X35779Y188546D01*
X35705Y188435D01*
X35617Y188335D01*
X35203Y187616D01*
X35160Y187490D01*
X35101Y187370D01*
X34886Y186569D01*
X34877Y186436D01*
X34851Y186305D01*
X34851Y185891D01*
Y176442D01*
X34929Y176052D01*
X35150Y175721D01*
X35481Y175500D01*
X35871Y175422D01*
X42170Y175422D01*
X42560Y175500D01*
X42891Y175721D01*
X43112Y176052D01*
X43190Y176442D01*
Y186305D01*
X43164Y186436D01*
X43155Y186569D01*
X42940Y187370D01*
X42881Y187490D01*
X42839Y187616D01*
X42424Y188335D01*
X42336Y188435D01*
X42262Y188546D01*
X41675Y189132D01*
X41565Y189206D01*
X41464Y189294D01*
X40746Y189709D01*
X40620Y189752D01*
X40613Y189755D01*
Y197450D01*
X45134Y201971D01*
X66955D01*
X67125Y201677D01*
X67677Y201125D01*
X68354Y200734D01*
X69109Y200532D01*
X69891D01*
X70646Y200734D01*
X71323Y201125D01*
X71875Y201677D01*
X72266Y202354D01*
X72469Y203109D01*
Y203891D01*
X72266Y204646D01*
X71875Y205323D01*
X71323Y205875D01*
X70646Y206266D01*
X69891Y206469D01*
D02*
G37*
G36*
X199474Y197468D02*
X198693D01*
X197938Y197266D01*
X197261Y196875D01*
X196708Y196323D01*
X196317Y195646D01*
X196115Y194891D01*
Y194109D01*
X196317Y193354D01*
X196708Y192677D01*
X197261Y192125D01*
X197554Y191955D01*
Y189814D01*
X197541Y189811D01*
X197421Y189752D01*
X197295Y189709D01*
X196577Y189294D01*
X196477Y189206D01*
X196366Y189132D01*
X195779Y188546D01*
X195705Y188435D01*
X195617Y188335D01*
X195203Y187616D01*
X195160Y187490D01*
X195101Y187370D01*
X194886Y186569D01*
X194877Y186436D01*
X194851Y186305D01*
Y185891D01*
X194851Y185891D01*
Y176442D01*
X194929Y176052D01*
X195150Y175721D01*
X195481Y175500D01*
X195871Y175422D01*
X202170Y175422D01*
X202560Y175500D01*
X202891Y175721D01*
X203112Y176052D01*
X203190Y176442D01*
Y185891D01*
X203190Y185891D01*
Y186305D01*
X203164Y186436D01*
X203155Y186569D01*
X202940Y187370D01*
X202881Y187490D01*
X202839Y187616D01*
X202424Y188335D01*
X202336Y188435D01*
X202262Y188546D01*
X201676Y189132D01*
X201565Y189206D01*
X201464Y189294D01*
X200746Y189709D01*
X200620Y189752D01*
X200613Y189755D01*
Y191955D01*
X200906Y192125D01*
X201459Y192677D01*
X201850Y193354D01*
X202052Y194109D01*
Y194891D01*
X201850Y195646D01*
X201459Y196323D01*
X200906Y196875D01*
X200229Y197266D01*
X199474Y197468D01*
D02*
G37*
G36*
X189391D02*
X188609D01*
X187854Y197266D01*
X187177Y196875D01*
X186625Y196323D01*
X186234Y195646D01*
X186031Y194891D01*
Y194109D01*
X186234Y193354D01*
X186625Y192677D01*
X187177Y192125D01*
X187554Y191907D01*
Y189814D01*
X187541Y189811D01*
X187421Y189752D01*
X187295Y189709D01*
X186577Y189294D01*
X186477Y189206D01*
X186366Y189132D01*
X185779Y188546D01*
X185705Y188435D01*
X185617Y188334D01*
X185203Y187616D01*
X185160Y187490D01*
X185101Y187370D01*
X184886Y186569D01*
X184877Y186436D01*
X184851Y186305D01*
X184851Y185891D01*
Y176442D01*
X184929Y176052D01*
X185150Y175721D01*
X185481Y175500D01*
X185871Y175422D01*
X192170D01*
X192560Y175500D01*
X192891Y175721D01*
X193112Y176052D01*
X193190Y176442D01*
Y186305D01*
X193164Y186436D01*
X193155Y186569D01*
X192940Y187370D01*
X192881Y187490D01*
X192839Y187616D01*
X192424Y188334D01*
X192336Y188435D01*
X192262Y188546D01*
X191675Y189132D01*
X191565Y189206D01*
X191464Y189294D01*
X190746Y189709D01*
X190620Y189752D01*
X190613Y189755D01*
Y192004D01*
X190823Y192125D01*
X191375Y192677D01*
X191766Y193354D01*
X191969Y194109D01*
Y194891D01*
X191766Y195646D01*
X191375Y196323D01*
X190823Y196875D01*
X190146Y197266D01*
X189391Y197468D01*
D02*
G37*
G36*
X159474D02*
X158693D01*
X157938Y197266D01*
X157261Y196875D01*
X156708Y196323D01*
X156317Y195646D01*
X156115Y194891D01*
Y194109D01*
X156317Y193354D01*
X156708Y192677D01*
X157261Y192125D01*
X157554Y191955D01*
Y189814D01*
X157541Y189811D01*
X157421Y189752D01*
X157295Y189709D01*
X156577Y189294D01*
X156477Y189206D01*
X156366Y189132D01*
X155779Y188546D01*
X155705Y188435D01*
X155617Y188334D01*
X155203Y187616D01*
X155160Y187490D01*
X155101Y187370D01*
X154886Y186569D01*
X154877Y186436D01*
X154851Y186305D01*
X154851Y185891D01*
Y176442D01*
X154929Y176052D01*
X155150Y175721D01*
X155481Y175500D01*
X155871Y175422D01*
X162170Y175422D01*
X162560Y175500D01*
X162891Y175721D01*
X163112Y176052D01*
X163190Y176442D01*
X163190Y185891D01*
X163190Y185891D01*
Y186305D01*
X163164Y186436D01*
X163155Y186569D01*
X162940Y187370D01*
X162881Y187490D01*
X162839Y187616D01*
X162424Y188334D01*
X162336Y188435D01*
X162262Y188546D01*
X161676Y189132D01*
X161565Y189206D01*
X161464Y189294D01*
X160746Y189709D01*
X160620Y189752D01*
X160613Y189755D01*
Y191955D01*
X160906Y192125D01*
X161459Y192677D01*
X161850Y193354D01*
X162052Y194109D01*
Y194891D01*
X161850Y195646D01*
X161459Y196323D01*
X160906Y196875D01*
X160229Y197266D01*
X159474Y197468D01*
D02*
G37*
G36*
X109391D02*
X108609D01*
X107854Y197266D01*
X107177Y196875D01*
X106625Y196323D01*
X106234Y195646D01*
X106032Y194891D01*
Y194109D01*
X106234Y193354D01*
X106625Y192677D01*
X107177Y192125D01*
X107554Y191907D01*
Y189814D01*
X107541Y189811D01*
X107421Y189752D01*
X107295Y189709D01*
X106577Y189294D01*
X106477Y189206D01*
X106366Y189132D01*
X105779Y188546D01*
X105705Y188435D01*
X105617Y188334D01*
X105203Y187616D01*
X105160Y187490D01*
X105101Y187370D01*
X104886Y186569D01*
X104877Y186436D01*
X104851Y186305D01*
Y185891D01*
X104851Y185891D01*
Y176442D01*
X104929Y176052D01*
X105150Y175721D01*
X105481Y175500D01*
X105871Y175422D01*
X112170Y175422D01*
X112560Y175500D01*
X112891Y175721D01*
X113112Y176052D01*
X113190Y176442D01*
X113190Y186305D01*
X113164Y186436D01*
X113155Y186569D01*
X112940Y187370D01*
X112881Y187490D01*
X112839Y187616D01*
X112424Y188334D01*
X112336Y188435D01*
X112262Y188546D01*
X111676Y189132D01*
X111565Y189206D01*
X111464Y189294D01*
X110746Y189709D01*
X110620Y189752D01*
X110613Y189755D01*
Y192004D01*
X110823Y192125D01*
X111375Y192677D01*
X111766Y193354D01*
X111969Y194109D01*
Y194891D01*
X111766Y195646D01*
X111375Y196323D01*
X110823Y196875D01*
X110146Y197266D01*
X109391Y197468D01*
D02*
G37*
G36*
X99391D02*
X98609D01*
X97854Y197266D01*
X97177Y196875D01*
X96625Y196323D01*
X96234Y195646D01*
X96031Y194891D01*
Y194109D01*
X96234Y193354D01*
X96625Y192677D01*
X97177Y192125D01*
X97554Y191907D01*
Y189814D01*
X97541Y189811D01*
X97421Y189752D01*
X97295Y189709D01*
X96577Y189294D01*
X96477Y189206D01*
X96366Y189132D01*
X95779Y188546D01*
X95705Y188435D01*
X95617Y188334D01*
X95203Y187616D01*
X95160Y187490D01*
X95101Y187370D01*
X94886Y186569D01*
X94877Y186436D01*
X94851Y186305D01*
Y176442D01*
X94929Y176052D01*
X95150Y175721D01*
X95481Y175500D01*
X95871Y175422D01*
X102170D01*
X102560Y175500D01*
X102891Y175721D01*
X103112Y176052D01*
X103190Y176442D01*
Y185891D01*
X103190Y185891D01*
Y186305D01*
X103164Y186436D01*
X103155Y186569D01*
X102940Y187370D01*
X102881Y187490D01*
X102839Y187616D01*
X102424Y188334D01*
X102336Y188435D01*
X102262Y188546D01*
X101675Y189132D01*
X101565Y189206D01*
X101464Y189294D01*
X100746Y189709D01*
X100620Y189752D01*
X100613Y189755D01*
Y192004D01*
X100823Y192125D01*
X101375Y192677D01*
X101766Y193354D01*
X101969Y194109D01*
Y194891D01*
X101766Y195646D01*
X101375Y196323D01*
X100823Y196875D01*
X100146Y197266D01*
X99391Y197468D01*
D02*
G37*
G36*
X89391D02*
X88609D01*
X87854Y197266D01*
X87177Y196875D01*
X86625Y196323D01*
X86234Y195646D01*
X86032Y194891D01*
Y194109D01*
X86234Y193354D01*
X86625Y192677D01*
X87177Y192125D01*
X87554Y191907D01*
Y189814D01*
X87541Y189811D01*
X87421Y189752D01*
X87295Y189709D01*
X86577Y189294D01*
X86477Y189206D01*
X86366Y189132D01*
X85779Y188546D01*
X85705Y188435D01*
X85617Y188335D01*
X85203Y187616D01*
X85160Y187490D01*
X85101Y187370D01*
X84886Y186569D01*
X84877Y186436D01*
X84851Y186305D01*
X84851Y185891D01*
Y176442D01*
X84929Y176052D01*
X85150Y175721D01*
X85481Y175500D01*
X85871Y175422D01*
X92170D01*
X92560Y175500D01*
X92891Y175721D01*
X93112Y176052D01*
X93190Y176442D01*
X93190Y186305D01*
X93164Y186436D01*
X93155Y186569D01*
X92940Y187370D01*
X92881Y187490D01*
X92839Y187616D01*
X92424Y188335D01*
X92336Y188435D01*
X92262Y188546D01*
X91676Y189132D01*
X91565Y189206D01*
X91464Y189294D01*
X90746Y189709D01*
X90620Y189752D01*
X90613Y189755D01*
Y192004D01*
X90823Y192125D01*
X91375Y192677D01*
X91766Y193354D01*
X91969Y194109D01*
Y194891D01*
X91766Y195646D01*
X91375Y196323D01*
X90823Y196875D01*
X90146Y197266D01*
X89391Y197468D01*
D02*
G37*
G36*
X69683D02*
X68901D01*
X68146Y197266D01*
X67469Y196875D01*
X66916Y196323D01*
X66526Y195646D01*
X66323Y194891D01*
Y194109D01*
X66526Y193354D01*
X66916Y192677D01*
X67469Y192125D01*
X67554Y192076D01*
Y189814D01*
X67541Y189811D01*
X67421Y189752D01*
X67295Y189709D01*
X66577Y189294D01*
X66477Y189206D01*
X66366Y189132D01*
X65779Y188546D01*
X65705Y188435D01*
X65617Y188334D01*
X65203Y187616D01*
X65160Y187490D01*
X65101Y187370D01*
X64886Y186569D01*
X64877Y186436D01*
X64851Y186305D01*
X64851Y185891D01*
X64851Y176442D01*
X64929Y176052D01*
X65150Y175721D01*
X65481Y175500D01*
X65871Y175422D01*
X72170D01*
X72560Y175500D01*
X72891Y175721D01*
X73112Y176052D01*
X73190Y176442D01*
Y186305D01*
X73164Y186436D01*
X73155Y186569D01*
X72940Y187370D01*
X72881Y187490D01*
X72839Y187616D01*
X72424Y188334D01*
X72336Y188435D01*
X72262Y188546D01*
X71675Y189132D01*
X71565Y189206D01*
X71464Y189294D01*
X70746Y189709D01*
X70620Y189752D01*
X70613Y189755D01*
Y191835D01*
X71114Y192125D01*
X71667Y192677D01*
X72058Y193354D01*
X72260Y194109D01*
Y194891D01*
X72058Y195646D01*
X71667Y196323D01*
X71114Y196875D01*
X70438Y197266D01*
X69683Y197468D01*
D02*
G37*
G36*
X49474D02*
X48693D01*
X47938Y197266D01*
X47261Y196875D01*
X46708Y196323D01*
X46317Y195646D01*
X46115Y194891D01*
Y194109D01*
X46317Y193354D01*
X46708Y192677D01*
X47261Y192125D01*
X47554Y191955D01*
Y189814D01*
X47541Y189811D01*
X47421Y189752D01*
X47295Y189709D01*
X46577Y189294D01*
X46477Y189206D01*
X46366Y189132D01*
X45779Y188546D01*
X45705Y188435D01*
X45617Y188334D01*
X45203Y187616D01*
X45160Y187490D01*
X45101Y187370D01*
X44886Y186569D01*
X44877Y186436D01*
X44851Y186305D01*
X44851Y176442D01*
X44929Y176052D01*
X45150Y175721D01*
X45481Y175500D01*
X45871Y175422D01*
X52170D01*
X52560Y175500D01*
X52891Y175721D01*
X53112Y176052D01*
X53190Y176442D01*
Y186305D01*
X53164Y186436D01*
X53155Y186569D01*
X52940Y187370D01*
X52881Y187490D01*
X52839Y187616D01*
X52424Y188334D01*
X52336Y188435D01*
X52262Y188546D01*
X51675Y189132D01*
X51565Y189206D01*
X51464Y189294D01*
X50746Y189709D01*
X50620Y189752D01*
X50613Y189755D01*
Y191955D01*
X50906Y192125D01*
X51459Y192677D01*
X51850Y193354D01*
X52052Y194109D01*
Y194891D01*
X51850Y195646D01*
X51459Y196323D01*
X50906Y196875D01*
X50229Y197266D01*
X49474Y197468D01*
D02*
G37*
G36*
X169391D02*
X168609D01*
X167854Y197266D01*
X167177Y196875D01*
X166625Y196323D01*
X166234Y195646D01*
X166032Y194891D01*
Y194109D01*
X166234Y193354D01*
X166625Y192677D01*
X167177Y192125D01*
X167554Y191907D01*
Y189814D01*
X167541Y189811D01*
X167421Y189752D01*
X167295Y189709D01*
X166577Y189294D01*
X166477Y189206D01*
X166366Y189132D01*
X165779Y188546D01*
X165705Y188435D01*
X165617Y188335D01*
X165203Y187616D01*
X165160Y187490D01*
X165101Y187370D01*
X164886Y186569D01*
X164877Y186436D01*
X164851Y186305D01*
X164851Y185891D01*
Y176442D01*
X164929Y176052D01*
X165150Y175721D01*
X165481Y175500D01*
X165871Y175422D01*
X172170Y175422D01*
X172560Y175500D01*
X172891Y175721D01*
X173112Y176052D01*
X173190Y176442D01*
Y186305D01*
X173164Y186436D01*
X173155Y186569D01*
X172940Y187370D01*
X172881Y187490D01*
X172839Y187616D01*
X172424Y188335D01*
X172336Y188435D01*
X172262Y188546D01*
X171676Y189132D01*
X171565Y189206D01*
X171464Y189294D01*
X170746Y189709D01*
X170620Y189752D01*
X170613Y189755D01*
Y192004D01*
X170823Y192125D01*
X171375Y192677D01*
X171766Y193354D01*
X171968Y194109D01*
Y194891D01*
X171766Y195646D01*
X171375Y196323D01*
X170823Y196875D01*
X170146Y197266D01*
X169391Y197468D01*
D02*
G37*
G36*
X149391D02*
X148609D01*
X147854Y197266D01*
X147177Y196875D01*
X146625Y196323D01*
X146234Y195646D01*
X146031Y194891D01*
Y194109D01*
X146234Y193354D01*
X146625Y192677D01*
X147177Y192125D01*
X147554Y191907D01*
Y189814D01*
X147541Y189811D01*
X147421Y189752D01*
X147295Y189709D01*
X146577Y189294D01*
X146477Y189206D01*
X146366Y189132D01*
X145779Y188546D01*
X145705Y188435D01*
X145617Y188335D01*
X145203Y187616D01*
X145160Y187490D01*
X145101Y187370D01*
X144886Y186569D01*
X144877Y186436D01*
X144851Y186305D01*
X144851Y185891D01*
Y176442D01*
X144929Y176052D01*
X145150Y175721D01*
X145481Y175500D01*
X145871Y175422D01*
X152170Y175422D01*
X152560Y175500D01*
X152891Y175721D01*
X153112Y176052D01*
X153190Y176442D01*
Y186305D01*
X153164Y186436D01*
X153155Y186569D01*
X152940Y187370D01*
X152881Y187490D01*
X152839Y187616D01*
X152424Y188335D01*
X152336Y188435D01*
X152262Y188546D01*
X151675Y189132D01*
X151565Y189206D01*
X151464Y189294D01*
X150746Y189709D01*
X150620Y189752D01*
X150613Y189755D01*
Y192004D01*
X150823Y192125D01*
X151375Y192677D01*
X151766Y193354D01*
X151969Y194109D01*
Y194891D01*
X151766Y195646D01*
X151375Y196323D01*
X150823Y196875D01*
X150146Y197266D01*
X149391Y197468D01*
D02*
G37*
G36*
X139474D02*
X138693D01*
X137938Y197266D01*
X137261Y196875D01*
X136708Y196323D01*
X136317Y195646D01*
X136115Y194891D01*
Y194109D01*
X136317Y193354D01*
X136708Y192677D01*
X137261Y192125D01*
X137554Y191955D01*
Y189814D01*
X137541Y189811D01*
X137421Y189752D01*
X137295Y189709D01*
X136577Y189294D01*
X136477Y189206D01*
X136366Y189132D01*
X135779Y188546D01*
X135705Y188435D01*
X135617Y188335D01*
X135203Y187616D01*
X135160Y187490D01*
X135101Y187370D01*
X134886Y186569D01*
X134877Y186436D01*
X134851Y186305D01*
X134851Y176442D01*
X134929Y176052D01*
X135150Y175721D01*
X135481Y175500D01*
X135871Y175422D01*
X142170Y175422D01*
X142560Y175500D01*
X142891Y175721D01*
X143112Y176052D01*
X143190Y176442D01*
Y186305D01*
X143164Y186436D01*
X143155Y186569D01*
X142940Y187370D01*
X142881Y187490D01*
X142839Y187616D01*
X142424Y188335D01*
X142336Y188435D01*
X142262Y188546D01*
X141675Y189132D01*
X141565Y189206D01*
X141464Y189294D01*
X140746Y189709D01*
X140620Y189752D01*
X140613Y189755D01*
Y191955D01*
X140906Y192125D01*
X141459Y192677D01*
X141850Y193354D01*
X142052Y194109D01*
Y194891D01*
X141850Y195646D01*
X141459Y196323D01*
X140906Y196875D01*
X140229Y197266D01*
X139474Y197468D01*
D02*
G37*
G36*
X118891D02*
X118109D01*
X117354Y197266D01*
X116677Y196875D01*
X116125Y196323D01*
X115734Y195646D01*
X115532Y194891D01*
Y194109D01*
X115734Y193354D01*
X116125Y192677D01*
X116677Y192125D01*
X117354Y191734D01*
X117554Y191680D01*
Y189814D01*
X117541Y189811D01*
X117421Y189752D01*
X117295Y189709D01*
X116577Y189294D01*
X116477Y189206D01*
X116366Y189132D01*
X115779Y188546D01*
X115705Y188435D01*
X115617Y188335D01*
X115203Y187616D01*
X115160Y187490D01*
X115101Y187370D01*
X114886Y186569D01*
X114877Y186436D01*
X114851Y186305D01*
X114851Y185891D01*
Y176442D01*
X114929Y176052D01*
X115150Y175721D01*
X115481Y175500D01*
X115871Y175422D01*
X122170Y175422D01*
X122560Y175500D01*
X122891Y175721D01*
X123112Y176052D01*
X123190Y176442D01*
Y186305D01*
X123164Y186436D01*
X123155Y186569D01*
X122940Y187370D01*
X122881Y187490D01*
X122839Y187616D01*
X122424Y188335D01*
X122336Y188435D01*
X122262Y188546D01*
X121676Y189132D01*
X121565Y189206D01*
X121464Y189294D01*
X120746Y189709D01*
X120620Y189752D01*
X120613Y189755D01*
Y192415D01*
X120875Y192677D01*
X121266Y193354D01*
X121468Y194109D01*
Y194891D01*
X121266Y195646D01*
X120875Y196323D01*
X120323Y196875D01*
X119646Y197266D01*
X118891Y197468D01*
D02*
G37*
G36*
X329440Y168520D02*
X328041D01*
X326669Y168247D01*
X325376Y167711D01*
X324213Y166934D01*
X323223Y165945D01*
X322446Y164781D01*
X321911Y163489D01*
X321638Y162117D01*
Y160718D01*
X321911Y159346D01*
X322446Y158053D01*
X323223Y156890D01*
X324213Y155901D01*
X325376Y155123D01*
X326669Y154588D01*
X328041Y154315D01*
X329440D01*
X330812Y154588D01*
X332104Y155123D01*
X333268Y155901D01*
X334257Y156890D01*
X335034Y158053D01*
X335570Y159346D01*
X335842Y160718D01*
Y162117D01*
X335570Y163489D01*
X335034Y164781D01*
X334257Y165945D01*
X333268Y166934D01*
X332104Y167711D01*
X330812Y168247D01*
X329440Y168520D01*
D02*
G37*
G36*
X250699D02*
X249301D01*
X247928Y168247D01*
X246636Y167711D01*
X245473Y166934D01*
X244483Y165945D01*
X243706Y164781D01*
X243171Y163489D01*
X242898Y162117D01*
Y160718D01*
X243171Y159346D01*
X243706Y158053D01*
X244483Y156890D01*
X245473Y155901D01*
X246636Y155123D01*
X247928Y154588D01*
X249301Y154315D01*
X250699D01*
X252072Y154588D01*
X253364Y155123D01*
X254527Y155901D01*
X255517Y156890D01*
X256294Y158053D01*
X256829Y159346D01*
X257102Y160718D01*
Y162117D01*
X256829Y163489D01*
X256294Y164781D01*
X255517Y165945D01*
X254527Y166934D01*
X253364Y167711D01*
X252072Y168247D01*
X250699Y168520D01*
D02*
G37*
G36*
X40391Y152969D02*
X39609D01*
X38854Y152766D01*
X38177Y152375D01*
X37625Y151823D01*
X37234Y151146D01*
X37031Y150391D01*
Y149609D01*
X37119Y149282D01*
X31419Y143581D01*
X31087Y143085D01*
X30971Y142500D01*
Y51545D01*
X30677Y51375D01*
X30125Y50823D01*
X29734Y50146D01*
X29531Y49391D01*
Y48609D01*
X29734Y47854D01*
X30125Y47177D01*
X30677Y46625D01*
X31354Y46234D01*
X32109Y46031D01*
X32891D01*
X33646Y46234D01*
X34323Y46625D01*
X34875Y47177D01*
X35266Y47854D01*
X35469Y48609D01*
Y49391D01*
X35266Y50146D01*
X34875Y50823D01*
X34323Y51375D01*
X34029Y51545D01*
Y141867D01*
X39282Y147119D01*
X39609Y147031D01*
X40391D01*
X41146Y147234D01*
X41823Y147625D01*
X42375Y148177D01*
X42766Y148854D01*
X42968Y149609D01*
Y150391D01*
X42766Y151146D01*
X42375Y151823D01*
X41823Y152375D01*
X41146Y152766D01*
X40391Y152969D01*
D02*
G37*
G36*
X71000Y153987D02*
X69968Y153851D01*
X69007Y153453D01*
X68181Y152819D01*
X67547Y151993D01*
X67149Y151032D01*
X67013Y150000D01*
X67149Y148968D01*
X67547Y148007D01*
X68181Y147181D01*
X69007Y146547D01*
X69968Y146149D01*
X71000Y146013D01*
X72032Y146149D01*
X72993Y146547D01*
X73819Y147181D01*
X74453Y148007D01*
X74851Y148968D01*
X74987Y150000D01*
X74851Y151032D01*
X74453Y151993D01*
X73819Y152819D01*
X72993Y153453D01*
X72032Y153851D01*
X71000Y153987D01*
D02*
G37*
G36*
X50000D02*
X48968Y153851D01*
X48007Y153453D01*
X47181Y152819D01*
X46547Y151993D01*
X46149Y151032D01*
X46013Y150000D01*
X46149Y148968D01*
X46547Y148007D01*
X47181Y147181D01*
X48007Y146547D01*
X48968Y146149D01*
X50000Y146013D01*
X51032Y146149D01*
X51993Y146547D01*
X52819Y147181D01*
X53453Y148007D01*
X53851Y148968D01*
X53987Y150000D01*
X53851Y151032D01*
X53453Y151993D01*
X52819Y152819D01*
X51993Y153453D01*
X51032Y153851D01*
X50000Y153987D01*
D02*
G37*
G36*
X339476Y115826D02*
X338500D01*
Y111842D01*
X343894D01*
X343807Y112503D01*
X343359Y113584D01*
X342647Y114513D01*
X341718Y115225D01*
X340637Y115673D01*
X339476Y115826D01*
D02*
G37*
G36*
X337500D02*
X336524D01*
X335363Y115673D01*
X334282Y115225D01*
X333353Y114513D01*
X332641Y113584D01*
X332193Y112503D01*
X332106Y111842D01*
X337500D01*
Y115826D01*
D02*
G37*
G36*
X23575Y121575D02*
X18425D01*
Y116425D01*
X19471D01*
Y114807D01*
X15319D01*
Y109854D01*
X19681D01*
Y110801D01*
X20331D01*
X20916Y110918D01*
X21412Y111249D01*
X22081Y111919D01*
X22413Y112415D01*
X22529Y113000D01*
Y116425D01*
X23575D01*
Y121575D01*
D02*
G37*
G36*
X150391Y68468D02*
X149609D01*
X148854Y68266D01*
X148177Y67875D01*
X148094Y67793D01*
X147594Y67921D01*
Y67921D01*
X147594Y67921D01*
X141461D01*
Y63559D01*
X147594D01*
X147992Y63310D01*
X148177Y63125D01*
X148854Y62734D01*
X149609Y62532D01*
X150391D01*
X151146Y62734D01*
X151823Y63125D01*
X152375Y63677D01*
X152766Y64354D01*
X152969Y65109D01*
Y65891D01*
X152766Y66646D01*
X152375Y67323D01*
X151823Y67875D01*
X151146Y68266D01*
X150391Y68468D01*
D02*
G37*
G36*
X339476Y70983D02*
X338500D01*
Y67000D01*
X343894D01*
X343807Y67660D01*
X343359Y68742D01*
X342647Y69670D01*
X341718Y70383D01*
X340637Y70831D01*
X339476Y70983D01*
D02*
G37*
G36*
X337500D02*
X336524D01*
X335363Y70831D01*
X334282Y70383D01*
X333353Y69670D01*
X332641Y68742D01*
X332193Y67660D01*
X332106Y67000D01*
X337500D01*
Y70983D01*
D02*
G37*
G36*
X343894Y66000D02*
X338500D01*
Y62017D01*
X339476D01*
X340637Y62169D01*
X341718Y62617D01*
X342647Y63330D01*
X343359Y64258D01*
X343807Y65340D01*
X343894Y66000D01*
D02*
G37*
G36*
X337500D02*
X332106D01*
X332193Y65340D01*
X332641Y64258D01*
X333353Y63330D01*
X334282Y62617D01*
X335363Y62169D01*
X336524Y62017D01*
X337500D01*
Y66000D01*
D02*
G37*
G36*
X23075Y68717D02*
X17925D01*
Y63568D01*
X18971D01*
Y62307D01*
X14819D01*
Y57354D01*
X19181D01*
Y58301D01*
X19331D01*
X19916Y58418D01*
X20412Y58749D01*
X21581Y59919D01*
X21913Y60415D01*
X22029Y61000D01*
Y63568D01*
X23075D01*
Y68717D01*
D02*
G37*
G36*
X147594Y60441D02*
X141461D01*
Y56079D01*
X141762D01*
X141954Y55617D01*
X141112Y54775D01*
X140391Y54969D01*
X139609D01*
X138854Y54766D01*
X138177Y54375D01*
X137625Y53823D01*
X137234Y53146D01*
X137031Y52391D01*
Y51609D01*
X137234Y50854D01*
X137625Y50177D01*
X138177Y49625D01*
X138854Y49234D01*
X139609Y49031D01*
X140391D01*
X141146Y49234D01*
X141823Y49625D01*
X142375Y50177D01*
X142766Y50854D01*
X142968Y51609D01*
Y52306D01*
X145609Y54946D01*
X145941Y55442D01*
X146057Y56028D01*
Y56079D01*
X147594D01*
Y60441D01*
D02*
G37*
G36*
X339476Y61141D02*
X336524D01*
X335363Y60988D01*
X334282Y60540D01*
X333353Y59828D01*
X332641Y58899D01*
X332193Y57818D01*
X332040Y56657D01*
X332193Y55497D01*
X332641Y54416D01*
X333353Y53487D01*
X334282Y52775D01*
X335363Y52327D01*
X336524Y52174D01*
X339476D01*
X340637Y52327D01*
X341718Y52775D01*
X342647Y53487D01*
X343359Y54416D01*
X343807Y55497D01*
X343960Y56657D01*
X343807Y57818D01*
X343359Y58899D01*
X342647Y59828D01*
X341718Y60540D01*
X340637Y60988D01*
X339476Y61141D01*
D02*
G37*
G36*
X271137Y56472D02*
X270999D01*
Y50500D01*
X276972D01*
Y50638D01*
X276723Y51888D01*
X276235Y53066D01*
X275527Y54126D01*
X274625Y55028D01*
X273565Y55736D01*
X272387Y56224D01*
X271137Y56472D01*
D02*
G37*
G36*
X269999D02*
X269862D01*
X268611Y56224D01*
X267433Y55736D01*
X266373Y55028D01*
X265472Y54126D01*
X264763Y53066D01*
X264276Y51888D01*
X264027Y50638D01*
Y50500D01*
X269999D01*
Y56472D01*
D02*
G37*
G36*
X98000Y53487D02*
X96968Y53351D01*
X96007Y52953D01*
X95181Y52319D01*
X94547Y51493D01*
X94149Y50532D01*
X94013Y49500D01*
X94149Y48468D01*
X94547Y47507D01*
X95181Y46681D01*
X96007Y46047D01*
X96968Y45649D01*
X98000Y45513D01*
X99032Y45649D01*
X99993Y46047D01*
X100819Y46681D01*
X101453Y47507D01*
X101851Y48468D01*
X101987Y49500D01*
X101851Y50532D01*
X101453Y51493D01*
X100819Y52319D01*
X99993Y52953D01*
X99032Y53351D01*
X98000Y53487D01*
D02*
G37*
G36*
X276972Y49500D02*
X270999D01*
Y43528D01*
X271137D01*
X272387Y43776D01*
X273565Y44264D01*
X274625Y44973D01*
X275527Y45874D01*
X276235Y46934D01*
X276723Y48112D01*
X276972Y49362D01*
Y49500D01*
D02*
G37*
G36*
X269999D02*
X264027D01*
Y49362D01*
X264276Y48112D01*
X264763Y46934D01*
X265472Y45874D01*
X266373Y44973D01*
X267433Y44264D01*
X268611Y43776D01*
X269862Y43528D01*
X269999D01*
Y49500D01*
D02*
G37*
G36*
X301137Y46472D02*
X300999D01*
Y40500D01*
X306972D01*
Y40637D01*
X306723Y41888D01*
X306235Y43066D01*
X305527Y44126D01*
X304625Y45028D01*
X303565Y45736D01*
X302387Y46224D01*
X301137Y46472D01*
D02*
G37*
G36*
X299999D02*
X299862D01*
X298611Y46224D01*
X297433Y45736D01*
X296373Y45028D01*
X295472Y44126D01*
X294763Y43066D01*
X294275Y41888D01*
X294027Y40637D01*
Y40500D01*
X299999D01*
Y46472D01*
D02*
G37*
G36*
X306972Y39500D02*
X300999D01*
Y33528D01*
X301137D01*
X302387Y33776D01*
X303565Y34264D01*
X304625Y34973D01*
X305527Y35874D01*
X306235Y36934D01*
X306723Y38112D01*
X306972Y39362D01*
Y39500D01*
D02*
G37*
G36*
X299999D02*
X294027D01*
Y39362D01*
X294275Y38112D01*
X294763Y36934D01*
X295472Y35874D01*
X296373Y34973D01*
X297433Y34264D01*
X298611Y33776D01*
X299862Y33528D01*
X299999D01*
Y39500D01*
D02*
G37*
G36*
X339476Y80826D02*
X336524D01*
X335363Y80673D01*
X334282Y80225D01*
X333353Y79513D01*
X332641Y78584D01*
X332193Y77503D01*
X332040Y76343D01*
X332193Y75182D01*
X332641Y74101D01*
X333353Y73172D01*
X334282Y72460D01*
X335363Y72012D01*
X336524Y71859D01*
X339476D01*
X340637Y72012D01*
X341718Y72460D01*
X342647Y73172D01*
X343359Y74101D01*
X343654Y74813D01*
X345024D01*
X345471Y74366D01*
Y40662D01*
X345007Y40470D01*
X344181Y39836D01*
X343547Y39010D01*
X343149Y38049D01*
X343013Y37017D01*
X343149Y35985D01*
X343547Y35023D01*
X344181Y34198D01*
X345007Y33564D01*
X345968Y33166D01*
X347000Y33030D01*
X348032Y33166D01*
X348993Y33564D01*
X349819Y34198D01*
X350453Y35023D01*
X350851Y35985D01*
X350987Y37017D01*
X350851Y38049D01*
X350453Y39010D01*
X349819Y39836D01*
X348993Y40470D01*
X348529Y40662D01*
Y75000D01*
X348413Y75585D01*
X348081Y76081D01*
X346739Y77424D01*
X346243Y77756D01*
X345657Y77872D01*
X343654D01*
X343359Y78584D01*
X342647Y79513D01*
X341718Y80225D01*
X340637Y80673D01*
X339476Y80826D01*
D02*
G37*
G36*
X271137Y36472D02*
X270999D01*
Y30500D01*
X276972D01*
Y30637D01*
X276723Y31888D01*
X276235Y33066D01*
X275527Y34126D01*
X274625Y35028D01*
X273565Y35736D01*
X272387Y36224D01*
X271137Y36472D01*
D02*
G37*
G36*
X269999D02*
X269862D01*
X268611Y36224D01*
X267433Y35736D01*
X266373Y35028D01*
X265472Y34126D01*
X264763Y33066D01*
X264276Y31888D01*
X264027Y30637D01*
Y30500D01*
X269999D01*
Y36472D01*
D02*
G37*
G36*
X276972Y29500D02*
X270999D01*
Y23528D01*
X271137D01*
X272387Y23776D01*
X273565Y24264D01*
X274625Y24972D01*
X275527Y25874D01*
X276235Y26934D01*
X276723Y28112D01*
X276972Y29362D01*
Y29500D01*
D02*
G37*
G36*
X269999D02*
X264027D01*
Y29362D01*
X264276Y28112D01*
X264763Y26934D01*
X265472Y25874D01*
X266373Y24972D01*
X267433Y24264D01*
X268611Y23776D01*
X269862Y23528D01*
X269999D01*
Y29500D01*
D02*
G37*
G36*
X335511Y30685D02*
X335146D01*
Y20185D01*
X345646D01*
Y20551D01*
X345375Y22261D01*
X344840Y23908D01*
X344054Y25450D01*
X343036Y26851D01*
X341812Y28075D01*
X340411Y29093D01*
X338868Y29879D01*
X337222Y30414D01*
X335511Y30685D01*
D02*
G37*
G36*
X334146D02*
X333780D01*
X332070Y30414D01*
X330423Y29879D01*
X328880Y29093D01*
X327480Y28075D01*
X326255Y26851D01*
X325238Y25450D01*
X324452Y23908D01*
X323917Y22261D01*
X323646Y20551D01*
Y20185D01*
X334146D01*
Y30685D01*
D02*
G37*
G36*
X19370D02*
X19004D01*
X17294Y30414D01*
X15648Y29879D01*
X14105Y29093D01*
X12704Y28075D01*
X11480Y26851D01*
X10462Y25450D01*
X9676Y23908D01*
X9141Y22261D01*
X8870Y20551D01*
Y20185D01*
X19370D01*
Y30685D01*
D02*
G37*
G36*
X71891Y14469D02*
X71109D01*
X70354Y14266D01*
X69677Y13875D01*
X69125Y13323D01*
X69075Y13236D01*
X68575Y13370D01*
Y14469D01*
X63425D01*
Y8531D01*
X68575D01*
Y9630D01*
X69075Y9764D01*
X69125Y9677D01*
X69677Y9125D01*
X70354Y8734D01*
X71109Y8531D01*
X71891D01*
X72646Y8734D01*
X73323Y9125D01*
X73875Y9677D01*
X74266Y10354D01*
X74468Y11109D01*
Y11891D01*
X74266Y12646D01*
X73875Y13323D01*
X73323Y13875D01*
X72646Y14266D01*
X71891Y14469D01*
D02*
G37*
G36*
X345646Y19185D02*
X335146D01*
Y8685D01*
X335511D01*
X337222Y8956D01*
X338868Y9491D01*
X340411Y10277D01*
X341812Y11295D01*
X343036Y12519D01*
X344054Y13920D01*
X344840Y15462D01*
X345375Y17109D01*
X345646Y18819D01*
Y19185D01*
D02*
G37*
G36*
X334146D02*
X323646D01*
Y18819D01*
X323917Y17109D01*
X324452Y15462D01*
X325238Y13920D01*
X326255Y12519D01*
X327480Y11295D01*
X328880Y10277D01*
X330423Y9491D01*
X332070Y8956D01*
X333780Y8685D01*
X334146D01*
Y19185D01*
D02*
G37*
G36*
X30870D02*
X20370D01*
Y8685D01*
X20736D01*
X22446Y8956D01*
X24093Y9491D01*
X25635Y10277D01*
X27036Y11295D01*
X28260Y12519D01*
X29278Y13920D01*
X30064Y15462D01*
X30599Y17109D01*
X30870Y18819D01*
Y19185D01*
D02*
G37*
G36*
X19370D02*
X8870D01*
Y18819D01*
X9141Y17109D01*
X9676Y15462D01*
X10462Y13920D01*
X11480Y12519D01*
X12704Y11295D01*
X14105Y10277D01*
X15648Y9491D01*
X17294Y8956D01*
X19004Y8685D01*
X19370D01*
Y19185D01*
D02*
G37*
%LPD*%
G36*
X92170Y255907D02*
Y255492D01*
X91956Y254691D01*
X91541Y253973D01*
X90955Y253386D01*
X90236Y252972D01*
X89435Y252757D01*
X88606D01*
X87805Y252972D01*
X87087Y253386D01*
X86500Y253973D01*
X86086Y254691D01*
X85871Y255492D01*
Y255907D01*
X85871Y255907D01*
Y265355D01*
X92170Y265355D01*
X92170Y255907D01*
D02*
G37*
G36*
X142170Y255907D02*
Y255492D01*
X141956Y254691D01*
X141541Y253973D01*
X140954Y253386D01*
X140236Y252972D01*
X139435Y252757D01*
X138606D01*
X137805Y252972D01*
X137087Y253386D01*
X136500Y253973D01*
X136086Y254691D01*
X135871Y255492D01*
Y255907D01*
X135871Y265355D01*
X142170Y265355D01*
Y255907D01*
D02*
G37*
G36*
X122170D02*
X122170D01*
Y255492D01*
X121956Y254691D01*
X121541Y253973D01*
X120955Y253386D01*
X120236Y252972D01*
X119435Y252757D01*
X118606D01*
X117805Y252972D01*
X117087Y253386D01*
X116500Y253973D01*
X116086Y254691D01*
X115871Y255492D01*
Y255907D01*
Y265355D01*
X122170D01*
Y255907D01*
D02*
G37*
G36*
X62170Y265355D02*
Y255907D01*
Y255492D01*
X61956Y254691D01*
X61541Y253973D01*
X60954Y253386D01*
X60236Y252972D01*
X59435Y252757D01*
X58606D01*
X57805Y252972D01*
X57087Y253386D01*
X56500Y253973D01*
X56086Y254691D01*
X55871Y255492D01*
X55871Y255907D01*
Y265355D01*
X62170Y265355D01*
D02*
G37*
G36*
X207564Y227749D02*
X198115Y227749D01*
X197700D01*
X196899Y227964D01*
X196181Y228378D01*
X195595Y228965D01*
X195180Y229683D01*
X194966Y230484D01*
Y231313D01*
X195180Y232114D01*
X195595Y232833D01*
X196181Y233419D01*
X196899Y233834D01*
X197700Y234048D01*
X207564D01*
X207564Y227749D01*
D02*
G37*
G36*
X207564Y207749D02*
X197700D01*
X196899Y207964D01*
X196181Y208378D01*
X195595Y208965D01*
X195180Y209683D01*
X194966Y210484D01*
Y211313D01*
X195180Y212114D01*
X195595Y212832D01*
X196181Y213419D01*
X196899Y213834D01*
X197700Y214048D01*
X198115D01*
X207564Y214048D01*
X207564Y207749D01*
D02*
G37*
G36*
X20236Y188826D02*
X20955Y188411D01*
X21541Y187825D01*
X21956Y187107D01*
X22170Y186305D01*
Y185891D01*
X22170Y176442D01*
X15871Y176442D01*
Y185891D01*
X15871Y185891D01*
Y186305D01*
X16086Y187107D01*
X16500Y187825D01*
X17087Y188411D01*
X17805Y188826D01*
X18606Y189040D01*
X19435D01*
X20236Y188826D01*
D02*
G37*
G36*
X10236Y188826D02*
X10954Y188411D01*
X11541Y187825D01*
X11956Y187107D01*
X12170Y186305D01*
Y185891D01*
Y185891D01*
Y176442D01*
X5871D01*
Y185891D01*
X5871Y186305D01*
X6086Y187107D01*
X6500Y187825D01*
X7087Y188411D01*
X7805Y188826D01*
X8606Y189040D01*
X9435D01*
X10236Y188826D01*
D02*
G37*
G36*
X112170Y255907D02*
Y255492D01*
X111956Y254691D01*
X111541Y253973D01*
X110954Y253386D01*
X110236Y252972D01*
X109435Y252757D01*
X108606D01*
X107805Y252972D01*
X107087Y253386D01*
X106500Y253973D01*
X106086Y254691D01*
X105871Y255492D01*
Y255907D01*
X105871Y255907D01*
Y265355D01*
X112170Y265355D01*
X112170Y255907D01*
D02*
G37*
G36*
X42170Y265355D02*
Y255907D01*
Y255492D01*
X41956Y254691D01*
X41541Y253973D01*
X40955Y253386D01*
X40236Y252972D01*
X39435Y252757D01*
X38606D01*
X37805Y252972D01*
X37087Y253386D01*
X36500Y253973D01*
X36086Y254691D01*
X35871Y255492D01*
X35871Y255907D01*
Y265355D01*
X42170Y265355D01*
D02*
G37*
G36*
X52170Y255907D02*
Y255492D01*
X51956Y254691D01*
X51541Y253973D01*
X50955Y253386D01*
X50236Y252972D01*
X49435Y252757D01*
X48606D01*
X47805Y252972D01*
X47087Y253386D01*
X46500Y253973D01*
X46086Y254691D01*
X45871Y255492D01*
Y255907D01*
X45871Y265355D01*
X52170Y265355D01*
Y255907D01*
D02*
G37*
G36*
X12170Y265355D02*
Y255907D01*
Y255907D01*
Y255492D01*
X11956Y254691D01*
X11541Y253973D01*
X10954Y253386D01*
X10236Y252972D01*
X9435Y252757D01*
X8606D01*
X7805Y252972D01*
X7087Y253386D01*
X6500Y253973D01*
X6086Y254691D01*
X5871Y255492D01*
Y255907D01*
X5871Y255907D01*
Y265355D01*
X12170Y265355D01*
D02*
G37*
G36*
X152170D02*
Y255907D01*
Y255492D01*
X151956Y254691D01*
X151541Y253973D01*
X150954Y253386D01*
X150236Y252972D01*
X149435Y252757D01*
X148606D01*
X147805Y252972D01*
X147087Y253386D01*
X146500Y253973D01*
X146086Y254691D01*
X145871Y255492D01*
Y255907D01*
X145871Y255907D01*
X145871Y265355D01*
X152170Y265355D01*
D02*
G37*
G36*
X172170Y255907D02*
X172170Y255907D01*
Y255492D01*
X171956Y254691D01*
X171541Y253973D01*
X170955Y253386D01*
X170236Y252972D01*
X169435Y252757D01*
X168606D01*
X167805Y252972D01*
X167087Y253386D01*
X166500Y253973D01*
X166086Y254691D01*
X165871Y255492D01*
X165871Y255907D01*
Y265355D01*
X172170D01*
X172170Y255907D01*
D02*
G37*
G36*
X202170Y255907D02*
X202170Y255907D01*
Y255492D01*
X201956Y254691D01*
X201541Y253973D01*
X200955Y253386D01*
X200236Y252972D01*
X199435Y252757D01*
X198606D01*
X197805Y252972D01*
X197087Y253386D01*
X196500Y253973D01*
X196086Y254691D01*
X195871Y255492D01*
Y255907D01*
X195871Y255907D01*
Y265355D01*
X202170Y265355D01*
Y255907D01*
D02*
G37*
G36*
X192170Y255907D02*
Y255492D01*
X191956Y254691D01*
X191541Y253973D01*
X190954Y253386D01*
X190236Y252972D01*
X189435Y252757D01*
X188606D01*
X187805Y252972D01*
X187087Y253386D01*
X186500Y253973D01*
X186086Y254691D01*
X185871Y255492D01*
X185871Y255907D01*
Y265355D01*
X192170D01*
Y255907D01*
D02*
G37*
G36*
X162170D02*
X162170D01*
Y255492D01*
X161956Y254691D01*
X161541Y253973D01*
X160954Y253386D01*
X160236Y252972D01*
X159435Y252757D01*
X158606D01*
X157805Y252972D01*
X157087Y253386D01*
X156500Y253973D01*
X156086Y254691D01*
X155871Y255492D01*
X155871Y255907D01*
Y265355D01*
X162170Y265355D01*
X162170Y255907D01*
D02*
G37*
G36*
X102170D02*
X102170D01*
Y255492D01*
X101956Y254691D01*
X101541Y253973D01*
X100954Y253386D01*
X100236Y252972D01*
X99435Y252757D01*
X98606D01*
X97805Y252972D01*
X97087Y253386D01*
X96500Y253973D01*
X96086Y254691D01*
X95871Y255492D01*
Y255907D01*
Y265355D01*
X102170D01*
X102170Y255907D01*
D02*
G37*
G36*
X72170Y265355D02*
Y255907D01*
Y255492D01*
X71956Y254691D01*
X71541Y253973D01*
X70955Y253386D01*
X70236Y252972D01*
X69435Y252757D01*
X68606D01*
X67805Y252972D01*
X67087Y253386D01*
X66500Y253973D01*
X66086Y254691D01*
X65871Y255492D01*
X65871Y255907D01*
X65871Y265355D01*
X72170Y265355D01*
D02*
G37*
G36*
X22170Y255907D02*
Y255492D01*
X21956Y254691D01*
X21541Y253973D01*
X20955Y253386D01*
X20236Y252972D01*
X19435Y252757D01*
X18606D01*
X17805Y252972D01*
X17087Y253386D01*
X16500Y253973D01*
X16086Y254691D01*
X15871Y255492D01*
Y255907D01*
X15871Y255907D01*
Y265355D01*
X22170Y265355D01*
X22170Y255907D01*
D02*
G37*
G36*
X40236Y188826D02*
X40955Y188411D01*
X41541Y187825D01*
X41956Y187107D01*
X42170Y186305D01*
Y185891D01*
Y176442D01*
X35871Y176442D01*
Y185891D01*
X35871Y186305D01*
X36086Y187107D01*
X36500Y187825D01*
X37087Y188411D01*
X37805Y188826D01*
X38606Y189040D01*
X39435D01*
X40236Y188826D01*
D02*
G37*
G36*
X200236D02*
X200955Y188411D01*
X201541Y187825D01*
X201956Y187107D01*
X202170Y186305D01*
Y185891D01*
X202170Y185891D01*
Y176442D01*
X195871Y176442D01*
Y185891D01*
X195871D01*
Y186305D01*
X196086Y187107D01*
X196500Y187825D01*
X197087Y188411D01*
X197805Y188826D01*
X198606Y189040D01*
X199435D01*
X200236Y188826D01*
D02*
G37*
G36*
X190236Y188826D02*
X190954Y188411D01*
X191541Y187825D01*
X191956Y187107D01*
X192170Y186305D01*
Y185891D01*
Y176442D01*
X185871D01*
Y185891D01*
X185871Y186305D01*
X186086Y187107D01*
X186500Y187825D01*
X187087Y188411D01*
X187805Y188826D01*
X188606Y189040D01*
X189435D01*
X190236Y188826D01*
D02*
G37*
G36*
X160236D02*
X160954Y188411D01*
X161541Y187825D01*
X161956Y187107D01*
X162170Y186305D01*
Y185891D01*
X162170D01*
X162170Y176442D01*
X155871Y176442D01*
Y185891D01*
X155871Y186305D01*
X156086Y187107D01*
X156500Y187825D01*
X157087Y188411D01*
X157805Y188826D01*
X158606Y189040D01*
X159435D01*
X160236Y188826D01*
D02*
G37*
G36*
X110236D02*
X110954Y188411D01*
X111541Y187825D01*
X111956Y187107D01*
X112170Y186305D01*
Y185891D01*
X112170Y176442D01*
X105871Y176442D01*
Y185891D01*
X105871Y185891D01*
Y186305D01*
X106086Y187107D01*
X106500Y187825D01*
X107087Y188411D01*
X107805Y188826D01*
X108606Y189040D01*
X109435D01*
X110236Y188826D01*
D02*
G37*
G36*
X100236D02*
X100954Y188411D01*
X101541Y187825D01*
X101956Y187107D01*
X102170Y186305D01*
Y185891D01*
X102170D01*
Y176442D01*
X95871D01*
Y185891D01*
Y186305D01*
X96086Y187107D01*
X96500Y187825D01*
X97087Y188411D01*
X97805Y188826D01*
X98606Y189040D01*
X99435D01*
X100236Y188826D01*
D02*
G37*
G36*
X90236Y188826D02*
X90955Y188411D01*
X91541Y187825D01*
X91956Y187107D01*
X92170Y186305D01*
Y185891D01*
X92170Y176442D01*
X85871D01*
Y185891D01*
X85871Y186305D01*
X86086Y187107D01*
X86500Y187825D01*
X87087Y188411D01*
X87805Y188826D01*
X88606Y189040D01*
X89435D01*
X90236Y188826D01*
D02*
G37*
G36*
X70236Y188826D02*
X70955Y188411D01*
X71541Y187825D01*
X71956Y187107D01*
X72170Y186305D01*
Y185891D01*
Y176442D01*
X65871D01*
X65871Y185891D01*
X65871Y186305D01*
X66086Y187107D01*
X66500Y187825D01*
X67087Y188411D01*
X67805Y188826D01*
X68606Y189040D01*
X69435D01*
X70236Y188826D01*
D02*
G37*
G36*
X50236D02*
X50955Y188411D01*
X51541Y187825D01*
X51956Y187107D01*
X52170Y186305D01*
Y185891D01*
Y176442D01*
X45871D01*
X45871Y185891D01*
Y186305D01*
X46086Y187107D01*
X46500Y187825D01*
X47087Y188411D01*
X47805Y188826D01*
X48606Y189040D01*
X49435D01*
X50236Y188826D01*
D02*
G37*
G36*
X170236Y188826D02*
X170955Y188411D01*
X171541Y187825D01*
X171956Y187107D01*
X172170Y186305D01*
Y185891D01*
Y176442D01*
X165871Y176442D01*
Y185891D01*
X165871Y186305D01*
X166086Y187107D01*
X166500Y187825D01*
X167087Y188411D01*
X167805Y188826D01*
X168606Y189040D01*
X169435D01*
X170236Y188826D01*
D02*
G37*
G36*
X150236Y188826D02*
X150954Y188411D01*
X151541Y187825D01*
X151956Y187107D01*
X152170Y186305D01*
Y185891D01*
Y176442D01*
X145871Y176442D01*
Y185891D01*
X145871Y186305D01*
X146086Y187107D01*
X146500Y187825D01*
X147087Y188411D01*
X147805Y188826D01*
X148606Y189040D01*
X149435D01*
X150236Y188826D01*
D02*
G37*
G36*
X140236Y188826D02*
X140954Y188411D01*
X141541Y187825D01*
X141956Y187107D01*
X142170Y186305D01*
Y185891D01*
Y176442D01*
X135871Y176442D01*
X135871Y185891D01*
Y186305D01*
X136086Y187107D01*
X136500Y187825D01*
X137087Y188411D01*
X137805Y188826D01*
X138606Y189040D01*
X139435D01*
X140236Y188826D01*
D02*
G37*
G36*
X120236D02*
X120955Y188411D01*
X121541Y187825D01*
X121956Y187107D01*
X122170Y186305D01*
Y185891D01*
Y176442D01*
X115871Y176442D01*
Y185891D01*
X115871Y186305D01*
X116086Y187107D01*
X116500Y187825D01*
X117087Y188411D01*
X117805Y188826D01*
X118606Y189040D01*
X119435D01*
X120236Y188826D01*
D02*
G37*
%LPC*%
G36*
X299591Y122464D02*
Y109500D01*
X302581D01*
Y119039D01*
X302462Y119943D01*
X302114Y120785D01*
X301559Y121508D01*
X300836Y122062D01*
X299994Y122411D01*
X299591Y122464D01*
D02*
G37*
G36*
X298591D02*
X298187Y122411D01*
X297345Y122062D01*
X296622Y121508D01*
X296068Y120785D01*
X295719Y119943D01*
X295600Y119039D01*
Y109500D01*
X298591D01*
Y122464D01*
D02*
G37*
G36*
X339476Y105983D02*
X338500D01*
Y102000D01*
X343894D01*
X343807Y102660D01*
X343359Y103742D01*
X342647Y104670D01*
X341718Y105383D01*
X340637Y105831D01*
X339476Y105983D01*
D02*
G37*
G36*
X337500D02*
X336524D01*
X335363Y105831D01*
X334282Y105383D01*
X333353Y104670D01*
X332641Y103742D01*
X332193Y102660D01*
X332106Y102000D01*
X337500D01*
Y105983D01*
D02*
G37*
G36*
X343894Y101000D02*
X338500D01*
Y97017D01*
X339476D01*
X340637Y97170D01*
X341718Y97617D01*
X342647Y98330D01*
X343359Y99258D01*
X343807Y100340D01*
X343894Y101000D01*
D02*
G37*
G36*
X337500D02*
X332106D01*
X332193Y100340D01*
X332641Y99258D01*
X333353Y98330D01*
X334282Y97617D01*
X335363Y97170D01*
X336524Y97017D01*
X337500D01*
Y101000D01*
D02*
G37*
G36*
X302581Y108500D02*
X299591D01*
Y95536D01*
X299994Y95589D01*
X300836Y95938D01*
X301559Y96492D01*
X302114Y97215D01*
X302462Y98057D01*
X302581Y98961D01*
Y108500D01*
D02*
G37*
G36*
X298591D02*
X295600D01*
Y98961D01*
X295719Y98057D01*
X296068Y97215D01*
X296622Y96492D01*
X297345Y95938D01*
X298187Y95589D01*
X298591Y95536D01*
Y108500D01*
D02*
G37*
G36*
X79000Y124964D02*
Y112000D01*
X81990D01*
Y121539D01*
X81872Y122443D01*
X81523Y123285D01*
X80968Y124007D01*
X80245Y124562D01*
X79403Y124911D01*
X79000Y124964D01*
D02*
G37*
G36*
X78000D02*
X77597Y124911D01*
X76755Y124562D01*
X76032Y124007D01*
X75477Y123285D01*
X75128Y122443D01*
X75010Y121539D01*
Y112000D01*
X78000D01*
Y124964D01*
D02*
G37*
G36*
X81990Y111000D02*
X79000D01*
Y98036D01*
X79403Y98089D01*
X80245Y98438D01*
X80968Y98993D01*
X81523Y99715D01*
X81872Y100557D01*
X81990Y101461D01*
Y111000D01*
D02*
G37*
G36*
X78000D02*
X75010D01*
Y101461D01*
X75128Y100557D01*
X75477Y99715D01*
X76032Y98993D01*
X76755Y98438D01*
X77597Y98089D01*
X78000Y98036D01*
Y111000D01*
D02*
G37*
G36*
X274000Y122464D02*
Y109500D01*
X276991D01*
Y119039D01*
X276871Y119943D01*
X276523Y120785D01*
X275968Y121508D01*
X275245Y122062D01*
X274403Y122411D01*
X274000Y122464D01*
D02*
G37*
G36*
X273000D02*
X272597Y122411D01*
X271755Y122062D01*
X271032Y121508D01*
X270477Y120785D01*
X270128Y119943D01*
X270009Y119039D01*
Y109500D01*
X273000D01*
Y122464D01*
D02*
G37*
G36*
X276991Y108500D02*
X274000D01*
Y95536D01*
X274403Y95589D01*
X275245Y95938D01*
X275968Y96492D01*
X276523Y97215D01*
X276871Y98057D01*
X276991Y98961D01*
Y108500D01*
D02*
G37*
G36*
X273000D02*
X270009D01*
Y98961D01*
X270128Y98057D01*
X270477Y97215D01*
X271032Y96492D01*
X271755Y95938D01*
X272597Y95589D01*
X273000Y95536D01*
Y108500D01*
D02*
G37*
%LPD*%
D10*
X180000Y310500D02*
X191712Y322212D01*
Y339500D01*
X175500Y310500D02*
X180000D01*
X181712Y339500D02*
X182000Y339212D01*
Y323000D02*
Y339212D01*
X176500Y317500D02*
X182000Y323000D01*
X279500Y339500D02*
X279500Y339500D01*
X279500Y326500D02*
Y339500D01*
X261500Y308500D02*
X279500Y326500D01*
X224000Y308500D02*
X261500D01*
X219500Y313000D02*
X224000Y308500D01*
X256000Y313000D02*
X269500Y326500D01*
Y339500D01*
X227500Y313000D02*
X256000D01*
X159084Y249468D02*
Y259048D01*
Y248000D02*
Y249468D01*
Y247416D02*
Y248000D01*
X169000Y248937D02*
Y258965D01*
X169084Y259048D01*
X229500Y331000D02*
Y339500D01*
X221500Y323000D02*
X229500Y331000D01*
X197000Y323000D02*
X221500D01*
X189084Y249468D02*
Y259048D01*
Y246584D02*
Y249468D01*
X143475Y245743D02*
X143616Y245884D01*
X139000Y249500D02*
Y258965D01*
X119000Y248000D02*
X121257Y245743D01*
X143475D01*
X95000Y242000D02*
X169500D01*
X89000Y248000D02*
X95000Y242000D01*
X157475Y281380D02*
X157907Y280947D01*
X161053D02*
X161500Y280500D01*
X157907Y280947D02*
X161053D01*
X199000Y194500D02*
X199084Y194416D01*
X139000Y258965D02*
X139084Y259048D01*
X149000Y249500D02*
Y258965D01*
X149084Y259048D01*
X119000Y248000D02*
Y258965D01*
X119084Y259048D01*
X59084Y240752D02*
X61835Y238000D01*
X173000D01*
X59000Y249385D02*
X59084Y249468D01*
X173000Y238000D02*
X179000Y244000D01*
X189941Y280000D02*
X190000Y280059D01*
Y291500D01*
X198500Y248000D02*
X198587Y248087D01*
Y258551D02*
X199084Y259048D01*
X198587Y248087D02*
Y258551D01*
X150000Y297618D02*
Y303000D01*
X149882Y297500D02*
X150000Y297618D01*
X159084Y249468D02*
X159500Y249052D01*
X180000Y302989D02*
X180014Y303003D01*
X180000Y292158D02*
Y302989D01*
X179000Y244000D02*
Y248000D01*
X59084Y249468D02*
Y259048D01*
Y240752D02*
Y249468D01*
X140000Y280000D02*
Y298140D01*
Y280000D02*
X143000Y277000D01*
X103923Y331077D02*
Y339500D01*
Y331077D02*
X137000Y298000D01*
Y277000D02*
Y298000D01*
X113923Y324216D02*
Y339500D01*
Y324216D02*
X140000Y298140D01*
X133000Y279054D02*
Y299000D01*
X131000Y277054D02*
X133000Y279054D01*
X124500Y307500D02*
X133000Y299000D01*
X131000Y277000D02*
Y277054D01*
X112000Y307500D02*
X124500D01*
X93923Y325577D02*
X112000Y307500D01*
X93923Y325577D02*
Y339500D01*
X83923Y322577D02*
X91000Y315500D01*
X83923Y322577D02*
Y339500D01*
X91000Y315500D02*
X98000D01*
X102000Y311500D01*
X99000Y258965D02*
X99084Y259048D01*
X99000Y248000D02*
Y258965D01*
X73923Y326577D02*
Y339500D01*
Y326577D02*
X89000Y311500D01*
X95000D01*
X155500Y84000D02*
X168405D01*
X155000Y84500D02*
X155500Y84000D01*
X171905Y87500D02*
X185000D01*
X188000Y84500D01*
Y73000D02*
Y84500D01*
X168405Y84000D02*
X171905Y87500D01*
X157000Y131500D02*
X162830Y125670D01*
X168397Y121494D02*
X173911Y115981D01*
X175020D01*
X178621Y112379D01*
X169789Y122886D02*
X173176Y119500D01*
X179500D01*
X178621Y112379D02*
X178621D01*
X173000Y108938D02*
Y114108D01*
X167006Y120103D02*
X173000Y114108D01*
Y107000D02*
X173139Y107139D01*
Y108798D01*
X173000Y108938D02*
X173139Y108798D01*
X162621Y114879D02*
X166500Y111000D01*
X162145Y117597D02*
X162621Y117121D01*
Y114879D02*
Y117121D01*
X162145Y117608D02*
X162621Y118084D01*
X162145Y117597D02*
Y117608D01*
X39084Y198084D02*
X44500Y203500D01*
X69500D01*
X39084Y182749D02*
Y198084D01*
X49000Y194000D02*
X49084Y193916D01*
Y182749D02*
Y193916D01*
X239500Y264500D02*
Y301500D01*
X214000Y239000D02*
X239500Y264500D01*
X210500Y241500D02*
X233500Y264500D01*
Y299000D01*
X189500Y241500D02*
X210500D01*
X43835Y235335D02*
X183335D01*
X189500Y241500D01*
X191270Y239000D02*
X214000D01*
X184270Y232000D02*
X191270Y239000D01*
X192000Y234910D02*
X194090Y237000D01*
X215000D02*
X242000Y264000D01*
X194090Y237000D02*
X215000D01*
X192000Y212500D02*
X193601Y210899D01*
X192000Y212500D02*
Y234910D01*
X30500Y218000D02*
X44500Y232000D01*
X184270D01*
X27500Y219000D02*
X43835Y235335D01*
X27500Y212708D02*
Y219000D01*
X19000Y194500D02*
Y198500D01*
X30500Y210000D02*
Y218000D01*
X19000Y198500D02*
X30500Y210000D01*
X9292Y194500D02*
X27500Y212708D01*
X315063Y309000D02*
X334000D01*
X285591Y279528D02*
X315063Y309000D01*
X9084Y193584D02*
X9500Y194000D01*
X9084Y182749D02*
Y193584D01*
X314063Y298000D02*
X334000D01*
X295590Y279528D02*
X314063Y298000D01*
X19084Y182749D02*
Y193916D01*
X212000Y266000D02*
X216000Y262000D01*
X32500Y142500D02*
X40000Y150000D01*
X32500Y49000D02*
Y142500D01*
X69084Y249468D02*
Y259048D01*
Y247584D02*
Y249468D01*
X39500Y157500D02*
X52000D01*
X59000Y164500D01*
Y182665D01*
X4500Y118000D02*
Y122500D01*
X39500Y157500D01*
X4500Y118000D02*
X13354Y109146D01*
X3500Y69000D02*
X13760Y79260D01*
X3500Y54000D02*
Y69000D01*
X13760Y79260D02*
Y103669D01*
X39086Y18414D02*
X91914D01*
X3500Y54000D02*
X39086Y18414D01*
X8000Y55500D02*
X9224D01*
X13260Y51464D01*
X91914Y18414D02*
X113000Y39500D01*
Y49000D01*
X173000Y107000D02*
Y107000D01*
X168500Y102500D02*
X173000Y107000D01*
X168500Y89000D02*
Y102500D01*
X219843Y280000D02*
X228500D01*
X219500Y279658D02*
X219843Y280000D01*
X13354Y104075D02*
X13760Y103669D01*
X13354Y104075D02*
Y109146D01*
X13260Y51169D02*
Y51464D01*
X20500Y61000D02*
Y66143D01*
X17000Y59831D02*
X19331D01*
X20500Y61000D01*
X21000Y113000D02*
Y119000D01*
X17500Y112331D02*
X20331D01*
X21000Y113000D01*
X8000Y119500D02*
X13896D01*
X173238Y100000D02*
X176619Y103381D01*
X173000Y100000D02*
X173238D01*
X176619Y103381D02*
X176619D01*
X187500Y61000D02*
X192500D01*
X186756D02*
X187500D01*
X182240Y58969D02*
X182248Y58977D01*
X182240Y60937D02*
Y65740D01*
X183000Y66500D02*
X188000D01*
X182240Y65740D02*
X183000Y66500D01*
X182118Y73000D02*
X188000D01*
X182000Y72882D02*
X182118Y73000D01*
X7000Y66500D02*
X13360D01*
X13396Y66536D01*
X66000Y11500D02*
X71500D01*
X289500Y330000D02*
Y339500D01*
X242000Y264000D02*
Y282500D01*
X289500Y330000D01*
X216000Y257500D02*
Y262000D01*
X203334Y287500D02*
X203338Y287496D01*
X199000Y287500D02*
X203334D01*
X196000Y290500D02*
Y298000D01*
Y290500D02*
X199000Y287500D01*
X172831Y281831D02*
Y286941D01*
X165000Y274000D02*
Y274000D01*
X172831Y281831D01*
X155000Y297500D02*
Y304000D01*
X152500Y306500D02*
X155000Y304000D01*
X139500Y306500D02*
X152500D01*
X338000Y76343D02*
X345657D01*
X347000Y75000D01*
Y37017D02*
Y75000D01*
X20712Y124618D02*
X21000Y124906D01*
X13896Y124618D02*
X20712D01*
X20106Y71654D02*
X20500Y72048D01*
X13396Y71654D02*
X20106D01*
X187685Y42500D02*
X194941D01*
X187500Y42315D02*
X187685Y42500D01*
X187315D02*
X187500Y42315D01*
X180000Y42500D02*
X187315D01*
X174760Y47740D02*
Y51260D01*
Y47740D02*
X180000Y42500D01*
X144500Y79500D02*
X150000D01*
X144528Y65740D02*
X144648Y65620D01*
X149880D01*
X150000Y65500D01*
X164000Y46000D02*
Y51441D01*
X155000Y59000D02*
X155730D01*
X158171Y56559D02*
X164000D01*
X155730Y59000D02*
X158171Y56559D01*
X140500Y52000D02*
X144528Y56028D01*
X140000Y52000D02*
X140500D01*
X144528Y56028D02*
Y58260D01*
X186310Y127690D02*
X189000Y125000D01*
X183619Y130381D02*
X186310Y127690D01*
X174563Y123531D02*
X182150D01*
X186310Y127690D01*
X174563Y123532D02*
X174563Y123531D01*
X172763Y123532D02*
X174563D01*
X170416Y125879D02*
X172763Y123532D01*
X173205Y129000D02*
X175205Y127000D01*
X176000D01*
X170753Y129000D02*
X173205D01*
X169024Y127271D02*
X169024D01*
X170753Y129000D01*
X162264Y120500D02*
X163824D01*
X165613Y118711D02*
X165614D01*
X163824Y120500D02*
X165613Y118711D01*
X161240Y119476D02*
X162264Y120500D01*
X161229Y119476D02*
X161240D01*
X159500Y113000D02*
X163000Y109500D01*
Y106000D02*
Y109500D01*
X160000Y103000D02*
X163000Y106000D01*
X159500Y117747D02*
X161229Y119476D01*
X159500Y113000D02*
Y117747D01*
X160000Y103000D02*
Y103000D01*
X159500Y63000D02*
X164054D01*
X159250Y62750D02*
X159500Y63000D01*
X164054D02*
X166054Y61000D01*
X168569Y49500D02*
X173000D01*
X164000Y51441D02*
X164156Y51285D01*
X166784D02*
X168569Y49500D01*
X169500Y61000D02*
X171531Y58969D01*
X164156Y51285D02*
X166784D01*
X169916Y53091D02*
X170211D01*
X166054Y61000D02*
X169500D01*
X170211Y53091D02*
X172144Y55023D01*
X173059Y56559D02*
X173500Y57000D01*
X171531Y58969D02*
X174760D01*
X173500Y57000D02*
X174760D01*
X174752Y55023D02*
X174760Y55031D01*
X172144Y55023D02*
X174752D01*
X164000Y56559D02*
X173059D01*
X184724Y58969D02*
X186756Y61000D01*
X182240Y55031D02*
X182248Y55039D01*
X173000Y49500D02*
X174760Y51260D01*
Y53063D01*
X182240Y58969D02*
X184724D01*
X182240Y55031D02*
X187469D01*
X192500Y61000D02*
X194685Y58815D01*
Y55500D02*
Y58815D01*
X187469Y55031D02*
X187500Y55000D01*
X212311Y274941D02*
X212345Y274907D01*
Y274597D02*
Y274907D01*
X212000Y266000D02*
Y274941D01*
X89000Y248000D02*
Y258965D01*
X164169Y283169D02*
Y286941D01*
X161500Y280500D02*
X164169Y283169D01*
Y286941D02*
X165153D01*
X109084Y259048D02*
Y280416D01*
X109000Y280500D02*
X109084Y280416D01*
X205232Y274031D02*
X210106D01*
X203338Y274941D02*
X204323D01*
X205232Y274031D01*
X210106D02*
X211016Y274941D01*
X212000D01*
X165153Y286941D02*
X166063Y286032D01*
X170937D02*
X171847Y286941D01*
X172831D01*
X166063Y286032D02*
X170937D01*
X201328Y230899D02*
X212399D01*
X299500Y318000D01*
Y339500D01*
X193601Y210899D02*
X201328D01*
X19084Y249468D02*
Y259048D01*
Y248000D02*
Y249468D01*
Y247584D02*
Y248000D01*
X4697Y285685D02*
X8077Y282305D01*
X10185Y280000D02*
X15587D01*
X39000D01*
X5000Y285343D02*
X5197D01*
X8077Y282108D02*
X10185Y280000D01*
X8077Y282108D02*
Y282305D01*
X189000Y194500D02*
X189084Y194416D01*
X99000Y194000D02*
X99084Y193916D01*
X169000Y194000D02*
X169084Y193916D01*
X159000Y194000D02*
X159084Y193916D01*
X139084Y193584D02*
X139500Y194000D01*
X118500D02*
X119084Y193416D01*
X149000Y193500D02*
X149084Y193416D01*
X109000Y193500D02*
X109084Y193416D01*
X89000Y193500D02*
X89084Y193416D01*
X69084Y192584D02*
X69500Y193000D01*
X199084Y182749D02*
Y194416D01*
X189084Y182749D02*
Y194416D01*
X169084Y182749D02*
Y193916D01*
X159084Y182749D02*
Y193916D01*
X149084Y182749D02*
Y193416D01*
X139084Y182749D02*
Y193584D01*
X119084Y182749D02*
Y193416D01*
X109084Y182749D02*
Y193416D01*
X99084Y182749D02*
Y193916D01*
X89084Y182749D02*
Y193416D01*
X69084Y182749D02*
Y192584D01*
X189000Y249385D02*
X189084Y249468D01*
X89000Y258965D02*
X89084Y259048D01*
X68500Y248885D02*
X69084Y249468D01*
X19000Y249385D02*
X19084Y249468D01*
X180000Y286842D02*
X180157Y287000D01*
X203338Y280059D02*
Y287496D01*
X164000Y300000D02*
X164169Y299831D01*
Y292059D02*
Y299831D01*
X195059Y280000D02*
X195118Y280059D01*
X203338D01*
X158000Y290500D02*
X159559Y292059D01*
X164169D01*
X155000Y290500D02*
X158000D01*
X155000D02*
Y297500D01*
X195059Y273000D02*
Y280000D01*
X195059Y280000D01*
X172831Y292059D02*
X179902D01*
X180000Y292158D01*
X212000Y280059D02*
X219098D01*
X219500Y279658D01*
X56000Y274500D02*
X65500D01*
X49084Y259048D02*
Y267584D01*
X56000Y274500D01*
X121029Y291529D02*
X121559Y292059D01*
X128500D01*
X56059Y291559D02*
X62500D01*
X55000Y290500D02*
X56059Y291559D01*
X128500Y282000D02*
Y286941D01*
X127000Y280500D02*
X128500Y282000D01*
X117327Y280500D02*
X127000D01*
X109000D02*
X117327D01*
X81500D02*
X109000D01*
X70467Y282086D02*
Y286343D01*
X72053Y280500D02*
X81500D01*
X70467Y282086D02*
X72053Y280500D01*
X39000Y280000D02*
X51413D01*
X39084Y259048D02*
Y279916D01*
X39000Y280000D02*
X39084Y279916D01*
X62500Y283000D02*
Y286441D01*
X59500Y280000D02*
X62500Y283000D01*
X51413Y280000D02*
X59500D01*
X51305Y297608D02*
X51413Y297716D01*
X15587D02*
X15695Y297608D01*
D20*
X182240Y53063D02*
D03*
Y55031D02*
D03*
Y57000D02*
D03*
Y58969D02*
D03*
Y60937D02*
D03*
X174760D02*
D03*
Y58969D02*
D03*
Y57000D02*
D03*
Y55031D02*
D03*
Y53063D02*
D03*
D21*
X182000Y78000D02*
D03*
Y72882D02*
D03*
X164000Y51441D02*
D03*
Y56559D02*
D03*
X144500Y84618D02*
D03*
Y79500D02*
D03*
X224500Y125941D02*
D03*
Y131059D02*
D03*
X13396Y66536D02*
D03*
Y71654D02*
D03*
X13896Y119500D02*
D03*
Y124618D02*
D03*
X62500Y286441D02*
D03*
Y291559D02*
D03*
X128500Y286941D02*
D03*
Y292059D02*
D03*
D22*
X134000Y94500D02*
D03*
X124500Y62000D02*
D03*
X225500Y59500D02*
D03*
X202500Y150000D02*
D03*
D23*
X194941Y42500D02*
D03*
X200059D02*
D03*
X189941Y273000D02*
D03*
X195059D02*
D03*
X149882Y290500D02*
D03*
X155000D02*
D03*
X195059Y280000D02*
D03*
X189941D02*
D03*
X155000Y297500D02*
D03*
X149882D02*
D03*
D24*
X187500Y42315D02*
D03*
Y37000D02*
D03*
X225500Y50000D02*
D03*
Y44685D02*
D03*
X219500Y274342D02*
D03*
Y279658D02*
D03*
X180000Y286842D02*
D03*
Y292158D02*
D03*
X5500Y290657D02*
D03*
Y285343D02*
D03*
X70467Y291657D02*
D03*
Y286343D02*
D03*
D25*
X150000Y100500D02*
D03*
X153758Y96742D02*
D03*
X142379Y108121D02*
D03*
X138621Y111879D02*
D03*
X175000Y139000D02*
D03*
X171242Y142758D02*
D03*
X182379Y108621D02*
D03*
X178621Y112379D02*
D03*
X150379Y116121D02*
D03*
X146621Y119879D02*
D03*
D26*
X135472Y62000D02*
D03*
X144528Y65740D02*
D03*
Y58260D02*
D03*
D27*
X169185Y69000D02*
D03*
X174500D02*
D03*
X194685Y55500D02*
D03*
X200000D02*
D03*
X169315Y300000D02*
D03*
X164000D02*
D03*
X208657Y287500D02*
D03*
X203343D02*
D03*
D28*
X192773Y141227D02*
D03*
X197227Y136773D02*
D03*
X182000Y147000D02*
D03*
X177546Y151454D02*
D03*
X190227Y154773D02*
D03*
X185773Y159227D02*
D03*
D29*
X192619Y121381D02*
D03*
X189000Y125000D02*
D03*
X180000Y134000D02*
D03*
X183619Y130381D02*
D03*
X156381Y106619D02*
D03*
X160000Y103000D02*
D03*
X173000Y107000D02*
D03*
X176619Y103381D02*
D03*
D30*
X165614Y118711D02*
D03*
X167006Y120103D02*
D03*
X168397Y121494D02*
D03*
X169789Y122886D02*
D03*
D31*
X170416Y125879D02*
D03*
X169024Y127271D02*
D03*
X161229Y119476D02*
D03*
X162621Y118084D02*
D03*
D32*
X147451Y133951D02*
D03*
X154549Y141049D02*
D03*
D33*
X215519Y150481D02*
D03*
D34*
X223481Y142519D02*
D03*
D35*
X202312Y230899D02*
D03*
X202312Y220899D02*
D03*
X202312Y210899D02*
D03*
D36*
X199084Y181765D02*
D03*
X189084D02*
D03*
X179084D02*
D03*
X169084D02*
D03*
X159084D02*
D03*
X149084D02*
D03*
X139084D02*
D03*
X129084D02*
D03*
X119084D02*
D03*
X109084D02*
D03*
X99084D02*
D03*
X89084D02*
D03*
X79084D02*
D03*
X69084D02*
D03*
X59084D02*
D03*
X49084D02*
D03*
X39084D02*
D03*
X19084D02*
D03*
X9084D02*
D03*
Y260033D02*
D03*
X19084D02*
D03*
X29084D02*
D03*
X39084D02*
D03*
X49084D02*
D03*
X59084D02*
D03*
X69084D02*
D03*
X79084D02*
D03*
X89084D02*
D03*
X99084D02*
D03*
X109084D02*
D03*
X119084D02*
D03*
X129084D02*
D03*
X139084D02*
D03*
X149084D02*
D03*
X159084D02*
D03*
X169084D02*
D03*
X179084D02*
D03*
X189084D02*
D03*
X199084D02*
D03*
D37*
X29084Y182749D02*
D03*
D38*
X8386Y217001D02*
D03*
Y224875D02*
D03*
X21378Y220938D02*
D03*
X35158Y211095D02*
D03*
X45000D02*
D03*
X54843D02*
D03*
D39*
X15587Y297716D02*
D03*
Y280000D02*
D03*
X51413D02*
D03*
Y297716D02*
D03*
X81500Y298216D02*
D03*
Y280500D02*
D03*
X117327D02*
D03*
Y298216D02*
D03*
D40*
X66000Y11500D02*
D03*
X61079D02*
D03*
D41*
X172831Y289500D02*
D03*
Y292059D02*
D03*
Y286941D02*
D03*
X164169D02*
D03*
Y289500D02*
D03*
Y292059D02*
D03*
X212000Y277500D02*
D03*
Y280059D02*
D03*
Y274941D02*
D03*
X203338D02*
D03*
Y277500D02*
D03*
Y280059D02*
D03*
D42*
X20500Y72048D02*
D03*
Y66143D02*
D03*
X21000Y124906D02*
D03*
Y119000D02*
D03*
D43*
X17000Y59831D02*
D03*
X20740Y51169D02*
D03*
X13260D02*
D03*
X17500Y112331D02*
D03*
X21240Y103669D02*
D03*
X13760D02*
D03*
D71*
X300499Y40000D02*
D03*
X270499Y30000D02*
D03*
Y50000D02*
D03*
X51575Y39865D02*
D03*
X81575Y49865D02*
D03*
Y29865D02*
D03*
D76*
X178500Y57000D02*
D03*
D77*
X159141Y121564D02*
D03*
X166936Y129359D02*
D03*
D78*
X163734Y127549D02*
D03*
X160951Y124766D02*
D03*
D79*
X162830Y125670D02*
D03*
D80*
X305591Y279528D02*
D03*
X295590D02*
D03*
X285591D02*
D03*
X275590D02*
D03*
D81*
X328740Y161417D02*
D03*
X250000D02*
D03*
Y279528D02*
D03*
X328740D02*
D03*
D82*
X50000Y150000D02*
D03*
X71000D02*
D03*
X113000Y49000D02*
D03*
X98000Y49500D02*
D03*
X65500Y274500D02*
D03*
D83*
X78500Y111500D02*
D03*
X52909D02*
D03*
X299091Y109000D02*
D03*
X273500D02*
D03*
D84*
X19870Y19685D02*
D03*
X334646Y334646D02*
D03*
X19685D02*
D03*
X334646Y19685D02*
D03*
D85*
X139500Y306500D02*
D03*
X196000Y298000D02*
D03*
X165000Y274000D02*
D03*
X216000Y257500D02*
D03*
X347000Y37017D02*
D03*
X334000Y309000D02*
D03*
Y298000D02*
D03*
D86*
X338000Y76343D02*
D03*
Y56657D02*
D03*
Y66500D02*
D03*
Y111342D02*
D03*
Y101500D02*
D03*
D87*
X289500Y339500D02*
D03*
X249500D02*
D03*
X229500D02*
D03*
X299500D02*
D03*
X239500D02*
D03*
X259500D02*
D03*
X269500D02*
D03*
X279500D02*
D03*
X201712D02*
D03*
X161712D02*
D03*
X141712D02*
D03*
X211712D02*
D03*
X151712D02*
D03*
X171712D02*
D03*
X181712D02*
D03*
X191712D02*
D03*
X113923D02*
D03*
X73923D02*
D03*
X53923D02*
D03*
X123923D02*
D03*
X63923D02*
D03*
X83923D02*
D03*
X93923D02*
D03*
X103923D02*
D03*
D88*
X175500Y310500D02*
D03*
X176500Y317500D02*
D03*
X178000Y281500D02*
D03*
X219500Y313000D02*
D03*
X227500D02*
D03*
X169000Y248937D02*
D03*
X182500Y281500D02*
D03*
X177000Y268000D02*
D03*
X185000Y275500D02*
D03*
X197000Y323000D02*
D03*
X139000Y249500D02*
D03*
X143616Y245884D02*
D03*
X157475Y281380D02*
D03*
X149000Y249500D02*
D03*
X190000Y291500D02*
D03*
X198500Y248000D02*
D03*
X150000Y303000D02*
D03*
X159084Y248000D02*
D03*
X180014Y303003D02*
D03*
X175180Y302000D02*
D03*
Y297500D02*
D03*
X169500Y242000D02*
D03*
X179000Y248000D02*
D03*
X143000Y277000D02*
D03*
X137000D02*
D03*
X131000D02*
D03*
X102000Y311500D02*
D03*
X99000Y248000D02*
D03*
X95000Y311500D02*
D03*
X210500Y219000D02*
D03*
Y223500D02*
D03*
X155000Y84500D02*
D03*
X179500Y119500D02*
D03*
X166500Y111000D02*
D03*
X69500Y203500D02*
D03*
X49084Y194500D02*
D03*
X239500Y301500D02*
D03*
X233500Y299000D02*
D03*
X40000Y150000D02*
D03*
X32500Y49000D02*
D03*
X8000Y55500D02*
D03*
X168500Y89000D02*
D03*
X227756Y118504D02*
D03*
X224803Y112598D02*
D03*
X227756Y106693D02*
D03*
X224803Y100787D02*
D03*
X218898Y124409D02*
D03*
X221850Y118504D02*
D03*
X218898Y112598D02*
D03*
X221850Y106693D02*
D03*
X218898Y100787D02*
D03*
X215945Y118504D02*
D03*
X212992Y112598D02*
D03*
X215945Y106693D02*
D03*
X212992Y100787D02*
D03*
X210039Y118504D02*
D03*
X207086Y112598D02*
D03*
X210039Y106693D02*
D03*
X207086Y100787D02*
D03*
X204134Y106693D02*
D03*
X228500Y280000D02*
D03*
X8000Y119500D02*
D03*
X179000Y142000D02*
D03*
X173000Y100000D02*
D03*
X187500Y61000D02*
D03*
X188000Y66500D02*
D03*
Y73000D02*
D03*
X164000Y71000D02*
D03*
X133000Y114000D02*
D03*
X157000Y131500D02*
D03*
X7000Y66500D02*
D03*
X71500Y11500D02*
D03*
X26500Y103500D02*
D03*
X26000Y51000D02*
D03*
X150000Y79500D02*
D03*
Y65500D02*
D03*
X164000Y46000D02*
D03*
X155000Y59000D02*
D03*
X140000Y52000D02*
D03*
X55500Y9500D02*
D03*
Y14000D02*
D03*
X183000Y165000D02*
D03*
X179500Y162000D02*
D03*
X175000Y157500D02*
D03*
X171500Y154000D02*
D03*
X203500Y134500D02*
D03*
X200000Y131000D02*
D03*
X198000Y119500D02*
D03*
X194500Y116000D02*
D03*
X188000Y106500D02*
D03*
X184500Y103000D02*
D03*
X165500Y145000D02*
D03*
X169000Y148500D02*
D03*
X176000Y127000D02*
D03*
X136500Y117500D02*
D03*
X141000Y122000D02*
D03*
X144500Y125500D02*
D03*
X159000Y94000D02*
D03*
X155500Y91000D02*
D03*
X223000Y39500D02*
D03*
X205685Y53000D02*
D03*
X169916Y53091D02*
D03*
X159250Y62750D02*
D03*
X164000Y66500D02*
D03*
X187500Y55000D02*
D03*
X205685Y57500D02*
D03*
X184500Y83000D02*
D03*
X185000Y31315D02*
D03*
X179500Y83000D02*
D03*
X189500Y31315D02*
D03*
X228000Y39500D02*
D03*
X212000Y266000D02*
D03*
X31500Y173500D02*
D03*
X27000D02*
D03*
X81500D02*
D03*
X76500D02*
D03*
X131500D02*
D03*
X127000D02*
D03*
X181500D02*
D03*
X176500D02*
D03*
X181500Y268000D02*
D03*
X132000D02*
D03*
X126500D02*
D03*
X81500D02*
D03*
X76500D02*
D03*
X31500Y268500D02*
D03*
X26500D02*
D03*
X8000Y296500D02*
D03*
X3500D02*
D03*
X18500Y303000D02*
D03*
X12500D02*
D03*
X54000D02*
D03*
X48500D02*
D03*
X84500Y303500D02*
D03*
X78500D02*
D03*
X120000D02*
D03*
X114500D02*
D03*
X207500Y277500D02*
D03*
X168500Y289500D02*
D03*
X144500Y288000D02*
D03*
Y292500D02*
D03*
X222000Y269000D02*
D03*
X217000D02*
D03*
X214500Y285000D02*
D03*
Y289500D02*
D03*
X185000Y271000D02*
D03*
X199084Y194500D02*
D03*
X99000D02*
D03*
X19000D02*
D03*
X169000D02*
D03*
X118500D02*
D03*
X159084D02*
D03*
X9292D02*
D03*
X189000D02*
D03*
X149000D02*
D03*
X139084D02*
D03*
X109000D02*
D03*
X89000D02*
D03*
X69292D02*
D03*
X189000Y248000D02*
D03*
X89000D02*
D03*
X68792D02*
D03*
X19084D02*
D03*
X121029Y291529D02*
D03*
X55000Y290500D02*
D03*
D89*
X178500Y55362D02*
D03*
Y58638D02*
D03*
M02*
