G04*
G04 #@! TF.GenerationSoftware,Altium Limited,Altium Designer,22.9.1 (49)*
G04*
G04 Layer_Physical_Order=2*
G04 Layer_Color=36540*
%FSLAX25Y25*%
%MOIN*%
G70*
G04*
G04 #@! TF.SameCoordinates,76B2CB67-AC7D-4B7C-BAB6-E888D97DABA5*
G04*
G04*
G04 #@! TF.FilePolarity,Positive*
G04*
G01*
G75*
%ADD10C,0.01000*%
%ADD80C,0.06693*%
%ADD82O,0.05906X0.05906*%
%ADD83O,0.04921X0.25000*%
%ADD85O,0.05906X0.05906*%
%ADD86O,0.09843X0.06890*%
%ADD87O,0.07874X0.11811*%
%ADD88C,0.03937*%
D10*
X193222Y294308D02*
X193222D01*
X193511Y294308D02*
X194335Y293870D01*
X195232Y293614D01*
X196163Y293550D01*
X197087Y293682D01*
X197963Y294003D01*
X198753Y294500D01*
X171712Y295788D02*
Y339500D01*
X165000Y259500D02*
X173000Y267500D01*
Y294500D01*
X171712Y295788D02*
X173000Y294500D01*
X157365Y281270D02*
X157475Y281380D01*
X125270Y281270D02*
X157365D01*
X99000Y255000D02*
X125270Y281270D01*
X135000Y256750D02*
X143000Y264750D01*
X135000Y245500D02*
Y256750D01*
Y245500D02*
X139084Y241416D01*
Y194500D02*
Y241416D01*
X186500Y297500D02*
X212000Y323000D01*
X186500Y290095D02*
Y297500D01*
Y290095D02*
X187500Y289095D01*
Y289000D02*
Y289095D01*
X192808Y294308D02*
X193222D01*
X190000Y291500D02*
X192808Y294308D01*
X193222D02*
X193511D01*
X211712Y339500D02*
X212000Y339212D01*
Y323000D02*
Y339212D01*
X198500Y248000D02*
Y278000D01*
X187500Y289000D02*
X198500Y278000D01*
X198753Y294500D02*
X248000D01*
X169500Y242000D02*
X207500D01*
X216000Y250500D01*
X164000Y280000D02*
Y286000D01*
X159000Y291000D02*
X164000Y286000D01*
X159000Y291000D02*
Y312000D01*
X161712Y290788D02*
X171000Y281500D01*
X161712Y290788D02*
Y339500D01*
X171000Y268500D02*
Y281500D01*
X151500Y319500D02*
X159000Y312000D01*
X151500Y339288D02*
X151712Y339500D01*
X151500Y319500D02*
Y339288D01*
X155000Y271000D02*
X164000Y280000D01*
X155000Y235000D02*
Y271000D01*
X149000Y194500D02*
Y229000D01*
X155000Y235000D01*
X163500Y239000D02*
Y261000D01*
X159084Y194500D02*
Y234584D01*
X163500Y239000D01*
Y261000D02*
X171000Y268500D01*
X165000Y239000D02*
Y259500D01*
X169000Y194500D02*
Y235000D01*
X165000Y239000D02*
X169000Y235000D01*
X216000Y250500D02*
Y257500D01*
X143000Y264750D02*
Y277000D01*
X137000Y273500D02*
Y277000D01*
X136000Y272500D02*
X137000Y273500D01*
X124000Y272500D02*
X136000D01*
X113000Y261500D02*
X124000Y272500D01*
X113000Y205000D02*
Y261500D01*
Y205000D02*
X118500Y199500D01*
Y194500D02*
Y199500D01*
X125000Y277000D02*
X131000D01*
X109000Y261000D02*
X125000Y277000D01*
X109000Y194500D02*
Y261000D01*
X99000Y248000D02*
Y255000D01*
X84500Y209000D02*
Y253000D01*
X99500Y268000D01*
Y309000D01*
X102000Y311500D01*
X76000Y247379D02*
X95000Y266379D01*
X76000Y207500D02*
Y247379D01*
X95000Y266379D02*
Y311500D01*
X84500Y209000D02*
X99000Y194500D01*
X76000Y207500D02*
X89000Y194500D01*
X135000Y320000D02*
X141712Y326712D01*
Y339500D01*
X90000Y311500D02*
X98500Y320000D01*
X135000D01*
X90000Y276500D02*
Y311500D01*
X86000Y272500D02*
X90000Y276500D01*
X86000Y259500D02*
Y272500D01*
X66031Y239531D02*
X86000Y259500D01*
X66031Y202063D02*
Y239531D01*
Y202063D02*
X69292Y198803D01*
Y194500D02*
Y198803D01*
X50000Y137000D02*
Y150000D01*
Y137000D02*
X58500Y128500D01*
Y101500D02*
Y128500D01*
Y101500D02*
X75500Y84500D01*
X155000D01*
X168500Y81500D02*
Y89000D01*
X156500Y69500D02*
X168500Y81500D01*
X86897Y69500D02*
X156500D01*
X239000Y127859D02*
Y167000D01*
X94000Y179000D02*
X227000D01*
X239000Y167000D01*
X63000Y242208D02*
X68792Y248000D01*
X63000Y163000D02*
Y242208D01*
X50000Y150000D02*
X63000Y163000D01*
X49000Y170500D02*
Y194416D01*
X40000Y161500D02*
X49000Y170500D01*
Y194416D02*
X49084Y194500D01*
X69500Y203500D02*
X94000Y179000D01*
X239000Y127859D02*
X290517Y76343D01*
X338000D01*
X273500Y109000D02*
Y269000D01*
X248000Y294500D02*
X273500Y269000D01*
X239095Y297000D02*
X268118D01*
X285591Y279528D01*
X233500Y299000D02*
X237095D01*
X239095Y297000D01*
X273618Y301500D02*
X295590Y279528D01*
X239500Y301500D02*
X273618D01*
X40000Y150000D02*
Y161500D01*
X32500Y49000D02*
X61500D01*
X69500Y41000D01*
X89500D02*
X98000Y49500D01*
X69500Y41000D02*
X89500D01*
X98000Y49500D02*
X98000D01*
X50000Y150000D02*
X50000D01*
X8000Y55500D02*
X72897D01*
X86897Y69500D01*
X193000Y24000D02*
Y61500D01*
X188000Y66500D02*
X193000Y61500D01*
X182500Y60000D02*
X187500Y55000D01*
X182500Y60000D02*
Y68000D01*
X187500Y73000D01*
X188000D01*
X180500Y11500D02*
X193000Y24000D01*
X71500Y11500D02*
X180500D01*
X152250Y62750D02*
X159250D01*
X150500Y61000D02*
X152250Y62750D01*
X98000Y49500D02*
X109500Y61000D01*
X98000Y49500D02*
X98000D01*
X109500Y61000D02*
X150500D01*
X123000Y59000D02*
X155000D01*
X113000Y49000D02*
X113000D01*
X123000Y59000D01*
X169371Y52545D02*
X169916Y53091D01*
X140000Y52000D02*
X140545Y52545D01*
X169371D01*
D80*
X295590Y279528D02*
D03*
X285591D02*
D03*
D82*
X50000Y150000D02*
D03*
X113000Y49000D02*
D03*
X98000Y49500D02*
D03*
D83*
X273500Y109000D02*
D03*
D85*
X216000Y257500D02*
D03*
D86*
X338000Y76343D02*
D03*
D87*
X161712Y339500D02*
D03*
X141712D02*
D03*
X211712D02*
D03*
X151712D02*
D03*
X171712D02*
D03*
D88*
X157475Y281380D02*
D03*
X190000Y291500D02*
D03*
X198500Y248000D02*
D03*
X169500Y242000D02*
D03*
X143000Y277000D02*
D03*
X137000D02*
D03*
X131000D02*
D03*
X102000Y311500D02*
D03*
X99000Y248000D02*
D03*
X95000Y311500D02*
D03*
X155000Y84500D02*
D03*
X69500Y203500D02*
D03*
X49084Y194500D02*
D03*
X239500Y301500D02*
D03*
X233500Y299000D02*
D03*
X40000Y150000D02*
D03*
X32500Y49000D02*
D03*
X8000Y55500D02*
D03*
X168500Y89000D02*
D03*
X188000Y66500D02*
D03*
Y73000D02*
D03*
X71500Y11500D02*
D03*
X155000Y59000D02*
D03*
X140000Y52000D02*
D03*
X169916Y53091D02*
D03*
X159250Y62750D02*
D03*
X187500Y55000D02*
D03*
X99000Y194500D02*
D03*
X169000D02*
D03*
X118500D02*
D03*
X159084D02*
D03*
X149000D02*
D03*
X139084D02*
D03*
X109000D02*
D03*
X89000D02*
D03*
X69292D02*
D03*
X68792Y248000D02*
D03*
M02*
