G04*
G04 #@! TF.GenerationSoftware,Altium Limited,Altium Designer,22.9.1 (49)*
G04*
G04 Layer_Color=32768*
%FSLAX25Y25*%
%MOIN*%
G70*
G04*
G04 #@! TF.SameCoordinates,76B2CB67-AC7D-4B7C-BAB6-E888D97DABA5*
G04*
G04*
G04 #@! TF.FilePolarity,Positive*
G04*
G01*
G75*
%ADD13C,0.00787*%
%ADD15C,0.00394*%
%ADD91C,0.00197*%
D13*
X129276Y97650D02*
X138724D01*
Y91350D02*
Y97650D01*
X129276Y91350D02*
X138724D01*
X129276D02*
Y97650D01*
X129224Y58850D02*
Y65150D01*
X119776D02*
X129224D01*
X119776Y58850D02*
Y65150D01*
Y58850D02*
X129224D01*
X220776Y62650D02*
X230224D01*
Y56350D02*
Y62650D01*
X220776Y56350D02*
X230224D01*
X220776D02*
Y62650D01*
X154896Y123304D02*
X163665Y114535D01*
X154896Y123304D02*
X165196Y133604D01*
X173965Y124835D01*
X163665Y114535D02*
X173965Y124835D01*
X197776Y153150D02*
X207224D01*
Y146850D02*
Y153150D01*
X197776Y146850D02*
X207224D01*
X197776D02*
Y153150D01*
X9000Y274858D02*
X58000D01*
X9000D02*
Y302858D01*
X58000D01*
Y274858D02*
Y302858D01*
X31000Y288858D02*
X36000D01*
X33500Y286358D02*
Y291358D01*
X353354Y45043D02*
Y87957D01*
X326583D02*
X353354D01*
X326583Y45043D02*
Y87957D01*
Y45043D02*
X353354D01*
X336032Y66500D02*
X339969D01*
X338000Y64532D02*
Y68469D01*
Y104453D02*
Y108390D01*
X336031Y106421D02*
X339968D01*
X326583Y89886D02*
X353354D01*
X326583D02*
Y122957D01*
X353354D01*
Y89886D02*
Y122957D01*
X74913Y275358D02*
X123913D01*
X74913D02*
Y303358D01*
X123913D01*
Y275358D02*
Y303358D01*
X96913Y289358D02*
X101913D01*
X99413Y286858D02*
Y291858D01*
X264500Y337500D02*
Y341500D01*
X262500Y339500D02*
X266500D01*
X221500Y325500D02*
X307500D01*
X307500Y335500D02*
X307500Y325500D01*
X307500Y335500D02*
X307500Y353500D01*
X221500D02*
X307500D01*
X221500Y325500D02*
Y353500D01*
X176712Y337500D02*
Y341500D01*
X174712Y339500D02*
X178712D01*
X133712Y325500D02*
X219712D01*
X219712Y335500D02*
X219712Y325500D01*
X219712Y335500D02*
X219712Y353500D01*
X133712D02*
X219712D01*
X133712Y325500D02*
Y353500D01*
X88923Y337500D02*
Y341500D01*
X86923Y339500D02*
X90923D01*
X45923Y325500D02*
X131923D01*
Y335500D01*
Y353500D01*
X45923D02*
X131923D01*
X45923Y325500D02*
Y353500D01*
D15*
X178500Y55031D02*
Y58968D01*
X176531Y57000D02*
X180468D01*
X182000Y73571D02*
Y77311D01*
X180130Y75441D02*
X183870D01*
X197500Y40630D02*
Y44370D01*
X195630Y42500D02*
X199370D01*
X185630Y39657D02*
X189370D01*
X187500Y37787D02*
Y41527D01*
X162130Y54000D02*
X165870D01*
X164000Y52130D02*
Y55870D01*
X150557Y97299D02*
X153201Y99943D01*
X150557D02*
X153201Y97299D01*
X140000Y60031D02*
Y63968D01*
X138031Y62000D02*
X141968D01*
X169973Y69000D02*
X173713D01*
X171843Y67130D02*
Y70870D01*
X223630Y47343D02*
X227370D01*
X225500Y45473D02*
Y49213D01*
X197343Y53630D02*
Y57370D01*
X195473Y55500D02*
X199213D01*
X142630Y82059D02*
X146370D01*
X144500Y80189D02*
Y83929D01*
X193608Y137608D02*
X196392Y140392D01*
X193608Y140392D02*
X196392Y137608D01*
X178381Y147835D02*
X181165Y150619D01*
X178381D02*
X181165Y147835D01*
X189487Y124513D02*
X192132Y121868D01*
X189487D02*
X192132Y124513D01*
X180487Y130868D02*
X183132Y133513D01*
X180487Y133513D02*
X183132Y130868D01*
X156868Y103487D02*
X159513Y106132D01*
X156868D02*
X159513Y103487D01*
X139178Y108678D02*
X141822Y111322D01*
X139178D02*
X141822Y108678D01*
X173487Y106513D02*
X176132Y103868D01*
X173487D02*
X176132Y106513D01*
X171799Y139557D02*
X174443Y142201D01*
X171799D02*
X174443Y139557D01*
X149608Y138892D02*
X152392Y136108D01*
X149608Y136108D02*
X152392Y138892D01*
X186608Y155608D02*
X189392Y158392D01*
X186608D02*
X189392Y155608D01*
X222630Y128500D02*
X226370D01*
X224500Y126630D02*
Y130370D01*
X179178Y111822D02*
X181822Y109178D01*
X179178D02*
X181822Y111822D01*
X147178Y116678D02*
X149822Y119322D01*
X147178D02*
X149822Y116678D01*
X218108Y147892D02*
X220892Y145108D01*
X218108D02*
X220892Y147892D01*
X190630Y273000D02*
X194370D01*
X192500Y271130D02*
Y274870D01*
X150571Y290500D02*
X154311D01*
X152441Y288630D02*
Y292370D01*
X190630Y280000D02*
X194370D01*
X192500Y278130D02*
Y281870D01*
X219500Y275130D02*
Y278870D01*
X217630Y277000D02*
X221370D01*
X180000Y287630D02*
Y291370D01*
X178130Y289500D02*
X181870D01*
X63539Y9630D02*
Y13370D01*
X61669Y11500D02*
X65409D01*
X11526Y69095D02*
X15266D01*
X13396Y67225D02*
Y70965D01*
X12026Y122059D02*
X15766D01*
X13896Y120189D02*
Y123929D01*
X150571Y297500D02*
X154311D01*
X152441Y295630D02*
Y299370D01*
X168500Y287532D02*
Y291469D01*
X166531Y289500D02*
X170469D01*
X207669Y275532D02*
Y279469D01*
X205701Y277500D02*
X209638D01*
X164787Y300000D02*
X168527D01*
X166657Y298130D02*
Y301870D01*
X204130Y287500D02*
X207870D01*
X206000Y285630D02*
Y289370D01*
X20500Y67225D02*
Y70965D01*
X18630Y69095D02*
X22370D01*
X21000Y120083D02*
Y123823D01*
X19130Y121953D02*
X22870D01*
X15031Y55500D02*
X18968D01*
X17000Y53531D02*
Y57469D01*
X15531Y108000D02*
X19468D01*
X17500Y106031D02*
Y109969D01*
X62500Y287130D02*
Y290870D01*
X60630Y289000D02*
X64370D01*
X128500Y287630D02*
Y291370D01*
X126630Y289500D02*
X130370D01*
X5500Y286130D02*
Y289870D01*
X3630Y288000D02*
X7370D01*
X70467Y287130D02*
Y290870D01*
X68597Y289000D02*
X72337D01*
D91*
X173382Y50012D02*
X183618D01*
X173382D02*
Y63988D01*
X183618D01*
Y50012D02*
Y63988D01*
X179047Y80756D02*
X184953D01*
X179047Y70126D02*
X184953D01*
Y80756D01*
X179047Y70126D02*
Y80756D01*
X192185Y45453D02*
X202815D01*
X192185Y39547D02*
X202815D01*
X192185D02*
X192185Y45453D01*
X202815D02*
X202815Y39547D01*
X190453Y34342D02*
Y44972D01*
X184547Y34342D02*
Y44972D01*
X190453D01*
X184547Y34342D02*
X190453D01*
X161047Y48685D02*
Y59315D01*
X166953Y48685D02*
Y59315D01*
X161047Y48685D02*
X166953D01*
X161047Y59315D02*
X166953D01*
X150209Y104467D02*
X157725Y96951D01*
X146033Y100291D02*
X153549Y92775D01*
X146033Y100291D02*
X150209Y104467D01*
X153549Y92775D02*
X157725Y96951D01*
X132421Y68890D02*
X147579D01*
X132421Y55110D02*
X147579D01*
X132421D02*
Y68890D01*
X147579Y55110D02*
Y68890D01*
X166528Y66047D02*
Y71953D01*
X177158Y66047D02*
Y71953D01*
X166528Y71953D02*
X177158Y71953D01*
X166528Y66047D02*
X177158Y66047D01*
X228453Y42028D02*
Y52658D01*
X222547Y42028D02*
Y52658D01*
X228453D01*
X222547Y42028D02*
X228453D01*
X192028Y58453D02*
X202658D01*
X192028Y52547D02*
X202658D01*
X192028D02*
Y58453D01*
X202658Y52547D02*
Y58453D01*
X147453Y76744D02*
Y87374D01*
X141547Y76744D02*
Y87374D01*
X147453D01*
X141547Y76744D02*
X147453D01*
X192912Y146377D02*
X202377Y136912D01*
X187623Y141088D02*
X197088Y131623D01*
X187623Y141088D02*
X192912Y146377D01*
X197088Y131623D02*
X202377Y136912D01*
X172396Y151315D02*
X181861Y141850D01*
X177685Y156605D02*
X187150Y147139D01*
X181861Y141850D02*
X187150Y147139D01*
X172396Y151315D02*
X177685Y156605D01*
X192480Y117344D02*
X196656Y121520D01*
X184963Y124861D02*
X189139Y129037D01*
X184963Y124861D02*
X192480Y117344D01*
X189139Y129037D02*
X196656Y121520D01*
X180139Y138037D02*
X187656Y130520D01*
X175963Y133861D02*
X183480Y126344D01*
X175963Y133861D02*
X180139Y138037D01*
X183480Y126344D02*
X187656Y130520D01*
X156520Y110656D02*
X164037Y103139D01*
X152344Y106480D02*
X159861Y98963D01*
X152344Y106480D02*
X156520Y110656D01*
X159861Y98963D02*
X164037Y103139D01*
X134654Y111670D02*
X142170Y104154D01*
X138830Y115846D02*
X146346Y108330D01*
X142170Y104154D02*
X146346Y108330D01*
X134654Y111670D02*
X138830Y115846D01*
X168963Y106861D02*
X173139Y111037D01*
X176480Y99344D02*
X180656Y103520D01*
X173139Y111037D02*
X180656Y103520D01*
X168963Y106861D02*
X176480Y99344D01*
X167275Y142549D02*
X174791Y135033D01*
X171451Y146725D02*
X178967Y139209D01*
X174791Y135033D02*
X178967Y139209D01*
X167275Y142549D02*
X171451Y146725D01*
X141813Y134994D02*
X153506Y146687D01*
X141813Y134994D02*
X148494Y128313D01*
X160187Y140006D01*
X153506Y146687D02*
X160187Y140006D01*
X180623Y159088D02*
X190088Y149623D01*
X185912Y164377D02*
X195377Y154912D01*
X190088Y149623D02*
X195377Y154912D01*
X180623Y159088D02*
X185912Y164377D01*
X221547Y123185D02*
Y133815D01*
X227453Y123185D02*
Y133815D01*
X221547Y123185D02*
X227453D01*
X221547Y133815D02*
X227453D01*
X182170Y104654D02*
X186346Y108830D01*
X174654Y112170D02*
X178830Y116346D01*
X174654Y112170D02*
X182170Y104654D01*
X178830Y116346D02*
X186346Y108830D01*
X142654Y119670D02*
X150170Y112154D01*
X146830Y123846D02*
X154346Y116330D01*
X150170Y112154D02*
X154346Y116330D01*
X142654Y119670D02*
X146830Y123846D01*
X210592Y149841D02*
X216159Y155408D01*
X222841Y137592D02*
X228408Y143159D01*
X216159Y155408D02*
X228408Y143159D01*
X210592Y149841D02*
X222841Y137592D01*
X211206Y172899D02*
Y268899D01*
X103237Y220899D02*
X107174D01*
X105206Y218930D02*
Y222867D01*
X-4794Y268899D02*
X211206D01*
X-4794Y172899D02*
X211206D01*
X-4794D02*
Y268899D01*
X187185Y270047D02*
Y275953D01*
X197815Y270047D02*
Y275953D01*
X187185D02*
X197815D01*
X187185Y270047D02*
X197815D01*
X147126Y293453D02*
X147126Y287547D01*
X157756D02*
X157756Y293453D01*
X147126Y293453D02*
X157756Y293453D01*
X147126Y287547D02*
X157756D01*
X197815Y277047D02*
Y282953D01*
X187185Y277047D02*
X187185Y282953D01*
X187185Y277047D02*
X197815D01*
X187185Y282953D02*
X197815D01*
X216547Y271685D02*
X222453Y271685D01*
X216547Y282315D02*
X222453Y282315D01*
X216547Y271685D02*
Y282315D01*
X222453Y271685D02*
Y282315D01*
X177047Y284185D02*
X182953Y284185D01*
X177047Y294815D02*
X182953Y294815D01*
X177047Y284185D02*
Y294815D01*
X182953Y284185D02*
Y294815D01*
X58224Y8547D02*
X68854D01*
X58224Y14453D02*
X68854D01*
Y8547D02*
Y14453D01*
X58224Y8547D02*
Y14453D01*
X10444Y63780D02*
Y74410D01*
X16349Y63780D02*
Y74410D01*
X10444Y63780D02*
X16349D01*
X10444Y74410D02*
X16349D01*
X10944Y116744D02*
Y127374D01*
X16849Y116744D02*
Y127374D01*
X10944Y116744D02*
X16849D01*
X10944Y127374D02*
X16849D01*
X157756Y294547D02*
Y300453D01*
X147126Y294547D02*
Y300453D01*
Y294547D02*
X157756D01*
X147126Y300453D02*
X157756D01*
X161413Y284776D02*
X175587D01*
X161413Y294224D02*
X175587D01*
Y284776D02*
Y294224D01*
X161413Y284776D02*
Y294224D01*
X200583Y272776D02*
X214756D01*
X200583Y282224D02*
X214756D01*
Y272776D02*
Y282224D01*
X200583Y272776D02*
Y282224D01*
X171972Y297047D02*
Y302953D01*
X161342Y297047D02*
Y302953D01*
Y297047D02*
X171972Y297047D01*
X161342Y302953D02*
X171972Y302953D01*
X211315Y284547D02*
Y290453D01*
X200685Y284547D02*
Y290453D01*
Y284547D02*
X211315D01*
X200685Y290453D02*
X211315D01*
X17547Y74595D02*
X23453D01*
X17547Y63595D02*
X23453D01*
Y74595D01*
X17547Y63595D02*
Y74595D01*
X18047Y127453D02*
X23953Y127453D01*
X18047Y116453D02*
X23953D01*
Y127453D01*
X18047Y116453D02*
X18047Y127453D01*
X23299Y49299D02*
Y61701D01*
X10701Y49299D02*
Y61701D01*
X23299D01*
X10701Y49299D02*
X23299D01*
X23799Y101799D02*
Y114201D01*
X11201Y101799D02*
Y114201D01*
X23799D01*
X11201Y101799D02*
X23799D01*
X59547Y283685D02*
X65453D01*
X59547Y294315D02*
X65453D01*
X59547Y283685D02*
Y294315D01*
X65453Y283685D02*
Y294315D01*
X125547Y284185D02*
X131453D01*
X125547Y294815D02*
X131453D01*
X125547Y284185D02*
Y294815D01*
X131453Y284185D02*
Y294815D01*
X2547Y293315D02*
X8453D01*
X2547Y282685D02*
X8453D01*
X8453Y293315D02*
X8453Y282685D01*
X2547D02*
X2547Y293315D01*
X67515Y294315D02*
X73420D01*
X67515Y283685D02*
X73420D01*
Y294315D01*
X67515Y283685D02*
Y294315D01*
M02*
