G04*
G04 #@! TF.GenerationSoftware,Altium Limited,Altium Designer,22.9.1 (49)*
G04*
G04 Layer_Color=32896*
%FSLAX25Y25*%
%MOIN*%
G70*
G04*
G04 #@! TF.SameCoordinates,76B2CB67-AC7D-4B7C-BAB6-E888D97DABA5*
G04*
G04*
G04 #@! TF.FilePolarity,Positive*
G04*
G01*
G75*
%ADD10C,0.01000*%
%ADD13C,0.00787*%
%ADD16C,0.01968*%
D10*
X227000Y41856D02*
X226429Y42141D01*
X225572Y42998D01*
Y37000D01*
X221173Y42998D02*
X222030Y42713D01*
X222315Y42141D01*
Y41570D01*
X222030Y40999D01*
X221458Y40713D01*
X220316Y40427D01*
X219459Y40142D01*
X218887Y39570D01*
X218602Y38999D01*
Y38142D01*
X218887Y37571D01*
X219173Y37285D01*
X220030Y37000D01*
X221173D01*
X222030Y37285D01*
X222315Y37571D01*
X222601Y38142D01*
Y38999D01*
X222315Y39570D01*
X221744Y40142D01*
X220887Y40427D01*
X219744Y40713D01*
X219173Y40999D01*
X218887Y41570D01*
Y42141D01*
X219173Y42713D01*
X220030Y42998D01*
X221173D01*
X213831Y42141D02*
X214117Y42713D01*
X214974Y42998D01*
X215545D01*
X216402Y42713D01*
X216974Y41856D01*
X217259Y40427D01*
Y38999D01*
X216974Y37857D01*
X216402Y37285D01*
X215545Y37000D01*
X215260D01*
X214403Y37285D01*
X213831Y37857D01*
X213546Y38713D01*
Y38999D01*
X213831Y39856D01*
X214403Y40427D01*
X215260Y40713D01*
X215545D01*
X216402Y40427D01*
X216974Y39856D01*
X217259Y38999D01*
X208804Y42998D02*
X211660D01*
X211946Y40427D01*
X211660Y40713D01*
X210804Y40999D01*
X209946D01*
X209090Y40713D01*
X208518Y40142D01*
X208233Y39285D01*
Y38713D01*
X208518Y37857D01*
X209090Y37285D01*
X209946Y37000D01*
X210804D01*
X211660Y37285D01*
X211946Y37571D01*
X212232Y38142D01*
X205176Y42998D02*
X206033Y42713D01*
X206604Y41856D01*
X206890Y40427D01*
Y39570D01*
X206604Y38142D01*
X206033Y37285D01*
X205176Y37000D01*
X204605D01*
X203748Y37285D01*
X203176Y38142D01*
X202891Y39570D01*
Y40427D01*
X203176Y41856D01*
X203748Y42713D01*
X204605Y42998D01*
X205176D01*
X196835D02*
Y37000D01*
Y42998D02*
X194264D01*
X193407Y42713D01*
X193122Y42427D01*
X192836Y41856D01*
Y41284D01*
X193122Y40713D01*
X193407Y40427D01*
X194264Y40142D01*
X196835D02*
X194264D01*
X193407Y39856D01*
X193122Y39570D01*
X192836Y38999D01*
Y38142D01*
X193122Y37571D01*
X193407Y37285D01*
X194264Y37000D01*
X196835D01*
X188066Y40999D02*
Y37000D01*
Y40142D02*
X188637Y40713D01*
X189208Y40999D01*
X190065D01*
X190636Y40713D01*
X191208Y40142D01*
X191493Y39285D01*
Y38713D01*
X191208Y37857D01*
X190636Y37285D01*
X190065Y37000D01*
X189208D01*
X188637Y37285D01*
X188066Y37857D01*
X185609Y42998D02*
Y38142D01*
X185323Y37285D01*
X184752Y37000D01*
X184181D01*
X186466Y40999D02*
X184466D01*
X182467Y42998D02*
Y38142D01*
X182181Y37285D01*
X181610Y37000D01*
X181038D01*
X183324Y40999D02*
X181324D01*
X180182Y39285D02*
X176754D01*
Y39856D01*
X177039Y40427D01*
X177325Y40713D01*
X177896Y40999D01*
X178753D01*
X179324Y40713D01*
X179896Y40142D01*
X180182Y39285D01*
Y38713D01*
X179896Y37857D01*
X179324Y37285D01*
X178753Y37000D01*
X177896D01*
X177325Y37285D01*
X176754Y37857D01*
X175468Y40999D02*
Y37000D01*
Y39285D02*
X175182Y40142D01*
X174611Y40713D01*
X174040Y40999D01*
X173183D01*
X172069Y42998D02*
X171783Y42713D01*
X171498Y42998D01*
X171783Y43284D01*
X172069Y42998D01*
X171783Y40999D02*
Y37000D01*
X170441Y39285D02*
X167013D01*
Y39856D01*
X167298Y40427D01*
X167584Y40713D01*
X168156Y40999D01*
X169012D01*
X169584Y40713D01*
X170155Y40142D01*
X170441Y39285D01*
Y38713D01*
X170155Y37857D01*
X169584Y37285D01*
X169012Y37000D01*
X168156D01*
X167584Y37285D01*
X167013Y37857D01*
X162585Y40142D02*
X162871Y40713D01*
X163728Y40999D01*
X164585D01*
X165442Y40713D01*
X165727Y40142D01*
X165442Y39570D01*
X164871Y39285D01*
X163442Y38999D01*
X162871Y38713D01*
X162585Y38142D01*
Y37857D01*
X162871Y37285D01*
X163728Y37000D01*
X164585D01*
X165442Y37285D01*
X165727Y37857D01*
X154901Y42998D02*
X155473Y42713D01*
X156044Y42141D01*
X156329Y41570D01*
X156615Y40713D01*
Y39285D01*
X156329Y38428D01*
X156044Y37857D01*
X155473Y37285D01*
X154901Y37000D01*
X153759D01*
X153187Y37285D01*
X152616Y37857D01*
X152330Y38428D01*
X152045Y39285D01*
Y40713D01*
X152330Y41570D01*
X152616Y42141D01*
X153187Y42713D01*
X153759Y42998D01*
X154901D01*
X150645Y40999D02*
Y37000D01*
Y39856D02*
X149788Y40713D01*
X149217Y40999D01*
X148360D01*
X147788Y40713D01*
X147503Y39856D01*
Y37000D01*
X145932Y42998D02*
Y37000D01*
X144389Y40999D02*
X142675Y37000D01*
X140961Y40999D02*
X142675Y37000D01*
X143246Y35857D01*
X143818Y35286D01*
X144389Y35000D01*
X144675D01*
X139676Y42998D02*
Y38999D01*
Y37571D02*
X139962Y37285D01*
X139676Y37000D01*
X139390Y37285D01*
X139676Y37571D01*
X137791Y42998D02*
Y38999D01*
Y37571D02*
X138076Y37285D01*
X137791Y37000D01*
X137505Y37285D01*
X137791Y37571D01*
X135905Y42998D02*
Y38999D01*
Y37571D02*
X136191Y37285D01*
X135905Y37000D01*
X135620Y37285D01*
X135905Y37571D01*
D13*
X314672Y1417D02*
X314672Y78583D01*
X263491Y78583D02*
X314672Y78583D01*
X263491Y1417D02*
X263491Y78583D01*
X263491Y1417D02*
X314672D01*
X37402Y1282D02*
Y78447D01*
Y1282D02*
X88583Y1282D01*
Y78447D01*
X37402D02*
X88583D01*
D16*
X332031Y39469D02*
X318912D01*
X33531Y39528D02*
X20412D01*
X26972Y46088D02*
Y32969D01*
M02*
