G04*
G04 #@! TF.GenerationSoftware,Altium Limited,Altium Designer,22.9.1 (49)*
G04*
G04 Layer_Color=32896*
%FSLAX25Y25*%
%MOIN*%
G70*
G04*
G04 #@! TF.SameCoordinates,9D3E2428-DCC5-4340-9D25-80E916FAB4BD*
G04*
G04*
G04 #@! TF.FilePolarity,Positive*
G04*
G01*
G75*
%ADD13C,0.00787*%
G36*
X63690Y38904D02*
X63686Y38816D01*
X63682Y38740D01*
X63675Y38671D01*
X63668Y38613D01*
X63661Y38565D01*
X63657Y38529D01*
X63649Y38507D01*
Y38500D01*
X63631Y38438D01*
X63613Y38387D01*
X63591Y38340D01*
X63569Y38300D01*
X63555Y38267D01*
X63540Y38241D01*
X63529Y38227D01*
X63526Y38223D01*
X63493Y38183D01*
X63453Y38147D01*
X63413Y38118D01*
X63376Y38089D01*
X63340Y38067D01*
X63315Y38052D01*
X63297Y38041D01*
X63289Y38037D01*
X63231Y38012D01*
X63173Y37994D01*
X63118Y37979D01*
X63067Y37972D01*
X63024Y37965D01*
X62987Y37961D01*
X62965D01*
X62962D01*
X62958D01*
X62878Y37965D01*
X62805Y37979D01*
X62743Y38001D01*
X62685Y38023D01*
X62641Y38045D01*
X62608Y38067D01*
X62587Y38081D01*
X62579Y38085D01*
X62521Y38136D01*
X62474Y38190D01*
X62434Y38252D01*
X62401Y38307D01*
X62375Y38358D01*
X62361Y38401D01*
X62354Y38416D01*
X62350Y38427D01*
X62346Y38434D01*
Y38438D01*
X62310Y38376D01*
X62274Y38321D01*
X62234Y38278D01*
X62197Y38241D01*
X62168Y38212D01*
X62139Y38190D01*
X62124Y38179D01*
X62117Y38176D01*
X62063Y38147D01*
X62011Y38125D01*
X61961Y38107D01*
X61913Y38096D01*
X61873Y38089D01*
X61840Y38085D01*
X61822D01*
X61815D01*
X61753Y38089D01*
X61691Y38099D01*
X61637Y38118D01*
X61586Y38136D01*
X61542Y38154D01*
X61513Y38172D01*
X61491Y38183D01*
X61484Y38187D01*
X61429Y38227D01*
X61378Y38271D01*
X61338Y38318D01*
X61305Y38361D01*
X61280Y38398D01*
X61262Y38431D01*
X61251Y38453D01*
X61247Y38456D01*
Y38460D01*
X61222Y38529D01*
X61203Y38605D01*
X61189Y38682D01*
X61182Y38755D01*
X61174Y38820D01*
Y38849D01*
X61171Y38875D01*
Y39865D01*
X63690D01*
Y38904D01*
D02*
G37*
G36*
X61469Y36862D02*
X63690D01*
Y36527D01*
X61469D01*
Y35697D01*
X61171D01*
Y37692D01*
X61469D01*
Y36862D01*
D02*
G37*
G36*
X63082Y35468D02*
X63136Y35457D01*
X63238Y35424D01*
X63326Y35384D01*
X63362Y35362D01*
X63398Y35340D01*
X63431Y35318D01*
X63457Y35297D01*
X63482Y35278D01*
X63500Y35260D01*
X63515Y35249D01*
X63526Y35238D01*
X63533Y35231D01*
X63537Y35227D01*
X63569Y35184D01*
X63602Y35140D01*
X63628Y35096D01*
X63649Y35049D01*
X63686Y34958D01*
X63708Y34871D01*
X63715Y34831D01*
X63722Y34794D01*
X63726Y34762D01*
X63730Y34732D01*
X63733Y34711D01*
Y34678D01*
X63730Y34609D01*
X63722Y34547D01*
X63711Y34485D01*
X63697Y34427D01*
X63679Y34372D01*
X63661Y34325D01*
X63639Y34277D01*
X63617Y34237D01*
X63599Y34197D01*
X63577Y34165D01*
X63559Y34135D01*
X63540Y34114D01*
X63526Y34095D01*
X63515Y34081D01*
X63508Y34074D01*
X63504Y34070D01*
X63460Y34026D01*
X63413Y33990D01*
X63366Y33957D01*
X63318Y33928D01*
X63275Y33906D01*
X63227Y33884D01*
X63140Y33855D01*
X63100Y33848D01*
X63064Y33841D01*
X63031Y33833D01*
X63002Y33830D01*
X62980Y33826D01*
X62962D01*
X62951D01*
X62947D01*
X62860Y33830D01*
X62780Y33844D01*
X62710Y33866D01*
X62652Y33888D01*
X62605Y33910D01*
X62568Y33932D01*
X62547Y33946D01*
X62539Y33950D01*
X62485Y34001D01*
X62437Y34055D01*
X62401Y34114D01*
X62372Y34172D01*
X62350Y34223D01*
X62335Y34263D01*
X62332Y34277D01*
X62328Y34288D01*
X62325Y34296D01*
Y34299D01*
X62292Y34237D01*
X62259Y34186D01*
X62223Y34143D01*
X62190Y34106D01*
X62161Y34077D01*
X62135Y34055D01*
X62121Y34044D01*
X62113Y34041D01*
X62063Y34012D01*
X62011Y33990D01*
X61961Y33972D01*
X61913Y33961D01*
X61873Y33953D01*
X61844Y33950D01*
X61822D01*
X61815D01*
X61753Y33953D01*
X61691Y33964D01*
X61637Y33979D01*
X61589Y33997D01*
X61549Y34015D01*
X61516Y34030D01*
X61498Y34041D01*
X61491Y34044D01*
X61436Y34081D01*
X61389Y34124D01*
X61349Y34168D01*
X61313Y34212D01*
X61287Y34248D01*
X61265Y34281D01*
X61254Y34303D01*
X61251Y34306D01*
Y34310D01*
X61222Y34376D01*
X61200Y34441D01*
X61182Y34507D01*
X61171Y34565D01*
X61163Y34612D01*
X61160Y34652D01*
Y34743D01*
X61167Y34794D01*
X61185Y34893D01*
X61214Y34976D01*
X61243Y35049D01*
X61262Y35082D01*
X61276Y35107D01*
X61291Y35133D01*
X61305Y35151D01*
X61316Y35166D01*
X61324Y35177D01*
X61327Y35184D01*
X61331Y35187D01*
X61400Y35257D01*
X61476Y35311D01*
X61557Y35355D01*
X61637Y35391D01*
X61706Y35413D01*
X61735Y35424D01*
X61760Y35431D01*
X61782Y35435D01*
X61797Y35439D01*
X61808Y35442D01*
X61811D01*
X61866Y35133D01*
X61786Y35118D01*
X61717Y35096D01*
X61659Y35071D01*
X61611Y35045D01*
X61575Y35020D01*
X61549Y34998D01*
X61531Y34984D01*
X61527Y34980D01*
X61491Y34933D01*
X61462Y34882D01*
X61444Y34834D01*
X61429Y34787D01*
X61422Y34743D01*
X61415Y34711D01*
Y34681D01*
X61418Y34616D01*
X61433Y34558D01*
X61451Y34507D01*
X61469Y34463D01*
X61491Y34430D01*
X61509Y34405D01*
X61524Y34387D01*
X61527Y34383D01*
X61571Y34343D01*
X61618Y34314D01*
X61666Y34296D01*
X61709Y34281D01*
X61750Y34274D01*
X61779Y34266D01*
X61800D01*
X61804D01*
X61808D01*
X61848D01*
X61884Y34274D01*
X61946Y34292D01*
X62001Y34317D01*
X62048Y34347D01*
X62081Y34376D01*
X62106Y34401D01*
X62121Y34419D01*
X62124Y34423D01*
Y34427D01*
X62157Y34488D01*
X62183Y34547D01*
X62201Y34609D01*
X62212Y34663D01*
X62219Y34711D01*
X62226Y34751D01*
Y34798D01*
X62223Y34813D01*
Y34831D01*
X62496Y34867D01*
X62485Y34820D01*
X62477Y34776D01*
X62470Y34740D01*
X62467Y34707D01*
X62463Y34681D01*
Y34649D01*
X62470Y34572D01*
X62485Y34503D01*
X62507Y34441D01*
X62532Y34390D01*
X62558Y34350D01*
X62579Y34321D01*
X62594Y34303D01*
X62601Y34296D01*
X62656Y34248D01*
X62714Y34212D01*
X62772Y34186D01*
X62831Y34172D01*
X62878Y34161D01*
X62918Y34157D01*
X62932Y34154D01*
X62943D01*
X62951D01*
X62954D01*
X63034Y34161D01*
X63107Y34179D01*
X63169Y34201D01*
X63224Y34230D01*
X63267Y34259D01*
X63300Y34281D01*
X63322Y34299D01*
X63329Y34306D01*
X63380Y34365D01*
X63417Y34427D01*
X63442Y34488D01*
X63460Y34547D01*
X63471Y34598D01*
X63475Y34638D01*
X63478Y34652D01*
Y34674D01*
X63475Y34740D01*
X63460Y34802D01*
X63442Y34856D01*
X63420Y34900D01*
X63402Y34936D01*
X63384Y34965D01*
X63369Y34980D01*
X63366Y34987D01*
X63315Y35031D01*
X63256Y35067D01*
X63195Y35100D01*
X63129Y35125D01*
X63074Y35144D01*
X63049Y35151D01*
X63027Y35155D01*
X63009Y35158D01*
X62994Y35162D01*
X62987Y35166D01*
X62983D01*
X63024Y35475D01*
X63082Y35468D01*
D02*
G37*
G36*
X62576Y33517D02*
X62696Y33509D01*
X62805Y33498D01*
X62907Y33480D01*
X63002Y33462D01*
X63085Y33440D01*
X63162Y33418D01*
X63227Y33397D01*
X63285Y33375D01*
X63336Y33349D01*
X63380Y33331D01*
X63413Y33313D01*
X63442Y33295D01*
X63460Y33284D01*
X63471Y33276D01*
X63475Y33273D01*
X63519Y33233D01*
X63559Y33189D01*
X63595Y33142D01*
X63624Y33094D01*
X63649Y33047D01*
X63671Y33000D01*
X63686Y32952D01*
X63700Y32909D01*
X63711Y32865D01*
X63719Y32825D01*
X63726Y32789D01*
X63730Y32759D01*
X63733Y32734D01*
Y32698D01*
X63726Y32599D01*
X63711Y32508D01*
X63686Y32432D01*
X63661Y32366D01*
X63635Y32312D01*
X63620Y32294D01*
X63609Y32275D01*
X63602Y32261D01*
X63595Y32250D01*
X63588Y32246D01*
Y32243D01*
X63526Y32177D01*
X63460Y32122D01*
X63388Y32075D01*
X63322Y32039D01*
X63260Y32010D01*
X63235Y31995D01*
X63209Y31988D01*
X63191Y31981D01*
X63176Y31973D01*
X63169Y31970D01*
X63165D01*
X63111Y31951D01*
X63056Y31937D01*
X62940Y31915D01*
X62820Y31897D01*
X62703Y31886D01*
X62652Y31882D01*
X62605Y31879D01*
X62561D01*
X62521Y31875D01*
X62492D01*
X62467D01*
X62452D01*
X62448D01*
X62379D01*
X62314Y31879D01*
X62255D01*
X62197Y31882D01*
X62146Y31890D01*
X62095Y31893D01*
X62052Y31897D01*
X62011Y31904D01*
X61975Y31908D01*
X61942Y31915D01*
X61917Y31919D01*
X61895Y31922D01*
X61877Y31926D01*
X61866Y31930D01*
X61859Y31933D01*
X61855D01*
X61775Y31955D01*
X61702Y31981D01*
X61640Y32010D01*
X61586Y32032D01*
X61538Y32057D01*
X61506Y32072D01*
X61487Y32086D01*
X61480Y32090D01*
X61426Y32130D01*
X61378Y32170D01*
X61338Y32214D01*
X61302Y32254D01*
X61276Y32290D01*
X61258Y32319D01*
X61247Y32337D01*
X61243Y32341D01*
Y32345D01*
X61214Y32403D01*
X61196Y32465D01*
X61182Y32523D01*
X61171Y32577D01*
X61163Y32625D01*
X61160Y32665D01*
Y32698D01*
X61167Y32796D01*
X61182Y32887D01*
X61207Y32963D01*
X61233Y33029D01*
X61262Y33084D01*
X61273Y33105D01*
X61287Y33123D01*
X61295Y33138D01*
X61302Y33149D01*
X61309Y33153D01*
Y33156D01*
X61367Y33222D01*
X61436Y33276D01*
X61506Y33324D01*
X61571Y33360D01*
X61633Y33389D01*
X61659Y33404D01*
X61684Y33411D01*
X61702Y33418D01*
X61717Y33426D01*
X61724Y33429D01*
X61728D01*
X61782Y33444D01*
X61837Y33458D01*
X61957Y33480D01*
X62077Y33498D01*
X62190Y33509D01*
X62244Y33513D01*
X62292Y33517D01*
X62335D01*
X62375Y33520D01*
X62405D01*
X62430D01*
X62445D01*
X62448D01*
X62576Y33517D01*
D02*
G37*
G36*
Y31558D02*
X62696Y31551D01*
X62805Y31540D01*
X62907Y31522D01*
X63002Y31504D01*
X63085Y31482D01*
X63162Y31460D01*
X63227Y31438D01*
X63285Y31416D01*
X63336Y31391D01*
X63380Y31373D01*
X63413Y31354D01*
X63442Y31336D01*
X63460Y31325D01*
X63471Y31318D01*
X63475Y31314D01*
X63519Y31274D01*
X63559Y31231D01*
X63595Y31183D01*
X63624Y31136D01*
X63649Y31089D01*
X63671Y31041D01*
X63686Y30994D01*
X63700Y30950D01*
X63711Y30907D01*
X63719Y30867D01*
X63726Y30830D01*
X63730Y30801D01*
X63733Y30776D01*
Y30739D01*
X63726Y30641D01*
X63711Y30550D01*
X63686Y30474D01*
X63661Y30408D01*
X63635Y30354D01*
X63620Y30335D01*
X63609Y30317D01*
X63602Y30303D01*
X63595Y30292D01*
X63588Y30288D01*
Y30284D01*
X63526Y30219D01*
X63460Y30164D01*
X63388Y30117D01*
X63322Y30081D01*
X63260Y30051D01*
X63235Y30037D01*
X63209Y30029D01*
X63191Y30022D01*
X63176Y30015D01*
X63169Y30011D01*
X63165D01*
X63111Y29993D01*
X63056Y29979D01*
X62940Y29957D01*
X62820Y29939D01*
X62703Y29928D01*
X62652Y29924D01*
X62605Y29920D01*
X62561D01*
X62521Y29917D01*
X62492D01*
X62467D01*
X62452D01*
X62448D01*
X62379D01*
X62314Y29920D01*
X62255D01*
X62197Y29924D01*
X62146Y29931D01*
X62095Y29935D01*
X62052Y29939D01*
X62011Y29946D01*
X61975Y29949D01*
X61942Y29957D01*
X61917Y29960D01*
X61895Y29964D01*
X61877Y29968D01*
X61866Y29971D01*
X61859Y29975D01*
X61855D01*
X61775Y29997D01*
X61702Y30022D01*
X61640Y30051D01*
X61586Y30073D01*
X61538Y30099D01*
X61506Y30113D01*
X61487Y30128D01*
X61480Y30131D01*
X61426Y30171D01*
X61378Y30211D01*
X61338Y30255D01*
X61302Y30295D01*
X61276Y30332D01*
X61258Y30361D01*
X61247Y30379D01*
X61243Y30383D01*
Y30386D01*
X61214Y30444D01*
X61196Y30506D01*
X61182Y30565D01*
X61171Y30619D01*
X61163Y30667D01*
X61160Y30707D01*
Y30739D01*
X61167Y30838D01*
X61182Y30929D01*
X61207Y31005D01*
X61233Y31071D01*
X61262Y31125D01*
X61273Y31147D01*
X61287Y31165D01*
X61295Y31180D01*
X61302Y31191D01*
X61309Y31194D01*
Y31198D01*
X61367Y31264D01*
X61436Y31318D01*
X61506Y31365D01*
X61571Y31402D01*
X61633Y31431D01*
X61659Y31446D01*
X61684Y31453D01*
X61702Y31460D01*
X61717Y31467D01*
X61724Y31471D01*
X61728D01*
X61782Y31486D01*
X61837Y31500D01*
X61957Y31522D01*
X62077Y31540D01*
X62190Y31551D01*
X62244Y31555D01*
X62292Y31558D01*
X62335D01*
X62375Y31562D01*
X62405D01*
X62430D01*
X62445D01*
X62448D01*
X62576Y31558D01*
D02*
G37*
G36*
X289760Y49944D02*
X289819D01*
X289877Y49941D01*
X289928Y49934D01*
X289979Y49930D01*
X290022Y49926D01*
X290062Y49919D01*
X290099Y49915D01*
X290132Y49908D01*
X290157Y49904D01*
X290179Y49901D01*
X290197Y49897D01*
X290208Y49894D01*
X290215Y49890D01*
X290219D01*
X290299Y49868D01*
X290372Y49843D01*
X290434Y49813D01*
X290488Y49792D01*
X290536Y49766D01*
X290568Y49752D01*
X290587Y49737D01*
X290594Y49733D01*
X290649Y49693D01*
X290696Y49653D01*
X290736Y49610D01*
X290772Y49570D01*
X290798Y49533D01*
X290816Y49504D01*
X290827Y49486D01*
X290830Y49482D01*
Y49479D01*
X290860Y49420D01*
X290878Y49358D01*
X290892Y49300D01*
X290903Y49246D01*
X290911Y49198D01*
X290914Y49158D01*
Y49125D01*
X290907Y49027D01*
X290892Y48936D01*
X290867Y48860D01*
X290842Y48794D01*
X290812Y48740D01*
X290801Y48718D01*
X290787Y48700D01*
X290780Y48685D01*
X290772Y48674D01*
X290765Y48671D01*
Y48667D01*
X290707Y48601D01*
X290638Y48547D01*
X290568Y48499D01*
X290503Y48463D01*
X290441Y48434D01*
X290416Y48419D01*
X290390Y48412D01*
X290372Y48405D01*
X290357Y48397D01*
X290350Y48394D01*
X290346D01*
X290292Y48379D01*
X290237Y48365D01*
X290117Y48343D01*
X289997Y48325D01*
X289884Y48314D01*
X289829Y48310D01*
X289782Y48307D01*
X289738D01*
X289699Y48303D01*
X289669D01*
X289644D01*
X289629D01*
X289626D01*
X289498Y48307D01*
X289378Y48314D01*
X289269Y48325D01*
X289167Y48343D01*
X289072Y48361D01*
X288989Y48383D01*
X288912Y48405D01*
X288847Y48427D01*
X288789Y48448D01*
X288738Y48474D01*
X288694Y48492D01*
X288661Y48510D01*
X288632Y48529D01*
X288614Y48539D01*
X288603Y48547D01*
X288599Y48550D01*
X288556Y48590D01*
X288515Y48634D01*
X288479Y48681D01*
X288450Y48729D01*
X288424Y48776D01*
X288403Y48823D01*
X288388Y48871D01*
X288373Y48914D01*
X288363Y48958D01*
X288355Y48998D01*
X288348Y49035D01*
X288344Y49064D01*
X288341Y49089D01*
Y49125D01*
X288348Y49224D01*
X288363Y49315D01*
X288388Y49391D01*
X288414Y49457D01*
X288439Y49511D01*
X288454Y49529D01*
X288464Y49548D01*
X288472Y49562D01*
X288479Y49573D01*
X288486Y49577D01*
Y49580D01*
X288548Y49646D01*
X288614Y49701D01*
X288687Y49748D01*
X288752Y49784D01*
X288814Y49813D01*
X288840Y49828D01*
X288865Y49835D01*
X288883Y49843D01*
X288898Y49850D01*
X288905Y49854D01*
X288909D01*
X288963Y49872D01*
X289018Y49886D01*
X289134Y49908D01*
X289254Y49926D01*
X289371Y49937D01*
X289422Y49941D01*
X289469Y49944D01*
X289513D01*
X289553Y49948D01*
X289582D01*
X289608D01*
X289622D01*
X289626D01*
X289695D01*
X289760Y49944D01*
D02*
G37*
G36*
Y47986D02*
X289819D01*
X289877Y47982D01*
X289928Y47975D01*
X289979Y47972D01*
X290022Y47968D01*
X290062Y47961D01*
X290099Y47957D01*
X290132Y47950D01*
X290157Y47946D01*
X290179Y47943D01*
X290197Y47939D01*
X290208Y47935D01*
X290215Y47932D01*
X290219D01*
X290299Y47910D01*
X290372Y47884D01*
X290434Y47855D01*
X290488Y47833D01*
X290536Y47808D01*
X290568Y47793D01*
X290587Y47779D01*
X290594Y47775D01*
X290649Y47735D01*
X290696Y47695D01*
X290736Y47651D01*
X290772Y47611D01*
X290798Y47575D01*
X290816Y47546D01*
X290827Y47528D01*
X290830Y47524D01*
Y47520D01*
X290860Y47462D01*
X290878Y47400D01*
X290892Y47342D01*
X290903Y47287D01*
X290911Y47240D01*
X290914Y47200D01*
Y47167D01*
X290907Y47069D01*
X290892Y46978D01*
X290867Y46901D01*
X290842Y46836D01*
X290812Y46781D01*
X290801Y46760D01*
X290787Y46741D01*
X290780Y46727D01*
X290772Y46716D01*
X290765Y46712D01*
Y46709D01*
X290707Y46643D01*
X290638Y46588D01*
X290568Y46541D01*
X290503Y46505D01*
X290441Y46476D01*
X290416Y46461D01*
X290390Y46454D01*
X290372Y46446D01*
X290357Y46439D01*
X290350Y46435D01*
X290346D01*
X290292Y46421D01*
X290237Y46406D01*
X290117Y46385D01*
X289997Y46366D01*
X289884Y46355D01*
X289829Y46352D01*
X289782Y46348D01*
X289738D01*
X289699Y46345D01*
X289669D01*
X289644D01*
X289629D01*
X289626D01*
X289498Y46348D01*
X289378Y46355D01*
X289269Y46366D01*
X289167Y46385D01*
X289072Y46403D01*
X288989Y46425D01*
X288912Y46446D01*
X288847Y46468D01*
X288789Y46490D01*
X288738Y46516D01*
X288694Y46534D01*
X288661Y46552D01*
X288632Y46570D01*
X288614Y46581D01*
X288603Y46588D01*
X288599Y46592D01*
X288556Y46632D01*
X288515Y46676D01*
X288479Y46723D01*
X288450Y46770D01*
X288424Y46818D01*
X288403Y46865D01*
X288388Y46912D01*
X288373Y46956D01*
X288363Y47000D01*
X288355Y47040D01*
X288348Y47076D01*
X288344Y47105D01*
X288341Y47131D01*
Y47167D01*
X288348Y47265D01*
X288363Y47356D01*
X288388Y47433D01*
X288414Y47498D01*
X288439Y47553D01*
X288454Y47571D01*
X288464Y47589D01*
X288472Y47604D01*
X288479Y47615D01*
X288486Y47618D01*
Y47622D01*
X288548Y47688D01*
X288614Y47742D01*
X288687Y47790D01*
X288752Y47826D01*
X288814Y47855D01*
X288840Y47870D01*
X288865Y47877D01*
X288883Y47884D01*
X288898Y47892D01*
X288905Y47895D01*
X288909D01*
X288963Y47913D01*
X289018Y47928D01*
X289134Y47950D01*
X289254Y47968D01*
X289371Y47979D01*
X289422Y47982D01*
X289469Y47986D01*
X289513D01*
X289553Y47990D01*
X289582D01*
X289608D01*
X289622D01*
X289626D01*
X289695D01*
X289760Y47986D01*
D02*
G37*
G36*
X289214Y46035D02*
X289295Y46021D01*
X289364Y45999D01*
X289422Y45977D01*
X289469Y45955D01*
X289506Y45933D01*
X289527Y45919D01*
X289535Y45915D01*
X289589Y45864D01*
X289637Y45809D01*
X289673Y45751D01*
X289702Y45693D01*
X289724Y45642D01*
X289738Y45602D01*
X289742Y45587D01*
X289746Y45577D01*
X289750Y45569D01*
Y45566D01*
X289782Y45627D01*
X289815Y45678D01*
X289851Y45722D01*
X289884Y45759D01*
X289913Y45788D01*
X289939Y45809D01*
X289953Y45820D01*
X289961Y45824D01*
X290012Y45853D01*
X290062Y45875D01*
X290113Y45893D01*
X290161Y45904D01*
X290201Y45911D01*
X290230Y45915D01*
X290252D01*
X290259D01*
X290321Y45911D01*
X290383Y45900D01*
X290437Y45886D01*
X290485Y45868D01*
X290525Y45849D01*
X290558Y45835D01*
X290576Y45824D01*
X290583Y45820D01*
X290638Y45784D01*
X290685Y45740D01*
X290725Y45697D01*
X290761Y45653D01*
X290787Y45616D01*
X290809Y45584D01*
X290820Y45562D01*
X290823Y45558D01*
Y45555D01*
X290852Y45489D01*
X290874Y45424D01*
X290892Y45358D01*
X290903Y45300D01*
X290911Y45252D01*
X290914Y45213D01*
Y45121D01*
X290907Y45070D01*
X290889Y44972D01*
X290860Y44888D01*
X290830Y44816D01*
X290812Y44783D01*
X290798Y44758D01*
X290783Y44732D01*
X290769Y44714D01*
X290758Y44699D01*
X290751Y44688D01*
X290747Y44681D01*
X290743Y44677D01*
X290674Y44608D01*
X290598Y44554D01*
X290517Y44510D01*
X290437Y44474D01*
X290368Y44452D01*
X290339Y44441D01*
X290314Y44434D01*
X290292Y44430D01*
X290277Y44426D01*
X290266Y44423D01*
X290263D01*
X290208Y44732D01*
X290288Y44747D01*
X290357Y44768D01*
X290416Y44794D01*
X290463Y44819D01*
X290499Y44845D01*
X290525Y44867D01*
X290543Y44881D01*
X290547Y44885D01*
X290583Y44932D01*
X290612Y44983D01*
X290630Y45031D01*
X290645Y45078D01*
X290652Y45121D01*
X290659Y45154D01*
Y45183D01*
X290656Y45249D01*
X290641Y45307D01*
X290623Y45358D01*
X290605Y45402D01*
X290583Y45434D01*
X290565Y45460D01*
X290550Y45478D01*
X290547Y45482D01*
X290503Y45522D01*
X290456Y45551D01*
X290408Y45569D01*
X290365Y45584D01*
X290325Y45591D01*
X290296Y45598D01*
X290274D01*
X290270D01*
X290266D01*
X290226D01*
X290190Y45591D01*
X290128Y45573D01*
X290073Y45547D01*
X290026Y45518D01*
X289993Y45489D01*
X289968Y45464D01*
X289953Y45445D01*
X289950Y45442D01*
Y45438D01*
X289917Y45376D01*
X289891Y45318D01*
X289873Y45256D01*
X289862Y45202D01*
X289855Y45154D01*
X289848Y45114D01*
Y45067D01*
X289851Y45052D01*
Y45034D01*
X289578Y44998D01*
X289589Y45045D01*
X289597Y45089D01*
X289604Y45125D01*
X289608Y45158D01*
X289611Y45183D01*
Y45216D01*
X289604Y45293D01*
X289589Y45362D01*
X289567Y45424D01*
X289542Y45475D01*
X289516Y45515D01*
X289495Y45544D01*
X289480Y45562D01*
X289473Y45569D01*
X289418Y45616D01*
X289360Y45653D01*
X289302Y45678D01*
X289244Y45693D01*
X289196Y45704D01*
X289156Y45707D01*
X289142Y45711D01*
X289131D01*
X289123D01*
X289120D01*
X289040Y45704D01*
X288967Y45686D01*
X288905Y45664D01*
X288850Y45635D01*
X288807Y45606D01*
X288774Y45584D01*
X288752Y45566D01*
X288745Y45558D01*
X288694Y45500D01*
X288657Y45438D01*
X288632Y45376D01*
X288614Y45318D01*
X288603Y45267D01*
X288599Y45227D01*
X288596Y45213D01*
Y45191D01*
X288599Y45125D01*
X288614Y45063D01*
X288632Y45009D01*
X288654Y44965D01*
X288672Y44929D01*
X288690Y44899D01*
X288705Y44885D01*
X288708Y44878D01*
X288759Y44834D01*
X288818Y44798D01*
X288879Y44765D01*
X288945Y44739D01*
X289000Y44721D01*
X289025Y44714D01*
X289047Y44710D01*
X289065Y44706D01*
X289080Y44703D01*
X289087Y44699D01*
X289091D01*
X289051Y44390D01*
X288992Y44397D01*
X288938Y44408D01*
X288836Y44441D01*
X288749Y44481D01*
X288712Y44503D01*
X288676Y44524D01*
X288643Y44546D01*
X288617Y44568D01*
X288592Y44586D01*
X288574Y44605D01*
X288559Y44616D01*
X288548Y44626D01*
X288541Y44634D01*
X288537Y44637D01*
X288505Y44681D01*
X288472Y44725D01*
X288446Y44768D01*
X288424Y44816D01*
X288388Y44907D01*
X288366Y44994D01*
X288359Y45034D01*
X288352Y45070D01*
X288348Y45103D01*
X288344Y45132D01*
X288341Y45154D01*
Y45187D01*
X288344Y45256D01*
X288352Y45318D01*
X288363Y45380D01*
X288377Y45438D01*
X288395Y45493D01*
X288414Y45540D01*
X288435Y45587D01*
X288457Y45627D01*
X288475Y45667D01*
X288497Y45700D01*
X288515Y45729D01*
X288534Y45751D01*
X288548Y45769D01*
X288559Y45784D01*
X288566Y45791D01*
X288570Y45795D01*
X288614Y45839D01*
X288661Y45875D01*
X288708Y45908D01*
X288756Y45937D01*
X288799Y45959D01*
X288847Y45981D01*
X288934Y46010D01*
X288974Y46017D01*
X289011Y46024D01*
X289043Y46031D01*
X289072Y46035D01*
X289094Y46039D01*
X289112D01*
X289123D01*
X289127D01*
X289214Y46035D01*
D02*
G37*
G36*
X290903Y42173D02*
X290605D01*
Y43003D01*
X288385D01*
Y43338D01*
X290605D01*
Y44168D01*
X290903D01*
Y42173D01*
D02*
G37*
G36*
X289196Y41900D02*
X289269Y41886D01*
X289331Y41864D01*
X289389Y41842D01*
X289433Y41820D01*
X289465Y41798D01*
X289487Y41784D01*
X289495Y41780D01*
X289553Y41729D01*
X289600Y41674D01*
X289640Y41612D01*
X289673Y41558D01*
X289699Y41507D01*
X289713Y41463D01*
X289720Y41449D01*
X289724Y41438D01*
X289728Y41431D01*
Y41427D01*
X289764Y41489D01*
X289800Y41543D01*
X289841Y41587D01*
X289877Y41623D01*
X289906Y41653D01*
X289935Y41674D01*
X289950Y41685D01*
X289957Y41689D01*
X290012Y41718D01*
X290062Y41740D01*
X290113Y41758D01*
X290161Y41769D01*
X290201Y41776D01*
X290234Y41780D01*
X290252D01*
X290259D01*
X290321Y41776D01*
X290383Y41765D01*
X290437Y41747D01*
X290488Y41729D01*
X290532Y41711D01*
X290561Y41693D01*
X290583Y41682D01*
X290590Y41678D01*
X290645Y41638D01*
X290696Y41594D01*
X290736Y41547D01*
X290769Y41503D01*
X290794Y41467D01*
X290812Y41434D01*
X290823Y41412D01*
X290827Y41409D01*
Y41405D01*
X290852Y41336D01*
X290871Y41259D01*
X290885Y41183D01*
X290892Y41110D01*
X290900Y41045D01*
Y41016D01*
X290903Y40990D01*
Y40000D01*
X288385D01*
Y40961D01*
X288388Y41048D01*
X288392Y41125D01*
X288399Y41194D01*
X288406Y41252D01*
X288414Y41300D01*
X288417Y41336D01*
X288424Y41358D01*
Y41365D01*
X288443Y41427D01*
X288461Y41478D01*
X288483Y41525D01*
X288505Y41565D01*
X288519Y41598D01*
X288534Y41623D01*
X288545Y41638D01*
X288548Y41642D01*
X288581Y41682D01*
X288621Y41718D01*
X288661Y41747D01*
X288698Y41776D01*
X288734Y41798D01*
X288759Y41813D01*
X288778Y41824D01*
X288785Y41827D01*
X288843Y41853D01*
X288901Y41871D01*
X288956Y41886D01*
X289007Y41893D01*
X289051Y41900D01*
X289087Y41904D01*
X289109D01*
X289112D01*
X289116D01*
X289196Y41900D01*
D02*
G37*
%LPC*%
G36*
X62226Y39530D02*
X61469D01*
Y38933D01*
X61476Y38853D01*
X61480Y38791D01*
X61487Y38736D01*
X61495Y38696D01*
X61498Y38671D01*
X61506Y38653D01*
Y38649D01*
X61520Y38609D01*
X61542Y38573D01*
X61564Y38543D01*
X61586Y38518D01*
X61604Y38500D01*
X61622Y38485D01*
X61633Y38478D01*
X61637Y38474D01*
X61673Y38453D01*
X61709Y38438D01*
X61746Y38427D01*
X61782Y38420D01*
X61811Y38416D01*
X61833Y38412D01*
X61848D01*
X61855D01*
X61902Y38416D01*
X61946Y38423D01*
X61982Y38434D01*
X62011Y38445D01*
X62037Y38456D01*
X62059Y38467D01*
X62070Y38474D01*
X62073Y38478D01*
X62103Y38503D01*
X62132Y38536D01*
X62154Y38569D01*
X62168Y38598D01*
X62183Y38627D01*
X62194Y38649D01*
X62197Y38664D01*
X62201Y38671D01*
X62208Y38711D01*
X62215Y38762D01*
X62219Y38813D01*
X62223Y38864D01*
X62226Y38911D01*
Y39530D01*
D02*
G37*
G36*
X63391D02*
X62525D01*
Y38867D01*
X62532Y38791D01*
X62539Y38729D01*
X62547Y38678D01*
X62554Y38638D01*
X62561Y38605D01*
X62565Y38591D01*
X62568Y38583D01*
X62587Y38536D01*
X62608Y38496D01*
X62634Y38460D01*
X62660Y38431D01*
X62681Y38409D01*
X62700Y38394D01*
X62714Y38383D01*
X62718Y38380D01*
X62758Y38354D01*
X62798Y38336D01*
X62838Y38321D01*
X62874Y38314D01*
X62907Y38307D01*
X62936Y38303D01*
X62951D01*
X62958D01*
X63002Y38307D01*
X63045Y38311D01*
X63082Y38318D01*
X63111Y38329D01*
X63136Y38340D01*
X63158Y38347D01*
X63169Y38351D01*
X63173Y38354D01*
X63205Y38376D01*
X63235Y38394D01*
X63256Y38420D01*
X63278Y38438D01*
X63293Y38456D01*
X63304Y38471D01*
X63311Y38482D01*
X63315Y38485D01*
X63344Y38547D01*
X63366Y38609D01*
X63373Y38634D01*
X63376Y38656D01*
X63380Y38671D01*
Y38675D01*
X63384Y38704D01*
X63388Y38736D01*
X63391Y38813D01*
Y39530D01*
D02*
G37*
G36*
X62507Y33204D02*
X62474D01*
X62456D01*
X62448D01*
X62335Y33200D01*
X62234Y33196D01*
X62139Y33189D01*
X62052Y33178D01*
X61975Y33167D01*
X61906Y33153D01*
X61844Y33138D01*
X61790Y33123D01*
X61742Y33109D01*
X61702Y33098D01*
X61669Y33084D01*
X61640Y33073D01*
X61622Y33062D01*
X61607Y33054D01*
X61600Y33047D01*
X61597D01*
X61564Y33022D01*
X61535Y32996D01*
X61513Y32967D01*
X61491Y32938D01*
X61458Y32880D01*
X61436Y32825D01*
X61426Y32778D01*
X61418Y32738D01*
X61415Y32723D01*
Y32701D01*
X61418Y32661D01*
X61422Y32621D01*
X61433Y32585D01*
X61447Y32552D01*
X61480Y32490D01*
X61516Y32436D01*
X61557Y32395D01*
X61589Y32363D01*
X61604Y32352D01*
X61615Y32345D01*
X61618Y32337D01*
X61622D01*
X61666Y32312D01*
X61717Y32290D01*
X61775Y32268D01*
X61837Y32254D01*
X61902Y32239D01*
X61971Y32228D01*
X62110Y32210D01*
X62179Y32203D01*
X62241Y32199D01*
X62299Y32195D01*
X62346D01*
X62390Y32192D01*
X62423D01*
X62441D01*
X62445D01*
X62448D01*
X62561D01*
X62663Y32199D01*
X62754Y32206D01*
X62841Y32214D01*
X62914Y32224D01*
X62983Y32239D01*
X63042Y32254D01*
X63096Y32265D01*
X63140Y32279D01*
X63176Y32294D01*
X63209Y32304D01*
X63235Y32319D01*
X63253Y32326D01*
X63264Y32334D01*
X63271Y32341D01*
X63275D01*
X63311Y32370D01*
X63340Y32399D01*
X63369Y32428D01*
X63391Y32457D01*
X63428Y32519D01*
X63453Y32574D01*
X63468Y32625D01*
X63475Y32661D01*
X63478Y32676D01*
Y32698D01*
X63475Y32738D01*
X63471Y32774D01*
X63446Y32843D01*
X63413Y32905D01*
X63376Y32960D01*
X63340Y33000D01*
X63307Y33033D01*
X63282Y33051D01*
X63278Y33058D01*
X63275D01*
X63231Y33084D01*
X63180Y33105D01*
X63122Y33127D01*
X63060Y33142D01*
X62994Y33156D01*
X62925Y33167D01*
X62783Y33185D01*
X62718Y33193D01*
X62656Y33196D01*
X62598Y33200D01*
X62550D01*
X62507Y33204D01*
D02*
G37*
G36*
Y31245D02*
X62474D01*
X62456D01*
X62448D01*
X62335Y31242D01*
X62234Y31238D01*
X62139Y31231D01*
X62052Y31220D01*
X61975Y31209D01*
X61906Y31194D01*
X61844Y31180D01*
X61790Y31165D01*
X61742Y31151D01*
X61702Y31140D01*
X61669Y31125D01*
X61640Y31114D01*
X61622Y31103D01*
X61607Y31096D01*
X61600Y31089D01*
X61597D01*
X61564Y31063D01*
X61535Y31038D01*
X61513Y31009D01*
X61491Y30980D01*
X61458Y30921D01*
X61436Y30867D01*
X61426Y30819D01*
X61418Y30779D01*
X61415Y30765D01*
Y30743D01*
X61418Y30703D01*
X61422Y30663D01*
X61433Y30626D01*
X61447Y30594D01*
X61480Y30532D01*
X61516Y30477D01*
X61557Y30437D01*
X61589Y30404D01*
X61604Y30393D01*
X61615Y30386D01*
X61618Y30379D01*
X61622D01*
X61666Y30354D01*
X61717Y30332D01*
X61775Y30310D01*
X61837Y30295D01*
X61902Y30281D01*
X61971Y30270D01*
X62110Y30252D01*
X62179Y30244D01*
X62241Y30241D01*
X62299Y30237D01*
X62346D01*
X62390Y30233D01*
X62423D01*
X62441D01*
X62445D01*
X62448D01*
X62561D01*
X62663Y30241D01*
X62754Y30248D01*
X62841Y30255D01*
X62914Y30266D01*
X62983Y30281D01*
X63042Y30295D01*
X63096Y30306D01*
X63140Y30321D01*
X63176Y30335D01*
X63209Y30346D01*
X63235Y30361D01*
X63253Y30368D01*
X63264Y30375D01*
X63271Y30383D01*
X63275D01*
X63311Y30412D01*
X63340Y30441D01*
X63369Y30470D01*
X63391Y30499D01*
X63428Y30561D01*
X63453Y30616D01*
X63468Y30667D01*
X63475Y30703D01*
X63478Y30718D01*
Y30739D01*
X63475Y30779D01*
X63471Y30816D01*
X63446Y30885D01*
X63413Y30947D01*
X63376Y31001D01*
X63340Y31041D01*
X63307Y31074D01*
X63282Y31092D01*
X63278Y31100D01*
X63275D01*
X63231Y31125D01*
X63180Y31147D01*
X63122Y31169D01*
X63060Y31183D01*
X62994Y31198D01*
X62925Y31209D01*
X62783Y31227D01*
X62718Y31234D01*
X62656Y31238D01*
X62598Y31242D01*
X62550D01*
X62507Y31245D01*
D02*
G37*
G36*
X289684Y49631D02*
X289651D01*
X289633D01*
X289629D01*
X289626D01*
X289513D01*
X289411Y49624D01*
X289320Y49617D01*
X289233Y49610D01*
X289160Y49599D01*
X289091Y49584D01*
X289032Y49570D01*
X288978Y49559D01*
X288934Y49544D01*
X288898Y49529D01*
X288865Y49519D01*
X288840Y49504D01*
X288821Y49497D01*
X288810Y49490D01*
X288803Y49482D01*
X288799D01*
X288763Y49453D01*
X288734Y49424D01*
X288705Y49395D01*
X288683Y49366D01*
X288647Y49304D01*
X288621Y49249D01*
X288607Y49198D01*
X288599Y49162D01*
X288596Y49147D01*
Y49125D01*
X288599Y49085D01*
X288603Y49049D01*
X288628Y48980D01*
X288661Y48918D01*
X288698Y48863D01*
X288734Y48823D01*
X288767Y48791D01*
X288792Y48772D01*
X288796Y48765D01*
X288799D01*
X288843Y48740D01*
X288894Y48718D01*
X288952Y48696D01*
X289014Y48681D01*
X289080Y48667D01*
X289149Y48656D01*
X289291Y48638D01*
X289356Y48630D01*
X289418Y48627D01*
X289476Y48623D01*
X289524D01*
X289567Y48619D01*
X289600D01*
X289618D01*
X289626D01*
X289738Y48623D01*
X289841Y48627D01*
X289935Y48634D01*
X290022Y48645D01*
X290099Y48656D01*
X290168Y48671D01*
X290230Y48685D01*
X290284Y48700D01*
X290332Y48714D01*
X290372Y48725D01*
X290405Y48740D01*
X290434Y48751D01*
X290452Y48761D01*
X290466Y48769D01*
X290474Y48776D01*
X290477D01*
X290510Y48801D01*
X290539Y48827D01*
X290561Y48856D01*
X290583Y48885D01*
X290616Y48943D01*
X290638Y48998D01*
X290649Y49045D01*
X290656Y49085D01*
X290659Y49100D01*
Y49122D01*
X290656Y49162D01*
X290652Y49202D01*
X290641Y49238D01*
X290627Y49271D01*
X290594Y49333D01*
X290558Y49388D01*
X290517Y49428D01*
X290485Y49460D01*
X290470Y49471D01*
X290459Y49479D01*
X290456Y49486D01*
X290452D01*
X290408Y49511D01*
X290357Y49533D01*
X290299Y49555D01*
X290237Y49570D01*
X290172Y49584D01*
X290103Y49595D01*
X289964Y49613D01*
X289895Y49621D01*
X289833Y49624D01*
X289775Y49628D01*
X289728D01*
X289684Y49631D01*
D02*
G37*
G36*
Y47673D02*
X289651D01*
X289633D01*
X289629D01*
X289626D01*
X289513D01*
X289411Y47666D01*
X289320Y47659D01*
X289233Y47651D01*
X289160Y47640D01*
X289091Y47626D01*
X289032Y47611D01*
X288978Y47600D01*
X288934Y47586D01*
X288898Y47571D01*
X288865Y47560D01*
X288840Y47546D01*
X288821Y47538D01*
X288810Y47531D01*
X288803Y47524D01*
X288799D01*
X288763Y47495D01*
X288734Y47466D01*
X288705Y47436D01*
X288683Y47407D01*
X288647Y47346D01*
X288621Y47291D01*
X288607Y47240D01*
X288599Y47204D01*
X288596Y47189D01*
Y47167D01*
X288599Y47127D01*
X288603Y47091D01*
X288628Y47022D01*
X288661Y46960D01*
X288698Y46905D01*
X288734Y46865D01*
X288767Y46832D01*
X288792Y46814D01*
X288796Y46807D01*
X288799D01*
X288843Y46781D01*
X288894Y46760D01*
X288952Y46738D01*
X289014Y46723D01*
X289080Y46709D01*
X289149Y46698D01*
X289291Y46679D01*
X289356Y46672D01*
X289418Y46668D01*
X289476Y46665D01*
X289524D01*
X289567Y46661D01*
X289600D01*
X289618D01*
X289626D01*
X289738Y46665D01*
X289841Y46668D01*
X289935Y46676D01*
X290022Y46687D01*
X290099Y46698D01*
X290168Y46712D01*
X290230Y46727D01*
X290284Y46741D01*
X290332Y46756D01*
X290372Y46767D01*
X290405Y46781D01*
X290434Y46792D01*
X290452Y46803D01*
X290466Y46810D01*
X290474Y46818D01*
X290477D01*
X290510Y46843D01*
X290539Y46869D01*
X290561Y46898D01*
X290583Y46927D01*
X290616Y46985D01*
X290638Y47040D01*
X290649Y47087D01*
X290656Y47127D01*
X290659Y47142D01*
Y47164D01*
X290656Y47204D01*
X290652Y47244D01*
X290641Y47280D01*
X290627Y47313D01*
X290594Y47375D01*
X290558Y47429D01*
X290517Y47469D01*
X290485Y47502D01*
X290470Y47513D01*
X290459Y47520D01*
X290456Y47528D01*
X290452D01*
X290408Y47553D01*
X290357Y47575D01*
X290299Y47597D01*
X290237Y47611D01*
X290172Y47626D01*
X290103Y47637D01*
X289964Y47655D01*
X289895Y47662D01*
X289833Y47666D01*
X289775Y47670D01*
X289728D01*
X289684Y47673D01*
D02*
G37*
G36*
X290241Y41452D02*
X290226D01*
X290219D01*
X290172Y41449D01*
X290128Y41441D01*
X290092Y41431D01*
X290062Y41420D01*
X290037Y41409D01*
X290015Y41398D01*
X290004Y41390D01*
X290001Y41387D01*
X289971Y41361D01*
X289942Y41329D01*
X289920Y41296D01*
X289906Y41267D01*
X289891Y41238D01*
X289880Y41216D01*
X289877Y41201D01*
X289873Y41194D01*
X289866Y41154D01*
X289859Y41103D01*
X289855Y41052D01*
X289851Y41001D01*
X289848Y40954D01*
Y40335D01*
X290605D01*
Y40932D01*
X290598Y41012D01*
X290594Y41074D01*
X290587Y41128D01*
X290579Y41168D01*
X290576Y41194D01*
X290568Y41212D01*
Y41216D01*
X290554Y41256D01*
X290532Y41292D01*
X290510Y41321D01*
X290488Y41347D01*
X290470Y41365D01*
X290452Y41380D01*
X290441Y41387D01*
X290437Y41390D01*
X290401Y41412D01*
X290365Y41427D01*
X290328Y41438D01*
X290292Y41445D01*
X290263Y41449D01*
X290241Y41452D01*
D02*
G37*
G36*
X289138Y41562D02*
X289123D01*
X289116D01*
X289072Y41558D01*
X289029Y41554D01*
X288992Y41547D01*
X288963Y41536D01*
X288938Y41525D01*
X288916Y41518D01*
X288905Y41514D01*
X288901Y41511D01*
X288869Y41489D01*
X288840Y41471D01*
X288818Y41445D01*
X288796Y41427D01*
X288781Y41409D01*
X288770Y41394D01*
X288763Y41383D01*
X288759Y41380D01*
X288730Y41318D01*
X288708Y41256D01*
X288701Y41230D01*
X288698Y41208D01*
X288694Y41194D01*
Y41190D01*
X288690Y41161D01*
X288687Y41128D01*
X288683Y41052D01*
Y40335D01*
X289549D01*
Y40997D01*
X289542Y41074D01*
X289535Y41136D01*
X289527Y41187D01*
X289520Y41227D01*
X289513Y41259D01*
X289509Y41274D01*
X289506Y41281D01*
X289487Y41329D01*
X289465Y41369D01*
X289440Y41405D01*
X289415Y41434D01*
X289393Y41456D01*
X289374Y41471D01*
X289360Y41482D01*
X289356Y41485D01*
X289316Y41511D01*
X289276Y41529D01*
X289236Y41543D01*
X289200Y41551D01*
X289167Y41558D01*
X289138Y41562D01*
D02*
G37*
%LPD*%
D13*
X315066Y1024D02*
X315066Y78976D01*
X263098D02*
X315066D01*
X263098D02*
X263098Y1024D01*
X315066D01*
X37008Y888D02*
Y78841D01*
Y888D02*
X88976D01*
Y78841D01*
X37008D02*
X88976D01*
M02*
