G04*
G04 #@! TF.GenerationSoftware,Altium Limited,Altium Designer,22.9.1 (49)*
G04*
G04 Layer_Physical_Order=4*
G04 Layer_Color=16711680*
%FSLAX25Y25*%
%MOIN*%
G70*
G04*
G04 #@! TF.SameCoordinates,9D3E2428-DCC5-4340-9D25-80E916FAB4BD*
G04*
G04*
G04 #@! TF.FilePolarity,Positive*
G04*
G01*
G75*
%ADD10C,0.01000*%
%ADD71C,0.10945*%
%ADD80C,0.06693*%
%ADD81C,0.06000*%
%ADD82O,0.05906X0.05906*%
%ADD83O,0.04921X0.25000*%
%ADD84C,0.20000*%
%ADD85O,0.05906X0.05906*%
%ADD86O,0.09843X0.06890*%
%ADD87O,0.07874X0.11811*%
%ADD88C,0.03937*%
%ADD89C,0.01968*%
G36*
X351366Y352742D02*
X352191Y352191D01*
X352742Y351366D01*
X352923Y350459D01*
X352910Y350394D01*
Y3937D01*
X352923Y3871D01*
X352742Y2964D01*
X352191Y2139D01*
X351366Y1588D01*
X350459Y1408D01*
X350394Y1421D01*
X3937D01*
X3871Y1408D01*
X2964Y1588D01*
X2139Y2139D01*
X1588Y2964D01*
X1408Y3871D01*
X1421Y3937D01*
Y293700D01*
X1921Y293984D01*
X2354Y293734D01*
X3109Y293531D01*
X3891D01*
X4646Y293734D01*
X5323Y294125D01*
X5750Y294552D01*
X6177Y294125D01*
X6854Y293734D01*
X7609Y293531D01*
X8391D01*
X9146Y293734D01*
X9823Y294125D01*
X10375Y294677D01*
X10766Y295354D01*
X10968Y296109D01*
Y296891D01*
X10766Y297646D01*
X10375Y298323D01*
X9823Y298875D01*
X9146Y299266D01*
X8391Y299468D01*
X7609D01*
X6854Y299266D01*
X6177Y298875D01*
X5750Y298448D01*
X5323Y298875D01*
X4646Y299266D01*
X3891Y299468D01*
X3109D01*
X2354Y299266D01*
X1921Y299016D01*
X1421Y299300D01*
Y350394D01*
X1408Y350459D01*
X1588Y351366D01*
X2139Y352191D01*
X2964Y352742D01*
X3871Y352923D01*
X3937Y352910D01*
X350394D01*
X350459Y352923D01*
X351366Y352742D01*
D02*
G37*
%LPC*%
G36*
X299500Y346448D02*
X298211Y346278D01*
X297010Y345781D01*
X295979Y344990D01*
X295188Y343958D01*
X294771Y342952D01*
X294229D01*
X293812Y343958D01*
X293021Y344990D01*
X291990Y345781D01*
X290789Y346278D01*
X289500Y346448D01*
X288211Y346278D01*
X287010Y345781D01*
X285979Y344990D01*
X285188Y343958D01*
X284771Y342952D01*
X284229D01*
X283812Y343958D01*
X283021Y344990D01*
X281990Y345781D01*
X280789Y346278D01*
X279500Y346448D01*
X278211Y346278D01*
X277010Y345781D01*
X275979Y344990D01*
X275187Y343958D01*
X274771Y342952D01*
X274229D01*
X273813Y343958D01*
X273021Y344990D01*
X271990Y345781D01*
X270789Y346278D01*
X269500Y346448D01*
X268211Y346278D01*
X267010Y345781D01*
X265979Y344990D01*
X265188Y343958D01*
X264771Y342952D01*
X264229D01*
X263812Y343958D01*
X263021Y344990D01*
X261990Y345781D01*
X260789Y346278D01*
X259500Y346448D01*
X258211Y346278D01*
X257010Y345781D01*
X255979Y344990D01*
X255188Y343958D01*
X254771Y342952D01*
X254229D01*
X253813Y343958D01*
X253021Y344990D01*
X251990Y345781D01*
X250789Y346278D01*
X249500Y346448D01*
X248211Y346278D01*
X247010Y345781D01*
X245979Y344990D01*
X245187Y343958D01*
X244771Y342952D01*
X244229D01*
X243812Y343958D01*
X243021Y344990D01*
X241990Y345781D01*
X240789Y346278D01*
X239500Y346448D01*
X238211Y346278D01*
X237010Y345781D01*
X235979Y344990D01*
X235188Y343958D01*
X234771Y342952D01*
X234229D01*
X233812Y343958D01*
X233021Y344990D01*
X231990Y345781D01*
X230789Y346278D01*
X229500Y346448D01*
X228211Y346278D01*
X227010Y345781D01*
X225979Y344990D01*
X225187Y343958D01*
X224690Y342757D01*
X224520Y341469D01*
Y337531D01*
X224690Y336243D01*
X225187Y335042D01*
X225979Y334010D01*
X227010Y333219D01*
X228211Y332722D01*
X229500Y332552D01*
X230789Y332722D01*
X231990Y333219D01*
X233021Y334010D01*
X233812Y335042D01*
X234229Y336048D01*
X234771D01*
X235188Y335042D01*
X235979Y334010D01*
X237010Y333219D01*
X237971Y332821D01*
Y323000D01*
X238087Y322415D01*
X238419Y321919D01*
X241971Y318367D01*
Y303935D01*
X241471Y303728D01*
X241323Y303875D01*
X240646Y304266D01*
X239891Y304468D01*
X239109D01*
X238354Y304266D01*
X237677Y303875D01*
X237125Y303323D01*
X236734Y302646D01*
X236531Y301891D01*
Y301109D01*
X236734Y300354D01*
X237125Y299677D01*
X237677Y299125D01*
X238354Y298734D01*
X239109Y298532D01*
X239891D01*
X240646Y298734D01*
X241323Y299125D01*
X241471Y299272D01*
X241971Y299065D01*
Y286883D01*
X239816Y284729D01*
X239485Y284233D01*
X239368Y283648D01*
Y268531D01*
X210898Y240061D01*
X203925D01*
X203724Y240561D01*
X206081Y242919D01*
X206413Y243415D01*
X206529Y244000D01*
Y271000D01*
X206413Y271585D01*
X206081Y272081D01*
X203529Y274634D01*
Y286866D01*
X226782Y310119D01*
X227109Y310032D01*
X227891D01*
X228646Y310234D01*
X229323Y310625D01*
X229875Y311177D01*
X230266Y311854D01*
X230469Y312609D01*
Y313391D01*
X230266Y314146D01*
X229875Y314823D01*
X229323Y315375D01*
X228646Y315766D01*
X227891Y315968D01*
X227109D01*
X226354Y315766D01*
X225677Y315375D01*
X225125Y314823D01*
X224734Y314146D01*
X224532Y313391D01*
Y312609D01*
X224619Y312282D01*
X200919Y288581D01*
X200587Y288085D01*
X200529Y287795D01*
X200029Y287845D01*
Y291367D01*
X218782Y310119D01*
X219109Y310032D01*
X219891D01*
X220646Y310234D01*
X221323Y310625D01*
X221875Y311177D01*
X222266Y311854D01*
X222468Y312609D01*
Y313391D01*
X222266Y314146D01*
X221875Y314823D01*
X221323Y315375D01*
X220646Y315766D01*
X219891Y315968D01*
X219109D01*
X218354Y315766D01*
X217677Y315375D01*
X217125Y314823D01*
X216734Y314146D01*
X216531Y313391D01*
Y312609D01*
X216619Y312282D01*
X199223Y294886D01*
X198846Y295216D01*
X199081Y295522D01*
X199453Y296007D01*
X199851Y296968D01*
X199987Y298000D01*
X199851Y299032D01*
X199453Y299993D01*
X198819Y300819D01*
X197993Y301453D01*
X197032Y301851D01*
X196000Y301987D01*
X194968Y301851D01*
X194007Y301453D01*
X193181Y300819D01*
X192547Y299993D01*
X192149Y299032D01*
X192013Y298000D01*
X192149Y296968D01*
X192547Y296007D01*
X193181Y295181D01*
X194007Y294547D01*
X194968Y294149D01*
X196000Y294013D01*
X197032Y294149D01*
X197993Y294547D01*
X198478Y294919D01*
X198784Y295154D01*
X199114Y294777D01*
X197419Y293081D01*
X197087Y292585D01*
X196971Y292000D01*
Y269500D01*
X197087Y268915D01*
X197419Y268419D01*
X201471Y264367D01*
Y249792D01*
X200971Y249658D01*
X200875Y249823D01*
X200323Y250375D01*
X199646Y250766D01*
X198891Y250969D01*
X198109D01*
X197354Y250766D01*
X196677Y250375D01*
X196125Y249823D01*
X195734Y249146D01*
X195531Y248391D01*
Y247609D01*
X195734Y246854D01*
X195903Y246561D01*
X195615Y246061D01*
X191885D01*
X191597Y246561D01*
X191766Y246854D01*
X191969Y247609D01*
Y248391D01*
X191766Y249146D01*
X191375Y249823D01*
X190823Y250375D01*
X190529Y250545D01*
Y279905D01*
X190413Y280490D01*
X190081Y280987D01*
X187029Y284039D01*
Y289708D01*
X187529Y289842D01*
X187625Y289677D01*
X188177Y289125D01*
X188854Y288734D01*
X189609Y288531D01*
X190391D01*
X191146Y288734D01*
X191823Y289125D01*
X192375Y289677D01*
X192766Y290354D01*
X192968Y291109D01*
Y291891D01*
X192766Y292646D01*
X192375Y293323D01*
X191823Y293875D01*
X191146Y294266D01*
X190391Y294468D01*
X189609D01*
X188854Y294266D01*
X188177Y293875D01*
X187625Y293323D01*
X187529Y293158D01*
X187029Y293292D01*
Y304867D01*
X202581Y320419D01*
X202913Y320915D01*
X203029Y321500D01*
Y332734D01*
X204201Y333219D01*
X205233Y334010D01*
X206024Y335042D01*
X206441Y336048D01*
X206982D01*
X207399Y335042D01*
X208190Y334010D01*
X209222Y333219D01*
X210423Y332722D01*
X211712Y332552D01*
X213000Y332722D01*
X214201Y333219D01*
X215233Y334010D01*
X216024Y335042D01*
X216522Y336243D01*
X216691Y337531D01*
Y341469D01*
X216522Y342757D01*
X216024Y343958D01*
X215233Y344990D01*
X214201Y345781D01*
X213000Y346278D01*
X211712Y346448D01*
X210423Y346278D01*
X209222Y345781D01*
X208190Y344990D01*
X207399Y343958D01*
X206982Y342952D01*
X206441D01*
X206024Y343958D01*
X205233Y344990D01*
X204201Y345781D01*
X203000Y346278D01*
X201712Y346448D01*
X200423Y346278D01*
X199222Y345781D01*
X198190Y344990D01*
X197399Y343958D01*
X196982Y342952D01*
X196441D01*
X196024Y343958D01*
X195233Y344990D01*
X194201Y345781D01*
X193000Y346278D01*
X191712Y346448D01*
X190423Y346278D01*
X189222Y345781D01*
X188190Y344990D01*
X187399Y343958D01*
X186982Y342952D01*
X186441D01*
X186024Y343958D01*
X185233Y344990D01*
X184201Y345781D01*
X183000Y346278D01*
X181712Y346448D01*
X180423Y346278D01*
X179222Y345781D01*
X178191Y344990D01*
X177399Y343958D01*
X176982Y342952D01*
X176441D01*
X176024Y343958D01*
X175233Y344990D01*
X174201Y345781D01*
X173001Y346278D01*
X171712Y346448D01*
X170423Y346278D01*
X169222Y345781D01*
X168191Y344990D01*
X167399Y343958D01*
X166982Y342952D01*
X166441D01*
X166024Y343958D01*
X165233Y344990D01*
X164201Y345781D01*
X163000Y346278D01*
X161712Y346448D01*
X160423Y346278D01*
X159222Y345781D01*
X158191Y344990D01*
X157399Y343958D01*
X156982Y342952D01*
X156441D01*
X156024Y343958D01*
X155233Y344990D01*
X154201Y345781D01*
X153000Y346278D01*
X151712Y346448D01*
X150423Y346278D01*
X149222Y345781D01*
X148190Y344990D01*
X147399Y343958D01*
X146982Y342952D01*
X146441D01*
X146024Y343958D01*
X145233Y344990D01*
X144201Y345781D01*
X143000Y346278D01*
X141712Y346448D01*
X140423Y346278D01*
X139222Y345781D01*
X138190Y344990D01*
X137399Y343958D01*
X136902Y342757D01*
X136732Y341469D01*
Y337531D01*
X136902Y336243D01*
X137399Y335042D01*
X138190Y334010D01*
X139222Y333219D01*
X140423Y332722D01*
X141712Y332552D01*
X143000Y332722D01*
X144201Y333219D01*
X145233Y334010D01*
X146024Y335042D01*
X146441Y336048D01*
X146982D01*
X147399Y335042D01*
X148190Y334010D01*
X149222Y333219D01*
X150423Y332722D01*
X151712Y332552D01*
X153000Y332722D01*
X154201Y333219D01*
X155233Y334010D01*
X156024Y335042D01*
X156441Y336048D01*
X156982D01*
X157399Y335042D01*
X158191Y334010D01*
X159222Y333219D01*
X160423Y332722D01*
X161712Y332552D01*
X163000Y332722D01*
X164201Y333219D01*
X165233Y334010D01*
X166024Y335042D01*
X166441Y336048D01*
X166982D01*
X167399Y335042D01*
X168191Y334010D01*
X169222Y333219D01*
X170423Y332722D01*
X171712Y332552D01*
X173001Y332722D01*
X174201Y333219D01*
X175233Y334010D01*
X176024Y335042D01*
X176441Y336048D01*
X176982D01*
X177399Y335042D01*
X178191Y334010D01*
X179222Y333219D01*
X180423Y332722D01*
X181712Y332552D01*
X183000Y332722D01*
X184201Y333219D01*
X185233Y334010D01*
X186024Y335042D01*
X186441Y336048D01*
X186982D01*
X187399Y335042D01*
X188190Y334010D01*
X189222Y333219D01*
X190423Y332722D01*
X191712Y332552D01*
X193000Y332722D01*
X194201Y333219D01*
X195233Y334010D01*
X196024Y335042D01*
X196441Y336048D01*
X196982D01*
X197399Y335042D01*
X198190Y334010D01*
X199222Y333219D01*
X199971Y332909D01*
Y324792D01*
X199471Y324658D01*
X199375Y324823D01*
X198823Y325375D01*
X198146Y325766D01*
X197391Y325969D01*
X196609D01*
X195854Y325766D01*
X195177Y325375D01*
X194625Y324823D01*
X194234Y324146D01*
X194032Y323391D01*
Y322609D01*
X194119Y322282D01*
X190336Y318498D01*
X189469D01*
X188884Y318382D01*
X188388Y318051D01*
X182419Y312081D01*
X182087Y311585D01*
X181971Y311000D01*
Y293133D01*
X170919Y282081D01*
X170587Y281585D01*
X170471Y281000D01*
Y265000D01*
X170587Y264415D01*
X170919Y263919D01*
X177471Y257366D01*
Y250545D01*
X177177Y250375D01*
X176625Y249823D01*
X176234Y249146D01*
X176146Y248819D01*
X175588Y248669D01*
X174239Y250019D01*
X173743Y250350D01*
X173158Y250466D01*
X171545D01*
X171375Y250760D01*
X170823Y251312D01*
X170146Y251703D01*
X169391Y251905D01*
X168609D01*
X167854Y251703D01*
X167177Y251312D01*
X166625Y250760D01*
X166234Y250083D01*
X166032Y249328D01*
Y248546D01*
X166234Y247791D01*
X166403Y247498D01*
X166114Y246998D01*
X162329D01*
X161994Y247393D01*
X162052Y247609D01*
Y248391D01*
X161850Y249146D01*
X161459Y249823D01*
X160906Y250375D01*
X160229Y250766D01*
X159474Y250969D01*
X158693D01*
X157938Y250766D01*
X157261Y250375D01*
X156708Y249823D01*
X156317Y249146D01*
X156115Y248391D01*
Y247609D01*
X156317Y246854D01*
X156708Y246177D01*
X157261Y245625D01*
X157938Y245234D01*
X158693Y245031D01*
X159474D01*
X159802Y245119D01*
X160534Y244387D01*
X161030Y244056D01*
X161615Y243939D01*
X166614D01*
X166903Y243439D01*
X166734Y243146D01*
X166532Y242391D01*
Y241609D01*
X166734Y240854D01*
X166903Y240561D01*
X166614Y240061D01*
X151602D01*
X146497Y245166D01*
X146584Y245493D01*
Y246275D01*
X146382Y247030D01*
X145991Y247707D01*
X145439Y248260D01*
X144762Y248650D01*
X144007Y248853D01*
X143225D01*
X142470Y248650D01*
X142344Y248577D01*
X141914Y248907D01*
X141969Y249109D01*
Y249891D01*
X141766Y250646D01*
X141375Y251323D01*
X141227Y251471D01*
X141435Y251971D01*
X144367D01*
X146119Y250218D01*
X146031Y249891D01*
Y249109D01*
X146234Y248354D01*
X146625Y247677D01*
X147177Y247125D01*
X147854Y246734D01*
X148609Y246532D01*
X149391D01*
X150146Y246734D01*
X150823Y247125D01*
X151375Y247677D01*
X151766Y248354D01*
X151969Y249109D01*
Y249891D01*
X151766Y250646D01*
X151375Y251323D01*
X150823Y251875D01*
X150146Y252266D01*
X149391Y252468D01*
X148609D01*
X148282Y252381D01*
X146081Y254581D01*
X145585Y254913D01*
X145000Y255029D01*
X137500D01*
X136915Y254913D01*
X136518Y254648D01*
X136199Y255036D01*
X146497Y265334D01*
X150204D01*
X150789Y265451D01*
X151285Y265782D01*
X160687Y275184D01*
X160855Y275129D01*
X161135Y274925D01*
X161013Y274000D01*
X161149Y272968D01*
X161547Y272007D01*
X162181Y271181D01*
X163007Y270547D01*
X163968Y270149D01*
X165000Y270013D01*
X166032Y270149D01*
X166993Y270547D01*
X167819Y271181D01*
X168453Y272007D01*
X168851Y272968D01*
X168987Y274000D01*
X168851Y275032D01*
X168453Y275993D01*
X167819Y276819D01*
X166993Y277453D01*
X166032Y277851D01*
X165000Y277987D01*
X164075Y277865D01*
X163871Y278145D01*
X163816Y278313D01*
X166113Y280610D01*
X166445Y281106D01*
X166561Y281691D01*
Y286614D01*
X167061Y286903D01*
X167354Y286734D01*
X168109Y286531D01*
X168891D01*
X169646Y286734D01*
X170323Y287125D01*
X170875Y287677D01*
X171266Y288354D01*
X171468Y289109D01*
Y289891D01*
X171266Y290646D01*
X170875Y291323D01*
X170323Y291875D01*
X169646Y292266D01*
X168891Y292469D01*
X168109D01*
X167354Y292266D01*
X167061Y292097D01*
X166561Y292386D01*
Y296123D01*
X171769Y301331D01*
X172326Y301181D01*
X172414Y300854D01*
X172805Y300177D01*
X173232Y299750D01*
X172805Y299323D01*
X172414Y298646D01*
X172212Y297891D01*
Y297109D01*
X172414Y296354D01*
X172805Y295677D01*
X173357Y295125D01*
X174034Y294734D01*
X174789Y294531D01*
X175571D01*
X176326Y294734D01*
X177003Y295125D01*
X177556Y295677D01*
X177946Y296354D01*
X178149Y297109D01*
Y297891D01*
X177946Y298646D01*
X177556Y299323D01*
X177128Y299750D01*
X177556Y300177D01*
X177946Y300854D01*
X178149Y301609D01*
Y302391D01*
X177946Y303146D01*
X177556Y303823D01*
X177003Y304375D01*
X176326Y304766D01*
X175999Y304854D01*
X175849Y305412D01*
X176388Y305950D01*
X176719Y306446D01*
X176836Y307031D01*
Y307843D01*
X177323Y308125D01*
X177875Y308677D01*
X178266Y309354D01*
X178469Y310109D01*
Y310891D01*
X178266Y311646D01*
X177875Y312323D01*
X177323Y312875D01*
X176646Y313266D01*
X175891Y313469D01*
X175338D01*
X175131Y313968D01*
X175782Y314619D01*
X176109Y314531D01*
X176891D01*
X177646Y314734D01*
X178323Y315125D01*
X178875Y315677D01*
X179266Y316354D01*
X179469Y317109D01*
Y317891D01*
X179266Y318646D01*
X178875Y319323D01*
X178323Y319875D01*
X177646Y320266D01*
X176891Y320468D01*
X176109D01*
X175354Y320266D01*
X174677Y319875D01*
X174125Y319323D01*
X173734Y318646D01*
X173531Y317891D01*
Y317109D01*
X173619Y316782D01*
X162450Y305613D01*
X162118Y305117D01*
X162002Y304532D01*
Y283165D01*
X160886Y282049D01*
X160328Y282198D01*
X160241Y282526D01*
X159850Y283203D01*
X159297Y283755D01*
X158620Y284146D01*
X157865Y284348D01*
X157084D01*
X156329Y284146D01*
X155652Y283755D01*
X155099Y283203D01*
X154708Y282526D01*
X154506Y281771D01*
Y280989D01*
X154708Y280234D01*
X155099Y279557D01*
X155460Y279196D01*
X155253Y278696D01*
X153167D01*
X152582Y278580D01*
X152085Y278248D01*
X130419Y256581D01*
X130087Y256085D01*
X129971Y255500D01*
Y241500D01*
X130087Y240915D01*
X130419Y240419D01*
X140919Y229919D01*
X141415Y229587D01*
X142000Y229471D01*
X168867D01*
X187471Y210866D01*
Y197045D01*
X187177Y196875D01*
X186625Y196323D01*
X186234Y195646D01*
X186031Y194891D01*
Y194109D01*
X186234Y193354D01*
X186625Y192677D01*
X187177Y192125D01*
X187854Y191734D01*
X188609Y191532D01*
X189391D01*
X190146Y191734D01*
X190823Y192125D01*
X191375Y192677D01*
X191766Y193354D01*
X191969Y194109D01*
Y194891D01*
X191766Y195646D01*
X191375Y196323D01*
X190823Y196875D01*
X190529Y197045D01*
Y211500D01*
X190413Y212085D01*
X190081Y212581D01*
X171740Y230923D01*
X171931Y231385D01*
X172952D01*
X197554Y206783D01*
Y197045D01*
X197261Y196875D01*
X196708Y196323D01*
X196317Y195646D01*
X196115Y194891D01*
Y194109D01*
X196317Y193354D01*
X196708Y192677D01*
X197261Y192125D01*
X197938Y191734D01*
X198693Y191532D01*
X199474D01*
X200229Y191734D01*
X200906Y192125D01*
X201459Y192677D01*
X201850Y193354D01*
X202052Y194109D01*
Y194891D01*
X201850Y195646D01*
X201459Y196323D01*
X200906Y196875D01*
X200613Y197045D01*
Y207416D01*
X200497Y208002D01*
X200165Y208498D01*
X176240Y232423D01*
X176431Y232885D01*
X215638D01*
X216223Y233001D01*
X216719Y233333D01*
X259081Y275695D01*
X259413Y276191D01*
X259529Y276776D01*
Y276867D01*
X260581Y277919D01*
X260913Y278415D01*
X261029Y279000D01*
Y332821D01*
X261990Y333219D01*
X263021Y334010D01*
X263812Y335042D01*
X264229Y336048D01*
X264771D01*
X265188Y335042D01*
X265979Y334010D01*
X267010Y333219D01*
X268211Y332722D01*
X269500Y332552D01*
X270789Y332722D01*
X271990Y333219D01*
X273021Y334010D01*
X273813Y335042D01*
X274229Y336048D01*
X274771D01*
X275187Y335042D01*
X275979Y334010D01*
X277010Y333219D01*
X278211Y332722D01*
X279500Y332552D01*
X280789Y332722D01*
X281990Y333219D01*
X283021Y334010D01*
X283812Y335042D01*
X284229Y336048D01*
X284771D01*
X285188Y335042D01*
X285979Y334010D01*
X287010Y333219D01*
X288211Y332722D01*
X289500Y332552D01*
X290789Y332722D01*
X291990Y333219D01*
X293021Y334010D01*
X293812Y335042D01*
X294229Y336048D01*
X294771D01*
X295188Y335042D01*
X295979Y334010D01*
X297010Y333219D01*
X298211Y332722D01*
X299500Y332552D01*
X300789Y332722D01*
X301990Y333219D01*
X303021Y334010D01*
X303813Y335042D01*
X304310Y336243D01*
X304480Y337531D01*
Y341469D01*
X304310Y342757D01*
X303813Y343958D01*
X303021Y344990D01*
X301990Y345781D01*
X300789Y346278D01*
X299500Y346448D01*
D02*
G37*
G36*
X123923D02*
X122634Y346278D01*
X121433Y345781D01*
X120402Y344990D01*
X119611Y343958D01*
X119194Y342952D01*
X118653D01*
X118236Y343958D01*
X117444Y344990D01*
X116413Y345781D01*
X115212Y346278D01*
X113923Y346448D01*
X112634Y346278D01*
X111433Y345781D01*
X110402Y344990D01*
X109611Y343958D01*
X109194Y342952D01*
X108653D01*
X108236Y343958D01*
X107444Y344990D01*
X106413Y345781D01*
X105212Y346278D01*
X103923Y346448D01*
X102634Y346278D01*
X101433Y345781D01*
X100402Y344990D01*
X99611Y343958D01*
X99194Y342952D01*
X98653D01*
X98236Y343958D01*
X97444Y344990D01*
X96413Y345781D01*
X95212Y346278D01*
X93923Y346448D01*
X92634Y346278D01*
X91433Y345781D01*
X90402Y344990D01*
X89611Y343958D01*
X89194Y342952D01*
X88653D01*
X88236Y343958D01*
X87444Y344990D01*
X86413Y345781D01*
X85212Y346278D01*
X83923Y346448D01*
X82634Y346278D01*
X81433Y345781D01*
X80402Y344990D01*
X79611Y343958D01*
X79194Y342952D01*
X78653D01*
X78236Y343958D01*
X77444Y344990D01*
X76413Y345781D01*
X75212Y346278D01*
X73923Y346448D01*
X72634Y346278D01*
X71433Y345781D01*
X70402Y344990D01*
X69611Y343958D01*
X69194Y342952D01*
X68653D01*
X68236Y343958D01*
X67444Y344990D01*
X66413Y345781D01*
X65212Y346278D01*
X64423Y346382D01*
Y339500D01*
Y332618D01*
X65212Y332722D01*
X66413Y333219D01*
X67444Y334010D01*
X68236Y335042D01*
X68653Y336048D01*
X69194D01*
X69611Y335042D01*
X70402Y334010D01*
X71433Y333219D01*
X72634Y332722D01*
X73923Y332552D01*
X75212Y332722D01*
X76413Y333219D01*
X77444Y334010D01*
X78236Y335042D01*
X78653Y336048D01*
X79194D01*
X79611Y335042D01*
X80402Y334010D01*
X81433Y333219D01*
X82634Y332722D01*
X83923Y332552D01*
X85212Y332722D01*
X86413Y333219D01*
X87444Y334010D01*
X88236Y335042D01*
X88653Y336048D01*
X89194D01*
X89611Y335042D01*
X90402Y334010D01*
X91433Y333219D01*
X92634Y332722D01*
X93923Y332552D01*
X95212Y332722D01*
X96413Y333219D01*
X97444Y334010D01*
X98236Y335042D01*
X98653Y336048D01*
X99194D01*
X99611Y335042D01*
X100402Y334010D01*
X101433Y333219D01*
X102634Y332722D01*
X103923Y332552D01*
X105212Y332722D01*
X106413Y333219D01*
X107444Y334010D01*
X108236Y335042D01*
X108653Y336048D01*
X109194D01*
X109611Y335042D01*
X110402Y334010D01*
X111433Y333219D01*
X112634Y332722D01*
X113923Y332552D01*
X115212Y332722D01*
X116413Y333219D01*
X117444Y334010D01*
X118236Y335042D01*
X118653Y336048D01*
X119194D01*
X119611Y335042D01*
X120402Y334010D01*
X121433Y333219D01*
X122634Y332722D01*
X123923Y332552D01*
X125212Y332722D01*
X126413Y333219D01*
X127444Y334010D01*
X128236Y335042D01*
X128733Y336243D01*
X128903Y337531D01*
Y341469D01*
X128733Y342757D01*
X128236Y343958D01*
X127444Y344990D01*
X126413Y345781D01*
X125212Y346278D01*
X123923Y346448D01*
D02*
G37*
G36*
X53923D02*
X52634Y346278D01*
X51433Y345781D01*
X50402Y344990D01*
X49611Y343958D01*
X49113Y342757D01*
X48944Y341469D01*
Y337531D01*
X49113Y336243D01*
X49611Y335042D01*
X50402Y334010D01*
X51433Y333219D01*
X52394Y332821D01*
Y312577D01*
X52510Y311992D01*
X52842Y311495D01*
X73889Y290448D01*
X74385Y290117D01*
X74971Y290000D01*
X118485D01*
X118654Y289707D01*
X119207Y289154D01*
X119500Y288985D01*
Y258163D01*
X108419Y247081D01*
X108087Y246585D01*
X107971Y246000D01*
Y227133D01*
X69919Y189081D01*
X69587Y188585D01*
X69471Y188000D01*
Y153645D01*
X69007Y153453D01*
X68181Y152819D01*
X67547Y151993D01*
X67149Y151032D01*
X67013Y150000D01*
X67149Y148968D01*
X67547Y148007D01*
X68181Y147181D01*
X69007Y146547D01*
X69471Y146355D01*
Y96000D01*
X69587Y95415D01*
X69919Y94919D01*
X82919Y81919D01*
X83415Y81587D01*
X84000Y81471D01*
X147133D01*
X147421Y80971D01*
X147234Y80646D01*
X147031Y79891D01*
Y79109D01*
X147234Y78354D01*
X147625Y77677D01*
X148177Y77125D01*
X148471Y76955D01*
Y68045D01*
X148177Y67875D01*
X147625Y67323D01*
X147234Y66646D01*
X147031Y65891D01*
Y65109D01*
X147234Y64354D01*
X147625Y63677D01*
X148177Y63125D01*
X148471Y62955D01*
Y57500D01*
X148587Y56915D01*
X148919Y56419D01*
X154138Y51200D01*
X154634Y50868D01*
X155219Y50752D01*
X157086D01*
X161119Y46718D01*
X161031Y46391D01*
Y45609D01*
X161234Y44854D01*
X161625Y44177D01*
X162177Y43625D01*
X162854Y43234D01*
X163609Y43031D01*
X164391D01*
X165146Y43234D01*
X165823Y43625D01*
X166375Y44177D01*
X166766Y44854D01*
X166969Y45609D01*
Y46391D01*
X166766Y47146D01*
X166375Y47823D01*
X165823Y48375D01*
X165146Y48766D01*
X164391Y48968D01*
X163609D01*
X163282Y48881D01*
X158800Y53362D01*
X158304Y53694D01*
X157719Y53810D01*
X155852D01*
X153981Y55682D01*
X154239Y56131D01*
X154609Y56032D01*
X155391D01*
X156146Y56234D01*
X156823Y56625D01*
X157375Y57177D01*
X157766Y57854D01*
X157968Y58609D01*
Y59391D01*
X157930Y59535D01*
X158344Y59919D01*
X158859Y59781D01*
X159641D01*
X160396Y59984D01*
X161073Y60375D01*
X161625Y60927D01*
X162016Y61604D01*
X162218Y62359D01*
Y63141D01*
X162097Y63594D01*
X162527Y63923D01*
X162854Y63734D01*
X163609Y63532D01*
X164391D01*
X165146Y63734D01*
X165823Y64125D01*
X166375Y64677D01*
X166766Y65354D01*
X166969Y66109D01*
Y66891D01*
X166766Y67646D01*
X166375Y68323D01*
X165948Y68750D01*
X166375Y69177D01*
X166766Y69854D01*
X166969Y70609D01*
Y71391D01*
X166766Y72146D01*
X166375Y72823D01*
X165823Y73375D01*
X165146Y73766D01*
X164391Y73968D01*
X163609D01*
X162854Y73766D01*
X162177Y73375D01*
X161625Y72823D01*
X161234Y72146D01*
X161031Y71391D01*
Y70609D01*
X161234Y69854D01*
X161625Y69177D01*
X162052Y68750D01*
X161625Y68323D01*
X161234Y67646D01*
X161031Y66891D01*
Y66109D01*
X161153Y65657D01*
X160723Y65327D01*
X160396Y65516D01*
X159641Y65719D01*
X158859D01*
X158104Y65516D01*
X157427Y65125D01*
X156875Y64573D01*
X156484Y63896D01*
X156281Y63141D01*
Y62359D01*
X156320Y62215D01*
X155905Y61831D01*
X155391Y61968D01*
X154609D01*
X153854Y61766D01*
X153177Y61375D01*
X152625Y60823D01*
X152234Y60146D01*
X152032Y59391D01*
Y58757D01*
X151711Y58505D01*
X151555Y58455D01*
X151529Y58470D01*
Y62955D01*
X151823Y63125D01*
X152375Y63677D01*
X152766Y64354D01*
X152969Y65109D01*
Y65891D01*
X152766Y66646D01*
X152375Y67323D01*
X151823Y67875D01*
X151529Y68045D01*
Y76955D01*
X151823Y77125D01*
X152375Y77677D01*
X152766Y78354D01*
X152969Y79109D01*
Y79189D01*
X153355Y79506D01*
X153374Y79502D01*
X166835D01*
X184619Y61718D01*
X184531Y61391D01*
Y60609D01*
X184734Y59854D01*
X185125Y59177D01*
X185677Y58625D01*
X186295Y58268D01*
X186329Y58000D01*
X186295Y57732D01*
X185677Y57375D01*
X185125Y56823D01*
X184734Y56146D01*
X184531Y55391D01*
Y54609D01*
X184734Y53854D01*
X185125Y53177D01*
X185677Y52625D01*
X186354Y52234D01*
X187109Y52031D01*
X187891D01*
X188646Y52234D01*
X189323Y52625D01*
X189875Y53177D01*
X190266Y53854D01*
X190469Y54609D01*
Y55391D01*
X190266Y56146D01*
X189875Y56823D01*
X189323Y57375D01*
X188705Y57732D01*
X188671Y58000D01*
X188705Y58268D01*
X189323Y58625D01*
X189875Y59177D01*
X190266Y59854D01*
X190469Y60609D01*
Y61391D01*
X190266Y62146D01*
X189875Y62823D01*
X189397Y63301D01*
X189376Y63647D01*
X189424Y63894D01*
X189823Y64125D01*
X190375Y64677D01*
X190766Y65354D01*
X190969Y66109D01*
Y66891D01*
X190766Y67646D01*
X190375Y68323D01*
X189823Y68875D01*
X189146Y69266D01*
X188391Y69468D01*
X187609D01*
X186854Y69266D01*
X186177Y68875D01*
X185625Y68323D01*
X185234Y67646D01*
X185031Y66891D01*
Y66338D01*
X184531Y66131D01*
X168550Y82113D01*
X168054Y82445D01*
X167469Y82561D01*
X157886D01*
X157597Y83061D01*
X157766Y83354D01*
X157968Y84109D01*
Y84891D01*
X157766Y85646D01*
X157375Y86323D01*
X156823Y86875D01*
X156146Y87266D01*
X155391Y87468D01*
X154609D01*
X153854Y87266D01*
X153177Y86875D01*
X152625Y86323D01*
X152234Y85646D01*
X152032Y84891D01*
X151532Y84504D01*
X151405Y84529D01*
X84633D01*
X72529Y96633D01*
Y146355D01*
X72993Y146547D01*
X73819Y147181D01*
X74453Y148007D01*
X74851Y148968D01*
X74987Y150000D01*
X74851Y151032D01*
X74453Y151993D01*
X73819Y152819D01*
X72993Y153453D01*
X72529Y153645D01*
Y187366D01*
X110581Y225419D01*
X110913Y225915D01*
X111029Y226500D01*
Y245367D01*
X122111Y256448D01*
X122442Y256944D01*
X122559Y257529D01*
Y288985D01*
X122852Y289154D01*
X123405Y289707D01*
X123796Y290384D01*
X123998Y291139D01*
Y291920D01*
X123796Y292675D01*
X123405Y293352D01*
X122852Y293905D01*
X122175Y294296D01*
X121420Y294498D01*
X120639D01*
X119884Y294296D01*
X119207Y293905D01*
X118654Y293352D01*
X118485Y293059D01*
X75604D01*
X55453Y313210D01*
Y332821D01*
X56413Y333219D01*
X57444Y334010D01*
X58236Y335042D01*
X58653Y336048D01*
X59194D01*
X59611Y335042D01*
X60402Y334010D01*
X61433Y333219D01*
X62634Y332722D01*
X63423Y332618D01*
Y339500D01*
Y346382D01*
X62634Y346278D01*
X61433Y345781D01*
X60402Y344990D01*
X59611Y343958D01*
X59194Y342952D01*
X58653D01*
X58236Y343958D01*
X57444Y344990D01*
X56413Y345781D01*
X55212Y346278D01*
X53923Y346448D01*
D02*
G37*
G36*
X335511Y345646D02*
X333780D01*
X332070Y345375D01*
X330423Y344840D01*
X328880Y344054D01*
X327480Y343036D01*
X326255Y341812D01*
X325238Y340411D01*
X324452Y338868D01*
X323917Y337222D01*
X323646Y335511D01*
Y333780D01*
X323917Y332070D01*
X324452Y330423D01*
X325238Y328880D01*
X326255Y327480D01*
X327480Y326255D01*
X328880Y325238D01*
X330423Y324452D01*
X332070Y323917D01*
X333780Y323646D01*
X335511D01*
X337222Y323917D01*
X338868Y324452D01*
X340411Y325238D01*
X341812Y326255D01*
X343036Y327480D01*
X344054Y328880D01*
X344840Y330423D01*
X345375Y332070D01*
X345646Y333780D01*
Y335511D01*
X345375Y337222D01*
X344840Y338868D01*
X344054Y340411D01*
X343036Y341812D01*
X341812Y343036D01*
X340411Y344054D01*
X338868Y344840D01*
X337222Y345375D01*
X335511Y345646D01*
D02*
G37*
G36*
X20551D02*
X18819D01*
X17109Y345375D01*
X15462Y344840D01*
X13920Y344054D01*
X12519Y343036D01*
X11295Y341812D01*
X10277Y340411D01*
X9491Y338868D01*
X8956Y337222D01*
X8685Y335511D01*
Y333780D01*
X8956Y332070D01*
X9491Y330423D01*
X10277Y328880D01*
X11295Y327480D01*
X12519Y326255D01*
X13920Y325238D01*
X15462Y324452D01*
X17109Y323917D01*
X18819Y323646D01*
X20551D01*
X22261Y323917D01*
X23908Y324452D01*
X25450Y325238D01*
X26851Y326255D01*
X28075Y327480D01*
X29093Y328880D01*
X29879Y330423D01*
X30414Y332070D01*
X30685Y333780D01*
Y335511D01*
X30414Y337222D01*
X29879Y338868D01*
X29093Y340411D01*
X28075Y341812D01*
X26851Y343036D01*
X25450Y344054D01*
X23908Y344840D01*
X22261Y345375D01*
X20551Y345646D01*
D02*
G37*
G36*
X102391Y314469D02*
X101609D01*
X100854Y314266D01*
X100177Y313875D01*
X99625Y313323D01*
X99234Y312646D01*
X99032Y311891D01*
Y311109D01*
X99234Y310354D01*
X99625Y309677D01*
X100177Y309125D01*
X100854Y308734D01*
X101609Y308531D01*
X102391D01*
X103146Y308734D01*
X103823Y309125D01*
X104375Y309677D01*
X104766Y310354D01*
X104969Y311109D01*
Y311891D01*
X104766Y312646D01*
X104375Y313323D01*
X103823Y313875D01*
X103146Y314266D01*
X102391Y314469D01*
D02*
G37*
G36*
X95391D02*
X94609D01*
X93854Y314266D01*
X93177Y313875D01*
X92625Y313323D01*
X92234Y312646D01*
X92032Y311891D01*
Y311109D01*
X92234Y310354D01*
X92625Y309677D01*
X93177Y309125D01*
X93854Y308734D01*
X94609Y308531D01*
X95391D01*
X96146Y308734D01*
X96823Y309125D01*
X97375Y309677D01*
X97766Y310354D01*
X97969Y311109D01*
Y311891D01*
X97766Y312646D01*
X97375Y313323D01*
X96823Y313875D01*
X96146Y314266D01*
X95391Y314469D01*
D02*
G37*
G36*
X120391Y306469D02*
X119609D01*
X118854Y306266D01*
X118177Y305875D01*
X117625Y305323D01*
X117500Y305107D01*
X117000D01*
X116875Y305323D01*
X116323Y305875D01*
X115646Y306266D01*
X114891Y306469D01*
X114109D01*
X113354Y306266D01*
X112677Y305875D01*
X112125Y305323D01*
X111734Y304646D01*
X111531Y303891D01*
Y303109D01*
X111734Y302354D01*
X112125Y301677D01*
X112677Y301125D01*
X113354Y300734D01*
X114109Y300532D01*
X114891D01*
X115646Y300734D01*
X116323Y301125D01*
X116875Y301677D01*
X117000Y301893D01*
X117500D01*
X117625Y301677D01*
X118177Y301125D01*
X118854Y300734D01*
X119609Y300532D01*
X120391D01*
X121146Y300734D01*
X121823Y301125D01*
X122375Y301677D01*
X122766Y302354D01*
X122968Y303109D01*
Y303891D01*
X122766Y304646D01*
X122375Y305323D01*
X121823Y305875D01*
X121146Y306266D01*
X120391Y306469D01*
D02*
G37*
G36*
X334000Y312987D02*
X332968Y312851D01*
X332007Y312453D01*
X331181Y311819D01*
X330547Y310993D01*
X330149Y310032D01*
X330013Y309000D01*
X330149Y307968D01*
X330547Y307007D01*
X331181Y306181D01*
X332007Y305547D01*
X332968Y305149D01*
X334000Y305013D01*
X335032Y305149D01*
X335993Y305547D01*
X336819Y306181D01*
X337453Y307007D01*
X337851Y307968D01*
X337987Y309000D01*
X337851Y310032D01*
X337453Y310993D01*
X336819Y311819D01*
X335993Y312453D01*
X335032Y312851D01*
X334000Y312987D01*
D02*
G37*
G36*
X84891Y306469D02*
X84109D01*
X83354Y306266D01*
X82677Y305875D01*
X82125Y305323D01*
X81768Y304705D01*
X81500Y304671D01*
X81232Y304705D01*
X80875Y305323D01*
X80323Y305875D01*
X79646Y306266D01*
X78891Y306469D01*
X78109D01*
X77354Y306266D01*
X76677Y305875D01*
X76125Y305323D01*
X75734Y304646D01*
X75532Y303891D01*
Y303109D01*
X75734Y302354D01*
X76125Y301677D01*
X76677Y301125D01*
X77354Y300734D01*
X78109Y300532D01*
X78891D01*
X79646Y300734D01*
X80323Y301125D01*
X80875Y301677D01*
X81232Y302295D01*
X81500Y302329D01*
X81768Y302295D01*
X82125Y301677D01*
X82677Y301125D01*
X83354Y300734D01*
X84109Y300532D01*
X84891D01*
X85646Y300734D01*
X86323Y301125D01*
X86875Y301677D01*
X87266Y302354D01*
X87468Y303109D01*
Y303891D01*
X87266Y304646D01*
X86875Y305323D01*
X86323Y305875D01*
X85646Y306266D01*
X84891Y306469D01*
D02*
G37*
G36*
X54391Y305968D02*
X53609D01*
X52854Y305766D01*
X52177Y305375D01*
X51625Y304823D01*
X51500Y304607D01*
X51000D01*
X50875Y304823D01*
X50323Y305375D01*
X49646Y305766D01*
X48891Y305968D01*
X48109D01*
X47354Y305766D01*
X46677Y305375D01*
X46125Y304823D01*
X45734Y304146D01*
X45531Y303391D01*
Y302609D01*
X45734Y301854D01*
X46125Y301177D01*
X46677Y300625D01*
X47354Y300234D01*
X48109Y300031D01*
X48891D01*
X49646Y300234D01*
X50323Y300625D01*
X50875Y301177D01*
X51000Y301393D01*
X51500D01*
X51625Y301177D01*
X52177Y300625D01*
X52854Y300234D01*
X53609Y300031D01*
X54391D01*
X55146Y300234D01*
X55823Y300625D01*
X56375Y301177D01*
X56766Y301854D01*
X56968Y302609D01*
Y303391D01*
X56766Y304146D01*
X56375Y304823D01*
X55823Y305375D01*
X55146Y305766D01*
X54391Y305968D01*
D02*
G37*
G36*
X18891D02*
X18109D01*
X17354Y305766D01*
X16677Y305375D01*
X16125Y304823D01*
X15768Y304205D01*
X15500Y304171D01*
X15232Y304205D01*
X14875Y304823D01*
X14323Y305375D01*
X13646Y305766D01*
X12891Y305968D01*
X12109D01*
X11354Y305766D01*
X10677Y305375D01*
X10125Y304823D01*
X9734Y304146D01*
X9532Y303391D01*
Y302609D01*
X9734Y301854D01*
X10125Y301177D01*
X10677Y300625D01*
X11354Y300234D01*
X12109Y300031D01*
X12891D01*
X13646Y300234D01*
X14323Y300625D01*
X14875Y301177D01*
X15232Y301795D01*
X15500Y301829D01*
X15768Y301795D01*
X16125Y301177D01*
X16677Y300625D01*
X17354Y300234D01*
X18109Y300031D01*
X18891D01*
X19646Y300234D01*
X20323Y300625D01*
X20875Y301177D01*
X21266Y301854D01*
X21468Y302609D01*
Y303391D01*
X21266Y304146D01*
X20875Y304823D01*
X20323Y305375D01*
X19646Y305766D01*
X18891Y305968D01*
D02*
G37*
G36*
X139500Y310487D02*
X138468Y310351D01*
X137507Y309953D01*
X136681Y309319D01*
X136047Y308493D01*
X135649Y307532D01*
X135513Y306500D01*
X135649Y305468D01*
X136047Y304507D01*
X136681Y303681D01*
X137507Y303047D01*
X138468Y302649D01*
X139500Y302513D01*
X140532Y302649D01*
X141493Y303047D01*
X142319Y303681D01*
X142953Y304507D01*
X143351Y305468D01*
X143487Y306500D01*
X143351Y307532D01*
X142953Y308493D01*
X142319Y309319D01*
X141493Y309953D01*
X140532Y310351D01*
X139500Y310487D01*
D02*
G37*
G36*
X150391Y305968D02*
X149609D01*
X148854Y305766D01*
X148177Y305375D01*
X147831Y305029D01*
X146054D01*
X145469Y304913D01*
X144973Y304581D01*
X139950Y299559D01*
X139619Y299062D01*
X139502Y298477D01*
Y286563D01*
X139619Y285978D01*
X139950Y285482D01*
X144939Y280493D01*
Y279886D01*
X144439Y279597D01*
X144146Y279766D01*
X143391Y279969D01*
X142609D01*
X141854Y279766D01*
X141177Y279375D01*
X140625Y278823D01*
X140268Y278205D01*
X140000Y278171D01*
X139732Y278205D01*
X139375Y278823D01*
X138823Y279375D01*
X138146Y279766D01*
X137391Y279969D01*
X136609D01*
X135854Y279766D01*
X135177Y279375D01*
X134625Y278823D01*
X134268Y278205D01*
X134000Y278171D01*
X133732Y278205D01*
X133375Y278823D01*
X132823Y279375D01*
X132146Y279766D01*
X131391Y279969D01*
X130609D01*
X129854Y279766D01*
X129177Y279375D01*
X128625Y278823D01*
X128234Y278146D01*
X128032Y277391D01*
Y276609D01*
X128234Y275854D01*
X128625Y275177D01*
X129177Y274625D01*
X129854Y274234D01*
X130609Y274031D01*
X131391D01*
X132146Y274234D01*
X132823Y274625D01*
X133375Y275177D01*
X133732Y275795D01*
X134000Y275829D01*
X134268Y275795D01*
X134625Y275177D01*
X135177Y274625D01*
X135854Y274234D01*
X136609Y274031D01*
X137391D01*
X138146Y274234D01*
X138823Y274625D01*
X139375Y275177D01*
X139732Y275795D01*
X140000Y275829D01*
X140268Y275795D01*
X140625Y275177D01*
X141177Y274625D01*
X141199Y274457D01*
X135412Y268669D01*
X134854Y268819D01*
X134766Y269146D01*
X134375Y269823D01*
X133823Y270375D01*
X133146Y270766D01*
X132391Y270969D01*
X131609D01*
X130854Y270766D01*
X130177Y270375D01*
X129625Y269823D01*
X129500Y269607D01*
X129000D01*
X128875Y269823D01*
X128323Y270375D01*
X127646Y270766D01*
X126891Y270969D01*
X126109D01*
X125354Y270766D01*
X124677Y270375D01*
X124125Y269823D01*
X123734Y269146D01*
X123531Y268391D01*
Y267609D01*
X123734Y266854D01*
X124125Y266177D01*
X124677Y265625D01*
X125354Y265234D01*
X126109Y265032D01*
X126891D01*
X127646Y265234D01*
X128323Y265625D01*
X128875Y266177D01*
X129000Y266393D01*
X129500D01*
X129625Y266177D01*
X130177Y265625D01*
X130854Y265234D01*
X131181Y265146D01*
X131331Y264588D01*
X122919Y256176D01*
X122587Y255680D01*
X122471Y255095D01*
Y187134D01*
X77419Y142081D01*
X77087Y141585D01*
X76971Y141000D01*
Y124652D01*
X76755Y124562D01*
X76032Y124007D01*
X75477Y123285D01*
X75128Y122443D01*
X75010Y121539D01*
Y101461D01*
X75128Y100557D01*
X75477Y99715D01*
X76032Y98993D01*
X76755Y98438D01*
X77597Y98089D01*
X78500Y97970D01*
X79403Y98089D01*
X80245Y98438D01*
X80968Y98993D01*
X81523Y99715D01*
X81872Y100557D01*
X81990Y101461D01*
Y121539D01*
X81872Y122443D01*
X81523Y123285D01*
X80968Y124007D01*
X80245Y124562D01*
X80029Y124652D01*
Y140366D01*
X125081Y185419D01*
X125413Y185915D01*
X125529Y186500D01*
Y254461D01*
X143070Y272002D01*
X144437D01*
X145022Y272118D01*
X145518Y272450D01*
X147550Y274482D01*
X147881Y274978D01*
X147998Y275563D01*
Y281126D01*
X147881Y281712D01*
X147550Y282208D01*
X145169Y284589D01*
X145319Y285146D01*
X145646Y285234D01*
X146323Y285625D01*
X146875Y286177D01*
X147266Y286854D01*
X147468Y287609D01*
Y288391D01*
X147266Y289146D01*
X146875Y289823D01*
X146448Y290250D01*
X146875Y290677D01*
X147266Y291354D01*
X147468Y292109D01*
Y292891D01*
X147266Y293646D01*
X146875Y294323D01*
X146323Y294875D01*
X145646Y295266D01*
X144891Y295468D01*
X144109D01*
X143354Y295266D01*
X143061Y295097D01*
X142561Y295386D01*
Y297844D01*
X146688Y301971D01*
X147203D01*
X147234Y301854D01*
X147625Y301177D01*
X148177Y300625D01*
X148854Y300234D01*
X149609Y300031D01*
X150391D01*
X151146Y300234D01*
X151823Y300625D01*
X152375Y301177D01*
X152766Y301854D01*
X152969Y302609D01*
Y303391D01*
X152766Y304146D01*
X152375Y304823D01*
X151823Y305375D01*
X151146Y305766D01*
X150391Y305968D01*
D02*
G37*
G36*
X233891Y301969D02*
X233109D01*
X232354Y301766D01*
X231677Y301375D01*
X231125Y300823D01*
X230734Y300146D01*
X230532Y299391D01*
Y298609D01*
X230734Y297854D01*
X231125Y297177D01*
X231677Y296625D01*
X232354Y296234D01*
X233109Y296031D01*
X233891D01*
X234646Y296234D01*
X235323Y296625D01*
X235875Y297177D01*
X236266Y297854D01*
X236469Y298609D01*
Y299391D01*
X236266Y300146D01*
X235875Y300823D01*
X235323Y301375D01*
X234646Y301766D01*
X233891Y301969D01*
D02*
G37*
G36*
X334000Y301987D02*
X332968Y301851D01*
X332007Y301453D01*
X331181Y300819D01*
X330547Y299993D01*
X330149Y299032D01*
X330013Y298000D01*
X330149Y296968D01*
X330547Y296007D01*
X331181Y295181D01*
X332007Y294547D01*
X332968Y294149D01*
X334000Y294013D01*
X335032Y294149D01*
X335993Y294547D01*
X336819Y295181D01*
X337453Y296007D01*
X337851Y296968D01*
X337987Y298000D01*
X337851Y299032D01*
X337453Y299993D01*
X336819Y300819D01*
X335993Y301453D01*
X335032Y301851D01*
X334000Y301987D01*
D02*
G37*
G36*
X214891Y292469D02*
X214109D01*
X213354Y292266D01*
X212677Y291875D01*
X212125Y291323D01*
X211734Y290646D01*
X211531Y289891D01*
Y289109D01*
X211734Y288354D01*
X212125Y287677D01*
X212552Y287250D01*
X212125Y286823D01*
X211734Y286146D01*
X211531Y285391D01*
Y284609D01*
X211734Y283854D01*
X212125Y283177D01*
X212677Y282625D01*
X213354Y282234D01*
X214109Y282031D01*
X214891D01*
X215646Y282234D01*
X216323Y282625D01*
X216875Y283177D01*
X217266Y283854D01*
X217469Y284609D01*
Y285391D01*
X217266Y286146D01*
X216875Y286823D01*
X216448Y287250D01*
X216875Y287677D01*
X217266Y288354D01*
X217469Y289109D01*
Y289891D01*
X217266Y290646D01*
X216875Y291323D01*
X216323Y291875D01*
X215646Y292266D01*
X214891Y292469D01*
D02*
G37*
G36*
X276163Y283874D02*
X276091D01*
Y280028D01*
X279937D01*
Y280100D01*
X279641Y281205D01*
X279069Y282196D01*
X278259Y283006D01*
X277268Y283578D01*
X276163Y283874D01*
D02*
G37*
G36*
X275091D02*
X275018D01*
X273913Y283578D01*
X272922Y283006D01*
X272112Y282196D01*
X271540Y281205D01*
X271244Y280100D01*
Y280028D01*
X275091D01*
Y283874D01*
D02*
G37*
G36*
X306163D02*
X305018D01*
X303913Y283578D01*
X302922Y283006D01*
X302113Y282196D01*
X301540Y281205D01*
X301244Y280100D01*
Y278955D01*
X301540Y277850D01*
X302113Y276859D01*
X302922Y276049D01*
X303913Y275477D01*
X305018Y275181D01*
X306163D01*
X307268Y275477D01*
X308259Y276049D01*
X309069Y276859D01*
X309641Y277850D01*
X309937Y278955D01*
Y280100D01*
X309641Y281205D01*
X309069Y282196D01*
X308259Y283006D01*
X307268Y283578D01*
X306163Y283874D01*
D02*
G37*
G36*
X296163D02*
X295018D01*
X293913Y283578D01*
X292922Y283006D01*
X292112Y282196D01*
X291540Y281205D01*
X291244Y280100D01*
Y278955D01*
X291540Y277850D01*
X292112Y276859D01*
X292922Y276049D01*
X293913Y275477D01*
X295018Y275181D01*
X296163D01*
X297268Y275477D01*
X298259Y276049D01*
X299069Y276859D01*
X299641Y277850D01*
X299937Y278955D01*
Y280100D01*
X299641Y281205D01*
X299069Y282196D01*
X298259Y283006D01*
X297268Y283578D01*
X296163Y283874D01*
D02*
G37*
G36*
X286163D02*
X285018D01*
X283913Y283578D01*
X282922Y283006D01*
X282113Y282196D01*
X281540Y281205D01*
X281244Y280100D01*
Y278955D01*
X281540Y277850D01*
X282113Y276859D01*
X282922Y276049D01*
X283913Y275477D01*
X285018Y275181D01*
X286163D01*
X287268Y275477D01*
X288259Y276049D01*
X289069Y276859D01*
X289641Y277850D01*
X289937Y278955D01*
Y280100D01*
X289641Y281205D01*
X289069Y282196D01*
X288259Y283006D01*
X287268Y283578D01*
X286163Y283874D01*
D02*
G37*
G36*
X279937Y279028D02*
X276091D01*
Y275181D01*
X276163D01*
X277268Y275477D01*
X278259Y276049D01*
X279069Y276859D01*
X279641Y277850D01*
X279937Y278955D01*
Y279028D01*
D02*
G37*
G36*
X275091D02*
X271244D01*
Y278955D01*
X271540Y277850D01*
X272112Y276859D01*
X272922Y276049D01*
X273913Y275477D01*
X275018Y275181D01*
X275091D01*
Y279028D01*
D02*
G37*
G36*
X207891Y280469D02*
X207109D01*
X206354Y280266D01*
X205677Y279875D01*
X205125Y279323D01*
X204734Y278646D01*
X204532Y277891D01*
Y277109D01*
X204734Y276354D01*
X205125Y275677D01*
X205677Y275125D01*
X206354Y274734D01*
X207109Y274532D01*
X207891D01*
X208646Y274734D01*
X209323Y275125D01*
X209875Y275677D01*
X210266Y276354D01*
X210469Y277109D01*
Y277891D01*
X210266Y278646D01*
X209875Y279323D01*
X209323Y279875D01*
X208646Y280266D01*
X207891Y280469D01*
D02*
G37*
G36*
X329440Y286630D02*
X328041D01*
X326669Y286357D01*
X325376Y285822D01*
X324213Y285044D01*
X323223Y284055D01*
X322446Y282892D01*
X321911Y281599D01*
X321638Y280227D01*
Y278828D01*
X321911Y277456D01*
X322446Y276163D01*
X323223Y275000D01*
X324213Y274011D01*
X325376Y273234D01*
X326669Y272698D01*
X328041Y272425D01*
X329440D01*
X330812Y272698D01*
X332104Y273234D01*
X333268Y274011D01*
X334257Y275000D01*
X335034Y276163D01*
X335570Y277456D01*
X335842Y278828D01*
Y280227D01*
X335570Y281599D01*
X335034Y282892D01*
X334257Y284055D01*
X333268Y285044D01*
X332104Y285822D01*
X330812Y286357D01*
X329440Y286630D01*
D02*
G37*
G36*
X222391Y271969D02*
X221609D01*
X220854Y271766D01*
X220177Y271375D01*
X219833Y271031D01*
X219500Y270879D01*
X219167Y271031D01*
X218823Y271375D01*
X218146Y271766D01*
X217391Y271969D01*
X216609D01*
X215854Y271766D01*
X215177Y271375D01*
X214625Y270823D01*
X214234Y270146D01*
X214032Y269391D01*
Y268832D01*
X213585Y268535D01*
X213555Y268530D01*
X213146Y268766D01*
X212391Y268969D01*
X211609D01*
X210854Y268766D01*
X210177Y268375D01*
X209625Y267823D01*
X209234Y267146D01*
X209032Y266391D01*
Y265609D01*
X209234Y264854D01*
X209625Y264177D01*
X210177Y263625D01*
X210854Y263234D01*
X211609Y263032D01*
X212391D01*
X213146Y263234D01*
X213823Y263625D01*
X214375Y264177D01*
X214766Y264854D01*
X214968Y265609D01*
Y266168D01*
X215415Y266465D01*
X215445Y266470D01*
X215854Y266234D01*
X216609Y266032D01*
X217391D01*
X218146Y266234D01*
X218823Y266625D01*
X219167Y266969D01*
X219500Y267121D01*
X219833Y266969D01*
X220177Y266625D01*
X220854Y266234D01*
X221609Y266032D01*
X222391D01*
X223146Y266234D01*
X223823Y266625D01*
X224375Y267177D01*
X224766Y267854D01*
X224969Y268609D01*
Y269391D01*
X224766Y270146D01*
X224375Y270823D01*
X223823Y271375D01*
X223146Y271766D01*
X222391Y271969D01*
D02*
G37*
G36*
X65500Y278487D02*
X64468Y278351D01*
X63507Y277953D01*
X62681Y277319D01*
X62047Y276493D01*
X61649Y275532D01*
X61513Y274500D01*
X61649Y273468D01*
X62047Y272507D01*
X62681Y271681D01*
X63507Y271047D01*
X64468Y270649D01*
X65500Y270513D01*
X66532Y270649D01*
X67493Y271047D01*
X68319Y271681D01*
X68953Y272507D01*
X69351Y273468D01*
X69487Y274500D01*
X69351Y275532D01*
X68953Y276493D01*
X68319Y277319D01*
X67493Y277953D01*
X66532Y278351D01*
X65500Y278487D01*
D02*
G37*
G36*
X31891Y271468D02*
X31109D01*
X30354Y271266D01*
X29677Y270875D01*
X29333Y270531D01*
X29000Y270379D01*
X28667Y270531D01*
X28323Y270875D01*
X27646Y271266D01*
X26891Y271468D01*
X26109D01*
X25354Y271266D01*
X24677Y270875D01*
X24125Y270323D01*
X23734Y269646D01*
X23531Y268891D01*
Y268109D01*
X23734Y267354D01*
X24125Y266677D01*
X24677Y266125D01*
X25354Y265734D01*
X26109Y265531D01*
X26891D01*
X27646Y265734D01*
X28323Y266125D01*
X28667Y266469D01*
X29000Y266621D01*
X29333Y266469D01*
X29677Y266125D01*
X30354Y265734D01*
X31109Y265531D01*
X31891D01*
X32646Y265734D01*
X33323Y266125D01*
X33875Y266677D01*
X34266Y267354D01*
X34468Y268109D01*
Y268891D01*
X34266Y269646D01*
X33875Y270323D01*
X33323Y270875D01*
X32646Y271266D01*
X31891Y271468D01*
D02*
G37*
G36*
X81891Y270969D02*
X81109D01*
X80354Y270766D01*
X79677Y270375D01*
X79333Y270031D01*
X79000Y269879D01*
X78667Y270031D01*
X78323Y270375D01*
X77646Y270766D01*
X76891Y270969D01*
X76109D01*
X75354Y270766D01*
X74677Y270375D01*
X74125Y269823D01*
X73734Y269146D01*
X73532Y268391D01*
Y267609D01*
X73734Y266854D01*
X74125Y266177D01*
X74677Y265625D01*
X75354Y265234D01*
X76109Y265032D01*
X76891D01*
X77646Y265234D01*
X78323Y265625D01*
X78667Y265969D01*
X79000Y266121D01*
X79333Y265969D01*
X79677Y265625D01*
X80354Y265234D01*
X81109Y265032D01*
X81891D01*
X82646Y265234D01*
X83323Y265625D01*
X83875Y266177D01*
X84266Y266854D01*
X84469Y267609D01*
Y268391D01*
X84266Y269146D01*
X83875Y269823D01*
X83323Y270375D01*
X82646Y270766D01*
X81891Y270969D01*
D02*
G37*
G36*
X216000Y261487D02*
X214968Y261351D01*
X214007Y260953D01*
X213181Y260319D01*
X212547Y259493D01*
X212149Y258532D01*
X212013Y257500D01*
X212149Y256468D01*
X212547Y255507D01*
X213181Y254681D01*
X214007Y254047D01*
X214968Y253649D01*
X216000Y253513D01*
X217032Y253649D01*
X217993Y254047D01*
X218819Y254681D01*
X219453Y255507D01*
X219851Y256468D01*
X219987Y257500D01*
X219851Y258532D01*
X219453Y259493D01*
X218819Y260319D01*
X217993Y260953D01*
X217032Y261351D01*
X216000Y261487D01*
D02*
G37*
G36*
X99391Y250969D02*
X98609D01*
X97854Y250766D01*
X97177Y250375D01*
X96625Y249823D01*
X96234Y249146D01*
X96031Y248391D01*
Y247609D01*
X96234Y246854D01*
X96625Y246177D01*
X97177Y245625D01*
X97854Y245234D01*
X98609Y245031D01*
X99391D01*
X100146Y245234D01*
X100823Y245625D01*
X101375Y246177D01*
X101766Y246854D01*
X101969Y247609D01*
Y248391D01*
X101766Y249146D01*
X101375Y249823D01*
X100823Y250375D01*
X100146Y250766D01*
X99391Y250969D01*
D02*
G37*
G36*
X89391D02*
X88609D01*
X87854Y250766D01*
X87177Y250375D01*
X86625Y249823D01*
X86234Y249146D01*
X86032Y248391D01*
Y247609D01*
X86234Y246854D01*
X86625Y246177D01*
X87177Y245625D01*
X87854Y245234D01*
X88609Y245031D01*
X89391D01*
X90146Y245234D01*
X90823Y245625D01*
X91375Y246177D01*
X91766Y246854D01*
X91969Y247609D01*
Y248391D01*
X91766Y249146D01*
X91375Y249823D01*
X90823Y250375D01*
X90146Y250766D01*
X89391Y250969D01*
D02*
G37*
G36*
X69183D02*
X68401D01*
X67646Y250766D01*
X66969Y250375D01*
X66416Y249823D01*
X66026Y249146D01*
X65823Y248391D01*
Y247609D01*
X66026Y246854D01*
X66416Y246177D01*
X66969Y245625D01*
X67646Y245234D01*
X68401Y245031D01*
X69183D01*
X69938Y245234D01*
X70614Y245625D01*
X71167Y246177D01*
X71558Y246854D01*
X71760Y247609D01*
Y248391D01*
X71558Y249146D01*
X71167Y249823D01*
X70614Y250375D01*
X69938Y250766D01*
X69183Y250969D01*
D02*
G37*
G36*
X210891Y226468D02*
X210109D01*
X209354Y226266D01*
X208677Y225875D01*
X208125Y225323D01*
X207734Y224646D01*
X207531Y223891D01*
Y223109D01*
X207734Y222354D01*
X208125Y221677D01*
X208552Y221250D01*
X208125Y220823D01*
X207734Y220146D01*
X207531Y219391D01*
Y218609D01*
X207734Y217854D01*
X208125Y217177D01*
X208677Y216625D01*
X209354Y216234D01*
X210109Y216032D01*
X210891D01*
X211646Y216234D01*
X212323Y216625D01*
X212875Y217177D01*
X213266Y217854D01*
X213469Y218609D01*
Y219391D01*
X213266Y220146D01*
X212875Y220823D01*
X212448Y221250D01*
X212875Y221677D01*
X213266Y222354D01*
X213469Y223109D01*
Y223891D01*
X213266Y224646D01*
X212875Y225323D01*
X212323Y225875D01*
X211646Y226266D01*
X210891Y226468D01*
D02*
G37*
G36*
X69891Y206469D02*
X69109D01*
X68354Y206266D01*
X67677Y205875D01*
X67125Y205323D01*
X66734Y204646D01*
X66531Y203891D01*
Y203109D01*
X66734Y202354D01*
X67125Y201677D01*
X67677Y201125D01*
X68354Y200734D01*
X69109Y200532D01*
X69891D01*
X70646Y200734D01*
X71323Y201125D01*
X71875Y201677D01*
X72266Y202354D01*
X72469Y203109D01*
Y203891D01*
X72266Y204646D01*
X71875Y205323D01*
X71323Y205875D01*
X70646Y206266D01*
X69891Y206469D01*
D02*
G37*
G36*
X169391Y197468D02*
X168609D01*
X167854Y197266D01*
X167177Y196875D01*
X166625Y196323D01*
X166234Y195646D01*
X166032Y194891D01*
Y194109D01*
X166234Y193354D01*
X166625Y192677D01*
X167177Y192125D01*
X167854Y191734D01*
X168609Y191532D01*
X169391D01*
X170146Y191734D01*
X170823Y192125D01*
X171375Y192677D01*
X171766Y193354D01*
X171968Y194109D01*
Y194891D01*
X171766Y195646D01*
X171375Y196323D01*
X170823Y196875D01*
X170146Y197266D01*
X169391Y197468D01*
D02*
G37*
G36*
X159474D02*
X158693D01*
X157938Y197266D01*
X157261Y196875D01*
X156708Y196323D01*
X156317Y195646D01*
X156115Y194891D01*
Y194109D01*
X156317Y193354D01*
X156708Y192677D01*
X157261Y192125D01*
X157938Y191734D01*
X158693Y191532D01*
X159474D01*
X160229Y191734D01*
X160906Y192125D01*
X161459Y192677D01*
X161850Y193354D01*
X162052Y194109D01*
Y194891D01*
X161850Y195646D01*
X161459Y196323D01*
X160906Y196875D01*
X160229Y197266D01*
X159474Y197468D01*
D02*
G37*
G36*
X149391D02*
X148609D01*
X147854Y197266D01*
X147177Y196875D01*
X146625Y196323D01*
X146234Y195646D01*
X146031Y194891D01*
Y194109D01*
X146234Y193354D01*
X146625Y192677D01*
X147177Y192125D01*
X147854Y191734D01*
X148609Y191532D01*
X149391D01*
X150146Y191734D01*
X150823Y192125D01*
X151375Y192677D01*
X151766Y193354D01*
X151969Y194109D01*
Y194891D01*
X151766Y195646D01*
X151375Y196323D01*
X150823Y196875D01*
X150146Y197266D01*
X149391Y197468D01*
D02*
G37*
G36*
X139474D02*
X138693D01*
X137938Y197266D01*
X137261Y196875D01*
X136708Y196323D01*
X136317Y195646D01*
X136115Y194891D01*
Y194109D01*
X136317Y193354D01*
X136708Y192677D01*
X137261Y192125D01*
X137938Y191734D01*
X138693Y191532D01*
X139474D01*
X140229Y191734D01*
X140906Y192125D01*
X141459Y192677D01*
X141850Y193354D01*
X142052Y194109D01*
Y194891D01*
X141850Y195646D01*
X141459Y196323D01*
X140906Y196875D01*
X140229Y197266D01*
X139474Y197468D01*
D02*
G37*
G36*
X118891D02*
X118109D01*
X117354Y197266D01*
X116677Y196875D01*
X116125Y196323D01*
X115734Y195646D01*
X115532Y194891D01*
Y194109D01*
X115734Y193354D01*
X116125Y192677D01*
X116677Y192125D01*
X117354Y191734D01*
X118109Y191532D01*
X118891D01*
X119646Y191734D01*
X120323Y192125D01*
X120875Y192677D01*
X121266Y193354D01*
X121468Y194109D01*
Y194891D01*
X121266Y195646D01*
X120875Y196323D01*
X120323Y196875D01*
X119646Y197266D01*
X118891Y197468D01*
D02*
G37*
G36*
X109391D02*
X108609D01*
X107854Y197266D01*
X107177Y196875D01*
X106625Y196323D01*
X106234Y195646D01*
X106032Y194891D01*
Y194109D01*
X106234Y193354D01*
X106625Y192677D01*
X107177Y192125D01*
X107854Y191734D01*
X108609Y191532D01*
X109391D01*
X110146Y191734D01*
X110823Y192125D01*
X111375Y192677D01*
X111766Y193354D01*
X111969Y194109D01*
Y194891D01*
X111766Y195646D01*
X111375Y196323D01*
X110823Y196875D01*
X110146Y197266D01*
X109391Y197468D01*
D02*
G37*
G36*
X99391D02*
X98609D01*
X97854Y197266D01*
X97177Y196875D01*
X96625Y196323D01*
X96234Y195646D01*
X96031Y194891D01*
Y194109D01*
X96234Y193354D01*
X96625Y192677D01*
X97177Y192125D01*
X97854Y191734D01*
X98609Y191532D01*
X99391D01*
X100146Y191734D01*
X100823Y192125D01*
X101375Y192677D01*
X101766Y193354D01*
X101969Y194109D01*
Y194891D01*
X101766Y195646D01*
X101375Y196323D01*
X100823Y196875D01*
X100146Y197266D01*
X99391Y197468D01*
D02*
G37*
G36*
X89391D02*
X88609D01*
X87854Y197266D01*
X87177Y196875D01*
X86625Y196323D01*
X86234Y195646D01*
X86032Y194891D01*
Y194109D01*
X86234Y193354D01*
X86625Y192677D01*
X87177Y192125D01*
X87854Y191734D01*
X88609Y191532D01*
X89391D01*
X90146Y191734D01*
X90823Y192125D01*
X91375Y192677D01*
X91766Y193354D01*
X91969Y194109D01*
Y194891D01*
X91766Y195646D01*
X91375Y196323D01*
X90823Y196875D01*
X90146Y197266D01*
X89391Y197468D01*
D02*
G37*
G36*
X69683D02*
X68901D01*
X68146Y197266D01*
X67469Y196875D01*
X66916Y196323D01*
X66526Y195646D01*
X66323Y194891D01*
Y194109D01*
X66526Y193354D01*
X66916Y192677D01*
X67469Y192125D01*
X68146Y191734D01*
X68901Y191532D01*
X69683D01*
X70438Y191734D01*
X71114Y192125D01*
X71667Y192677D01*
X72058Y193354D01*
X72260Y194109D01*
Y194891D01*
X72058Y195646D01*
X71667Y196323D01*
X71114Y196875D01*
X70438Y197266D01*
X69683Y197468D01*
D02*
G37*
G36*
X49474D02*
X48693D01*
X47938Y197266D01*
X47261Y196875D01*
X46708Y196323D01*
X46317Y195646D01*
X46115Y194891D01*
Y194109D01*
X46317Y193354D01*
X46708Y192677D01*
X47261Y192125D01*
X47938Y191734D01*
X48693Y191532D01*
X49474D01*
X50229Y191734D01*
X50906Y192125D01*
X51459Y192677D01*
X51850Y193354D01*
X52052Y194109D01*
Y194891D01*
X51850Y195646D01*
X51459Y196323D01*
X50906Y196875D01*
X50229Y197266D01*
X49474Y197468D01*
D02*
G37*
G36*
X19391D02*
X18609D01*
X17854Y197266D01*
X17177Y196875D01*
X16625Y196323D01*
X16234Y195646D01*
X16032Y194891D01*
Y194109D01*
X16234Y193354D01*
X16625Y192677D01*
X17177Y192125D01*
X17854Y191734D01*
X18609Y191532D01*
X19391D01*
X20146Y191734D01*
X20823Y192125D01*
X21375Y192677D01*
X21766Y193354D01*
X21969Y194109D01*
Y194891D01*
X21766Y195646D01*
X21375Y196323D01*
X20823Y196875D01*
X20146Y197266D01*
X19391Y197468D01*
D02*
G37*
G36*
X9683D02*
X8901D01*
X8146Y197266D01*
X7469Y196875D01*
X6916Y196323D01*
X6526Y195646D01*
X6323Y194891D01*
Y194109D01*
X6526Y193354D01*
X6916Y192677D01*
X7469Y192125D01*
X8146Y191734D01*
X8901Y191532D01*
X9683D01*
X10438Y191734D01*
X11114Y192125D01*
X11667Y192677D01*
X12058Y193354D01*
X12260Y194109D01*
Y194891D01*
X12058Y195646D01*
X11667Y196323D01*
X11114Y196875D01*
X10438Y197266D01*
X9683Y197468D01*
D02*
G37*
G36*
X131891Y176469D02*
X131109D01*
X130354Y176266D01*
X129677Y175875D01*
X129250Y175448D01*
X128823Y175875D01*
X128146Y176266D01*
X127391Y176469D01*
X126609D01*
X125854Y176266D01*
X125177Y175875D01*
X124625Y175323D01*
X124234Y174646D01*
X124031Y173891D01*
Y173109D01*
X124234Y172354D01*
X124625Y171677D01*
X125177Y171125D01*
X125854Y170734D01*
X126609Y170531D01*
X127391D01*
X128146Y170734D01*
X128823Y171125D01*
X129250Y171552D01*
X129677Y171125D01*
X130354Y170734D01*
X131109Y170531D01*
X131891D01*
X132646Y170734D01*
X133323Y171125D01*
X133875Y171677D01*
X134266Y172354D01*
X134468Y173109D01*
Y173891D01*
X134266Y174646D01*
X133875Y175323D01*
X133323Y175875D01*
X132646Y176266D01*
X131891Y176469D01*
D02*
G37*
G36*
X31891D02*
X31109D01*
X30354Y176266D01*
X29677Y175875D01*
X29250Y175448D01*
X28823Y175875D01*
X28146Y176266D01*
X27391Y176469D01*
X26609D01*
X25854Y176266D01*
X25177Y175875D01*
X24625Y175323D01*
X24234Y174646D01*
X24032Y173891D01*
Y173109D01*
X24234Y172354D01*
X24625Y171677D01*
X25177Y171125D01*
X25854Y170734D01*
X26609Y170531D01*
X27391D01*
X28146Y170734D01*
X28823Y171125D01*
X29250Y171552D01*
X29677Y171125D01*
X30354Y170734D01*
X31109Y170531D01*
X31891D01*
X32646Y170734D01*
X33323Y171125D01*
X33875Y171677D01*
X34266Y172354D01*
X34468Y173109D01*
Y173891D01*
X34266Y174646D01*
X33875Y175323D01*
X33323Y175875D01*
X32646Y176266D01*
X31891Y176469D01*
D02*
G37*
G36*
X181891D02*
X181109D01*
X180354Y176266D01*
X179677Y175875D01*
X179333Y175531D01*
X179000Y175379D01*
X178667Y175531D01*
X178323Y175875D01*
X177646Y176266D01*
X176891Y176469D01*
X176109D01*
X175354Y176266D01*
X174677Y175875D01*
X174125Y175323D01*
X173734Y174646D01*
X173531Y173891D01*
Y173109D01*
X173734Y172354D01*
X174125Y171677D01*
X174677Y171125D01*
X175354Y170734D01*
X176109Y170531D01*
X176891D01*
X177646Y170734D01*
X178323Y171125D01*
X178667Y171469D01*
X179000Y171621D01*
X179333Y171469D01*
X179677Y171125D01*
X180354Y170734D01*
X181109Y170531D01*
X181891D01*
X182646Y170734D01*
X183323Y171125D01*
X183875Y171677D01*
X184266Y172354D01*
X184468Y173109D01*
Y173891D01*
X184266Y174646D01*
X183875Y175323D01*
X183323Y175875D01*
X182646Y176266D01*
X181891Y176469D01*
D02*
G37*
G36*
X81891D02*
X81109D01*
X80354Y176266D01*
X79677Y175875D01*
X79333Y175531D01*
X79000Y175379D01*
X78667Y175531D01*
X78323Y175875D01*
X77646Y176266D01*
X76891Y176469D01*
X76109D01*
X75354Y176266D01*
X74677Y175875D01*
X74125Y175323D01*
X73734Y174646D01*
X73532Y173891D01*
Y173109D01*
X73734Y172354D01*
X74125Y171677D01*
X74677Y171125D01*
X75354Y170734D01*
X76109Y170531D01*
X76891D01*
X77646Y170734D01*
X78323Y171125D01*
X78667Y171469D01*
X79000Y171621D01*
X79333Y171469D01*
X79677Y171125D01*
X80354Y170734D01*
X81109Y170531D01*
X81891D01*
X82646Y170734D01*
X83323Y171125D01*
X83875Y171677D01*
X84266Y172354D01*
X84469Y173109D01*
Y173891D01*
X84266Y174646D01*
X83875Y175323D01*
X83323Y175875D01*
X82646Y176266D01*
X81891Y176469D01*
D02*
G37*
G36*
X183391Y167968D02*
X182609D01*
X181854Y167766D01*
X181177Y167375D01*
X180625Y166823D01*
X180234Y166146D01*
X180032Y165391D01*
Y165076D01*
X179891Y164969D01*
X179109D01*
X178354Y164766D01*
X177677Y164375D01*
X177125Y163823D01*
X176734Y163146D01*
X176532Y162391D01*
Y161609D01*
X176734Y160854D01*
X177037Y160329D01*
X176671Y159963D01*
X176146Y160266D01*
X175391Y160468D01*
X174609D01*
X173854Y160266D01*
X173177Y159875D01*
X172625Y159323D01*
X172234Y158646D01*
X172031Y157891D01*
Y157448D01*
X171923Y157077D01*
X171552Y156968D01*
X171109D01*
X170354Y156766D01*
X169677Y156375D01*
X169125Y155823D01*
X168734Y155146D01*
X168532Y154391D01*
Y153609D01*
X168734Y152854D01*
X169125Y152177D01*
X169333Y151969D01*
X169126Y151469D01*
X168609D01*
X167854Y151266D01*
X167177Y150875D01*
X166625Y150323D01*
X166234Y149646D01*
X166032Y148891D01*
Y148449D01*
X165923Y148077D01*
X165551Y147968D01*
X165109D01*
X164354Y147766D01*
X163677Y147375D01*
X163125Y146823D01*
X162734Y146146D01*
X162531Y145391D01*
Y144609D01*
X162734Y143854D01*
X163125Y143177D01*
X163677Y142625D01*
X164354Y142234D01*
X165109Y142032D01*
X165891D01*
X166646Y142234D01*
X167323Y142625D01*
X167875Y143177D01*
X168266Y143854D01*
X168468Y144609D01*
Y145052D01*
X168577Y145423D01*
X168948Y145531D01*
X169391D01*
X170146Y145734D01*
X170823Y146125D01*
X171375Y146677D01*
X171766Y147354D01*
X171968Y148109D01*
Y148891D01*
X171766Y149646D01*
X171375Y150323D01*
X171167Y150531D01*
X171374Y151031D01*
X171891D01*
X172646Y151234D01*
X173323Y151625D01*
X173875Y152177D01*
X174266Y152854D01*
X174469Y153609D01*
Y154051D01*
X174577Y154423D01*
X174949Y154532D01*
X175391D01*
X176146Y154734D01*
X176823Y155125D01*
X177375Y155677D01*
X177766Y156354D01*
X177969Y157109D01*
Y157891D01*
X177766Y158646D01*
X177463Y159171D01*
X177829Y159537D01*
X178354Y159234D01*
X179109Y159031D01*
X179891D01*
X180646Y159234D01*
X181323Y159625D01*
X181875Y160177D01*
X182266Y160854D01*
X182468Y161609D01*
Y161924D01*
X182609Y162031D01*
X183391D01*
X184146Y162234D01*
X184823Y162625D01*
X185375Y163177D01*
X185766Y163854D01*
X185968Y164609D01*
Y165391D01*
X185766Y166146D01*
X185375Y166823D01*
X184823Y167375D01*
X184146Y167766D01*
X183391Y167968D01*
D02*
G37*
G36*
X329440Y168520D02*
X328041D01*
X326669Y168247D01*
X325376Y167711D01*
X324213Y166934D01*
X323223Y165945D01*
X322446Y164781D01*
X321911Y163489D01*
X321638Y162117D01*
Y160718D01*
X321911Y159346D01*
X322446Y158053D01*
X323223Y156890D01*
X324213Y155901D01*
X325376Y155123D01*
X326669Y154588D01*
X328041Y154315D01*
X329440D01*
X330812Y154588D01*
X332104Y155123D01*
X333268Y155901D01*
X334257Y156890D01*
X335034Y158053D01*
X335570Y159346D01*
X335842Y160718D01*
Y162117D01*
X335570Y163489D01*
X335034Y164781D01*
X334257Y165945D01*
X333268Y166934D01*
X332104Y167711D01*
X330812Y168247D01*
X329440Y168520D01*
D02*
G37*
G36*
X250699D02*
X249301D01*
X247928Y168247D01*
X246636Y167711D01*
X245473Y166934D01*
X244483Y165945D01*
X243706Y164781D01*
X243171Y163489D01*
X242898Y162117D01*
Y160718D01*
X243171Y159346D01*
X243706Y158053D01*
X244483Y156890D01*
X245473Y155901D01*
X246636Y155123D01*
X247928Y154588D01*
X249301Y154315D01*
X250699D01*
X252072Y154588D01*
X253364Y155123D01*
X254527Y155901D01*
X255517Y156890D01*
X256294Y158053D01*
X256829Y159346D01*
X257102Y160718D01*
Y162117D01*
X256829Y163489D01*
X256294Y164781D01*
X255517Y165945D01*
X254527Y166934D01*
X253364Y167711D01*
X252072Y168247D01*
X250699Y168520D01*
D02*
G37*
G36*
X40391Y152969D02*
X39609D01*
X38854Y152766D01*
X38177Y152375D01*
X37625Y151823D01*
X37234Y151146D01*
X37031Y150391D01*
Y149609D01*
X37234Y148854D01*
X37625Y148177D01*
X38177Y147625D01*
X38854Y147234D01*
X39609Y147031D01*
X40391D01*
X41146Y147234D01*
X41823Y147625D01*
X42375Y148177D01*
X42766Y148854D01*
X42968Y149609D01*
Y150391D01*
X42766Y151146D01*
X42375Y151823D01*
X41823Y152375D01*
X41146Y152766D01*
X40391Y152969D01*
D02*
G37*
G36*
X50000Y153987D02*
X48968Y153851D01*
X48007Y153453D01*
X47181Y152819D01*
X46547Y151993D01*
X46149Y151032D01*
X46013Y150000D01*
X46149Y148968D01*
X46547Y148007D01*
X47181Y147181D01*
X48007Y146547D01*
X48968Y146149D01*
X50000Y146013D01*
X51032Y146149D01*
X51993Y146547D01*
X52819Y147181D01*
X53453Y148007D01*
X53851Y148968D01*
X53987Y150000D01*
X53851Y151032D01*
X53453Y151993D01*
X52819Y152819D01*
X51993Y153453D01*
X51032Y153851D01*
X50000Y153987D01*
D02*
G37*
G36*
X157391Y134468D02*
X156609D01*
X155854Y134266D01*
X155177Y133875D01*
X154625Y133323D01*
X154234Y132646D01*
X154032Y131891D01*
Y131109D01*
X154234Y130354D01*
X154625Y129677D01*
X155177Y129125D01*
X155854Y128734D01*
X156609Y128532D01*
X157391D01*
X158146Y128734D01*
X158823Y129125D01*
X159375Y129677D01*
X159766Y130354D01*
X159968Y131109D01*
Y131891D01*
X159766Y132646D01*
X159375Y133323D01*
X158823Y133875D01*
X158146Y134266D01*
X157391Y134468D01*
D02*
G37*
G36*
X203891Y137469D02*
X203109D01*
X202354Y137266D01*
X201677Y136875D01*
X201125Y136323D01*
X200734Y135646D01*
X200532Y134891D01*
Y134449D01*
X200423Y134077D01*
X200051Y133968D01*
X199609D01*
X198854Y133766D01*
X198177Y133375D01*
X197625Y132823D01*
X197234Y132146D01*
X197031Y131391D01*
Y130609D01*
X197234Y129854D01*
X197625Y129177D01*
X198177Y128625D01*
X198854Y128234D01*
X199609Y128032D01*
X200391D01*
X201146Y128234D01*
X201823Y128625D01*
X202375Y129177D01*
X202766Y129854D01*
X202969Y130609D01*
Y131052D01*
X203077Y131423D01*
X203449Y131532D01*
X203891D01*
X204646Y131734D01*
X205323Y132125D01*
X205875Y132677D01*
X206266Y133354D01*
X206469Y134109D01*
Y134891D01*
X206266Y135646D01*
X205875Y136323D01*
X205323Y136875D01*
X204646Y137266D01*
X203891Y137469D01*
D02*
G37*
G36*
X176391Y129969D02*
X175609D01*
X174854Y129766D01*
X174177Y129375D01*
X173625Y128823D01*
X173234Y128146D01*
X173031Y127391D01*
Y126609D01*
X173234Y125854D01*
X173625Y125177D01*
X174177Y124625D01*
X174854Y124234D01*
X175609Y124031D01*
X176391D01*
X177146Y124234D01*
X177823Y124625D01*
X178375Y125177D01*
X178766Y125854D01*
X178969Y126609D01*
Y127391D01*
X178766Y128146D01*
X178375Y128823D01*
X177823Y129375D01*
X177146Y129766D01*
X176391Y129969D01*
D02*
G37*
G36*
X144891Y128469D02*
X144109D01*
X143354Y128266D01*
X142677Y127875D01*
X142125Y127323D01*
X141734Y126646D01*
X141532Y125891D01*
Y125449D01*
X141423Y125077D01*
X141051Y124969D01*
X140609D01*
X139854Y124766D01*
X139177Y124375D01*
X138625Y123823D01*
X138234Y123146D01*
X138031Y122391D01*
Y121609D01*
X138234Y120854D01*
X138537Y120329D01*
X138171Y119963D01*
X137646Y120266D01*
X136891Y120468D01*
X136109D01*
X135354Y120266D01*
X134677Y119875D01*
X134125Y119323D01*
X133734Y118646D01*
X133531Y117891D01*
Y117448D01*
X133423Y117077D01*
X133052Y116969D01*
X132609D01*
X131854Y116766D01*
X131177Y116375D01*
X130625Y115823D01*
X130234Y115146D01*
X130032Y114391D01*
Y113609D01*
X130234Y112854D01*
X130625Y112177D01*
X131177Y111625D01*
X131854Y111234D01*
X132609Y111031D01*
X133391D01*
X134146Y111234D01*
X134823Y111625D01*
X135375Y112177D01*
X135766Y112854D01*
X135968Y113609D01*
Y114051D01*
X136077Y114423D01*
X136449Y114532D01*
X136891D01*
X137646Y114734D01*
X138323Y115125D01*
X138875Y115677D01*
X139266Y116354D01*
X139469Y117109D01*
Y117891D01*
X139266Y118646D01*
X138963Y119171D01*
X139329Y119537D01*
X139854Y119234D01*
X140609Y119032D01*
X141391D01*
X142146Y119234D01*
X142823Y119625D01*
X143375Y120177D01*
X143766Y120854D01*
X143968Y121609D01*
Y122052D01*
X144077Y122423D01*
X144448Y122531D01*
X144891D01*
X145646Y122734D01*
X146323Y123125D01*
X146875Y123677D01*
X147266Y124354D01*
X147468Y125109D01*
Y125891D01*
X147266Y126646D01*
X146875Y127323D01*
X146323Y127875D01*
X145646Y128266D01*
X144891Y128469D01*
D02*
G37*
G36*
X179891Y122468D02*
X179109D01*
X178354Y122266D01*
X177677Y121875D01*
X177125Y121323D01*
X176734Y120646D01*
X176532Y119891D01*
Y119109D01*
X176734Y118354D01*
X177125Y117677D01*
X177677Y117125D01*
X178354Y116734D01*
X179109Y116532D01*
X179891D01*
X180646Y116734D01*
X181323Y117125D01*
X181875Y117677D01*
X182266Y118354D01*
X182468Y119109D01*
Y119891D01*
X182266Y120646D01*
X181875Y121323D01*
X181323Y121875D01*
X180646Y122266D01*
X179891Y122468D01*
D02*
G37*
G36*
X179391Y144968D02*
X178609D01*
X177854Y144766D01*
X177177Y144375D01*
X176625Y143823D01*
X176234Y143146D01*
X176031Y142391D01*
Y141609D01*
X176234Y140854D01*
X176625Y140177D01*
X177177Y139625D01*
X177854Y139234D01*
X178609Y139032D01*
X179391D01*
X179718Y139119D01*
X188471Y130367D01*
Y117633D01*
X173718Y102881D01*
X173391Y102969D01*
X172609D01*
X171854Y102766D01*
X171177Y102375D01*
X170625Y101823D01*
X170234Y101146D01*
X170031Y100391D01*
Y99609D01*
X170234Y98854D01*
X170625Y98177D01*
X171177Y97625D01*
X171854Y97234D01*
X172609Y97031D01*
X173391D01*
X174146Y97234D01*
X174823Y97625D01*
X175375Y98177D01*
X175766Y98854D01*
X175969Y99609D01*
Y100391D01*
X175881Y100718D01*
X191032Y115869D01*
X191239Y115839D01*
X191532Y115692D01*
Y115609D01*
X191734Y114854D01*
X192125Y114177D01*
X192677Y113625D01*
X193354Y113234D01*
X194109Y113031D01*
X194891D01*
X195646Y113234D01*
X196323Y113625D01*
X196875Y114177D01*
X197266Y114854D01*
X197468Y115609D01*
Y116051D01*
X197577Y116423D01*
X197949Y116532D01*
X198391D01*
X199146Y116734D01*
X199823Y117125D01*
X200375Y117677D01*
X200766Y118354D01*
X200969Y119109D01*
Y119891D01*
X200766Y120646D01*
X200375Y121323D01*
X199823Y121875D01*
X199146Y122266D01*
X198391Y122468D01*
X197609D01*
X196854Y122266D01*
X196177Y121875D01*
X195625Y121323D01*
X195234Y120646D01*
X195031Y119891D01*
Y119448D01*
X194923Y119077D01*
X194552Y118968D01*
X194109D01*
X193354Y118766D01*
X192677Y118375D01*
X192125Y117823D01*
X192029Y117658D01*
X191529Y117792D01*
Y131000D01*
X191413Y131585D01*
X191081Y132081D01*
X181881Y141282D01*
X181968Y141609D01*
Y142391D01*
X181766Y143146D01*
X181375Y143823D01*
X180823Y144375D01*
X180146Y144766D01*
X179391Y144968D01*
D02*
G37*
G36*
X166891Y113969D02*
X166109D01*
X165354Y113766D01*
X164677Y113375D01*
X164125Y112823D01*
X163734Y112146D01*
X163531Y111391D01*
Y110609D01*
X163734Y109854D01*
X164125Y109177D01*
X164677Y108625D01*
X165354Y108234D01*
X166109Y108031D01*
X166891D01*
X167646Y108234D01*
X168323Y108625D01*
X168875Y109177D01*
X169266Y109854D01*
X169468Y110609D01*
Y111391D01*
X169266Y112146D01*
X168875Y112823D01*
X168323Y113375D01*
X167646Y113766D01*
X166891Y113969D01*
D02*
G37*
G36*
X339476Y115826D02*
X336524D01*
X335363Y115673D01*
X334282Y115225D01*
X333353Y114513D01*
X332641Y113584D01*
X332193Y112503D01*
X332040Y111342D01*
X332193Y110182D01*
X332641Y109101D01*
X333353Y108172D01*
X334282Y107460D01*
X335363Y107012D01*
X336524Y106859D01*
X339476D01*
X340637Y107012D01*
X341718Y107460D01*
X342647Y108172D01*
X343359Y109101D01*
X343807Y110182D01*
X343960Y111342D01*
X343807Y112503D01*
X343359Y113584D01*
X342647Y114513D01*
X341718Y115225D01*
X340637Y115673D01*
X339476Y115826D01*
D02*
G37*
G36*
X26891Y106468D02*
X26109D01*
X25354Y106266D01*
X24677Y105875D01*
X24125Y105323D01*
X23734Y104646D01*
X23531Y103891D01*
Y103109D01*
X23734Y102354D01*
X24125Y101677D01*
X24677Y101125D01*
X25354Y100734D01*
X26109Y100531D01*
X26891D01*
X27646Y100734D01*
X28323Y101125D01*
X28875Y101677D01*
X29266Y102354D01*
X29469Y103109D01*
Y103891D01*
X29266Y104646D01*
X28875Y105323D01*
X28323Y105875D01*
X27646Y106266D01*
X26891Y106468D01*
D02*
G37*
G36*
X188391Y109468D02*
X187609D01*
X186854Y109266D01*
X186177Y108875D01*
X185625Y108323D01*
X185234Y107646D01*
X185031Y106891D01*
Y106448D01*
X184923Y106077D01*
X184552Y105968D01*
X184109D01*
X183354Y105766D01*
X182677Y105375D01*
X182125Y104823D01*
X181734Y104146D01*
X181532Y103391D01*
Y102609D01*
X181734Y101854D01*
X182125Y101177D01*
X182677Y100625D01*
X183354Y100234D01*
X184109Y100031D01*
X184891D01*
X185646Y100234D01*
X186323Y100625D01*
X186875Y101177D01*
X187266Y101854D01*
X187469Y102609D01*
Y103051D01*
X187577Y103423D01*
X187949Y103532D01*
X188391D01*
X189146Y103734D01*
X189823Y104125D01*
X190375Y104677D01*
X190766Y105354D01*
X190969Y106109D01*
Y106891D01*
X190766Y107646D01*
X190375Y108323D01*
X189823Y108875D01*
X189146Y109266D01*
X188391Y109468D01*
D02*
G37*
G36*
X52909Y125030D02*
X52006Y124911D01*
X51164Y124562D01*
X50441Y124007D01*
X49887Y123285D01*
X49538Y122443D01*
X49419Y121539D01*
Y101461D01*
X49538Y100557D01*
X49887Y99715D01*
X50441Y98993D01*
X51164Y98438D01*
X52006Y98089D01*
X52909Y97970D01*
X53813Y98089D01*
X54655Y98438D01*
X55378Y98993D01*
X55932Y99715D01*
X56281Y100557D01*
X56400Y101461D01*
Y121539D01*
X56281Y122443D01*
X55932Y123285D01*
X55378Y124007D01*
X54655Y124562D01*
X53813Y124911D01*
X52909Y125030D01*
D02*
G37*
G36*
X339476Y105983D02*
X336524D01*
X335363Y105831D01*
X334282Y105383D01*
X333353Y104670D01*
X332641Y103742D01*
X332193Y102660D01*
X332040Y101500D01*
X332193Y100340D01*
X332641Y99258D01*
X333353Y98330D01*
X334282Y97617D01*
X335363Y97170D01*
X336524Y97017D01*
X339476D01*
X340637Y97170D01*
X341718Y97617D01*
X342647Y98330D01*
X343359Y99258D01*
X343807Y100340D01*
X343960Y101500D01*
X343807Y102660D01*
X343359Y103742D01*
X342647Y104670D01*
X341718Y105383D01*
X340637Y105831D01*
X339476Y105983D01*
D02*
G37*
G36*
X299091Y122530D02*
X298187Y122411D01*
X297345Y122062D01*
X296622Y121508D01*
X296068Y120785D01*
X295719Y119943D01*
X295600Y119039D01*
Y98961D01*
X295719Y98057D01*
X296068Y97215D01*
X296622Y96492D01*
X297345Y95938D01*
X298187Y95589D01*
X299091Y95470D01*
X299994Y95589D01*
X300836Y95938D01*
X301559Y96492D01*
X302114Y97215D01*
X302462Y98057D01*
X302581Y98961D01*
Y119039D01*
X302462Y119943D01*
X302114Y120785D01*
X301559Y121508D01*
X300836Y122062D01*
X299994Y122411D01*
X299091Y122530D01*
D02*
G37*
G36*
X273500D02*
X272597Y122411D01*
X271755Y122062D01*
X271032Y121508D01*
X270477Y120785D01*
X270128Y119943D01*
X270009Y119039D01*
Y98961D01*
X270128Y98057D01*
X270477Y97215D01*
X271032Y96492D01*
X271755Y95938D01*
X272597Y95589D01*
X273500Y95470D01*
X274403Y95589D01*
X275245Y95938D01*
X275968Y96492D01*
X276523Y97215D01*
X276871Y98057D01*
X276991Y98961D01*
Y119039D01*
X276871Y119943D01*
X276523Y120785D01*
X275968Y121508D01*
X275245Y122062D01*
X274403Y122411D01*
X273500Y122530D01*
D02*
G37*
G36*
X159391Y96969D02*
X158609D01*
X157854Y96766D01*
X157177Y96375D01*
X156625Y95823D01*
X156234Y95146D01*
X156032Y94391D01*
Y94077D01*
X155891Y93968D01*
X155109D01*
X154354Y93766D01*
X153677Y93375D01*
X153125Y92823D01*
X152734Y92146D01*
X152532Y91391D01*
Y90609D01*
X152734Y89854D01*
X153125Y89177D01*
X153677Y88625D01*
X154354Y88234D01*
X155109Y88032D01*
X155891D01*
X156646Y88234D01*
X157323Y88625D01*
X157875Y89177D01*
X158266Y89854D01*
X158468Y90609D01*
Y90924D01*
X158609Y91031D01*
X159391D01*
X160146Y91234D01*
X160823Y91625D01*
X161375Y92177D01*
X161766Y92854D01*
X161969Y93609D01*
Y94391D01*
X161766Y95146D01*
X161375Y95823D01*
X160823Y96375D01*
X160146Y96766D01*
X159391Y96969D01*
D02*
G37*
G36*
X168891Y91969D02*
X168109D01*
X167354Y91766D01*
X166677Y91375D01*
X166125Y90823D01*
X165734Y90146D01*
X165532Y89391D01*
Y88609D01*
X165734Y87854D01*
X166125Y87177D01*
X166677Y86625D01*
X167354Y86234D01*
X168109Y86032D01*
X168891D01*
X169646Y86234D01*
X170323Y86625D01*
X170875Y87177D01*
X171266Y87854D01*
X171468Y88609D01*
Y89391D01*
X171266Y90146D01*
X170875Y90823D01*
X170323Y91375D01*
X169646Y91766D01*
X168891Y91969D01*
D02*
G37*
G36*
X184891Y85969D02*
X184109D01*
X183354Y85766D01*
X182677Y85375D01*
X182333Y85031D01*
X182000Y84879D01*
X181667Y85031D01*
X181323Y85375D01*
X180646Y85766D01*
X179891Y85969D01*
X179109D01*
X178354Y85766D01*
X177677Y85375D01*
X177125Y84823D01*
X176734Y84146D01*
X176532Y83391D01*
Y82609D01*
X176734Y81854D01*
X177125Y81177D01*
X177677Y80625D01*
X178354Y80234D01*
X179109Y80032D01*
X179891D01*
X180646Y80234D01*
X181323Y80625D01*
X181667Y80969D01*
X182000Y81121D01*
X182333Y80969D01*
X182677Y80625D01*
X183354Y80234D01*
X184109Y80032D01*
X184891D01*
X185646Y80234D01*
X186323Y80625D01*
X186875Y81177D01*
X187266Y81854D01*
X187469Y82609D01*
Y83391D01*
X187266Y84146D01*
X186875Y84823D01*
X186323Y85375D01*
X185646Y85766D01*
X184891Y85969D01*
D02*
G37*
G36*
X339476Y80826D02*
X336524D01*
X335363Y80673D01*
X334282Y80225D01*
X333353Y79513D01*
X332641Y78584D01*
X332193Y77503D01*
X332040Y76343D01*
X332193Y75182D01*
X332641Y74101D01*
X333353Y73172D01*
X334282Y72460D01*
X335363Y72012D01*
X336524Y71859D01*
X339476D01*
X340637Y72012D01*
X341718Y72460D01*
X342647Y73172D01*
X343359Y74101D01*
X343807Y75182D01*
X343960Y76343D01*
X343807Y77503D01*
X343359Y78584D01*
X342647Y79513D01*
X341718Y80225D01*
X340637Y80673D01*
X339476Y80826D01*
D02*
G37*
G36*
X188391Y75968D02*
X187609D01*
X186854Y75766D01*
X186177Y75375D01*
X185625Y74823D01*
X185234Y74146D01*
X185031Y73391D01*
Y72609D01*
X185234Y71854D01*
X185625Y71177D01*
X186177Y70625D01*
X186854Y70234D01*
X187609Y70031D01*
X188391D01*
X189146Y70234D01*
X189823Y70625D01*
X190375Y71177D01*
X190766Y71854D01*
X190969Y72609D01*
Y73391D01*
X190766Y74146D01*
X190375Y74823D01*
X189823Y75375D01*
X189146Y75766D01*
X188391Y75968D01*
D02*
G37*
G36*
X339476Y70983D02*
X336524D01*
X335363Y70831D01*
X334282Y70383D01*
X333353Y69670D01*
X332641Y68742D01*
X332193Y67660D01*
X332040Y66500D01*
X332193Y65340D01*
X332641Y64258D01*
X333353Y63330D01*
X334282Y62617D01*
X335363Y62169D01*
X336524Y62017D01*
X339476D01*
X340637Y62169D01*
X341718Y62617D01*
X342647Y63330D01*
X343359Y64258D01*
X343807Y65340D01*
X343960Y66500D01*
X343807Y67660D01*
X343359Y68742D01*
X342647Y69670D01*
X341718Y70383D01*
X340637Y70831D01*
X339476Y70983D01*
D02*
G37*
G36*
Y61141D02*
X338500D01*
Y57157D01*
X343894D01*
X343807Y57818D01*
X343359Y58899D01*
X342647Y59828D01*
X341718Y60540D01*
X340637Y60988D01*
X339476Y61141D01*
D02*
G37*
G36*
X337500D02*
X336524D01*
X335363Y60988D01*
X334282Y60540D01*
X333353Y59828D01*
X332641Y58899D01*
X332193Y57818D01*
X332106Y57157D01*
X337500D01*
Y61141D01*
D02*
G37*
G36*
X178895Y60622D02*
X178105D01*
X177376Y60320D01*
X176818Y59762D01*
X176516Y59032D01*
Y58243D01*
X176818Y57514D01*
X177332Y57000D01*
X176818Y56486D01*
X176516Y55757D01*
Y54967D01*
X176818Y54238D01*
X177376Y53680D01*
X178105Y53378D01*
X178895D01*
X179624Y53680D01*
X180182Y54238D01*
X180484Y54967D01*
Y55757D01*
X180182Y56486D01*
X179668Y57000D01*
X180182Y57514D01*
X180484Y58243D01*
Y59032D01*
X180182Y59762D01*
X179624Y60320D01*
X178895Y60622D01*
D02*
G37*
G36*
X8391Y58469D02*
X7609D01*
X6854Y58266D01*
X6177Y57875D01*
X5625Y57323D01*
X5234Y56646D01*
X5032Y55891D01*
Y55109D01*
X5234Y54354D01*
X5625Y53677D01*
X6177Y53125D01*
X6854Y52734D01*
X7609Y52531D01*
X8391D01*
X9146Y52734D01*
X9823Y53125D01*
X10375Y53677D01*
X10766Y54354D01*
X10968Y55109D01*
Y55891D01*
X10766Y56646D01*
X10375Y57323D01*
X9823Y57875D01*
X9146Y58266D01*
X8391Y58469D01*
D02*
G37*
G36*
X343894Y56157D02*
X338500D01*
Y52174D01*
X339476D01*
X340637Y52327D01*
X341718Y52775D01*
X342647Y53487D01*
X343359Y54416D01*
X343807Y55497D01*
X343894Y56157D01*
D02*
G37*
G36*
X337500D02*
X332106D01*
X332193Y55497D01*
X332641Y54416D01*
X333353Y53487D01*
X334282Y52775D01*
X335363Y52327D01*
X336524Y52174D01*
X337500D01*
Y56157D01*
D02*
G37*
G36*
X170307Y56059D02*
X169526D01*
X168771Y55857D01*
X168094Y55466D01*
X167541Y54913D01*
X167150Y54236D01*
X166948Y53481D01*
Y52700D01*
X167150Y51945D01*
X167541Y51268D01*
X168094Y50715D01*
X168771Y50324D01*
X169526Y50122D01*
X170307D01*
X171062Y50324D01*
X171739Y50715D01*
X172292Y51268D01*
X172682Y51945D01*
X172885Y52700D01*
Y53481D01*
X172682Y54236D01*
X172292Y54913D01*
X171739Y55466D01*
X171062Y55857D01*
X170307Y56059D01*
D02*
G37*
G36*
X206076Y60469D02*
X205294D01*
X204539Y60266D01*
X203863Y59875D01*
X203310Y59323D01*
X202919Y58646D01*
X202717Y57891D01*
Y57109D01*
X202919Y56354D01*
X203310Y55677D01*
X203737Y55250D01*
X203310Y54823D01*
X202919Y54146D01*
X202717Y53391D01*
Y52609D01*
X202919Y51854D01*
X203310Y51177D01*
X203863Y50625D01*
X204539Y50234D01*
X205294Y50032D01*
X206076D01*
X206831Y50234D01*
X207508Y50625D01*
X208061Y51177D01*
X208451Y51854D01*
X208654Y52609D01*
Y53391D01*
X208451Y54146D01*
X208061Y54823D01*
X207633Y55250D01*
X208061Y55677D01*
X208451Y56354D01*
X208654Y57109D01*
Y57891D01*
X208451Y58646D01*
X208061Y59323D01*
X207508Y59875D01*
X206831Y60266D01*
X206076Y60469D01*
D02*
G37*
G36*
X140391Y54969D02*
X139609D01*
X138854Y54766D01*
X138177Y54375D01*
X137625Y53823D01*
X137234Y53146D01*
X137031Y52391D01*
Y51609D01*
X137234Y50854D01*
X137625Y50177D01*
X138177Y49625D01*
X138854Y49234D01*
X139609Y49031D01*
X140391D01*
X141146Y49234D01*
X141823Y49625D01*
X142375Y50177D01*
X142766Y50854D01*
X142968Y51609D01*
Y52391D01*
X142766Y53146D01*
X142375Y53823D01*
X141823Y54375D01*
X141146Y54766D01*
X140391Y54969D01*
D02*
G37*
G36*
X26391Y53969D02*
X25609D01*
X24854Y53766D01*
X24177Y53375D01*
X23625Y52823D01*
X23234Y52146D01*
X23031Y51391D01*
Y50609D01*
X23234Y49854D01*
X23625Y49177D01*
X24177Y48625D01*
X24854Y48234D01*
X25609Y48031D01*
X26391D01*
X27146Y48234D01*
X27823Y48625D01*
X28375Y49177D01*
X28766Y49854D01*
X28969Y50609D01*
Y51391D01*
X28766Y52146D01*
X28375Y52823D01*
X27823Y53375D01*
X27146Y53766D01*
X26391Y53969D01*
D02*
G37*
G36*
X32891Y51968D02*
X32109D01*
X31354Y51766D01*
X30677Y51375D01*
X30125Y50823D01*
X29734Y50146D01*
X29531Y49391D01*
Y48609D01*
X29734Y47854D01*
X30125Y47177D01*
X30677Y46625D01*
X31354Y46234D01*
X32109Y46031D01*
X32891D01*
X33646Y46234D01*
X34323Y46625D01*
X34875Y47177D01*
X35266Y47854D01*
X35469Y48609D01*
Y49391D01*
X35266Y50146D01*
X34875Y50823D01*
X34323Y51375D01*
X33646Y51766D01*
X32891Y51968D01*
D02*
G37*
G36*
X98000Y53487D02*
X96968Y53351D01*
X96007Y52953D01*
X95181Y52319D01*
X94547Y51493D01*
X94149Y50532D01*
X94013Y49500D01*
X94149Y48468D01*
X94547Y47507D01*
X95181Y46681D01*
X96007Y46047D01*
X96968Y45649D01*
X98000Y45513D01*
X99032Y45649D01*
X99993Y46047D01*
X100819Y46681D01*
X101453Y47507D01*
X101851Y48468D01*
X101987Y49500D01*
X101851Y50532D01*
X101453Y51493D01*
X100819Y52319D01*
X99993Y52953D01*
X99032Y53351D01*
X98000Y53487D01*
D02*
G37*
G36*
X113000Y52987D02*
X111968Y52851D01*
X111007Y52453D01*
X110181Y51819D01*
X109547Y50993D01*
X109149Y50032D01*
X109013Y49000D01*
X109149Y47968D01*
X109547Y47007D01*
X110181Y46181D01*
X111007Y45547D01*
X111968Y45149D01*
X113000Y45013D01*
X114032Y45149D01*
X114993Y45547D01*
X115819Y46181D01*
X116453Y47007D01*
X116851Y47968D01*
X116987Y49000D01*
X116851Y50032D01*
X116453Y50993D01*
X115819Y51819D01*
X114993Y52453D01*
X114032Y52851D01*
X113000Y52987D01*
D02*
G37*
G36*
X271137Y56472D02*
X269862D01*
X268611Y56224D01*
X267433Y55736D01*
X266373Y55028D01*
X265472Y54126D01*
X264763Y53066D01*
X264276Y51888D01*
X264027Y50638D01*
Y49362D01*
X264276Y48112D01*
X264763Y46934D01*
X265472Y45874D01*
X266373Y44973D01*
X267433Y44264D01*
X268611Y43776D01*
X269862Y43528D01*
X271137D01*
X272387Y43776D01*
X273565Y44264D01*
X274625Y44973D01*
X275527Y45874D01*
X276235Y46934D01*
X276723Y48112D01*
X276972Y49362D01*
Y50638D01*
X276723Y51888D01*
X276235Y53066D01*
X275527Y54126D01*
X274625Y55028D01*
X273565Y55736D01*
X272387Y56224D01*
X271137Y56472D01*
D02*
G37*
G36*
X82212Y56337D02*
X80937D01*
X79687Y56089D01*
X78509Y55601D01*
X77449Y54892D01*
X76547Y53991D01*
X75839Y52931D01*
X75351Y51753D01*
X75102Y50502D01*
Y49227D01*
X75351Y47977D01*
X75839Y46799D01*
X76547Y45739D01*
X77449Y44837D01*
X78509Y44129D01*
X79687Y43641D01*
X80937Y43392D01*
X82212D01*
X83463Y43641D01*
X84641Y44129D01*
X85701Y44837D01*
X86602Y45739D01*
X87311Y46799D01*
X87799Y47977D01*
X88047Y49227D01*
Y50502D01*
X87799Y51753D01*
X87311Y52931D01*
X86602Y53991D01*
X85701Y54892D01*
X84641Y55601D01*
X83463Y56089D01*
X82212Y56337D01*
D02*
G37*
G36*
X228391Y42469D02*
X227609D01*
X226854Y42266D01*
X226177Y41875D01*
X225833Y41531D01*
X225500Y41379D01*
X225167Y41531D01*
X224823Y41875D01*
X224146Y42266D01*
X223391Y42469D01*
X222609D01*
X221854Y42266D01*
X221177Y41875D01*
X220625Y41323D01*
X220234Y40646D01*
X220031Y39891D01*
Y39109D01*
X220234Y38354D01*
X220625Y37677D01*
X221177Y37125D01*
X221854Y36734D01*
X222609Y36531D01*
X223391D01*
X224146Y36734D01*
X224823Y37125D01*
X225167Y37469D01*
X225500Y37621D01*
X225833Y37469D01*
X226177Y37125D01*
X226854Y36734D01*
X227609Y36531D01*
X228391D01*
X229146Y36734D01*
X229823Y37125D01*
X230375Y37677D01*
X230766Y38354D01*
X230968Y39109D01*
Y39891D01*
X230766Y40646D01*
X230375Y41323D01*
X229823Y41875D01*
X229146Y42266D01*
X228391Y42469D01*
D02*
G37*
G36*
X301137Y46472D02*
X299862D01*
X298611Y46224D01*
X297433Y45736D01*
X296373Y45028D01*
X295472Y44126D01*
X294763Y43066D01*
X294275Y41888D01*
X294027Y40637D01*
Y39362D01*
X294275Y38112D01*
X294763Y36934D01*
X295472Y35874D01*
X296373Y34973D01*
X297433Y34264D01*
X298611Y33776D01*
X299862Y33528D01*
X301137D01*
X302387Y33776D01*
X303565Y34264D01*
X304625Y34973D01*
X305527Y35874D01*
X306235Y36934D01*
X306723Y38112D01*
X306972Y39362D01*
Y40637D01*
X306723Y41888D01*
X306235Y43066D01*
X305527Y44126D01*
X304625Y45028D01*
X303565Y45736D01*
X302387Y46224D01*
X301137Y46472D01*
D02*
G37*
G36*
X52212Y46337D02*
X50937D01*
X49687Y46088D01*
X48509Y45601D01*
X47449Y44892D01*
X46547Y43991D01*
X45839Y42931D01*
X45351Y41753D01*
X45102Y40502D01*
Y39227D01*
X45351Y37977D01*
X45839Y36799D01*
X46547Y35739D01*
X47449Y34837D01*
X48509Y34129D01*
X49687Y33641D01*
X50937Y33392D01*
X52212D01*
X53463Y33641D01*
X54641Y34129D01*
X55701Y34837D01*
X56602Y35739D01*
X57311Y36799D01*
X57798Y37977D01*
X58047Y39227D01*
Y40502D01*
X57798Y41753D01*
X57311Y42931D01*
X56602Y43991D01*
X55701Y44892D01*
X54641Y45601D01*
X53463Y46088D01*
X52212Y46337D01*
D02*
G37*
G36*
X189891Y34283D02*
X189109D01*
X188354Y34081D01*
X187677Y33690D01*
X187250Y33263D01*
X186823Y33690D01*
X186146Y34081D01*
X185391Y34283D01*
X184609D01*
X183854Y34081D01*
X183177Y33690D01*
X182625Y33138D01*
X182234Y32461D01*
X182032Y31706D01*
Y30924D01*
X182234Y30169D01*
X182625Y29492D01*
X183177Y28939D01*
X183854Y28549D01*
X184609Y28346D01*
X185391D01*
X186146Y28549D01*
X186823Y28939D01*
X187250Y29367D01*
X187677Y28939D01*
X188354Y28549D01*
X189109Y28346D01*
X189891D01*
X190646Y28549D01*
X191323Y28939D01*
X191875Y29492D01*
X192266Y30169D01*
X192469Y30924D01*
Y31706D01*
X192266Y32461D01*
X191875Y33138D01*
X191323Y33690D01*
X190646Y34081D01*
X189891Y34283D01*
D02*
G37*
G36*
X347000Y41004D02*
X345968Y40868D01*
X345007Y40470D01*
X344181Y39836D01*
X343547Y39010D01*
X343149Y38049D01*
X343013Y37017D01*
X343149Y35985D01*
X343547Y35023D01*
X344181Y34198D01*
X345007Y33564D01*
X345968Y33166D01*
X347000Y33030D01*
X348032Y33166D01*
X348993Y33564D01*
X349819Y34198D01*
X350453Y35023D01*
X350851Y35985D01*
X350987Y37017D01*
X350851Y38049D01*
X350453Y39010D01*
X349819Y39836D01*
X348993Y40470D01*
X348032Y40868D01*
X347000Y41004D01*
D02*
G37*
G36*
X271137Y36472D02*
X269862D01*
X268611Y36224D01*
X267433Y35736D01*
X266373Y35028D01*
X265472Y34126D01*
X264763Y33066D01*
X264276Y31888D01*
X264027Y30637D01*
Y29362D01*
X264276Y28112D01*
X264763Y26934D01*
X265472Y25874D01*
X266373Y24972D01*
X267433Y24264D01*
X268611Y23776D01*
X269862Y23528D01*
X271137D01*
X272387Y23776D01*
X273565Y24264D01*
X274625Y24972D01*
X275527Y25874D01*
X276235Y26934D01*
X276723Y28112D01*
X276972Y29362D01*
Y30637D01*
X276723Y31888D01*
X276235Y33066D01*
X275527Y34126D01*
X274625Y35028D01*
X273565Y35736D01*
X272387Y36224D01*
X271137Y36472D01*
D02*
G37*
G36*
X82212Y36337D02*
X80937D01*
X79687Y36088D01*
X78509Y35601D01*
X77449Y34892D01*
X76547Y33991D01*
X75839Y32931D01*
X75351Y31753D01*
X75102Y30502D01*
Y29227D01*
X75351Y27977D01*
X75839Y26799D01*
X76547Y25739D01*
X77449Y24837D01*
X78509Y24129D01*
X79687Y23641D01*
X80937Y23392D01*
X82212D01*
X83463Y23641D01*
X84641Y24129D01*
X85701Y24837D01*
X86602Y25739D01*
X87311Y26799D01*
X87799Y27977D01*
X88047Y29227D01*
Y30502D01*
X87799Y31753D01*
X87311Y32931D01*
X86602Y33991D01*
X85701Y34892D01*
X84641Y35601D01*
X83463Y36088D01*
X82212Y36337D01*
D02*
G37*
G36*
X335511Y30685D02*
X333780D01*
X332070Y30414D01*
X330423Y29879D01*
X328880Y29093D01*
X327480Y28075D01*
X326255Y26851D01*
X325238Y25450D01*
X324452Y23908D01*
X323917Y22261D01*
X323646Y20551D01*
Y18819D01*
X323917Y17109D01*
X324452Y15462D01*
X325238Y13920D01*
X326255Y12519D01*
X327480Y11295D01*
X328880Y10277D01*
X330423Y9491D01*
X332070Y8956D01*
X333780Y8685D01*
X335511D01*
X337222Y8956D01*
X338868Y9491D01*
X340411Y10277D01*
X341812Y11295D01*
X343036Y12519D01*
X344054Y13920D01*
X344840Y15462D01*
X345375Y17109D01*
X345646Y18819D01*
Y20551D01*
X345375Y22261D01*
X344840Y23908D01*
X344054Y25450D01*
X343036Y26851D01*
X341812Y28075D01*
X340411Y29093D01*
X338868Y29879D01*
X337222Y30414D01*
X335511Y30685D01*
D02*
G37*
G36*
X20736D02*
X19004D01*
X17294Y30414D01*
X15648Y29879D01*
X14105Y29093D01*
X12704Y28075D01*
X11480Y26851D01*
X10462Y25450D01*
X9676Y23908D01*
X9141Y22261D01*
X8870Y20551D01*
Y18819D01*
X9141Y17109D01*
X9676Y15462D01*
X10462Y13920D01*
X11480Y12519D01*
X12704Y11295D01*
X14105Y10277D01*
X15648Y9491D01*
X17294Y8956D01*
X19004Y8685D01*
X20736D01*
X22446Y8956D01*
X24093Y9491D01*
X25635Y10277D01*
X27036Y11295D01*
X28260Y12519D01*
X29278Y13920D01*
X30064Y15462D01*
X30599Y17109D01*
X30870Y18819D01*
Y20551D01*
X30599Y22261D01*
X30064Y23908D01*
X29278Y25450D01*
X28260Y26851D01*
X27036Y28075D01*
X25635Y29093D01*
X24093Y29879D01*
X22446Y30414D01*
X20736Y30685D01*
D02*
G37*
G36*
X71891Y14469D02*
X71109D01*
X70354Y14266D01*
X69677Y13875D01*
X69125Y13323D01*
X68734Y12646D01*
X68532Y11891D01*
Y11109D01*
X68734Y10354D01*
X69125Y9677D01*
X69677Y9125D01*
X70354Y8734D01*
X71109Y8531D01*
X71891D01*
X72646Y8734D01*
X73323Y9125D01*
X73875Y9677D01*
X74266Y10354D01*
X74468Y11109D01*
Y11891D01*
X74266Y12646D01*
X73875Y13323D01*
X73323Y13875D01*
X72646Y14266D01*
X71891Y14469D01*
D02*
G37*
G36*
X55891Y16969D02*
X55109D01*
X54354Y16766D01*
X53677Y16375D01*
X53125Y15823D01*
X52734Y15146D01*
X52531Y14391D01*
Y13609D01*
X52734Y12854D01*
X53125Y12177D01*
X53552Y11750D01*
X53125Y11323D01*
X52734Y10646D01*
X52531Y9891D01*
Y9109D01*
X52734Y8354D01*
X53125Y7677D01*
X53677Y7125D01*
X54354Y6734D01*
X55109Y6532D01*
X55891D01*
X56646Y6734D01*
X57323Y7125D01*
X57875Y7677D01*
X58266Y8354D01*
X58469Y9109D01*
Y9891D01*
X58266Y10646D01*
X57875Y11323D01*
X57448Y11750D01*
X57875Y12177D01*
X58266Y12854D01*
X58469Y13609D01*
Y14391D01*
X58266Y15146D01*
X57875Y15823D01*
X57323Y16375D01*
X56646Y16766D01*
X55891Y16969D01*
D02*
G37*
%LPD*%
D10*
X175306Y307031D02*
Y310306D01*
X175500Y310500D01*
X165032Y296757D02*
X175306Y307031D01*
X165032Y281691D02*
Y296757D01*
X163531Y304532D02*
X176500Y317500D01*
X172000Y281000D02*
X183500Y292500D01*
X172000Y265000D02*
Y281000D01*
X183500Y292500D02*
Y311000D01*
X173000Y100000D02*
X190000Y117000D01*
Y131000D01*
X198500Y292000D02*
X219500Y313000D01*
X198500Y269500D02*
Y292000D01*
X161615Y245468D02*
X172031D01*
X176000Y241500D02*
X202500D01*
X172031Y245468D02*
X176000Y241500D01*
X159084Y248000D02*
X161615Y245468D01*
X202000Y287500D02*
X227500Y313000D01*
X202000Y274000D02*
Y287500D01*
Y274000D02*
X205000Y271000D01*
Y244000D02*
Y271000D01*
X202500Y241500D02*
X205000Y244000D01*
X200532Y244531D02*
X203000Y247000D01*
Y265000D01*
X198500Y269500D02*
X203000Y265000D01*
X173158Y248937D02*
X177563Y244531D01*
X169000Y248937D02*
X173158D01*
X177563Y244531D02*
X200532D01*
X185500Y283405D02*
Y305500D01*
Y283405D02*
X189000Y279905D01*
X185500Y305500D02*
X201500Y321500D01*
X189000Y248000D02*
Y279905D01*
X172000Y265000D02*
X179000Y258000D01*
Y248000D02*
Y258000D01*
X183500Y311000D02*
X189469Y316969D01*
X190969D02*
X197000Y323000D01*
X189469Y316969D02*
X190969D01*
X201500Y321500D02*
Y339288D01*
X201712Y339500D01*
X145863Y266863D02*
X150204D01*
X133914Y254914D02*
X145863Y266863D01*
X133914Y241207D02*
Y254914D01*
X131500Y241500D02*
Y255500D01*
X153167Y277167D02*
X158167D01*
X131500Y255500D02*
X153167Y277167D01*
X135500Y244000D02*
Y251500D01*
X137500Y253500D01*
X145000D01*
X158167Y277167D02*
X163531Y282531D01*
X139000Y245556D02*
X147524Y237032D01*
X139000Y245556D02*
Y249500D01*
X145000Y253500D02*
X149000Y249500D01*
X150204Y266863D02*
X165032Y281691D01*
X150969Y238531D02*
X211531D01*
X133914Y241207D02*
X142207Y232914D01*
X135500Y244000D02*
X145086Y234414D01*
X143616Y245884D02*
X150969Y238531D01*
X163531Y282531D02*
Y304532D01*
X131500Y241500D02*
X142000Y231000D01*
X142207Y232914D02*
X173586D01*
X142000Y231000D02*
X169500D01*
X189000Y194500D02*
Y211500D01*
X169500Y231000D02*
X189000Y211500D01*
X191712Y339500D02*
X191866Y339345D01*
X147524Y237032D02*
X214032D01*
X145086Y234414D02*
X215638D01*
X173586Y232914D02*
X199084Y207416D01*
X215638Y234414D02*
X258000Y276776D01*
X199084Y194500D02*
Y207416D01*
X124000Y255095D02*
X142437Y273532D01*
X124000Y186500D02*
Y255095D01*
X78500Y141000D02*
X124000Y186500D01*
X258000Y277500D02*
X259500Y279000D01*
Y339500D01*
X258000Y276776D02*
Y277500D01*
X246500Y332842D02*
X249500Y335842D01*
X246500Y286779D02*
Y332842D01*
X249500Y335842D02*
Y339500D01*
X240898Y283648D02*
X243500Y286250D01*
X242398Y282677D02*
X246500Y286779D01*
X242398Y274139D02*
Y282677D01*
Y274139D02*
X242500Y274037D01*
X240898Y267898D02*
Y283648D01*
X211531Y238531D02*
X240898Y267898D01*
X242500Y265500D02*
Y274037D01*
X214032Y237032D02*
X242500Y265500D01*
X239500Y323000D02*
X243500Y319000D01*
Y286250D02*
Y319000D01*
X239500Y323000D02*
Y339500D01*
X239500Y339500D01*
X149500Y303500D02*
X150000Y303000D01*
X146054Y303500D02*
X149500D01*
X141032Y286563D02*
X146468Y281126D01*
X144437Y273532D02*
X146468Y275563D01*
Y281126D01*
X142437Y273532D02*
X144437D01*
X141032Y298477D02*
X146054Y303500D01*
X141032Y286563D02*
Y298477D01*
X84000Y83000D02*
X151405D01*
X153374Y81032D01*
X167469D01*
X187500Y61000D01*
X71000Y96000D02*
X84000Y83000D01*
X150000Y57500D02*
Y79500D01*
Y57500D02*
X155219Y52281D01*
X179000Y142000D02*
X190000Y131000D01*
X53923Y312577D02*
Y339500D01*
Y312577D02*
X74971Y291529D01*
X121029D01*
X109500Y246000D02*
X121029Y257529D01*
Y291529D01*
X109500Y226500D02*
Y246000D01*
X71000Y188000D02*
X109500Y226500D01*
X71000Y150000D02*
Y188000D01*
Y96000D02*
Y150000D01*
X78500Y111500D02*
Y141000D01*
X157719Y52281D02*
X164000Y46000D01*
X155219Y52281D02*
X157719D01*
D71*
X300499Y40000D02*
D03*
X270499Y30000D02*
D03*
Y50000D02*
D03*
X51575Y39865D02*
D03*
X81575Y49865D02*
D03*
Y29865D02*
D03*
D80*
X305591Y279528D02*
D03*
X295590D02*
D03*
X285591D02*
D03*
X275590D02*
D03*
D81*
X328740Y161417D02*
D03*
X250000D02*
D03*
Y279528D02*
D03*
X328740D02*
D03*
D82*
X50000Y150000D02*
D03*
X71000D02*
D03*
X113000Y49000D02*
D03*
X98000Y49500D02*
D03*
X65500Y274500D02*
D03*
D83*
X78500Y111500D02*
D03*
X52909D02*
D03*
X299091Y109000D02*
D03*
X273500D02*
D03*
D84*
X19870Y19685D02*
D03*
X334646Y334646D02*
D03*
X19685D02*
D03*
X334646Y19685D02*
D03*
D85*
X139500Y306500D02*
D03*
X196000Y298000D02*
D03*
X165000Y274000D02*
D03*
X216000Y257500D02*
D03*
X347000Y37017D02*
D03*
X334000Y309000D02*
D03*
Y298000D02*
D03*
D86*
X338000Y76343D02*
D03*
Y56657D02*
D03*
Y66500D02*
D03*
Y111342D02*
D03*
Y101500D02*
D03*
D87*
X289500Y339500D02*
D03*
X249500D02*
D03*
X229500D02*
D03*
X299500D02*
D03*
X239500D02*
D03*
X259500D02*
D03*
X269500D02*
D03*
X279500D02*
D03*
X201712D02*
D03*
X161712D02*
D03*
X141712D02*
D03*
X211712D02*
D03*
X151712D02*
D03*
X171712D02*
D03*
X181712D02*
D03*
X191712D02*
D03*
X113923D02*
D03*
X73923D02*
D03*
X53923D02*
D03*
X123923D02*
D03*
X63923D02*
D03*
X83923D02*
D03*
X93923D02*
D03*
X103923D02*
D03*
D88*
X175500Y310500D02*
D03*
X176500Y317500D02*
D03*
X178000Y281500D02*
D03*
X219500Y313000D02*
D03*
X227500D02*
D03*
X169000Y248937D02*
D03*
X182500Y281500D02*
D03*
X177000Y268000D02*
D03*
X185000Y275500D02*
D03*
X197000Y323000D02*
D03*
X139000Y249500D02*
D03*
X143616Y245884D02*
D03*
X157475Y281380D02*
D03*
X149000Y249500D02*
D03*
X190000Y291500D02*
D03*
X198500Y248000D02*
D03*
X150000Y303000D02*
D03*
X159084Y248000D02*
D03*
X180014Y303003D02*
D03*
X175180Y302000D02*
D03*
Y297500D02*
D03*
X169500Y242000D02*
D03*
X179000Y248000D02*
D03*
X143000Y277000D02*
D03*
X137000D02*
D03*
X131000D02*
D03*
X102000Y311500D02*
D03*
X99000Y248000D02*
D03*
X95000Y311500D02*
D03*
X210500Y219000D02*
D03*
Y223500D02*
D03*
X155000Y84500D02*
D03*
X179500Y119500D02*
D03*
X166500Y111000D02*
D03*
X69500Y203500D02*
D03*
X49084Y194500D02*
D03*
X239500Y301500D02*
D03*
X233500Y299000D02*
D03*
X40000Y150000D02*
D03*
X32500Y49000D02*
D03*
X8000Y55500D02*
D03*
X168500Y89000D02*
D03*
X227756Y118504D02*
D03*
X224803Y112598D02*
D03*
X227756Y106693D02*
D03*
X224803Y100787D02*
D03*
X218898Y124409D02*
D03*
X221850Y118504D02*
D03*
X218898Y112598D02*
D03*
X221850Y106693D02*
D03*
X218898Y100787D02*
D03*
X215945Y118504D02*
D03*
X212992Y112598D02*
D03*
X215945Y106693D02*
D03*
X212992Y100787D02*
D03*
X210039Y118504D02*
D03*
X207086Y112598D02*
D03*
X210039Y106693D02*
D03*
X207086Y100787D02*
D03*
X204134Y106693D02*
D03*
X228500Y280000D02*
D03*
X8000Y119500D02*
D03*
X179000Y142000D02*
D03*
X173000Y100000D02*
D03*
X187500Y61000D02*
D03*
X188000Y66500D02*
D03*
Y73000D02*
D03*
X164000Y71000D02*
D03*
X133000Y114000D02*
D03*
X157000Y131500D02*
D03*
X7000Y66500D02*
D03*
X71500Y11500D02*
D03*
X26500Y103500D02*
D03*
X26000Y51000D02*
D03*
X150000Y79500D02*
D03*
Y65500D02*
D03*
X164000Y46000D02*
D03*
X155000Y59000D02*
D03*
X140000Y52000D02*
D03*
X55500Y9500D02*
D03*
Y14000D02*
D03*
X183000Y165000D02*
D03*
X179500Y162000D02*
D03*
X175000Y157500D02*
D03*
X171500Y154000D02*
D03*
X203500Y134500D02*
D03*
X200000Y131000D02*
D03*
X198000Y119500D02*
D03*
X194500Y116000D02*
D03*
X188000Y106500D02*
D03*
X184500Y103000D02*
D03*
X165500Y145000D02*
D03*
X169000Y148500D02*
D03*
X176000Y127000D02*
D03*
X136500Y117500D02*
D03*
X141000Y122000D02*
D03*
X144500Y125500D02*
D03*
X159000Y94000D02*
D03*
X155500Y91000D02*
D03*
X223000Y39500D02*
D03*
X205685Y53000D02*
D03*
X169916Y53091D02*
D03*
X159250Y62750D02*
D03*
X164000Y66500D02*
D03*
X187500Y55000D02*
D03*
X205685Y57500D02*
D03*
X184500Y83000D02*
D03*
X185000Y31315D02*
D03*
X179500Y83000D02*
D03*
X189500Y31315D02*
D03*
X228000Y39500D02*
D03*
X212000Y266000D02*
D03*
X31500Y173500D02*
D03*
X27000D02*
D03*
X81500D02*
D03*
X76500D02*
D03*
X131500D02*
D03*
X127000D02*
D03*
X181500D02*
D03*
X176500D02*
D03*
X181500Y268000D02*
D03*
X132000D02*
D03*
X126500D02*
D03*
X81500D02*
D03*
X76500D02*
D03*
X31500Y268500D02*
D03*
X26500D02*
D03*
X8000Y296500D02*
D03*
X3500D02*
D03*
X18500Y303000D02*
D03*
X12500D02*
D03*
X54000D02*
D03*
X48500D02*
D03*
X84500Y303500D02*
D03*
X78500D02*
D03*
X120000D02*
D03*
X114500D02*
D03*
X207500Y277500D02*
D03*
X168500Y289500D02*
D03*
X144500Y288000D02*
D03*
Y292500D02*
D03*
X222000Y269000D02*
D03*
X217000D02*
D03*
X214500Y285000D02*
D03*
Y289500D02*
D03*
X185000Y271000D02*
D03*
X199084Y194500D02*
D03*
X99000D02*
D03*
X19000D02*
D03*
X169000D02*
D03*
X118500D02*
D03*
X159084D02*
D03*
X9292D02*
D03*
X189000D02*
D03*
X149000D02*
D03*
X139084D02*
D03*
X109000D02*
D03*
X89000D02*
D03*
X69292D02*
D03*
X189000Y248000D02*
D03*
X89000D02*
D03*
X68792D02*
D03*
X19084D02*
D03*
X121029Y291529D02*
D03*
X55000Y290500D02*
D03*
D89*
X178500Y55362D02*
D03*
Y58638D02*
D03*
M02*
