G04*
G04 #@! TF.GenerationSoftware,Altium Limited,Altium Designer,22.9.1 (49)*
G04*
G04 Layer_Color=8388736*
%FSLAX25Y25*%
%MOIN*%
G70*
G04*
G04 #@! TF.SameCoordinates,9D3E2428-DCC5-4340-9D25-80E916FAB4BD*
G04*
G04*
G04 #@! TF.FilePolarity,Negative*
G04*
G01*
G75*
%ADD22R,0.08661X0.05512*%
G04:AMPARAMS|DCode=44|XSize=16.93mil|YSize=26.77mil|CornerRadius=5.51mil|HoleSize=0mil|Usage=FLASHONLY|Rotation=270.000|XOffset=0mil|YOffset=0mil|HoleType=Round|Shape=RoundedRectangle|*
%AMROUNDEDRECTD44*
21,1,0.01693,0.01575,0,0,270.0*
21,1,0.00591,0.02677,0,0,270.0*
1,1,0.01102,-0.00787,-0.00295*
1,1,0.01102,-0.00787,0.00295*
1,1,0.01102,0.00787,0.00295*
1,1,0.01102,0.00787,-0.00295*
%
%ADD44ROUNDEDRECTD44*%
G04:AMPARAMS|DCode=45|XSize=41.07mil|YSize=102.49mil|CornerRadius=5.98mil|HoleSize=0mil|Usage=FLASHONLY|Rotation=180.000|XOffset=0mil|YOffset=0mil|HoleType=Round|Shape=RoundedRectangle|*
%AMROUNDEDRECTD45*
21,1,0.04107,0.09052,0,0,180.0*
21,1,0.02910,0.10249,0,0,180.0*
1,1,0.01197,-0.01455,0.04526*
1,1,0.01197,0.01455,0.04526*
1,1,0.01197,0.01455,-0.04526*
1,1,0.01197,-0.01455,-0.04526*
%
%ADD45ROUNDEDRECTD45*%
%ADD46R,0.04540X0.04147*%
%ADD47R,0.04147X0.04540*%
%ADD48R,0.04737X0.04343*%
G04:AMPARAMS|DCode=49|XSize=47.37mil|YSize=43.43mil|CornerRadius=0mil|HoleSize=0mil|Usage=FLASHONLY|Rotation=225.000|XOffset=0mil|YOffset=0mil|HoleType=Round|Shape=Rectangle|*
%AMROTATEDRECTD49*
4,1,4,0.00139,0.03210,0.03210,0.00139,-0.00139,-0.03210,-0.03210,-0.00139,0.00139,0.03210,0.0*
%
%ADD49ROTATEDRECTD49*%

%ADD50R,0.04934X0.03162*%
%ADD51R,0.04343X0.04737*%
G04:AMPARAMS|DCode=52|XSize=63.12mil|YSize=59.18mil|CornerRadius=0mil|HoleSize=0mil|Usage=FLASHONLY|Rotation=225.000|XOffset=0mil|YOffset=0mil|HoleType=Round|Shape=Rectangle|*
%AMROTATEDRECTD52*
4,1,4,0.00139,0.04324,0.04324,0.00139,-0.00139,-0.04324,-0.04324,-0.00139,0.00139,0.04324,0.0*
%
%ADD52ROTATEDRECTD52*%

G04:AMPARAMS|DCode=53|XSize=45.4mil|YSize=41.47mil|CornerRadius=0mil|HoleSize=0mil|Usage=FLASHONLY|Rotation=225.000|XOffset=0mil|YOffset=0mil|HoleType=Round|Shape=Rectangle|*
%AMROTATEDRECTD53*
4,1,4,0.00139,0.03071,0.03071,0.00139,-0.00139,-0.03071,-0.03071,-0.00139,0.00139,0.03071,0.0*
%
%ADD53ROTATEDRECTD53*%

G04:AMPARAMS|DCode=54|XSize=55.24mil|YSize=76.9mil|CornerRadius=0mil|HoleSize=0mil|Usage=FLASHONLY|Rotation=225.000|XOffset=0mil|YOffset=0mil|HoleType=Round|Shape=Rectangle|*
%AMROTATEDRECTD54*
4,1,4,-0.00766,0.04672,0.04672,-0.00766,0.00766,-0.04672,-0.04672,0.00766,-0.00766,0.04672,0.0*
%
%ADD54ROTATEDRECTD54*%

%ADD55P,0.07813X4X360.0*%
%ADD56P,0.07813X4X90.0*%
%ADD57R,0.10642X0.04737*%
%ADD58R,0.04737X0.10642*%
G04:AMPARAMS|DCode=59|XSize=106.42mil|YSize=47.37mil|CornerRadius=8.92mil|HoleSize=0mil|Usage=FLASHONLY|Rotation=90.000|XOffset=0mil|YOffset=0mil|HoleType=Round|Shape=RoundedRectangle|*
%AMROUNDEDRECTD59*
21,1,0.10642,0.02953,0,0,90.0*
21,1,0.08858,0.04737,0,0,90.0*
1,1,0.01784,0.01476,0.04429*
1,1,0.01784,0.01476,-0.04429*
1,1,0.01784,-0.01476,-0.04429*
1,1,0.01784,-0.01476,0.04429*
%
%ADD59ROUNDEDRECTD59*%
G04:AMPARAMS|DCode=60|XSize=67.06mil|YSize=67.06mil|CornerRadius=12.86mil|HoleSize=0mil|Usage=FLASHONLY|Rotation=90.000|XOffset=0mil|YOffset=0mil|HoleType=Round|Shape=RoundedRectangle|*
%AMROUNDEDRECTD60*
21,1,0.06706,0.04134,0,0,90.0*
21,1,0.04134,0.06706,0,0,90.0*
1,1,0.02572,0.02067,0.02067*
1,1,0.02572,0.02067,-0.02067*
1,1,0.02572,-0.02067,-0.02067*
1,1,0.02572,-0.02067,0.02067*
%
%ADD60ROUNDEDRECTD60*%
G04:AMPARAMS|DCode=61|XSize=63.12mil|YSize=90.68mil|CornerRadius=17.78mil|HoleSize=0mil|Usage=FLASHONLY|Rotation=90.000|XOffset=0mil|YOffset=0mil|HoleType=Round|Shape=RoundedRectangle|*
%AMROUNDEDRECTD61*
21,1,0.06312,0.05512,0,0,90.0*
21,1,0.02756,0.09068,0,0,90.0*
1,1,0.03556,0.02756,0.01378*
1,1,0.03556,0.02756,-0.01378*
1,1,0.03556,-0.02756,-0.01378*
1,1,0.03556,-0.02756,0.01378*
%
%ADD61ROUNDEDRECTD61*%
%ADD62R,0.03950X0.04737*%
%ADD63R,0.04147X0.02178*%
%ADD64R,0.03950X0.03950*%
%ADD65R,0.03162X0.03753*%
%ADD66C,0.07493*%
%ADD67C,0.06800*%
%ADD68O,0.06706X0.06706*%
%ADD69O,0.05721X0.25800*%
%ADD70C,0.20800*%
%ADD71C,0.10945*%
%ADD72O,0.06706X0.06706*%
%ADD73O,0.10642X0.07690*%
%ADD74O,0.08674X0.12611*%
%ADD75C,0.02769*%
G36*
X202222Y265753D02*
X202274Y265742D01*
X202324Y265726D01*
X202371Y265703D01*
X202414Y265673D01*
X202454Y265639D01*
X202488Y265599D01*
X202517Y265556D01*
X202541Y265509D01*
X202557Y265459D01*
X202568Y265408D01*
X202571Y265355D01*
Y255907D01*
X202571Y255906D01*
Y255492D01*
X202568Y255440D01*
X202557Y255388D01*
X202343Y254587D01*
X202326Y254537D01*
X202303Y254490D01*
X201888Y253772D01*
X201859Y253729D01*
X201824Y253689D01*
X201238Y253103D01*
X201199Y253068D01*
X201155Y253039D01*
X200437Y252624D01*
X200413Y252613D01*
X200390Y252601D01*
X200340Y252584D01*
X199539Y252370D01*
X199488Y252360D01*
X199435Y252356D01*
X198606D01*
X198554Y252360D01*
X198502Y252370D01*
X197701Y252584D01*
X197652Y252601D01*
X197605Y252624D01*
X196886Y253039D01*
X196843Y253068D01*
X196803Y253103D01*
X196217Y253689D01*
X196182Y253729D01*
X196153Y253772D01*
X195738Y254490D01*
X195727Y254514D01*
X195715Y254537D01*
X195698Y254587D01*
X195484Y255388D01*
X195474Y255440D01*
X195470Y255492D01*
Y255907D01*
X195470Y255907D01*
Y265355D01*
X195474Y265408D01*
X195484Y265459D01*
X195501Y265509D01*
X195524Y265556D01*
X195553Y265599D01*
X195588Y265639D01*
X195627Y265673D01*
X195671Y265703D01*
X195718Y265726D01*
X195767Y265742D01*
X195819Y265753D01*
X195871Y265756D01*
X202170Y265756D01*
X202222Y265753D01*
D02*
G37*
G36*
X192222Y265753D02*
X192274Y265743D01*
X192324Y265726D01*
X192371Y265703D01*
X192414Y265673D01*
X192454Y265639D01*
X192488Y265599D01*
X192517Y265556D01*
X192541Y265509D01*
X192557Y265459D01*
X192568Y265408D01*
X192571Y265355D01*
Y255907D01*
Y255492D01*
X192568Y255440D01*
X192557Y255388D01*
X192343Y254587D01*
X192326Y254537D01*
X192303Y254490D01*
X191888Y253772D01*
X191859Y253729D01*
X191824Y253689D01*
X191238Y253103D01*
X191199Y253068D01*
X191155Y253039D01*
X190437Y252624D01*
X190413Y252613D01*
X190390Y252601D01*
X190340Y252584D01*
X189539Y252370D01*
X189488Y252360D01*
X189435Y252356D01*
X188606D01*
X188554Y252360D01*
X188502Y252370D01*
X187701Y252584D01*
X187652Y252601D01*
X187604Y252624D01*
X186886Y253039D01*
X186843Y253068D01*
X186803Y253103D01*
X186217Y253689D01*
X186182Y253729D01*
X186153Y253772D01*
X185739Y254490D01*
X185727Y254514D01*
X185715Y254537D01*
X185698Y254587D01*
X185484Y255388D01*
X185474Y255440D01*
X185470Y255492D01*
D01*
Y255492D01*
X185470Y255907D01*
Y265355D01*
X185474Y265408D01*
X185484Y265459D01*
X185501Y265509D01*
X185524Y265556D01*
X185553Y265599D01*
X185588Y265639D01*
X185627Y265673D01*
X185671Y265703D01*
X185718Y265726D01*
X185767Y265743D01*
X185819Y265753D01*
X185871Y265756D01*
X192170D01*
X192222Y265753D01*
D02*
G37*
G36*
X162223Y265753D02*
X162274Y265742D01*
X162324Y265726D01*
X162371Y265703D01*
X162414Y265673D01*
X162454Y265639D01*
X162488Y265599D01*
X162517Y265556D01*
X162541Y265509D01*
X162557Y265459D01*
X162568Y265408D01*
X162571Y265355D01*
X162571Y255907D01*
X162571Y255907D01*
Y255492D01*
X162568Y255440D01*
X162557Y255388D01*
X162343Y254587D01*
X162326Y254537D01*
X162303Y254490D01*
X161888Y253772D01*
X161859Y253729D01*
X161824Y253689D01*
X161238Y253103D01*
X161198Y253068D01*
X161155Y253039D01*
X160437Y252624D01*
X160413Y252613D01*
X160390Y252601D01*
X160340Y252584D01*
X159539Y252370D01*
X159488Y252360D01*
X159435Y252356D01*
X158606D01*
X158554Y252360D01*
X158502Y252370D01*
X157701Y252584D01*
X157651Y252601D01*
X157605Y252624D01*
X156886Y253039D01*
X156843Y253068D01*
X156803Y253103D01*
X156217Y253689D01*
X156182Y253729D01*
X156153Y253772D01*
X155738Y254490D01*
X155727Y254514D01*
X155715Y254537D01*
X155698Y254587D01*
X155484Y255388D01*
X155474Y255440D01*
X155470Y255492D01*
D01*
Y255492D01*
X155470Y255907D01*
Y265355D01*
X155474Y265408D01*
X155484Y265459D01*
X155501Y265509D01*
X155524Y265556D01*
X155553Y265599D01*
X155588Y265639D01*
X155627Y265673D01*
X155671Y265703D01*
X155718Y265726D01*
X155767Y265742D01*
X155819Y265753D01*
X155871Y265756D01*
X162170Y265756D01*
X162223Y265753D01*
D02*
G37*
G36*
X142222Y265753D02*
X142274Y265743D01*
X142324Y265726D01*
X142371Y265703D01*
X142414Y265673D01*
X142454Y265639D01*
X142488Y265599D01*
X142517Y265556D01*
X142541Y265509D01*
X142557Y265459D01*
X142568Y265408D01*
X142571Y265355D01*
Y255907D01*
Y255492D01*
X142568Y255440D01*
X142557Y255388D01*
X142343Y254587D01*
X142326Y254537D01*
X142303Y254490D01*
X141888Y253772D01*
X141859Y253729D01*
X141824Y253689D01*
X141238Y253103D01*
X141199Y253068D01*
X141155Y253039D01*
X140437Y252624D01*
X140413Y252613D01*
X140390Y252601D01*
X140340Y252584D01*
X139539Y252370D01*
X139488Y252360D01*
X139435Y252356D01*
X138606D01*
X138554Y252360D01*
X138502Y252370D01*
X137701Y252584D01*
X137652Y252601D01*
X137604Y252624D01*
X136886Y253039D01*
X136843Y253068D01*
X136803Y253103D01*
X136217Y253689D01*
X136182Y253729D01*
X136153Y253772D01*
X135739Y254490D01*
X135727Y254514D01*
X135715Y254537D01*
X135698Y254587D01*
X135484Y255388D01*
X135474Y255440D01*
X135470Y255492D01*
Y255907D01*
X135470Y265355D01*
X135474Y265408D01*
X135484Y265459D01*
X135501Y265509D01*
X135524Y265556D01*
X135553Y265599D01*
X135588Y265639D01*
X135627Y265673D01*
X135671Y265703D01*
X135718Y265726D01*
X135767Y265742D01*
X135819Y265753D01*
X135871Y265756D01*
X142170Y265756D01*
X142222Y265753D01*
D02*
G37*
G36*
X122222D02*
X122274Y265743D01*
X122324Y265726D01*
X122371Y265703D01*
X122414Y265673D01*
X122454Y265639D01*
X122488Y265599D01*
X122517Y265556D01*
X122541Y265509D01*
X122557Y265459D01*
X122568Y265408D01*
X122571Y265355D01*
Y255907D01*
X122571Y255907D01*
Y255492D01*
X122568Y255440D01*
X122557Y255388D01*
X122343Y254587D01*
X122326Y254537D01*
X122303Y254490D01*
X121888Y253772D01*
X121859Y253729D01*
X121824Y253689D01*
X121238Y253103D01*
X121198Y253068D01*
X121155Y253039D01*
X120437Y252624D01*
X120413Y252613D01*
X120390Y252601D01*
X120340Y252584D01*
X119539Y252370D01*
X119488Y252360D01*
X119435Y252356D01*
X118606D01*
X118554Y252360D01*
X118502Y252370D01*
X117701Y252584D01*
X117651Y252601D01*
X117604Y252624D01*
X116886Y253039D01*
X116843Y253068D01*
X116803Y253103D01*
X116217Y253689D01*
X116182Y253729D01*
X116153Y253772D01*
X115738Y254490D01*
X115727Y254514D01*
X115715Y254537D01*
X115699Y254587D01*
X115484Y255388D01*
X115474Y255440D01*
X115470Y255492D01*
Y255907D01*
Y265355D01*
X115474Y265408D01*
X115484Y265459D01*
X115501Y265509D01*
X115524Y265556D01*
X115553Y265599D01*
X115588Y265639D01*
X115627Y265673D01*
X115671Y265703D01*
X115718Y265726D01*
X115767Y265743D01*
X115819Y265753D01*
X115871Y265756D01*
X122170D01*
X122222Y265753D01*
D02*
G37*
G36*
X112223Y265753D02*
X112274Y265742D01*
X112324Y265726D01*
X112371Y265703D01*
X112414Y265673D01*
X112454Y265639D01*
X112488Y265599D01*
X112517Y265556D01*
X112541Y265509D01*
X112557Y265459D01*
X112568Y265408D01*
X112571Y265355D01*
X112571Y255907D01*
Y255492D01*
X112568Y255440D01*
X112557Y255388D01*
X112343Y254587D01*
X112326Y254537D01*
X112303Y254490D01*
X111888Y253772D01*
X111859Y253729D01*
X111824Y253689D01*
X111238Y253103D01*
X111198Y253068D01*
X111155Y253039D01*
X110437Y252624D01*
X110413Y252613D01*
X110390Y252601D01*
X110340Y252584D01*
X109539Y252370D01*
X109488Y252360D01*
X109435Y252356D01*
X108606D01*
X108554Y252360D01*
X108502Y252370D01*
X107701Y252584D01*
X107651Y252601D01*
X107605Y252624D01*
X106886Y253039D01*
X106843Y253068D01*
X106803Y253103D01*
X106217Y253689D01*
X106182Y253729D01*
X106153Y253772D01*
X105738Y254490D01*
X105727Y254514D01*
X105715Y254537D01*
X105698Y254587D01*
X105484Y255388D01*
X105474Y255440D01*
X105470Y255492D01*
Y255907D01*
X105470Y255907D01*
Y265355D01*
X105474Y265408D01*
X105484Y265459D01*
X105501Y265509D01*
X105524Y265556D01*
X105553Y265599D01*
X105588Y265639D01*
X105627Y265673D01*
X105671Y265703D01*
X105718Y265726D01*
X105767Y265742D01*
X105819Y265753D01*
X105871Y265756D01*
X112170Y265756D01*
X112223Y265753D01*
D02*
G37*
G36*
X102223Y265753D02*
X102274Y265743D01*
X102324Y265726D01*
X102371Y265703D01*
X102414Y265673D01*
X102454Y265639D01*
X102488Y265599D01*
X102517Y265556D01*
X102541Y265509D01*
X102557Y265459D01*
X102568Y265408D01*
X102571Y265355D01*
X102571Y255907D01*
X102571Y255907D01*
Y255492D01*
X102568Y255440D01*
X102557Y255388D01*
X102343Y254587D01*
X102326Y254537D01*
X102303Y254490D01*
X101888Y253772D01*
X101859Y253729D01*
X101824Y253689D01*
X101238Y253103D01*
X101198Y253068D01*
X101155Y253039D01*
X100437Y252624D01*
X100413Y252613D01*
X100390Y252601D01*
X100340Y252584D01*
X99539Y252370D01*
X99488Y252360D01*
X99435Y252356D01*
X98606D01*
X98554Y252360D01*
X98502Y252370D01*
X97701Y252584D01*
X97651Y252601D01*
X97605Y252624D01*
X96886Y253039D01*
X96843Y253068D01*
X96803Y253103D01*
X96217Y253689D01*
X96182Y253729D01*
X96153Y253772D01*
X95739Y254490D01*
X95727Y254514D01*
X95715Y254537D01*
X95698Y254587D01*
X95484Y255388D01*
X95474Y255440D01*
X95470Y255492D01*
Y255907D01*
Y265355D01*
X95474Y265408D01*
X95484Y265459D01*
X95501Y265509D01*
X95524Y265556D01*
X95553Y265599D01*
X95588Y265639D01*
X95627Y265673D01*
X95671Y265703D01*
X95718Y265726D01*
X95767Y265743D01*
X95819Y265753D01*
X95871Y265756D01*
X102170D01*
X102223Y265753D01*
D02*
G37*
G36*
X92222D02*
X92274Y265743D01*
X92324Y265726D01*
X92371Y265703D01*
X92414Y265673D01*
X92454Y265639D01*
X92488Y265599D01*
X92517Y265556D01*
X92541Y265509D01*
X92557Y265459D01*
X92568Y265408D01*
X92571Y265355D01*
X92571Y255907D01*
D01*
Y255492D01*
X92568Y255440D01*
X92557Y255388D01*
X92343Y254587D01*
X92326Y254537D01*
X92303Y254490D01*
X91888Y253772D01*
X91859Y253729D01*
X91824Y253689D01*
X91238Y253103D01*
X91198Y253068D01*
X91155Y253039D01*
X90437Y252624D01*
X90413Y252613D01*
X90390Y252601D01*
X90340Y252584D01*
X89539Y252370D01*
X89488Y252360D01*
X89435Y252356D01*
X88606D01*
X88554Y252360D01*
X88502Y252370D01*
X87701Y252584D01*
X87651Y252601D01*
X87604Y252624D01*
X86886Y253039D01*
X86843Y253068D01*
X86803Y253103D01*
X86217Y253689D01*
X86182Y253729D01*
X86153Y253772D01*
X85738Y254490D01*
X85727Y254514D01*
X85715Y254537D01*
X85698Y254587D01*
X85484Y255388D01*
X85474Y255440D01*
X85470Y255492D01*
Y255907D01*
X85470Y255907D01*
Y265355D01*
X85474Y265408D01*
X85484Y265459D01*
X85501Y265509D01*
X85524Y265556D01*
X85553Y265599D01*
X85588Y265639D01*
X85627Y265673D01*
X85671Y265703D01*
X85718Y265726D01*
X85767Y265742D01*
X85819Y265753D01*
X85871Y265756D01*
X92170Y265756D01*
X92222Y265753D01*
D02*
G37*
G36*
X72170Y265756D02*
X72223Y265753D01*
X72274Y265742D01*
X72324Y265726D01*
X72371Y265703D01*
X72414Y265673D01*
X72454Y265639D01*
X72488Y265599D01*
X72517Y265556D01*
X72541Y265509D01*
X72557Y265459D01*
X72568Y265408D01*
X72571Y265355D01*
Y255907D01*
Y255492D01*
X72568Y255440D01*
X72557Y255388D01*
X72343Y254587D01*
X72326Y254537D01*
X72303Y254490D01*
X71888Y253772D01*
X71859Y253729D01*
X71824Y253689D01*
X71238Y253103D01*
X71198Y253068D01*
X71155Y253039D01*
X70437Y252624D01*
X70413Y252613D01*
X70390Y252601D01*
X70340Y252584D01*
X69539Y252370D01*
X69488Y252360D01*
X69435Y252356D01*
X68606D01*
X68554Y252360D01*
X68502Y252370D01*
X67701Y252584D01*
X67651Y252601D01*
X67605Y252624D01*
X66886Y253039D01*
X66843Y253068D01*
X66803Y253103D01*
X66217Y253689D01*
X66182Y253729D01*
X66153Y253772D01*
X65738Y254490D01*
X65727Y254514D01*
X65715Y254537D01*
X65698Y254587D01*
X65484Y255388D01*
X65474Y255440D01*
X65470Y255492D01*
D01*
Y255492D01*
X65470Y255907D01*
X65470Y265355D01*
X65474Y265408D01*
X65484Y265459D01*
X65501Y265509D01*
X65524Y265556D01*
X65553Y265599D01*
X65588Y265639D01*
X65627Y265673D01*
X65671Y265703D01*
X65718Y265726D01*
X65767Y265743D01*
X65819Y265753D01*
X65871Y265756D01*
X72170Y265756D01*
D02*
G37*
G36*
X52223Y265753D02*
X52274Y265743D01*
X52324Y265726D01*
X52371Y265703D01*
X52414Y265673D01*
X52454Y265639D01*
X52488Y265599D01*
X52517Y265556D01*
X52541Y265509D01*
X52557Y265459D01*
X52568Y265408D01*
X52571Y265355D01*
Y255907D01*
Y255492D01*
X52568Y255440D01*
X52557Y255388D01*
X52343Y254587D01*
X52326Y254537D01*
X52303Y254490D01*
X51888Y253772D01*
X51859Y253729D01*
X51824Y253689D01*
X51238Y253103D01*
X51199Y253068D01*
X51155Y253039D01*
X50437Y252624D01*
X50413Y252613D01*
X50390Y252601D01*
X50340Y252584D01*
X49539Y252370D01*
X49488Y252360D01*
X49435Y252356D01*
X48606D01*
X48554Y252360D01*
X48502Y252370D01*
X47701Y252584D01*
X47651Y252601D01*
X47605Y252624D01*
X46886Y253039D01*
X46843Y253068D01*
X46803Y253103D01*
X46217Y253689D01*
X46182Y253729D01*
X46153Y253772D01*
X45739Y254490D01*
X45727Y254514D01*
X45715Y254537D01*
X45698Y254587D01*
X45484Y255388D01*
X45474Y255440D01*
X45470Y255492D01*
Y255907D01*
X45470Y265355D01*
X45474Y265408D01*
X45484Y265459D01*
X45501Y265509D01*
X45524Y265556D01*
X45553Y265599D01*
X45588Y265639D01*
X45627Y265673D01*
X45671Y265703D01*
X45718Y265726D01*
X45767Y265742D01*
X45819Y265753D01*
X45871Y265756D01*
X52170Y265756D01*
X52223Y265753D01*
D02*
G37*
G36*
X32223D02*
X32274Y265743D01*
X32324Y265726D01*
X32371Y265703D01*
X32414Y265673D01*
X32454Y265639D01*
X32488Y265599D01*
X32517Y265556D01*
X32541Y265509D01*
X32557Y265459D01*
X32568Y265408D01*
X32571Y265355D01*
Y255907D01*
X32571Y255907D01*
Y255492D01*
X32568Y255440D01*
X32557Y255388D01*
X32343Y254587D01*
X32326Y254537D01*
X32303Y254490D01*
X31888Y253772D01*
X31859Y253729D01*
X31824Y253689D01*
X31238Y253103D01*
X31198Y253068D01*
X31155Y253039D01*
X30437Y252624D01*
X30413Y252613D01*
X30390Y252601D01*
X30340Y252584D01*
X29539Y252370D01*
X29488Y252360D01*
X29435Y252356D01*
X28606D01*
X28554Y252360D01*
X28502Y252370D01*
X27701Y252584D01*
X27652Y252601D01*
X27604Y252624D01*
X26886Y253039D01*
X26843Y253068D01*
X26803Y253103D01*
X26217Y253689D01*
X26182Y253729D01*
X26153Y253772D01*
X25738Y254490D01*
X25727Y254514D01*
X25715Y254537D01*
X25699Y254587D01*
X25484Y255388D01*
X25474Y255440D01*
X25470Y255492D01*
Y255907D01*
Y265355D01*
X25474Y265408D01*
X25484Y265459D01*
X25501Y265509D01*
X25524Y265556D01*
X25553Y265599D01*
X25588Y265639D01*
X25627Y265673D01*
X25671Y265703D01*
X25718Y265726D01*
X25767Y265743D01*
X25819Y265753D01*
X25871Y265756D01*
X32170D01*
X32223Y265753D01*
D02*
G37*
G36*
X22222Y265753D02*
X22274Y265742D01*
X22324Y265726D01*
X22371Y265703D01*
X22414Y265673D01*
X22454Y265639D01*
X22488Y265599D01*
X22517Y265556D01*
X22541Y265509D01*
X22557Y265459D01*
X22568Y265408D01*
X22571Y265355D01*
X22571Y255907D01*
Y255492D01*
X22568Y255440D01*
X22557Y255388D01*
X22343Y254587D01*
X22326Y254537D01*
X22303Y254490D01*
X21888Y253772D01*
X21859Y253729D01*
X21824Y253689D01*
X21238Y253103D01*
X21199Y253068D01*
X21155Y253039D01*
X20437Y252624D01*
X20413Y252613D01*
X20390Y252601D01*
X20340Y252584D01*
X19539Y252370D01*
X19488Y252360D01*
X19435Y252356D01*
X18606D01*
X18554Y252360D01*
X18502Y252370D01*
X17701Y252584D01*
X17651Y252601D01*
X17605Y252624D01*
X16886Y253039D01*
X16843Y253068D01*
X16803Y253103D01*
X16217Y253689D01*
X16182Y253729D01*
X16153Y253772D01*
X15739Y254490D01*
X15727Y254514D01*
X15715Y254537D01*
X15698Y254587D01*
X15484Y255388D01*
X15474Y255440D01*
X15470Y255492D01*
Y255907D01*
X15470Y255907D01*
Y265355D01*
X15474Y265408D01*
X15484Y265459D01*
X15501Y265509D01*
X15524Y265556D01*
X15553Y265599D01*
X15588Y265639D01*
X15627Y265673D01*
X15671Y265703D01*
X15718Y265726D01*
X15767Y265742D01*
X15819Y265753D01*
X15871Y265756D01*
X22170Y265756D01*
X22222Y265753D01*
D02*
G37*
G36*
X182222Y265753D02*
X182274Y265743D01*
X182324Y265726D01*
X182371Y265703D01*
X182414Y265673D01*
X182454Y265639D01*
X182488Y265599D01*
X182517Y265556D01*
X182541Y265509D01*
X182557Y265459D01*
X182568Y265408D01*
X182571Y265355D01*
X182571Y255907D01*
Y255492D01*
X182568Y255439D01*
X182557Y255388D01*
X182343Y254587D01*
X182326Y254537D01*
X182303Y254490D01*
X181888Y253772D01*
X181859Y253729D01*
X181824Y253689D01*
X181238Y253103D01*
X181199Y253068D01*
X181155Y253039D01*
X180437Y252624D01*
X180413Y252613D01*
X180390Y252601D01*
X180340Y252584D01*
X179539Y252370D01*
X179488Y252360D01*
X179435Y252356D01*
X178606D01*
X178554Y252360D01*
X178502Y252370D01*
X177701Y252584D01*
X177652Y252601D01*
X177604Y252624D01*
X176886Y253039D01*
X176843Y253068D01*
X176803Y253103D01*
X176217Y253689D01*
X176182Y253729D01*
X176153Y253772D01*
X175739Y254490D01*
X175727Y254514D01*
X175715Y254537D01*
X175698Y254587D01*
X175484Y255388D01*
X175474Y255440D01*
X175470Y255492D01*
Y255492D01*
D01*
X175470Y255907D01*
Y265355D01*
X175474Y265408D01*
X175484Y265459D01*
X175501Y265509D01*
X175524Y265556D01*
X175553Y265599D01*
X175588Y265639D01*
X175627Y265673D01*
X175671Y265703D01*
X175718Y265726D01*
X175767Y265742D01*
X175819Y265753D01*
X175871Y265756D01*
X182170Y265756D01*
X182222Y265753D01*
D02*
G37*
G36*
X172222D02*
X172274Y265743D01*
X172324Y265726D01*
X172371Y265703D01*
X172414Y265673D01*
X172454Y265639D01*
X172488Y265599D01*
X172517Y265556D01*
X172541Y265509D01*
X172557Y265459D01*
X172568Y265408D01*
X172571Y265355D01*
X172571Y255907D01*
X172571Y255906D01*
Y255492D01*
X172568Y255439D01*
X172557Y255388D01*
X172343Y254587D01*
X172326Y254537D01*
X172303Y254490D01*
X171888Y253772D01*
X171859Y253729D01*
X171824Y253689D01*
X171238Y253103D01*
X171198Y253068D01*
X171155Y253039D01*
X170437Y252624D01*
X170413Y252613D01*
X170390Y252601D01*
X170340Y252584D01*
X169539Y252370D01*
X169488Y252360D01*
X169435Y252356D01*
X168606D01*
X168554Y252360D01*
X168502Y252370D01*
X167701Y252584D01*
X167651Y252601D01*
X167604Y252624D01*
X166886Y253039D01*
X166843Y253068D01*
X166803Y253103D01*
X166217Y253689D01*
X166182Y253729D01*
X166153Y253772D01*
X165738Y254490D01*
X165727Y254514D01*
X165715Y254537D01*
X165698Y254587D01*
X165484Y255388D01*
X165474Y255440D01*
X165470Y255492D01*
Y255492D01*
D01*
X165470Y255907D01*
Y265355D01*
X165474Y265408D01*
X165484Y265459D01*
X165501Y265509D01*
X165524Y265556D01*
X165553Y265599D01*
X165588Y265639D01*
X165627Y265673D01*
X165671Y265703D01*
X165718Y265726D01*
X165767Y265743D01*
X165819Y265753D01*
X165871Y265756D01*
X172170D01*
X172222Y265753D01*
D02*
G37*
G36*
X132170Y265756D02*
X132222Y265753D01*
X132274Y265742D01*
X132324Y265726D01*
X132371Y265703D01*
X132414Y265673D01*
X132454Y265639D01*
X132488Y265599D01*
X132517Y265556D01*
X132541Y265509D01*
X132557Y265459D01*
X132568Y265408D01*
X132571Y265355D01*
Y255907D01*
Y255492D01*
X132568Y255439D01*
X132557Y255388D01*
X132343Y254587D01*
X132326Y254537D01*
X132303Y254490D01*
X131888Y253772D01*
X131859Y253729D01*
X131824Y253689D01*
X131238Y253103D01*
X131199Y253068D01*
X131155Y253039D01*
X130437Y252624D01*
X130413Y252613D01*
X130390Y252601D01*
X130340Y252584D01*
X129539Y252370D01*
X129488Y252360D01*
X129435Y252356D01*
X128606D01*
X128554Y252360D01*
X128502Y252370D01*
X127701Y252584D01*
X127652Y252601D01*
X127604Y252624D01*
X126886Y253039D01*
X126843Y253068D01*
X126803Y253103D01*
X126217Y253689D01*
X126182Y253729D01*
X126153Y253772D01*
X125739Y254490D01*
X125727Y254514D01*
X125715Y254537D01*
X125698Y254587D01*
X125484Y255388D01*
X125474Y255440D01*
X125470Y255492D01*
Y255907D01*
X125470Y255907D01*
X125470Y265355D01*
X125474Y265408D01*
X125484Y265459D01*
X125501Y265509D01*
X125524Y265556D01*
X125553Y265599D01*
X125588Y265639D01*
X125627Y265673D01*
X125671Y265703D01*
X125718Y265726D01*
X125767Y265742D01*
X125819Y265753D01*
X125871Y265756D01*
X132170Y265756D01*
D02*
G37*
G36*
X82170D02*
X82222Y265753D01*
X82274Y265742D01*
X82324Y265726D01*
X82371Y265703D01*
X82414Y265673D01*
X82454Y265639D01*
X82488Y265599D01*
X82517Y265556D01*
X82541Y265509D01*
X82557Y265459D01*
X82568Y265408D01*
X82571Y265355D01*
Y255907D01*
Y255492D01*
X82568Y255439D01*
X82557Y255388D01*
X82343Y254587D01*
X82326Y254537D01*
X82303Y254490D01*
X81888Y253772D01*
X81859Y253729D01*
X81824Y253689D01*
X81238Y253103D01*
X81199Y253068D01*
X81155Y253039D01*
X80437Y252624D01*
X80413Y252613D01*
X80390Y252601D01*
X80340Y252584D01*
X79539Y252370D01*
X79488Y252360D01*
X79435Y252356D01*
X78606D01*
X78554Y252360D01*
X78502Y252370D01*
X77701Y252584D01*
X77652Y252601D01*
X77605Y252624D01*
X76886Y253039D01*
X76843Y253068D01*
X76803Y253103D01*
X76217Y253689D01*
X76182Y253729D01*
X76153Y253772D01*
X75739Y254490D01*
X75727Y254514D01*
X75715Y254537D01*
X75698Y254587D01*
X75484Y255388D01*
X75474Y255440D01*
X75470Y255492D01*
Y255492D01*
D01*
X75470Y255907D01*
Y265355D01*
X75474Y265408D01*
X75484Y265459D01*
X75501Y265509D01*
X75524Y265556D01*
X75553Y265599D01*
X75588Y265639D01*
X75627Y265673D01*
X75671Y265703D01*
X75718Y265726D01*
X75767Y265743D01*
X75819Y265753D01*
X75871Y265756D01*
X82170Y265756D01*
D02*
G37*
G36*
X42170D02*
X42222Y265753D01*
X42274Y265742D01*
X42324Y265726D01*
X42371Y265703D01*
X42414Y265673D01*
X42454Y265639D01*
X42488Y265599D01*
X42517Y265556D01*
X42541Y265509D01*
X42557Y265459D01*
X42568Y265408D01*
X42571Y265355D01*
Y255907D01*
Y255492D01*
X42568Y255439D01*
X42557Y255388D01*
X42343Y254587D01*
X42326Y254537D01*
X42303Y254490D01*
X41888Y253772D01*
X41859Y253729D01*
X41824Y253689D01*
X41238Y253103D01*
X41199Y253068D01*
X41155Y253039D01*
X40437Y252624D01*
X40413Y252613D01*
X40390Y252601D01*
X40340Y252584D01*
X39539Y252370D01*
X39488Y252360D01*
X39435Y252356D01*
X38606D01*
X38554Y252360D01*
X38502Y252370D01*
X37701Y252584D01*
X37652Y252601D01*
X37604Y252624D01*
X36886Y253039D01*
X36843Y253068D01*
X36803Y253103D01*
X36217Y253689D01*
X36182Y253729D01*
X36153Y253772D01*
X35739Y254490D01*
X35727Y254514D01*
X35715Y254537D01*
X35698Y254587D01*
X35484Y255388D01*
X35474Y255440D01*
X35470Y255492D01*
Y255492D01*
D01*
X35470Y255907D01*
Y265355D01*
X35474Y265408D01*
X35484Y265459D01*
X35501Y265509D01*
X35524Y265556D01*
X35553Y265599D01*
X35588Y265639D01*
X35627Y265673D01*
X35671Y265703D01*
X35718Y265726D01*
X35767Y265742D01*
X35819Y265753D01*
X35871Y265756D01*
X42170Y265756D01*
D02*
G37*
G36*
X152170Y265756D02*
X152223Y265753D01*
X152274Y265742D01*
X152324Y265726D01*
X152371Y265703D01*
X152414Y265673D01*
X152454Y265639D01*
X152488Y265599D01*
X152517Y265556D01*
X152541Y265509D01*
X152557Y265459D01*
X152568Y265408D01*
X152571Y265355D01*
Y255907D01*
Y255492D01*
X152568Y255439D01*
X152557Y255388D01*
X152343Y254587D01*
X152326Y254537D01*
X152303Y254490D01*
X151888Y253772D01*
X151859Y253729D01*
X151824Y253689D01*
X151238Y253103D01*
X151198Y253068D01*
X151155Y253039D01*
X150437Y252624D01*
X150413Y252613D01*
X150390Y252601D01*
X150340Y252584D01*
X149539Y252370D01*
X149488Y252360D01*
X149435Y252356D01*
X148606D01*
X148554Y252360D01*
X148502Y252370D01*
X147701Y252584D01*
X147652Y252601D01*
X147605Y252624D01*
X146886Y253039D01*
X146843Y253068D01*
X146803Y253103D01*
X146217Y253689D01*
X146182Y253729D01*
X146153Y253772D01*
X145738Y254490D01*
X145727Y254514D01*
X145715Y254537D01*
X145698Y254587D01*
X145484Y255388D01*
X145474Y255439D01*
X145470Y255492D01*
Y255907D01*
X145470Y255907D01*
X145470Y265355D01*
X145474Y265408D01*
X145484Y265459D01*
X145501Y265509D01*
X145524Y265556D01*
X145553Y265599D01*
X145588Y265639D01*
X145627Y265673D01*
X145671Y265703D01*
X145718Y265726D01*
X145767Y265743D01*
X145819Y265753D01*
X145871Y265756D01*
X152170Y265756D01*
D02*
G37*
G36*
X62170D02*
X62222Y265753D01*
X62274Y265742D01*
X62324Y265726D01*
X62371Y265703D01*
X62414Y265673D01*
X62454Y265639D01*
X62488Y265599D01*
X62517Y265556D01*
X62541Y265509D01*
X62557Y265459D01*
X62568Y265408D01*
X62571Y265355D01*
Y255907D01*
Y255492D01*
X62568Y255439D01*
X62557Y255388D01*
X62343Y254587D01*
X62326Y254537D01*
X62303Y254490D01*
X61888Y253772D01*
X61859Y253729D01*
X61824Y253689D01*
X61238Y253103D01*
X61199Y253068D01*
X61155Y253039D01*
X60437Y252624D01*
X60413Y252613D01*
X60390Y252601D01*
X60340Y252584D01*
X59539Y252370D01*
X59488Y252360D01*
X59435Y252356D01*
X58606D01*
X58554Y252360D01*
X58502Y252370D01*
X57701Y252584D01*
X57652Y252601D01*
X57604Y252624D01*
X56886Y253039D01*
X56843Y253068D01*
X56803Y253103D01*
X56217Y253689D01*
X56182Y253729D01*
X56153Y253772D01*
X55739Y254490D01*
X55727Y254514D01*
X55715Y254537D01*
X55698Y254587D01*
X55484Y255388D01*
X55474Y255439D01*
X55470Y255492D01*
D01*
Y255492D01*
X55470Y255907D01*
Y265355D01*
X55474Y265408D01*
X55484Y265459D01*
X55501Y265509D01*
X55524Y265556D01*
X55553Y265599D01*
X55588Y265639D01*
X55627Y265673D01*
X55671Y265703D01*
X55718Y265726D01*
X55767Y265743D01*
X55819Y265753D01*
X55871Y265756D01*
X62170Y265756D01*
D02*
G37*
G36*
X12170D02*
X12223Y265753D01*
X12274Y265742D01*
X12324Y265726D01*
X12371Y265703D01*
X12414Y265673D01*
X12454Y265639D01*
X12488Y265599D01*
X12517Y265556D01*
X12541Y265509D01*
X12557Y265459D01*
X12568Y265408D01*
X12571Y265355D01*
Y255907D01*
Y255907D01*
Y255492D01*
X12568Y255439D01*
X12557Y255388D01*
X12343Y254587D01*
X12326Y254537D01*
X12303Y254490D01*
X11888Y253772D01*
X11859Y253729D01*
X11824Y253689D01*
X11238Y253103D01*
X11198Y253068D01*
X11155Y253039D01*
X10437Y252624D01*
X10413Y252613D01*
X10390Y252601D01*
X10340Y252584D01*
X9539Y252370D01*
X9488Y252360D01*
X9435Y252356D01*
X8606D01*
X8554Y252360D01*
X8502Y252370D01*
X7701Y252584D01*
X7651Y252601D01*
X7604Y252624D01*
X6886Y253039D01*
X6843Y253068D01*
X6803Y253103D01*
X6217Y253689D01*
X6182Y253729D01*
X6153Y253772D01*
X5739Y254490D01*
X5727Y254514D01*
X5715Y254537D01*
X5698Y254587D01*
X5484Y255388D01*
X5474Y255439D01*
X5470Y255492D01*
Y255907D01*
X5470Y255907D01*
Y265355D01*
X5474Y265408D01*
X5484Y265459D01*
X5501Y265509D01*
X5524Y265556D01*
X5553Y265599D01*
X5588Y265639D01*
X5627Y265673D01*
X5671Y265703D01*
X5718Y265726D01*
X5767Y265743D01*
X5819Y265753D01*
X5871Y265756D01*
X12170Y265756D01*
D02*
G37*
G36*
X207616Y234446D02*
X207668Y234435D01*
X207717Y234419D01*
X207764Y234395D01*
X207808Y234366D01*
X207847Y234332D01*
X207882Y234292D01*
X207911Y234249D01*
X207934Y234202D01*
X207951Y234152D01*
X207961Y234101D01*
X207965Y234048D01*
X207965Y227749D01*
X207961Y227697D01*
X207951Y227645D01*
X207934Y227596D01*
X207911Y227549D01*
X207882Y227505D01*
X207847Y227466D01*
X207808Y227431D01*
X207764Y227402D01*
X207717Y227379D01*
X207668Y227362D01*
X207616Y227352D01*
X207564Y227348D01*
X198115Y227348D01*
X197700D01*
X197648Y227352D01*
X197597Y227362D01*
X196796Y227576D01*
X196746Y227593D01*
X196722Y227605D01*
X196699Y227617D01*
X195981Y228031D01*
X195937Y228060D01*
X195898Y228095D01*
X195311Y228681D01*
X195277Y228721D01*
X195248Y228764D01*
X194833Y229483D01*
X194810Y229530D01*
X194793Y229579D01*
X194578Y230380D01*
X194568Y230432D01*
X194565Y230484D01*
Y231313D01*
X194568Y231366D01*
X194578Y231417D01*
X194793Y232218D01*
X194810Y232268D01*
X194821Y232291D01*
X194833Y232315D01*
X195248Y233033D01*
X195277Y233077D01*
X195311Y233116D01*
X195898Y233702D01*
X195937Y233737D01*
X195981Y233766D01*
X196699Y234181D01*
X196746Y234204D01*
X196796Y234221D01*
X197597Y234435D01*
X197648Y234446D01*
X197700Y234449D01*
X207564D01*
X207616Y234446D01*
D02*
G37*
G36*
X207616Y224446D02*
X207668Y224435D01*
X207717Y224419D01*
X207764Y224395D01*
X207808Y224366D01*
X207847Y224332D01*
X207882Y224292D01*
X207911Y224249D01*
X207934Y224202D01*
X207951Y224152D01*
X207961Y224101D01*
X207965Y224048D01*
Y217749D01*
X207961Y217697D01*
X207951Y217645D01*
X207934Y217596D01*
X207911Y217549D01*
X207882Y217505D01*
X207847Y217466D01*
X207808Y217431D01*
X207764Y217402D01*
X207717Y217379D01*
X207668Y217362D01*
X207616Y217352D01*
X207564Y217348D01*
X198115D01*
X197701Y217348D01*
X197700D01*
D01*
X197648Y217352D01*
X197597Y217362D01*
X196796Y217577D01*
X196746Y217593D01*
X196722Y217605D01*
X196699Y217617D01*
X195981Y218031D01*
X195937Y218060D01*
X195898Y218095D01*
X195311Y218681D01*
X195277Y218721D01*
X195248Y218764D01*
X194833Y219482D01*
X194810Y219530D01*
X194793Y219579D01*
X194578Y220380D01*
X194568Y220432D01*
X194565Y220484D01*
Y221313D01*
X194568Y221366D01*
X194578Y221417D01*
X194793Y222218D01*
X194810Y222268D01*
X194821Y222291D01*
X194833Y222315D01*
X195248Y223033D01*
X195277Y223077D01*
X195311Y223116D01*
X195898Y223702D01*
X195937Y223737D01*
X195981Y223766D01*
X196699Y224181D01*
X196746Y224204D01*
X196796Y224221D01*
X197597Y224435D01*
X197648Y224446D01*
X197700Y224449D01*
X207564D01*
X207616Y224446D01*
D02*
G37*
G36*
Y214446D02*
X207668Y214435D01*
X207717Y214419D01*
X207764Y214395D01*
X207808Y214366D01*
X207847Y214332D01*
X207882Y214292D01*
X207911Y214249D01*
X207934Y214202D01*
X207951Y214152D01*
X207961Y214101D01*
X207965Y214048D01*
X207965Y207749D01*
X207961Y207697D01*
X207951Y207645D01*
X207934Y207596D01*
X207911Y207549D01*
X207882Y207505D01*
X207847Y207466D01*
X207808Y207431D01*
X207764Y207402D01*
X207717Y207379D01*
X207668Y207362D01*
X207616Y207352D01*
X207564Y207348D01*
X197700D01*
X197648Y207352D01*
X197597Y207362D01*
X196796Y207576D01*
X196746Y207593D01*
X196722Y207605D01*
X196699Y207616D01*
X195981Y208031D01*
X195937Y208060D01*
X195898Y208095D01*
X195311Y208681D01*
X195277Y208721D01*
X195248Y208764D01*
X194833Y209483D01*
X194810Y209529D01*
X194793Y209579D01*
X194578Y210380D01*
X194568Y210432D01*
X194565Y210484D01*
Y211313D01*
X194568Y211366D01*
X194578Y211417D01*
X194793Y212218D01*
X194810Y212268D01*
X194821Y212291D01*
X194833Y212315D01*
X195248Y213033D01*
X195277Y213076D01*
X195311Y213116D01*
X195898Y213702D01*
X195937Y213737D01*
X195981Y213766D01*
X196699Y214181D01*
X196746Y214204D01*
X196796Y214221D01*
X197597Y214435D01*
X197648Y214446D01*
X197700Y214449D01*
X198115D01*
X207564Y214449D01*
X207616Y214446D01*
D02*
G37*
G36*
X199488Y189438D02*
X199539Y189428D01*
X200340Y189213D01*
X200390Y189196D01*
X200437Y189173D01*
X201155Y188758D01*
X201199Y188729D01*
X201238Y188695D01*
X201824Y188108D01*
X201859Y188069D01*
X201888Y188025D01*
X202303Y187307D01*
X202326Y187260D01*
X202343Y187210D01*
X202557Y186409D01*
X202568Y186358D01*
X202571Y186305D01*
Y185891D01*
X202571Y185891D01*
Y176442D01*
X202568Y176390D01*
X202557Y176338D01*
X202541Y176289D01*
X202517Y176242D01*
X202488Y176198D01*
X202454Y176158D01*
X202414Y176124D01*
X202371Y176095D01*
X202324Y176072D01*
X202274Y176055D01*
X202222Y176044D01*
X202170Y176041D01*
X195871Y176041D01*
X195819Y176044D01*
X195767Y176055D01*
X195718Y176072D01*
X195671Y176095D01*
X195627Y176124D01*
X195588Y176158D01*
X195553Y176198D01*
X195524Y176242D01*
X195501Y176289D01*
X195484Y176338D01*
X195474Y176390D01*
X195470Y176442D01*
Y185890D01*
X195470Y185891D01*
Y186305D01*
X195474Y186358D01*
X195484Y186409D01*
X195698Y187210D01*
X195715Y187260D01*
X195727Y187283D01*
X195738Y187307D01*
X196153Y188025D01*
X196182Y188069D01*
X196217Y188108D01*
X196803Y188695D01*
X196843Y188729D01*
X196886Y188758D01*
X197605Y189173D01*
X197652Y189196D01*
X197701Y189213D01*
X198502Y189428D01*
X198554Y189438D01*
X198606Y189441D01*
X199435D01*
X199488Y189438D01*
D02*
G37*
G36*
X189488Y189438D02*
X189539Y189428D01*
X190340Y189213D01*
X190390Y189196D01*
X190437Y189173D01*
X191155Y188758D01*
X191199Y188729D01*
X191238Y188695D01*
X191824Y188108D01*
X191859Y188069D01*
X191888Y188025D01*
X192303Y187307D01*
X192326Y187260D01*
X192343Y187210D01*
X192557Y186409D01*
X192568Y186358D01*
X192571Y186305D01*
Y185891D01*
Y176442D01*
X192568Y176390D01*
X192557Y176338D01*
X192541Y176289D01*
X192517Y176242D01*
X192488Y176198D01*
X192454Y176158D01*
X192414Y176124D01*
X192371Y176095D01*
X192324Y176072D01*
X192274Y176055D01*
X192222Y176044D01*
X192170Y176041D01*
X185871D01*
X185819Y176044D01*
X185767Y176055D01*
X185718Y176072D01*
X185671Y176095D01*
X185627Y176124D01*
X185588Y176158D01*
X185553Y176198D01*
X185524Y176242D01*
X185501Y176289D01*
X185484Y176338D01*
X185474Y176390D01*
X185470Y176442D01*
Y185891D01*
X185470Y186305D01*
D01*
Y186305D01*
X185474Y186358D01*
X185484Y186409D01*
X185698Y187210D01*
X185715Y187260D01*
X185727Y187283D01*
X185739Y187307D01*
X186153Y188025D01*
X186182Y188069D01*
X186217Y188108D01*
X186803Y188695D01*
X186843Y188729D01*
X186886Y188758D01*
X187604Y189173D01*
X187652Y189196D01*
X187701Y189213D01*
X188502Y189428D01*
X188554Y189438D01*
X188606Y189441D01*
X189435D01*
X189488Y189438D01*
D02*
G37*
G36*
X179488Y189438D02*
X179539Y189428D01*
X180340Y189213D01*
X180390Y189196D01*
X180437Y189173D01*
X181155Y188758D01*
X181199Y188729D01*
X181238Y188695D01*
X181824Y188108D01*
X181859Y188069D01*
X181888Y188025D01*
X182303Y187307D01*
X182326Y187260D01*
X182343Y187210D01*
X182557Y186409D01*
X182568Y186358D01*
X182571Y186305D01*
Y185891D01*
X182571Y176442D01*
X182568Y176390D01*
X182557Y176338D01*
X182541Y176289D01*
X182517Y176242D01*
X182488Y176198D01*
X182454Y176158D01*
X182414Y176124D01*
X182371Y176095D01*
X182324Y176072D01*
X182274Y176055D01*
X182222Y176044D01*
X182170Y176041D01*
X175871D01*
X175819Y176044D01*
X175767Y176055D01*
X175718Y176072D01*
X175671Y176095D01*
X175627Y176124D01*
X175588Y176158D01*
X175553Y176198D01*
X175524Y176242D01*
X175501Y176289D01*
X175484Y176338D01*
X175474Y176390D01*
X175470Y176442D01*
Y185891D01*
X175470Y186305D01*
Y186305D01*
D01*
X175474Y186358D01*
X175484Y186409D01*
X175698Y187210D01*
X175715Y187260D01*
X175727Y187283D01*
X175739Y187307D01*
X176153Y188025D01*
X176182Y188069D01*
X176217Y188108D01*
X176803Y188695D01*
X176843Y188729D01*
X176886Y188758D01*
X177604Y189173D01*
X177652Y189196D01*
X177701Y189213D01*
X178502Y189428D01*
X178554Y189438D01*
X178606Y189441D01*
X179435D01*
X179488Y189438D01*
D02*
G37*
G36*
X159488Y189438D02*
X159539Y189428D01*
X160340Y189213D01*
X160390Y189196D01*
X160437Y189173D01*
X161155Y188758D01*
X161198Y188729D01*
X161238Y188695D01*
X161824Y188108D01*
X161859Y188069D01*
X161888Y188025D01*
X162303Y187307D01*
X162326Y187260D01*
X162343Y187210D01*
X162557Y186409D01*
X162568Y186358D01*
X162571Y186305D01*
Y185891D01*
X162571Y185891D01*
X162571Y176442D01*
X162568Y176390D01*
X162557Y176338D01*
X162541Y176289D01*
X162517Y176242D01*
X162488Y176198D01*
X162454Y176158D01*
X162414Y176124D01*
X162371Y176095D01*
X162324Y176072D01*
X162274Y176055D01*
X162223Y176044D01*
X162170Y176041D01*
X155871Y176041D01*
X155819Y176044D01*
X155767Y176055D01*
X155718Y176072D01*
X155671Y176095D01*
X155627Y176124D01*
X155588Y176158D01*
X155553Y176198D01*
X155524Y176242D01*
X155501Y176289D01*
X155484Y176338D01*
X155474Y176390D01*
X155470Y176442D01*
Y185891D01*
X155470Y186305D01*
D01*
Y186305D01*
X155474Y186358D01*
X155484Y186409D01*
X155698Y187210D01*
X155715Y187260D01*
X155727Y187283D01*
X155738Y187307D01*
X156153Y188025D01*
X156182Y188069D01*
X156217Y188108D01*
X156803Y188695D01*
X156843Y188729D01*
X156886Y188758D01*
X157605Y189173D01*
X157651Y189196D01*
X157701Y189213D01*
X158502Y189428D01*
X158554Y189438D01*
X158606Y189441D01*
X159435D01*
X159488Y189438D01*
D02*
G37*
G36*
X129488Y189438D02*
X129539Y189428D01*
X130340Y189213D01*
X130390Y189196D01*
X130437Y189173D01*
X131155Y188758D01*
X131199Y188729D01*
X131238Y188695D01*
X131824Y188108D01*
X131859Y188069D01*
X131888Y188025D01*
X132303Y187307D01*
X132326Y187260D01*
X132343Y187210D01*
X132557Y186409D01*
X132568Y186358D01*
X132571Y186305D01*
Y185891D01*
Y176442D01*
X132568Y176390D01*
X132557Y176338D01*
X132541Y176289D01*
X132517Y176242D01*
X132488Y176198D01*
X132454Y176158D01*
X132414Y176124D01*
X132371Y176095D01*
X132324Y176072D01*
X132274Y176055D01*
X132222Y176044D01*
X132170Y176041D01*
X125871Y176041D01*
X125819Y176044D01*
X125767Y176055D01*
X125718Y176072D01*
X125671Y176095D01*
X125627Y176124D01*
X125588Y176158D01*
X125553Y176198D01*
X125524Y176242D01*
X125501Y176289D01*
X125484Y176338D01*
X125474Y176390D01*
X125470Y176442D01*
Y185891D01*
X125470Y186305D01*
Y186305D01*
D01*
X125474Y186358D01*
X125484Y186409D01*
X125698Y187210D01*
X125715Y187260D01*
X125727Y187283D01*
X125739Y187307D01*
X126153Y188025D01*
X126182Y188069D01*
X126217Y188108D01*
X126803Y188695D01*
X126843Y188729D01*
X126886Y188758D01*
X127604Y189173D01*
X127652Y189196D01*
X127701Y189213D01*
X128502Y189428D01*
X128554Y189438D01*
X128606Y189441D01*
X129435D01*
X129488Y189438D01*
D02*
G37*
G36*
X109488Y189438D02*
X109539Y189428D01*
X110340Y189213D01*
X110390Y189196D01*
X110437Y189173D01*
X111155Y188758D01*
X111198Y188729D01*
X111238Y188695D01*
X111824Y188108D01*
X111859Y188069D01*
X111888Y188025D01*
X112303Y187307D01*
X112326Y187260D01*
X112343Y187210D01*
X112557Y186409D01*
X112568Y186358D01*
X112571Y186305D01*
Y185891D01*
X112571Y176442D01*
X112568Y176390D01*
X112557Y176338D01*
X112541Y176289D01*
X112517Y176242D01*
X112488Y176198D01*
X112454Y176158D01*
X112414Y176124D01*
X112371Y176095D01*
X112324Y176072D01*
X112274Y176055D01*
X112223Y176044D01*
X112170Y176041D01*
X105871Y176041D01*
X105819Y176044D01*
X105767Y176055D01*
X105718Y176072D01*
X105671Y176095D01*
X105627Y176124D01*
X105588Y176158D01*
X105553Y176198D01*
X105524Y176242D01*
X105501Y176289D01*
X105484Y176338D01*
X105474Y176390D01*
X105470Y176442D01*
Y185890D01*
X105470Y185891D01*
Y186305D01*
X105474Y186358D01*
X105484Y186409D01*
X105698Y187210D01*
X105715Y187260D01*
X105727Y187283D01*
X105738Y187307D01*
X106153Y188025D01*
X106182Y188069D01*
X106217Y188108D01*
X106803Y188695D01*
X106843Y188729D01*
X106886Y188758D01*
X107605Y189173D01*
X107651Y189196D01*
X107701Y189213D01*
X108502Y189428D01*
X108554Y189438D01*
X108606Y189441D01*
X109435D01*
X109488Y189438D01*
D02*
G37*
G36*
X99488D02*
X99539Y189428D01*
X100340Y189213D01*
X100390Y189196D01*
X100437Y189173D01*
X101155Y188758D01*
X101198Y188729D01*
X101238Y188695D01*
X101824Y188108D01*
X101859Y188069D01*
X101888Y188025D01*
X102303Y187307D01*
X102326Y187260D01*
X102343Y187210D01*
X102557Y186409D01*
X102568Y186358D01*
X102571Y186305D01*
Y185891D01*
X102571Y185891D01*
Y176442D01*
X102568Y176390D01*
X102557Y176338D01*
X102541Y176289D01*
X102517Y176242D01*
X102488Y176198D01*
X102454Y176158D01*
X102414Y176124D01*
X102371Y176095D01*
X102324Y176072D01*
X102274Y176055D01*
X102223Y176044D01*
X102170Y176041D01*
X95871D01*
X95819Y176044D01*
X95767Y176055D01*
X95718Y176072D01*
X95671Y176095D01*
X95627Y176124D01*
X95588Y176158D01*
X95553Y176198D01*
X95524Y176242D01*
X95501Y176289D01*
X95484Y176338D01*
X95474Y176390D01*
X95470Y176442D01*
Y185891D01*
Y186305D01*
X95474Y186358D01*
X95484Y186409D01*
X95698Y187210D01*
X95715Y187260D01*
X95727Y187283D01*
X95739Y187307D01*
X96153Y188025D01*
X96182Y188069D01*
X96217Y188108D01*
X96803Y188695D01*
X96843Y188729D01*
X96886Y188758D01*
X97605Y189173D01*
X97651Y189196D01*
X97701Y189213D01*
X98502Y189428D01*
X98554Y189438D01*
X98606Y189441D01*
X99435D01*
X99488Y189438D01*
D02*
G37*
G36*
X89488Y189438D02*
X89539Y189428D01*
X90340Y189213D01*
X90390Y189196D01*
X90437Y189173D01*
X91155Y188758D01*
X91198Y188729D01*
X91238Y188695D01*
X91824Y188108D01*
X91859Y188069D01*
X91888Y188025D01*
X92303Y187307D01*
X92326Y187260D01*
X92343Y187210D01*
X92557Y186409D01*
X92568Y186358D01*
X92571Y186305D01*
Y185891D01*
X92571Y176442D01*
X92568Y176390D01*
X92557Y176338D01*
X92541Y176289D01*
X92517Y176242D01*
X92488Y176198D01*
X92454Y176158D01*
X92414Y176124D01*
X92371Y176095D01*
X92324Y176072D01*
X92274Y176055D01*
X92222Y176044D01*
X92170Y176041D01*
X85871D01*
X85819Y176044D01*
X85767Y176055D01*
X85718Y176072D01*
X85671Y176095D01*
X85627Y176124D01*
X85588Y176158D01*
X85553Y176198D01*
X85524Y176242D01*
X85501Y176289D01*
X85484Y176338D01*
X85474Y176390D01*
X85470Y176442D01*
Y185891D01*
X85470Y186305D01*
Y186305D01*
D01*
X85474Y186358D01*
X85484Y186409D01*
X85698Y187210D01*
X85715Y187260D01*
X85727Y187283D01*
X85738Y187307D01*
X86153Y188025D01*
X86182Y188069D01*
X86217Y188108D01*
X86803Y188695D01*
X86843Y188729D01*
X86886Y188758D01*
X87604Y189173D01*
X87651Y189196D01*
X87701Y189213D01*
X88502Y189428D01*
X88554Y189438D01*
X88606Y189441D01*
X89435D01*
X89488Y189438D01*
D02*
G37*
G36*
X79488D02*
X79539Y189428D01*
X80340Y189213D01*
X80390Y189196D01*
X80437Y189173D01*
X81155Y188758D01*
X81199Y188729D01*
X81238Y188695D01*
X81824Y188108D01*
X81859Y188069D01*
X81888Y188025D01*
X82303Y187307D01*
X82326Y187260D01*
X82343Y187210D01*
X82557Y186409D01*
X82568Y186358D01*
X82571Y186305D01*
Y185891D01*
Y176442D01*
X82568Y176390D01*
X82557Y176338D01*
X82541Y176289D01*
X82517Y176242D01*
X82488Y176198D01*
X82454Y176158D01*
X82414Y176124D01*
X82371Y176095D01*
X82324Y176072D01*
X82274Y176055D01*
X82222Y176044D01*
X82170Y176041D01*
X75871Y176041D01*
X75819Y176044D01*
X75767Y176055D01*
X75718Y176072D01*
X75671Y176095D01*
X75627Y176124D01*
X75588Y176158D01*
X75553Y176198D01*
X75524Y176242D01*
X75501Y176289D01*
X75484Y176338D01*
X75474Y176390D01*
X75470Y176442D01*
Y185891D01*
X75470Y186305D01*
Y186305D01*
D01*
X75474Y186358D01*
X75484Y186409D01*
X75698Y187210D01*
X75715Y187260D01*
X75727Y187283D01*
X75739Y187307D01*
X76153Y188025D01*
X76182Y188069D01*
X76217Y188108D01*
X76803Y188695D01*
X76843Y188729D01*
X76886Y188758D01*
X77605Y189173D01*
X77652Y189196D01*
X77701Y189213D01*
X78502Y189428D01*
X78554Y189438D01*
X78606Y189441D01*
X79435D01*
X79488Y189438D01*
D02*
G37*
G36*
X69488Y189438D02*
X69539Y189428D01*
X70340Y189213D01*
X70390Y189196D01*
X70437Y189173D01*
X71155Y188758D01*
X71198Y188729D01*
X71238Y188695D01*
X71824Y188108D01*
X71859Y188069D01*
X71888Y188025D01*
X72303Y187307D01*
X72326Y187260D01*
X72343Y187210D01*
X72557Y186409D01*
X72568Y186358D01*
X72571Y186305D01*
Y185891D01*
Y176442D01*
X72568Y176390D01*
X72557Y176338D01*
X72541Y176289D01*
X72517Y176242D01*
X72488Y176198D01*
X72454Y176158D01*
X72414Y176124D01*
X72371Y176095D01*
X72324Y176072D01*
X72274Y176055D01*
X72223Y176044D01*
X72170Y176041D01*
X65871D01*
X65819Y176044D01*
X65767Y176055D01*
X65718Y176072D01*
X65671Y176095D01*
X65627Y176124D01*
X65588Y176158D01*
X65553Y176198D01*
X65524Y176242D01*
X65501Y176289D01*
X65484Y176338D01*
X65474Y176390D01*
X65470Y176442D01*
X65470Y185891D01*
X65470Y186305D01*
D01*
Y186305D01*
X65474Y186358D01*
X65484Y186409D01*
X65698Y187210D01*
X65715Y187260D01*
X65727Y187283D01*
X65738Y187307D01*
X66153Y188025D01*
X66182Y188069D01*
X66217Y188108D01*
X66803Y188695D01*
X66843Y188729D01*
X66886Y188758D01*
X67605Y189173D01*
X67651Y189196D01*
X67701Y189213D01*
X68502Y189428D01*
X68554Y189438D01*
X68606Y189441D01*
X69435D01*
X69488Y189438D01*
D02*
G37*
G36*
X59488Y189438D02*
X59539Y189428D01*
X60340Y189213D01*
X60390Y189196D01*
X60437Y189173D01*
X61155Y188758D01*
X61199Y188729D01*
X61238Y188695D01*
X61824Y188108D01*
X61859Y188069D01*
X61888Y188025D01*
X62303Y187307D01*
X62326Y187260D01*
X62343Y187210D01*
X62557Y186409D01*
X62568Y186358D01*
X62571Y186305D01*
Y185891D01*
Y176442D01*
X62568Y176390D01*
X62557Y176338D01*
X62541Y176289D01*
X62517Y176242D01*
X62488Y176198D01*
X62454Y176158D01*
X62414Y176124D01*
X62371Y176095D01*
X62324Y176072D01*
X62274Y176055D01*
X62222Y176044D01*
X62170Y176041D01*
X55871Y176041D01*
X55819Y176044D01*
X55767Y176055D01*
X55718Y176072D01*
X55671Y176095D01*
X55627Y176124D01*
X55588Y176158D01*
X55553Y176198D01*
X55524Y176242D01*
X55501Y176289D01*
X55484Y176338D01*
X55474Y176390D01*
X55470Y176442D01*
Y185891D01*
X55470Y186305D01*
D01*
Y186305D01*
X55474Y186358D01*
X55484Y186409D01*
X55698Y187210D01*
X55715Y187260D01*
X55727Y187283D01*
X55739Y187307D01*
X56153Y188025D01*
X56182Y188069D01*
X56217Y188108D01*
X56803Y188695D01*
X56843Y188729D01*
X56886Y188758D01*
X57604Y189173D01*
X57652Y189196D01*
X57701Y189213D01*
X58502Y189428D01*
X58554Y189438D01*
X58606Y189441D01*
X59435D01*
X59488Y189438D01*
D02*
G37*
G36*
X49488Y189438D02*
X49539Y189428D01*
X50340Y189213D01*
X50390Y189196D01*
X50437Y189173D01*
X51155Y188758D01*
X51199Y188729D01*
X51238Y188695D01*
X51824Y188108D01*
X51859Y188069D01*
X51888Y188025D01*
X52303Y187307D01*
X52326Y187260D01*
X52343Y187210D01*
X52557Y186409D01*
X52568Y186358D01*
X52571Y186305D01*
Y185891D01*
Y176442D01*
X52568Y176390D01*
X52557Y176338D01*
X52541Y176289D01*
X52517Y176242D01*
X52488Y176198D01*
X52454Y176158D01*
X52414Y176124D01*
X52371Y176095D01*
X52324Y176072D01*
X52274Y176055D01*
X52223Y176044D01*
X52170Y176041D01*
X45871D01*
X45819Y176044D01*
X45767Y176055D01*
X45718Y176072D01*
X45671Y176095D01*
X45627Y176124D01*
X45588Y176158D01*
X45553Y176198D01*
X45524Y176242D01*
X45501Y176289D01*
X45484Y176338D01*
X45474Y176390D01*
X45470Y176442D01*
X45470Y185891D01*
Y186305D01*
X45474Y186358D01*
X45484Y186409D01*
X45698Y187210D01*
X45715Y187260D01*
X45727Y187283D01*
X45739Y187307D01*
X46153Y188025D01*
X46182Y188069D01*
X46217Y188108D01*
X46803Y188695D01*
X46843Y188729D01*
X46886Y188758D01*
X47605Y189173D01*
X47651Y189196D01*
X47701Y189213D01*
X48502Y189428D01*
X48554Y189438D01*
X48606Y189441D01*
X49435D01*
X49488Y189438D01*
D02*
G37*
G36*
X39488Y189438D02*
X39539Y189428D01*
X40340Y189213D01*
X40390Y189196D01*
X40437Y189173D01*
X41155Y188758D01*
X41199Y188729D01*
X41238Y188695D01*
X41824Y188108D01*
X41859Y188069D01*
X41888Y188025D01*
X42303Y187307D01*
X42326Y187260D01*
X42343Y187210D01*
X42557Y186409D01*
X42568Y186358D01*
X42571Y186305D01*
Y185891D01*
Y176442D01*
X42568Y176390D01*
X42557Y176338D01*
X42541Y176289D01*
X42517Y176242D01*
X42488Y176198D01*
X42454Y176158D01*
X42414Y176124D01*
X42371Y176095D01*
X42324Y176072D01*
X42274Y176055D01*
X42222Y176044D01*
X42170Y176041D01*
X35871Y176041D01*
X35819Y176044D01*
X35767Y176055D01*
X35718Y176072D01*
X35671Y176095D01*
X35627Y176124D01*
X35588Y176158D01*
X35553Y176198D01*
X35524Y176242D01*
X35501Y176289D01*
X35484Y176338D01*
X35474Y176390D01*
X35470Y176442D01*
Y185891D01*
X35470Y186305D01*
Y186305D01*
D01*
X35474Y186358D01*
X35484Y186409D01*
X35698Y187210D01*
X35715Y187260D01*
X35727Y187283D01*
X35739Y187307D01*
X36153Y188025D01*
X36182Y188069D01*
X36217Y188108D01*
X36803Y188695D01*
X36843Y188729D01*
X36886Y188758D01*
X37604Y189173D01*
X37652Y189196D01*
X37701Y189213D01*
X38502Y189428D01*
X38554Y189438D01*
X38606Y189441D01*
X39435D01*
X39488Y189438D01*
D02*
G37*
G36*
X19488Y189438D02*
X19539Y189428D01*
X20340Y189213D01*
X20390Y189196D01*
X20437Y189173D01*
X21155Y188758D01*
X21199Y188729D01*
X21238Y188695D01*
X21824Y188108D01*
X21859Y188069D01*
X21888Y188025D01*
X22303Y187307D01*
X22326Y187260D01*
X22343Y187210D01*
X22557Y186409D01*
X22568Y186358D01*
X22571Y186305D01*
Y185891D01*
X22571Y176442D01*
X22568Y176390D01*
X22557Y176338D01*
X22541Y176289D01*
X22517Y176242D01*
X22488Y176198D01*
X22454Y176158D01*
X22414Y176124D01*
X22371Y176095D01*
X22324Y176072D01*
X22274Y176055D01*
X22222Y176044D01*
X22170Y176041D01*
X15871Y176041D01*
X15819Y176044D01*
X15767Y176055D01*
X15718Y176072D01*
X15671Y176095D01*
X15627Y176124D01*
X15588Y176158D01*
X15553Y176198D01*
X15524Y176242D01*
X15501Y176289D01*
X15484Y176338D01*
X15474Y176390D01*
X15470Y176442D01*
Y185890D01*
X15470Y185891D01*
Y186305D01*
X15474Y186358D01*
X15484Y186409D01*
X15698Y187210D01*
X15715Y187260D01*
X15727Y187283D01*
X15739Y187307D01*
X16153Y188025D01*
X16182Y188069D01*
X16217Y188108D01*
X16803Y188695D01*
X16843Y188729D01*
X16886Y188758D01*
X17605Y189173D01*
X17651Y189196D01*
X17701Y189213D01*
X18502Y189428D01*
X18554Y189438D01*
X18606Y189441D01*
X19435D01*
X19488Y189438D01*
D02*
G37*
G36*
X9488Y189438D02*
X9539Y189428D01*
X10340Y189213D01*
X10390Y189196D01*
X10437Y189173D01*
X11155Y188758D01*
X11198Y188729D01*
X11238Y188695D01*
X11824Y188108D01*
X11859Y188069D01*
X11888Y188025D01*
X12303Y187307D01*
X12326Y187260D01*
X12343Y187210D01*
X12557Y186409D01*
X12568Y186358D01*
X12571Y186305D01*
Y185891D01*
Y185891D01*
Y176442D01*
X12568Y176390D01*
X12557Y176338D01*
X12541Y176289D01*
X12517Y176242D01*
X12488Y176198D01*
X12454Y176158D01*
X12414Y176124D01*
X12371Y176095D01*
X12324Y176072D01*
X12274Y176055D01*
X12223Y176044D01*
X12170Y176041D01*
X5871D01*
X5819Y176044D01*
X5767Y176055D01*
X5718Y176072D01*
X5671Y176095D01*
X5627Y176124D01*
X5588Y176158D01*
X5553Y176198D01*
X5524Y176242D01*
X5501Y176289D01*
X5484Y176338D01*
X5474Y176390D01*
X5470Y176442D01*
Y185891D01*
X5470Y186305D01*
D01*
Y186305D01*
X5474Y186358D01*
X5484Y186409D01*
X5698Y187210D01*
X5715Y187260D01*
X5727Y187283D01*
X5739Y187307D01*
X6153Y188025D01*
X6182Y188069D01*
X6217Y188108D01*
X6803Y188695D01*
X6843Y188729D01*
X6886Y188758D01*
X7604Y189173D01*
X7651Y189196D01*
X7701Y189213D01*
X8502Y189428D01*
X8554Y189438D01*
X8606Y189441D01*
X9435D01*
X9488Y189438D01*
D02*
G37*
G36*
X169488Y189438D02*
X169539Y189428D01*
X170340Y189213D01*
X170390Y189196D01*
X170437Y189173D01*
X171155Y188758D01*
X171198Y188729D01*
X171238Y188695D01*
X171824Y188108D01*
X171859Y188069D01*
X171888Y188025D01*
X172303Y187307D01*
X172326Y187260D01*
X172343Y187210D01*
X172557Y186409D01*
X172568Y186358D01*
X172571Y186305D01*
Y185891D01*
Y176442D01*
X172568Y176390D01*
X172557Y176338D01*
X172541Y176288D01*
X172517Y176242D01*
X172488Y176198D01*
X172454Y176158D01*
X172414Y176124D01*
X172371Y176095D01*
X172324Y176072D01*
X172274Y176055D01*
X172222Y176044D01*
X172170Y176041D01*
X165871Y176041D01*
X165819Y176044D01*
X165767Y176055D01*
X165718Y176072D01*
X165671Y176095D01*
X165627Y176124D01*
X165588Y176158D01*
X165553Y176198D01*
X165524Y176242D01*
X165501Y176289D01*
X165484Y176338D01*
X165474Y176390D01*
X165470Y176442D01*
Y185891D01*
X165470Y186305D01*
Y186305D01*
D01*
X165474Y186358D01*
X165484Y186409D01*
X165698Y187210D01*
X165715Y187260D01*
X165727Y187283D01*
X165738Y187307D01*
X166153Y188025D01*
X166182Y188069D01*
X166217Y188108D01*
X166803Y188695D01*
X166843Y188729D01*
X166886Y188758D01*
X167604Y189173D01*
X167651Y189196D01*
X167701Y189213D01*
X168502Y189428D01*
X168554Y189438D01*
X168606Y189441D01*
X169435D01*
X169488Y189438D01*
D02*
G37*
G36*
X149488Y189438D02*
X149539Y189428D01*
X150340Y189213D01*
X150390Y189196D01*
X150437Y189173D01*
X151155Y188758D01*
X151198Y188729D01*
X151238Y188695D01*
X151824Y188108D01*
X151859Y188069D01*
X151888Y188025D01*
X152303Y187307D01*
X152326Y187260D01*
X152343Y187210D01*
X152557Y186409D01*
X152568Y186358D01*
X152571Y186305D01*
Y185891D01*
Y176442D01*
X152568Y176390D01*
X152557Y176338D01*
X152541Y176289D01*
X152517Y176242D01*
X152488Y176198D01*
X152454Y176158D01*
X152414Y176124D01*
X152371Y176095D01*
X152324Y176072D01*
X152274Y176055D01*
X152223Y176044D01*
X152170Y176041D01*
X145871Y176041D01*
X145819Y176044D01*
X145767Y176055D01*
X145718Y176072D01*
X145671Y176095D01*
X145627Y176124D01*
X145588Y176158D01*
X145553Y176198D01*
X145524Y176242D01*
X145501Y176288D01*
X145484Y176338D01*
X145474Y176390D01*
X145470Y176442D01*
Y185891D01*
X145470Y186305D01*
D01*
Y186305D01*
X145474Y186358D01*
X145484Y186409D01*
X145698Y187210D01*
X145715Y187260D01*
X145727Y187283D01*
X145738Y187307D01*
X146153Y188025D01*
X146182Y188069D01*
X146217Y188108D01*
X146803Y188695D01*
X146843Y188729D01*
X146886Y188758D01*
X147605Y189173D01*
X147652Y189196D01*
X147701Y189213D01*
X148502Y189428D01*
X148554Y189438D01*
X148606Y189441D01*
X149435D01*
X149488Y189438D01*
D02*
G37*
G36*
X139488Y189438D02*
X139539Y189428D01*
X140340Y189213D01*
X140390Y189196D01*
X140437Y189173D01*
X141155Y188758D01*
X141199Y188729D01*
X141238Y188695D01*
X141824Y188108D01*
X141859Y188069D01*
X141888Y188025D01*
X142303Y187307D01*
X142326Y187260D01*
X142343Y187210D01*
X142557Y186409D01*
X142568Y186358D01*
X142571Y186305D01*
Y185891D01*
Y176442D01*
X142568Y176390D01*
X142557Y176338D01*
X142541Y176288D01*
X142517Y176242D01*
X142488Y176198D01*
X142454Y176158D01*
X142414Y176124D01*
X142371Y176095D01*
X142324Y176072D01*
X142274Y176055D01*
X142222Y176044D01*
X142170Y176041D01*
X135871Y176041D01*
X135819Y176044D01*
X135767Y176055D01*
X135718Y176072D01*
X135671Y176095D01*
X135627Y176124D01*
X135588Y176158D01*
X135553Y176198D01*
X135524Y176242D01*
X135501Y176289D01*
X135484Y176338D01*
X135474Y176390D01*
X135470Y176442D01*
X135470Y185891D01*
Y186305D01*
X135474Y186358D01*
X135484Y186409D01*
X135698Y187210D01*
X135715Y187260D01*
X135727Y187283D01*
X135739Y187307D01*
X136153Y188025D01*
X136182Y188069D01*
X136217Y188108D01*
X136803Y188695D01*
X136843Y188729D01*
X136886Y188758D01*
X137604Y189173D01*
X137652Y189196D01*
X137701Y189213D01*
X138502Y189428D01*
X138554Y189438D01*
X138606Y189441D01*
X139435D01*
X139488Y189438D01*
D02*
G37*
G36*
X119488D02*
X119539Y189428D01*
X120340Y189213D01*
X120390Y189196D01*
X120437Y189173D01*
X121155Y188758D01*
X121198Y188729D01*
X121238Y188695D01*
X121824Y188108D01*
X121859Y188069D01*
X121888Y188025D01*
X122303Y187307D01*
X122326Y187260D01*
X122343Y187210D01*
X122557Y186409D01*
X122568Y186358D01*
X122571Y186305D01*
Y185891D01*
Y176442D01*
X122568Y176390D01*
X122557Y176338D01*
X122541Y176289D01*
X122517Y176242D01*
X122488Y176198D01*
X122454Y176158D01*
X122414Y176124D01*
X122371Y176095D01*
X122324Y176072D01*
X122274Y176055D01*
X122222Y176044D01*
X122170Y176041D01*
X115871Y176041D01*
X115819Y176044D01*
X115767Y176055D01*
X115718Y176072D01*
X115671Y176095D01*
X115627Y176124D01*
X115588Y176158D01*
X115553Y176198D01*
X115524Y176242D01*
X115501Y176288D01*
X115484Y176338D01*
X115474Y176390D01*
X115470Y176442D01*
Y185891D01*
X115470Y186305D01*
Y186305D01*
D01*
X115474Y186358D01*
X115484Y186409D01*
X115698Y187210D01*
X115715Y187260D01*
X115727Y187283D01*
X115738Y187307D01*
X116153Y188025D01*
X116182Y188069D01*
X116217Y188108D01*
X116803Y188695D01*
X116843Y188729D01*
X116886Y188758D01*
X117604Y189173D01*
X117651Y189196D01*
X117701Y189213D01*
X118502Y189428D01*
X118554Y189438D01*
X118606Y189441D01*
X119435D01*
X119488Y189438D01*
D02*
G37*
G36*
X29488D02*
X29539Y189428D01*
X30340Y189213D01*
X30390Y189196D01*
X30437Y189173D01*
X31155Y188758D01*
X31198Y188729D01*
X31238Y188695D01*
X31824Y188108D01*
X31859Y188069D01*
X31888Y188025D01*
X32303Y187307D01*
X32326Y187260D01*
X32343Y187210D01*
X32557Y186409D01*
X32568Y186358D01*
X32571Y186305D01*
Y185891D01*
Y176442D01*
X32568Y176390D01*
X32557Y176338D01*
X32541Y176289D01*
X32517Y176242D01*
X32488Y176198D01*
X32454Y176158D01*
X32414Y176124D01*
X32371Y176095D01*
X32324Y176072D01*
X32274Y176055D01*
X32223Y176044D01*
X32170Y176041D01*
X25871Y176041D01*
X25819Y176044D01*
X25767Y176055D01*
X25718Y176072D01*
X25671Y176095D01*
X25627Y176124D01*
X25588Y176158D01*
X25553Y176198D01*
X25524Y176242D01*
X25501Y176288D01*
X25484Y176338D01*
X25474Y176390D01*
X25470Y176442D01*
Y185891D01*
X25470Y186305D01*
Y186305D01*
D01*
X25474Y186358D01*
X25484Y186409D01*
X25698Y187210D01*
X25715Y187260D01*
X25727Y187283D01*
X25738Y187307D01*
X26153Y188025D01*
X26182Y188069D01*
X26217Y188108D01*
X26803Y188695D01*
X26843Y188729D01*
X26886Y188758D01*
X27604Y189173D01*
X27652Y189196D01*
X27701Y189213D01*
X28502Y189428D01*
X28554Y189438D01*
X28606Y189441D01*
X29435D01*
X29488Y189438D01*
D02*
G37*
G36*
X166766Y131157D02*
X166839Y131127D01*
X166866Y131099D01*
X167284Y130681D01*
X167312Y130654D01*
X167342Y130581D01*
X167341Y130503D01*
X167312Y130431D01*
X167284Y130403D01*
X166449Y129568D01*
X167145Y128872D01*
X167980Y129707D01*
X168008Y129735D01*
X168080Y129765D01*
X168158Y129765D01*
X168230Y129735D01*
X168258Y129707D01*
X168676Y129289D01*
X168703Y129262D01*
X168734Y129189D01*
X168734Y129111D01*
X168703Y129039D01*
X168676Y129011D01*
X167284Y127619D01*
X167284Y127619D01*
X167256Y127591D01*
X167184Y127561D01*
X167105Y127561D01*
X167033Y127591D01*
X167006Y127619D01*
X165196Y129429D01*
X165196D01*
X165168Y129456D01*
X165138Y129529D01*
X165138Y129607D01*
X165168Y129679D01*
X165196Y129707D01*
X166588Y131099D01*
X166588D01*
X166616Y131127D01*
X166688Y131157D01*
X166766Y131157D01*
D02*
G37*
G36*
X169734Y128510D02*
X169789Y128454D01*
X169789D01*
X170207Y128037D01*
X170262Y127981D01*
X170322Y127837D01*
Y127680D01*
X170262Y127535D01*
X170207Y127480D01*
X168815Y126088D01*
X168760Y126032D01*
X168615Y125973D01*
X168458D01*
X168314Y126032D01*
X168258Y126088D01*
Y126088D01*
X167841Y126505D01*
X167785Y126561D01*
X167725Y126706D01*
Y126862D01*
X167785Y127007D01*
X167841Y127062D01*
X169233Y128454D01*
X169288Y128510D01*
X169433Y128569D01*
X169589D01*
X169734Y128510D01*
D02*
G37*
G36*
X162315Y129665D02*
X162343Y129637D01*
Y129637D01*
X165822Y126157D01*
X165850Y126130D01*
X165880Y126058D01*
Y125979D01*
X165850Y125907D01*
X165822Y125879D01*
X165822D01*
X165405Y125461D01*
X165377Y125434D01*
X165305Y125404D01*
X165226D01*
X165154Y125434D01*
X165126Y125461D01*
X165126Y125461D01*
X161646Y128941D01*
X161619Y128969D01*
X161589Y129041D01*
Y129120D01*
X161619Y129192D01*
X161646Y129220D01*
X161646D01*
X162064Y129637D01*
X162092Y129665D01*
X162164Y129695D01*
X162242D01*
X162315Y129665D01*
D02*
G37*
G36*
X171126Y127118D02*
X171181Y127062D01*
Y127062D01*
X171599Y126645D01*
X171654Y126589D01*
X171714Y126445D01*
Y126288D01*
X171654Y126143D01*
X171599Y126088D01*
X171599D01*
X170207Y124696D01*
X170152Y124641D01*
X170007Y124581D01*
X169850D01*
X169706Y124641D01*
X169650Y124696D01*
X169233Y125114D01*
X169177Y125169D01*
X169117Y125314D01*
Y125470D01*
X169177Y125615D01*
X169233Y125670D01*
X169233Y125670D01*
X170624Y127062D01*
X170680Y127118D01*
X170825Y127178D01*
X170981D01*
X171126Y127118D01*
D02*
G37*
G36*
X159531Y126881D02*
X159559Y126854D01*
X163039Y123374D01*
X163066Y123346D01*
X163096Y123274D01*
Y123195D01*
X163066Y123123D01*
X163039Y123095D01*
Y123095D01*
X162621Y122678D01*
X162593Y122650D01*
X162521Y122620D01*
X162443D01*
X162370Y122650D01*
X162343Y122678D01*
X162343D01*
X158863Y126157D01*
X158835Y126185D01*
X158805Y126258D01*
Y126336D01*
X158835Y126408D01*
X158863Y126436D01*
Y126436D01*
X159280Y126854D01*
X159308Y126881D01*
X159380Y126911D01*
X159459D01*
X159531Y126881D01*
D02*
G37*
G36*
X160923Y128273D02*
X160951Y128245D01*
X165405Y123791D01*
X165432Y123764D01*
X165462Y123691D01*
Y123613D01*
X165432Y123540D01*
X165405Y123513D01*
X164987Y123095D01*
X164960Y123068D01*
X164887Y123038D01*
X164809D01*
X164736Y123068D01*
X164709Y123095D01*
X160255Y127549D01*
X160227Y127577D01*
X160197Y127649D01*
X160197Y127728D01*
X160227Y127800D01*
X160255Y127828D01*
X160255Y127828D01*
X160672Y128245D01*
X160700Y128273D01*
X160772Y128303D01*
X160851D01*
X160923Y128273D01*
D02*
G37*
G36*
X169525Y124125D02*
X169581Y124070D01*
X169581D01*
X170973Y122678D01*
X171028Y122622D01*
X171088Y122478D01*
Y122321D01*
X171028Y122176D01*
X170973Y122121D01*
X170973D01*
X170555Y121703D01*
X170500Y121648D01*
X170355Y121588D01*
X170198D01*
X170054Y121648D01*
X169998Y121703D01*
Y121703D01*
X168606Y123095D01*
X168551Y123151D01*
X168491Y123295D01*
Y123452D01*
X168551Y123597D01*
X168606Y123652D01*
Y123652D01*
X169024Y124070D01*
X169079Y124125D01*
X169224Y124185D01*
X169380D01*
X169525Y124125D01*
D02*
G37*
G36*
X168133Y122733D02*
X168189Y122678D01*
X168189D01*
X169581Y121286D01*
X169636Y121230D01*
X169696Y121086D01*
Y120929D01*
X169636Y120784D01*
X169581Y120729D01*
X169581D01*
X169163Y120311D01*
X169108Y120256D01*
X168963Y120196D01*
X168806D01*
X168662Y120256D01*
X168606Y120311D01*
Y120311D01*
X167214Y121703D01*
X167159Y121759D01*
X167099Y121903D01*
Y122060D01*
X167159Y122205D01*
X167214Y122260D01*
Y122260D01*
X167632Y122678D01*
X167687Y122733D01*
X167832Y122793D01*
X167989D01*
X168133Y122733D01*
D02*
G37*
G36*
X159044Y123332D02*
X159071Y123304D01*
X159071Y123304D01*
X160881Y121494D01*
X160909Y121467D01*
X160939Y121395D01*
X160939Y121316D01*
X160909Y121244D01*
X160881Y121216D01*
X159489Y119824D01*
X159461Y119797D01*
X159389Y119766D01*
X159311Y119766D01*
X159238Y119797D01*
X159211Y119824D01*
X159211Y119824D01*
X158793Y120242D01*
X158765Y120269D01*
X158735Y120342D01*
X158735Y120420D01*
X158765Y120492D01*
X158793Y120520D01*
Y120520D01*
X159628Y121355D01*
X158932Y122051D01*
X158097Y121216D01*
X158069Y121188D01*
X157997Y121158D01*
X157919D01*
X157846Y121188D01*
X157819Y121216D01*
X157819Y121216D01*
X157401Y121634D01*
X157373Y121661D01*
X157343Y121734D01*
Y121812D01*
X157373Y121884D01*
X157401Y121912D01*
Y121912D01*
X158793Y123304D01*
X158821Y123332D01*
X158893Y123362D01*
X158971Y123362D01*
X159044Y123332D01*
D02*
G37*
G36*
X166741Y121341D02*
X166797Y121286D01*
Y121286D01*
X168189Y119894D01*
X168244Y119838D01*
X168304Y119694D01*
Y119537D01*
X168244Y119392D01*
X168189Y119337D01*
X167771Y118919D01*
X167716Y118864D01*
X167571Y118804D01*
X167414D01*
X167270Y118864D01*
X167214Y118919D01*
X167214D01*
X165822Y120311D01*
X165767Y120367D01*
X165707Y120511D01*
Y120668D01*
X165767Y120813D01*
X165822Y120868D01*
X165822Y120868D01*
X166240Y121286D01*
X166295Y121341D01*
X166440Y121401D01*
X166597D01*
X166741Y121341D01*
D02*
G37*
G36*
X161939Y120715D02*
X161995Y120659D01*
X161995Y120659D01*
X162412Y120242D01*
X162468Y120186D01*
X162527Y120042D01*
Y119885D01*
X162468Y119740D01*
X162412Y119685D01*
X161020Y118293D01*
X160965Y118238D01*
X160820Y118178D01*
X160663D01*
X160519Y118238D01*
X160463Y118293D01*
X160046Y118711D01*
X159990Y118766D01*
X159931Y118911D01*
Y119067D01*
X159990Y119212D01*
X160046Y119267D01*
X160046Y119267D01*
X161438Y120659D01*
X161493Y120715D01*
X161638Y120775D01*
X161794D01*
X161939Y120715D01*
D02*
G37*
G36*
X165349Y119949D02*
X165405Y119894D01*
Y119894D01*
X166797Y118502D01*
X166852Y118447D01*
X166912Y118302D01*
Y118145D01*
X166852Y118000D01*
X166797Y117945D01*
X166379Y117527D01*
X166324Y117472D01*
X166179Y117412D01*
X166022D01*
X165878Y117472D01*
X165822Y117527D01*
X165822D01*
X164430Y118919D01*
X164375Y118975D01*
X164315Y119120D01*
Y119276D01*
X164375Y119421D01*
X164430Y119476D01*
X164430Y119476D01*
X164848Y119894D01*
X164903Y119949D01*
X165048Y120009D01*
X165205D01*
X165349Y119949D01*
D02*
G37*
G36*
X163331Y119323D02*
X163386Y119267D01*
X163386Y119267D01*
X163804Y118850D01*
X163859Y118794D01*
X163919Y118650D01*
Y118493D01*
X163859Y118348D01*
X163804Y118293D01*
X163804D01*
X162412Y116901D01*
X162357Y116846D01*
X162212Y116786D01*
X162055D01*
X161911Y116846D01*
X161855Y116901D01*
X161438Y117319D01*
X161382Y117374D01*
X161322Y117519D01*
Y117675D01*
X161382Y117820D01*
X161438Y117875D01*
Y117876D01*
X162830Y119267D01*
X162885Y119323D01*
X163030Y119383D01*
X163186D01*
X163331Y119323D01*
D02*
G37*
D22*
X134000Y94500D02*
D03*
X124500Y62000D02*
D03*
X225500Y59500D02*
D03*
X202500Y150000D02*
D03*
D44*
X182240Y53063D02*
D03*
Y55031D02*
D03*
Y57000D02*
D03*
Y58969D02*
D03*
Y60937D02*
D03*
X174760D02*
D03*
Y58969D02*
D03*
Y57000D02*
D03*
Y55031D02*
D03*
Y53063D02*
D03*
D45*
X178500Y57000D02*
D03*
D46*
X182000Y78000D02*
D03*
Y72882D02*
D03*
X164000Y51441D02*
D03*
Y56559D02*
D03*
X144500Y84618D02*
D03*
Y79500D02*
D03*
X224500Y125941D02*
D03*
Y131059D02*
D03*
X13396Y66536D02*
D03*
Y71654D02*
D03*
X13896Y119500D02*
D03*
Y124618D02*
D03*
X62500Y286441D02*
D03*
Y291559D02*
D03*
X128500Y286941D02*
D03*
Y292059D02*
D03*
D47*
X194941Y42500D02*
D03*
X200059D02*
D03*
X189941Y273000D02*
D03*
X195059D02*
D03*
X149882Y290500D02*
D03*
X155000D02*
D03*
X195059Y280000D02*
D03*
X189941D02*
D03*
X155000Y297500D02*
D03*
X149882D02*
D03*
D48*
X187500Y42315D02*
D03*
Y37000D02*
D03*
X225500Y50000D02*
D03*
Y44685D02*
D03*
X219500Y274342D02*
D03*
Y279658D02*
D03*
X180000Y286842D02*
D03*
Y292158D02*
D03*
X5500Y290657D02*
D03*
Y285343D02*
D03*
X70467Y291657D02*
D03*
Y286343D02*
D03*
D49*
X150000Y100500D02*
D03*
X153758Y96742D02*
D03*
X142379Y108121D02*
D03*
X138621Y111879D02*
D03*
X175000Y139000D02*
D03*
X171242Y142758D02*
D03*
X182379Y108621D02*
D03*
X178621Y112379D02*
D03*
X150379Y116121D02*
D03*
X146621Y119879D02*
D03*
D50*
X135472Y62000D02*
D03*
X144528Y65740D02*
D03*
Y58260D02*
D03*
D51*
X169185Y69000D02*
D03*
X174500D02*
D03*
X194685Y55500D02*
D03*
X200000D02*
D03*
X169315Y300000D02*
D03*
X164000D02*
D03*
X208657Y287500D02*
D03*
X203343D02*
D03*
D52*
X192773Y141227D02*
D03*
X197227Y136773D02*
D03*
X182000Y147000D02*
D03*
X177546Y151454D02*
D03*
X190227Y154773D02*
D03*
X185773Y159227D02*
D03*
D53*
X192619Y121381D02*
D03*
X189000Y125000D02*
D03*
X180000Y134000D02*
D03*
X183619Y130381D02*
D03*
X156381Y106619D02*
D03*
X160000Y103000D02*
D03*
X173000Y107000D02*
D03*
X176619Y103381D02*
D03*
D54*
X147451Y133951D02*
D03*
X154549Y141049D02*
D03*
D55*
X215519Y150481D02*
D03*
D56*
X223481Y142519D02*
D03*
D57*
X202312Y230899D02*
D03*
X202312Y220899D02*
D03*
X202312Y210899D02*
D03*
D58*
X199084Y181765D02*
D03*
X189084D02*
D03*
X179084D02*
D03*
X169084D02*
D03*
X159084D02*
D03*
X149084D02*
D03*
X139084D02*
D03*
X129084D02*
D03*
X119084D02*
D03*
X109084D02*
D03*
X99084D02*
D03*
X89084D02*
D03*
X79084D02*
D03*
X69084D02*
D03*
X59084D02*
D03*
X49084D02*
D03*
X39084D02*
D03*
X19084D02*
D03*
X9084D02*
D03*
Y260033D02*
D03*
X19084D02*
D03*
X29084D02*
D03*
X39084D02*
D03*
X49084D02*
D03*
X59084D02*
D03*
X69084D02*
D03*
X79084D02*
D03*
X89084D02*
D03*
X99084D02*
D03*
X109084D02*
D03*
X119084D02*
D03*
X129084D02*
D03*
X139084D02*
D03*
X149084D02*
D03*
X159084D02*
D03*
X169084D02*
D03*
X179084D02*
D03*
X189084D02*
D03*
X199084D02*
D03*
D59*
X29084Y182749D02*
D03*
D60*
X8386Y217001D02*
D03*
Y224875D02*
D03*
X21378Y220938D02*
D03*
X35158Y211095D02*
D03*
X45000D02*
D03*
X54843D02*
D03*
D61*
X15587Y297716D02*
D03*
Y280000D02*
D03*
X51413D02*
D03*
Y297716D02*
D03*
X81500Y298216D02*
D03*
Y280500D02*
D03*
X117327D02*
D03*
Y298216D02*
D03*
D62*
X66000Y11500D02*
D03*
X61079D02*
D03*
D63*
X172831Y289500D02*
D03*
Y292059D02*
D03*
Y286941D02*
D03*
X164169D02*
D03*
Y289500D02*
D03*
Y292059D02*
D03*
X212000Y277500D02*
D03*
Y280059D02*
D03*
Y274941D02*
D03*
X203338D02*
D03*
Y277500D02*
D03*
Y280059D02*
D03*
D64*
X20500Y72048D02*
D03*
Y66143D02*
D03*
X21000Y124906D02*
D03*
Y119000D02*
D03*
D65*
X17000Y59831D02*
D03*
X20740Y51169D02*
D03*
X13260D02*
D03*
X17500Y112331D02*
D03*
X21240Y103669D02*
D03*
X13760D02*
D03*
D66*
X305591Y279528D02*
D03*
X295590D02*
D03*
X285591D02*
D03*
X275590D02*
D03*
D67*
X328740Y161417D02*
D03*
X250000D02*
D03*
Y279528D02*
D03*
X328740D02*
D03*
D68*
X50000Y150000D02*
D03*
X71000D02*
D03*
X113000Y49000D02*
D03*
X98000Y49500D02*
D03*
X65500Y274500D02*
D03*
D69*
X78500Y111500D02*
D03*
X52909D02*
D03*
X299091Y109000D02*
D03*
X273500D02*
D03*
D70*
X19870Y19685D02*
D03*
X334646Y334646D02*
D03*
X19685D02*
D03*
X334646Y19685D02*
D03*
D71*
X300499Y40000D02*
D03*
X270499Y30000D02*
D03*
Y50000D02*
D03*
X51575Y39865D02*
D03*
X81575Y49865D02*
D03*
Y29865D02*
D03*
D72*
X139500Y306500D02*
D03*
X196000Y298000D02*
D03*
X165000Y274000D02*
D03*
X216000Y257500D02*
D03*
X347000Y37017D02*
D03*
X334000Y309000D02*
D03*
Y298000D02*
D03*
D73*
X338000Y76343D02*
D03*
Y56657D02*
D03*
Y66500D02*
D03*
Y111342D02*
D03*
Y101500D02*
D03*
D74*
X289500Y339500D02*
D03*
X249500D02*
D03*
X229500D02*
D03*
X299500D02*
D03*
X239500D02*
D03*
X259500D02*
D03*
X269500D02*
D03*
X279500D02*
D03*
X201712D02*
D03*
X161712D02*
D03*
X141712D02*
D03*
X211712D02*
D03*
X151712D02*
D03*
X171712D02*
D03*
X181712D02*
D03*
X191712D02*
D03*
X113923D02*
D03*
X73923D02*
D03*
X53923D02*
D03*
X123923D02*
D03*
X63923D02*
D03*
X83923D02*
D03*
X93923D02*
D03*
X103923D02*
D03*
D75*
X178500Y55362D02*
D03*
Y58638D02*
D03*
M02*
