G04*
G04 #@! TF.GenerationSoftware,Altium Limited,Altium Designer,22.9.1 (49)*
G04*
G04 Layer_Color=16711935*
%FSLAX25Y25*%
%MOIN*%
G70*
G04*
G04 #@! TF.SameCoordinates,9D3E2428-DCC5-4340-9D25-80E916FAB4BD*
G04*
G04*
G04 #@! TF.FilePolarity,Positive*
G04*
G01*
G75*
%ADD13C,0.00787*%
G36*
X139427Y96329D02*
X139475Y96321D01*
X139533Y96311D01*
X139598Y96292D01*
X139664Y96271D01*
X139729Y96241D01*
X139733D01*
X139737Y96238D01*
X139759Y96227D01*
X139791Y96205D01*
X139828Y96179D01*
X139871Y96143D01*
X139915Y96103D01*
X139959Y96056D01*
X139995Y96001D01*
X139999Y95994D01*
X140010Y95976D01*
X140024Y95943D01*
X140042Y95903D01*
X140061Y95855D01*
X140075Y95801D01*
X140086Y95739D01*
X140090Y95677D01*
Y95670D01*
Y95648D01*
X140086Y95619D01*
X140079Y95579D01*
X140068Y95532D01*
X140050Y95481D01*
X140028Y95430D01*
X139999Y95379D01*
X139995Y95371D01*
X139984Y95357D01*
X139962Y95331D01*
X139933Y95302D01*
X139897Y95270D01*
X139853Y95233D01*
X139802Y95200D01*
X139740Y95168D01*
X139744D01*
X139751Y95164D01*
X139762Y95160D01*
X139777Y95157D01*
X139817Y95142D01*
X139868Y95120D01*
X139926Y95091D01*
X139984Y95055D01*
X140039Y95007D01*
X140090Y94953D01*
X140093Y94946D01*
X140108Y94924D01*
X140130Y94887D01*
X140152Y94840D01*
X140173Y94782D01*
X140195Y94713D01*
X140210Y94633D01*
X140214Y94545D01*
Y94542D01*
Y94531D01*
Y94512D01*
X140210Y94490D01*
X140206Y94461D01*
X140199Y94429D01*
X140192Y94392D01*
X140184Y94352D01*
X140155Y94265D01*
X140133Y94217D01*
X140112Y94174D01*
X140082Y94126D01*
X140050Y94079D01*
X140013Y94032D01*
X139970Y93988D01*
X139966Y93985D01*
X139959Y93977D01*
X139944Y93966D01*
X139926Y93952D01*
X139904Y93934D01*
X139875Y93915D01*
X139842Y93894D01*
X139802Y93875D01*
X139762Y93853D01*
X139715Y93832D01*
X139667Y93814D01*
X139613Y93795D01*
X139555Y93781D01*
X139493Y93770D01*
X139431Y93762D01*
X139362Y93759D01*
X139329D01*
X139307Y93762D01*
X139278Y93766D01*
X139245Y93770D01*
X139209Y93777D01*
X139169Y93784D01*
X139081Y93806D01*
X138990Y93843D01*
X138943Y93864D01*
X138899Y93890D01*
X138856Y93923D01*
X138812Y93955D01*
X138808Y93959D01*
X138801Y93966D01*
X138790Y93977D01*
X138779Y93992D01*
X138761Y94010D01*
X138743Y94036D01*
X138721Y94061D01*
X138699Y94094D01*
X138677Y94130D01*
X138656Y94167D01*
X138616Y94254D01*
X138583Y94356D01*
X138572Y94410D01*
X138565Y94469D01*
X138874Y94509D01*
Y94505D01*
X138878Y94498D01*
X138881Y94483D01*
X138885Y94465D01*
X138889Y94443D01*
X138896Y94418D01*
X138914Y94363D01*
X138939Y94298D01*
X138972Y94236D01*
X139009Y94178D01*
X139052Y94126D01*
X139060Y94123D01*
X139074Y94108D01*
X139103Y94090D01*
X139140Y94072D01*
X139183Y94050D01*
X139238Y94032D01*
X139300Y94017D01*
X139365Y94014D01*
X139387D01*
X139402Y94017D01*
X139442Y94021D01*
X139493Y94032D01*
X139551Y94050D01*
X139613Y94076D01*
X139675Y94112D01*
X139733Y94163D01*
X139740Y94170D01*
X139759Y94192D01*
X139780Y94225D01*
X139809Y94269D01*
X139839Y94323D01*
X139860Y94385D01*
X139879Y94458D01*
X139886Y94538D01*
Y94542D01*
Y94549D01*
Y94560D01*
X139882Y94574D01*
X139879Y94614D01*
X139868Y94662D01*
X139853Y94720D01*
X139828Y94778D01*
X139791Y94836D01*
X139744Y94891D01*
X139737Y94898D01*
X139718Y94913D01*
X139689Y94935D01*
X139649Y94960D01*
X139598Y94986D01*
X139536Y95007D01*
X139467Y95022D01*
X139391Y95029D01*
X139358D01*
X139333Y95026D01*
X139300Y95022D01*
X139263Y95015D01*
X139220Y95007D01*
X139172Y94997D01*
X139209Y95270D01*
X139227D01*
X139242Y95266D01*
X139289D01*
X139329Y95273D01*
X139376Y95280D01*
X139431Y95291D01*
X139493Y95310D01*
X139551Y95335D01*
X139613Y95368D01*
X139617D01*
X139620Y95371D01*
X139638Y95386D01*
X139664Y95411D01*
X139693Y95444D01*
X139722Y95491D01*
X139748Y95546D01*
X139766Y95608D01*
X139773Y95644D01*
Y95684D01*
Y95688D01*
Y95692D01*
Y95714D01*
X139766Y95743D01*
X139759Y95783D01*
X139744Y95826D01*
X139726Y95874D01*
X139697Y95921D01*
X139657Y95965D01*
X139653Y95968D01*
X139635Y95983D01*
X139609Y96001D01*
X139576Y96023D01*
X139533Y96041D01*
X139482Y96059D01*
X139424Y96074D01*
X139358Y96078D01*
X139329D01*
X139296Y96070D01*
X139252Y96063D01*
X139205Y96048D01*
X139158Y96030D01*
X139107Y96001D01*
X139060Y95965D01*
X139056Y95961D01*
X139041Y95943D01*
X139020Y95917D01*
X138994Y95881D01*
X138969Y95834D01*
X138943Y95775D01*
X138921Y95706D01*
X138907Y95626D01*
X138597Y95681D01*
Y95684D01*
X138601Y95695D01*
X138605Y95710D01*
X138608Y95732D01*
X138616Y95757D01*
X138626Y95786D01*
X138648Y95855D01*
X138685Y95936D01*
X138728Y96016D01*
X138783Y96092D01*
X138852Y96161D01*
X138856Y96165D01*
X138863Y96169D01*
X138874Y96176D01*
X138889Y96187D01*
X138907Y96201D01*
X138932Y96216D01*
X138958Y96230D01*
X138990Y96249D01*
X139063Y96278D01*
X139147Y96307D01*
X139245Y96325D01*
X139296Y96332D01*
X139387D01*
X139427Y96329D01*
D02*
G37*
G36*
X143642Y93803D02*
X143333D01*
Y95772D01*
X143329Y95768D01*
X143311Y95754D01*
X143289Y95732D01*
X143253Y95706D01*
X143213Y95674D01*
X143162Y95637D01*
X143104Y95597D01*
X143038Y95557D01*
X143035D01*
X143031Y95553D01*
X143009Y95539D01*
X142973Y95521D01*
X142929Y95499D01*
X142878Y95473D01*
X142823Y95448D01*
X142769Y95422D01*
X142714Y95401D01*
Y95699D01*
X142718D01*
X142725Y95706D01*
X142740Y95710D01*
X142758Y95721D01*
X142780Y95732D01*
X142805Y95746D01*
X142867Y95783D01*
X142940Y95823D01*
X143013Y95874D01*
X143089Y95932D01*
X143166Y95994D01*
X143169Y95998D01*
X143173Y96001D01*
X143184Y96012D01*
X143198Y96023D01*
X143231Y96059D01*
X143275Y96103D01*
X143318Y96154D01*
X143366Y96212D01*
X143406Y96271D01*
X143442Y96332D01*
X143642D01*
Y93803D01*
D02*
G37*
G36*
X137429Y96318D02*
X137491Y96314D01*
X137556Y96311D01*
X137618Y96303D01*
X137673Y96296D01*
X137680D01*
X137706Y96289D01*
X137738Y96281D01*
X137782Y96271D01*
X137829Y96252D01*
X137880Y96230D01*
X137935Y96205D01*
X137982Y96176D01*
X137989Y96172D01*
X138004Y96161D01*
X138026Y96139D01*
X138055Y96114D01*
X138088Y96081D01*
X138120Y96038D01*
X138157Y95990D01*
X138186Y95936D01*
X138190Y95928D01*
X138197Y95910D01*
X138212Y95877D01*
X138226Y95834D01*
X138237Y95783D01*
X138251Y95724D01*
X138259Y95659D01*
X138262Y95590D01*
Y95586D01*
Y95575D01*
Y95561D01*
X138259Y95535D01*
X138255Y95510D01*
X138251Y95477D01*
X138244Y95441D01*
X138237Y95401D01*
X138212Y95317D01*
X138197Y95273D01*
X138175Y95226D01*
X138150Y95179D01*
X138124Y95135D01*
X138091Y95091D01*
X138055Y95047D01*
X138051Y95044D01*
X138044Y95037D01*
X138033Y95026D01*
X138015Y95015D01*
X137993Y94997D01*
X137964Y94978D01*
X137928Y94956D01*
X137888Y94938D01*
X137840Y94916D01*
X137786Y94895D01*
X137727Y94876D01*
X137658Y94862D01*
X137585Y94847D01*
X137505Y94836D01*
X137414Y94829D01*
X137320Y94825D01*
X136675D01*
Y93803D01*
X136340D01*
Y96321D01*
X137374D01*
X137429Y96318D01*
D02*
G37*
G36*
X135995Y96023D02*
X135165D01*
Y93803D01*
X134830D01*
Y96023D01*
X134000D01*
Y96321D01*
X135995D01*
Y96023D01*
D02*
G37*
G36*
X141415Y96329D02*
X141462Y96321D01*
X141517Y96311D01*
X141575Y96296D01*
X141637Y96278D01*
X141695Y96249D01*
X141699D01*
X141702Y96245D01*
X141720Y96234D01*
X141750Y96216D01*
X141786Y96190D01*
X141826Y96154D01*
X141870Y96114D01*
X141910Y96067D01*
X141950Y96012D01*
X141953Y96005D01*
X141968Y95987D01*
X141982Y95954D01*
X142008Y95907D01*
X142030Y95852D01*
X142059Y95790D01*
X142084Y95717D01*
X142106Y95637D01*
Y95634D01*
X142110Y95626D01*
X142114Y95615D01*
X142117Y95597D01*
X142121Y95575D01*
X142124Y95550D01*
X142132Y95517D01*
X142135Y95481D01*
X142143Y95441D01*
X142146Y95397D01*
X142150Y95346D01*
X142157Y95295D01*
X142161Y95237D01*
Y95179D01*
X142165Y95113D01*
Y95044D01*
Y95040D01*
Y95026D01*
Y95000D01*
Y94971D01*
X142161Y94931D01*
Y94887D01*
X142157Y94840D01*
X142154Y94789D01*
X142143Y94673D01*
X142124Y94552D01*
X142103Y94436D01*
X142088Y94381D01*
X142070Y94327D01*
Y94323D01*
X142066Y94316D01*
X142059Y94301D01*
X142052Y94283D01*
X142044Y94258D01*
X142030Y94232D01*
X142001Y94170D01*
X141964Y94105D01*
X141917Y94032D01*
X141862Y93966D01*
X141797Y93905D01*
X141793D01*
X141790Y93897D01*
X141779Y93890D01*
X141764Y93883D01*
X141746Y93872D01*
X141728Y93857D01*
X141673Y93832D01*
X141608Y93806D01*
X141531Y93781D01*
X141440Y93766D01*
X141342Y93759D01*
X141305D01*
X141280Y93762D01*
X141251Y93766D01*
X141215Y93773D01*
X141174Y93781D01*
X141131Y93792D01*
X141087Y93806D01*
X141040Y93821D01*
X140992Y93843D01*
X140945Y93868D01*
X140898Y93897D01*
X140850Y93934D01*
X140807Y93974D01*
X140767Y94017D01*
X140763Y94021D01*
X140756Y94032D01*
X140745Y94050D01*
X140727Y94079D01*
X140708Y94112D01*
X140690Y94156D01*
X140665Y94207D01*
X140643Y94265D01*
X140621Y94330D01*
X140599Y94407D01*
X140577Y94490D01*
X140559Y94585D01*
X140541Y94687D01*
X140530Y94796D01*
X140523Y94916D01*
X140519Y95044D01*
Y95047D01*
Y95062D01*
Y95087D01*
Y95117D01*
X140523Y95157D01*
Y95200D01*
X140526Y95248D01*
X140530Y95302D01*
X140541Y95415D01*
X140559Y95535D01*
X140581Y95655D01*
X140596Y95710D01*
X140610Y95764D01*
Y95768D01*
X140614Y95775D01*
X140621Y95790D01*
X140628Y95808D01*
X140636Y95834D01*
X140650Y95859D01*
X140679Y95921D01*
X140716Y95987D01*
X140763Y96056D01*
X140818Y96125D01*
X140883Y96183D01*
X140887D01*
X140891Y96190D01*
X140901Y96198D01*
X140916Y96205D01*
X140934Y96219D01*
X140956Y96230D01*
X141011Y96260D01*
X141076Y96285D01*
X141153Y96311D01*
X141244Y96325D01*
X141342Y96332D01*
X141375D01*
X141415Y96329D01*
D02*
G37*
G36*
X119193Y62738D02*
X119222Y62734D01*
X119255Y62730D01*
X119291Y62723D01*
X119331Y62716D01*
X119419Y62694D01*
X119510Y62657D01*
X119557Y62636D01*
X119601Y62610D01*
X119644Y62577D01*
X119688Y62545D01*
X119692Y62541D01*
X119699Y62534D01*
X119710Y62523D01*
X119721Y62508D01*
X119739Y62490D01*
X119757Y62464D01*
X119779Y62439D01*
X119801Y62406D01*
X119823Y62370D01*
X119844Y62333D01*
X119885Y62246D01*
X119917Y62144D01*
X119928Y62090D01*
X119935Y62031D01*
X119626Y61991D01*
Y61995D01*
X119622Y62002D01*
X119619Y62017D01*
X119615Y62035D01*
X119612Y62057D01*
X119604Y62082D01*
X119586Y62137D01*
X119561Y62202D01*
X119528Y62264D01*
X119491Y62322D01*
X119448Y62374D01*
X119440Y62377D01*
X119426Y62392D01*
X119397Y62410D01*
X119360Y62428D01*
X119317Y62450D01*
X119262Y62468D01*
X119200Y62483D01*
X119135Y62486D01*
X119113D01*
X119098Y62483D01*
X119058Y62479D01*
X119007Y62468D01*
X118949Y62450D01*
X118887Y62424D01*
X118825Y62388D01*
X118767Y62337D01*
X118760Y62330D01*
X118742Y62308D01*
X118720Y62275D01*
X118691Y62231D01*
X118661Y62177D01*
X118640Y62115D01*
X118621Y62042D01*
X118614Y61962D01*
Y61958D01*
Y61951D01*
Y61940D01*
X118618Y61926D01*
X118621Y61886D01*
X118632Y61838D01*
X118647Y61780D01*
X118672Y61722D01*
X118709Y61664D01*
X118756Y61609D01*
X118763Y61602D01*
X118782Y61587D01*
X118811Y61565D01*
X118851Y61540D01*
X118902Y61514D01*
X118964Y61493D01*
X119033Y61478D01*
X119109Y61471D01*
X119142D01*
X119167Y61474D01*
X119200Y61478D01*
X119237Y61485D01*
X119280Y61493D01*
X119328Y61503D01*
X119291Y61230D01*
X119273D01*
X119258Y61234D01*
X119211D01*
X119171Y61227D01*
X119124Y61220D01*
X119069Y61209D01*
X119007Y61190D01*
X118949Y61165D01*
X118887Y61132D01*
X118884D01*
X118880Y61129D01*
X118862Y61114D01*
X118836Y61089D01*
X118807Y61056D01*
X118778Y61009D01*
X118752Y60954D01*
X118734Y60892D01*
X118727Y60856D01*
Y60816D01*
Y60812D01*
Y60808D01*
Y60786D01*
X118734Y60757D01*
X118742Y60717D01*
X118756Y60674D01*
X118774Y60626D01*
X118803Y60579D01*
X118843Y60535D01*
X118847Y60532D01*
X118865Y60517D01*
X118891Y60499D01*
X118923Y60477D01*
X118967Y60459D01*
X119018Y60441D01*
X119076Y60426D01*
X119142Y60422D01*
X119171D01*
X119204Y60430D01*
X119247Y60437D01*
X119295Y60452D01*
X119342Y60470D01*
X119393Y60499D01*
X119440Y60535D01*
X119444Y60539D01*
X119459Y60557D01*
X119480Y60583D01*
X119506Y60619D01*
X119531Y60666D01*
X119557Y60725D01*
X119579Y60794D01*
X119593Y60874D01*
X119903Y60819D01*
Y60816D01*
X119899Y60805D01*
X119895Y60790D01*
X119892Y60768D01*
X119885Y60743D01*
X119874Y60714D01*
X119852Y60645D01*
X119815Y60564D01*
X119772Y60484D01*
X119717Y60408D01*
X119648Y60339D01*
X119644Y60335D01*
X119637Y60331D01*
X119626Y60324D01*
X119612Y60313D01*
X119593Y60299D01*
X119568Y60284D01*
X119542Y60270D01*
X119510Y60251D01*
X119437Y60222D01*
X119353Y60193D01*
X119255Y60175D01*
X119204Y60168D01*
X119113D01*
X119073Y60171D01*
X119025Y60179D01*
X118967Y60189D01*
X118902Y60208D01*
X118836Y60229D01*
X118771Y60259D01*
X118767D01*
X118763Y60262D01*
X118742Y60273D01*
X118709Y60295D01*
X118672Y60321D01*
X118629Y60357D01*
X118585Y60397D01*
X118541Y60444D01*
X118505Y60499D01*
X118501Y60506D01*
X118490Y60524D01*
X118476Y60557D01*
X118458Y60597D01*
X118439Y60645D01*
X118425Y60699D01*
X118414Y60761D01*
X118410Y60823D01*
Y60830D01*
Y60852D01*
X118414Y60881D01*
X118421Y60921D01*
X118432Y60968D01*
X118450Y61019D01*
X118472Y61070D01*
X118501Y61121D01*
X118505Y61129D01*
X118516Y61143D01*
X118538Y61169D01*
X118567Y61198D01*
X118603Y61230D01*
X118647Y61267D01*
X118698Y61300D01*
X118760Y61332D01*
X118756D01*
X118749Y61336D01*
X118738Y61340D01*
X118723Y61343D01*
X118683Y61358D01*
X118632Y61380D01*
X118574Y61409D01*
X118516Y61445D01*
X118461Y61493D01*
X118410Y61547D01*
X118407Y61554D01*
X118392Y61576D01*
X118370Y61613D01*
X118348Y61660D01*
X118327Y61718D01*
X118305Y61787D01*
X118290Y61867D01*
X118287Y61955D01*
Y61958D01*
Y61969D01*
Y61988D01*
X118290Y62010D01*
X118294Y62039D01*
X118301Y62071D01*
X118308Y62108D01*
X118316Y62148D01*
X118345Y62235D01*
X118367Y62283D01*
X118388Y62326D01*
X118418Y62374D01*
X118450Y62421D01*
X118487Y62468D01*
X118530Y62512D01*
X118534Y62515D01*
X118541Y62523D01*
X118556Y62534D01*
X118574Y62548D01*
X118596Y62566D01*
X118625Y62585D01*
X118658Y62606D01*
X118698Y62625D01*
X118738Y62647D01*
X118785Y62668D01*
X118833Y62687D01*
X118887Y62705D01*
X118945Y62719D01*
X119007Y62730D01*
X119069Y62738D01*
X119138Y62741D01*
X119171D01*
X119193Y62738D01*
D02*
G37*
G36*
X115647Y62694D02*
Y62683D01*
Y62668D01*
X115644Y62647D01*
Y62617D01*
X115640Y62581D01*
X115637Y62541D01*
X115633Y62497D01*
X115626Y62446D01*
X115618Y62395D01*
X115608Y62333D01*
X115597Y62272D01*
X115586Y62206D01*
X115571Y62133D01*
X115535Y61984D01*
Y61980D01*
X115531Y61966D01*
X115524Y61944D01*
X115513Y61911D01*
X115502Y61875D01*
X115487Y61831D01*
X115473Y61780D01*
X115451Y61726D01*
X115429Y61664D01*
X115407Y61602D01*
X115353Y61463D01*
X115287Y61318D01*
X115214Y61172D01*
X115211Y61169D01*
X115203Y61154D01*
X115192Y61136D01*
X115178Y61107D01*
X115160Y61074D01*
X115134Y61034D01*
X115109Y60990D01*
X115080Y60943D01*
X115010Y60837D01*
X114938Y60728D01*
X114854Y60615D01*
X114767Y60510D01*
X116001D01*
Y60211D01*
X114370D01*
Y60455D01*
X114374Y60459D01*
X114381Y60466D01*
X114395Y60481D01*
X114410Y60502D01*
X114432Y60528D01*
X114461Y60557D01*
X114490Y60593D01*
X114523Y60637D01*
X114556Y60681D01*
X114596Y60732D01*
X114636Y60790D01*
X114676Y60848D01*
X114719Y60914D01*
X114763Y60983D01*
X114807Y61059D01*
X114850Y61136D01*
X114854Y61140D01*
X114861Y61154D01*
X114872Y61176D01*
X114890Y61209D01*
X114909Y61249D01*
X114930Y61292D01*
X114956Y61343D01*
X114981Y61402D01*
X115010Y61467D01*
X115043Y61533D01*
X115072Y61605D01*
X115102Y61682D01*
X115160Y61838D01*
X115214Y62006D01*
Y62010D01*
X115218Y62020D01*
X115222Y62039D01*
X115229Y62060D01*
X115236Y62090D01*
X115243Y62126D01*
X115254Y62166D01*
X115262Y62210D01*
X115273Y62261D01*
X115284Y62315D01*
X115302Y62432D01*
X115320Y62559D01*
X115331Y62697D01*
X115647D01*
Y62694D01*
D02*
G37*
G36*
X123670Y60477D02*
X124500D01*
Y60179D01*
X122505D01*
Y60477D01*
X123335D01*
Y62697D01*
X123670D01*
Y60477D01*
D02*
G37*
G36*
X122160Y60179D02*
X121126D01*
X121071Y60182D01*
X121009Y60186D01*
X120944Y60189D01*
X120882Y60197D01*
X120827Y60204D01*
X120820D01*
X120794Y60211D01*
X120762Y60219D01*
X120718Y60229D01*
X120671Y60248D01*
X120620Y60270D01*
X120565Y60295D01*
X120518Y60324D01*
X120511Y60328D01*
X120496Y60339D01*
X120474Y60361D01*
X120445Y60386D01*
X120412Y60419D01*
X120379Y60462D01*
X120343Y60510D01*
X120314Y60564D01*
X120310Y60572D01*
X120303Y60590D01*
X120289Y60623D01*
X120274Y60666D01*
X120263Y60717D01*
X120248Y60776D01*
X120241Y60841D01*
X120238Y60910D01*
Y60914D01*
Y60925D01*
Y60939D01*
X120241Y60965D01*
X120245Y60990D01*
X120248Y61023D01*
X120256Y61059D01*
X120263Y61099D01*
X120289Y61183D01*
X120303Y61227D01*
X120325Y61274D01*
X120350Y61322D01*
X120376Y61365D01*
X120409Y61409D01*
X120445Y61453D01*
X120449Y61456D01*
X120456Y61463D01*
X120467Y61474D01*
X120485Y61485D01*
X120507Y61503D01*
X120536Y61522D01*
X120572Y61544D01*
X120613Y61562D01*
X120660Y61584D01*
X120714Y61605D01*
X120773Y61624D01*
X120842Y61638D01*
X120915Y61653D01*
X120995Y61664D01*
X121086Y61671D01*
X121180Y61675D01*
X121825D01*
Y62697D01*
X122160D01*
Y60179D01*
D02*
G37*
G36*
X117220Y62738D02*
X117249Y62734D01*
X117286Y62727D01*
X117326Y62719D01*
X117369Y62708D01*
X117413Y62694D01*
X117460Y62679D01*
X117508Y62657D01*
X117555Y62632D01*
X117602Y62603D01*
X117649Y62566D01*
X117693Y62526D01*
X117733Y62483D01*
X117737Y62479D01*
X117744Y62468D01*
X117755Y62450D01*
X117773Y62421D01*
X117791Y62388D01*
X117810Y62344D01*
X117835Y62293D01*
X117857Y62235D01*
X117879Y62170D01*
X117901Y62093D01*
X117922Y62010D01*
X117941Y61915D01*
X117959Y61813D01*
X117970Y61704D01*
X117977Y61584D01*
X117981Y61456D01*
Y61453D01*
Y61438D01*
Y61413D01*
Y61383D01*
X117977Y61343D01*
Y61300D01*
X117973Y61252D01*
X117970Y61198D01*
X117959Y61085D01*
X117941Y60965D01*
X117919Y60845D01*
X117904Y60790D01*
X117890Y60735D01*
Y60732D01*
X117886Y60725D01*
X117879Y60710D01*
X117872Y60692D01*
X117864Y60666D01*
X117850Y60641D01*
X117821Y60579D01*
X117784Y60513D01*
X117737Y60444D01*
X117682Y60375D01*
X117617Y60317D01*
X117613D01*
X117610Y60310D01*
X117599Y60302D01*
X117584Y60295D01*
X117566Y60281D01*
X117544Y60270D01*
X117489Y60240D01*
X117424Y60215D01*
X117347Y60189D01*
X117256Y60175D01*
X117158Y60168D01*
X117125D01*
X117085Y60171D01*
X117038Y60179D01*
X116983Y60189D01*
X116925Y60204D01*
X116863Y60222D01*
X116805Y60251D01*
X116801D01*
X116798Y60255D01*
X116780Y60266D01*
X116750Y60284D01*
X116714Y60310D01*
X116674Y60346D01*
X116630Y60386D01*
X116590Y60433D01*
X116550Y60488D01*
X116547Y60495D01*
X116532Y60513D01*
X116517Y60546D01*
X116492Y60593D01*
X116470Y60648D01*
X116441Y60710D01*
X116416Y60783D01*
X116394Y60863D01*
Y60866D01*
X116390Y60874D01*
X116386Y60885D01*
X116383Y60903D01*
X116379Y60925D01*
X116376Y60950D01*
X116368Y60983D01*
X116365Y61019D01*
X116357Y61059D01*
X116354Y61103D01*
X116350Y61154D01*
X116343Y61205D01*
X116339Y61263D01*
Y61322D01*
X116335Y61387D01*
Y61456D01*
Y61460D01*
Y61474D01*
Y61500D01*
Y61529D01*
X116339Y61569D01*
Y61613D01*
X116343Y61660D01*
X116346Y61711D01*
X116357Y61827D01*
X116376Y61948D01*
X116397Y62064D01*
X116412Y62119D01*
X116430Y62173D01*
Y62177D01*
X116434Y62184D01*
X116441Y62199D01*
X116448Y62217D01*
X116456Y62242D01*
X116470Y62268D01*
X116499Y62330D01*
X116536Y62395D01*
X116583Y62468D01*
X116638Y62534D01*
X116703Y62595D01*
X116707D01*
X116710Y62603D01*
X116721Y62610D01*
X116736Y62617D01*
X116754Y62628D01*
X116772Y62643D01*
X116827Y62668D01*
X116892Y62694D01*
X116969Y62719D01*
X117060Y62734D01*
X117158Y62741D01*
X117194D01*
X117220Y62738D01*
D02*
G37*
G36*
X230927Y61329D02*
X230975Y61321D01*
X231033Y61310D01*
X231098Y61292D01*
X231164Y61270D01*
X231229Y61241D01*
X231233D01*
X231237Y61238D01*
X231259Y61227D01*
X231291Y61205D01*
X231328Y61180D01*
X231371Y61143D01*
X231415Y61103D01*
X231459Y61056D01*
X231495Y61001D01*
X231499Y60994D01*
X231510Y60976D01*
X231524Y60943D01*
X231542Y60903D01*
X231561Y60856D01*
X231575Y60801D01*
X231586Y60739D01*
X231590Y60677D01*
Y60670D01*
Y60648D01*
X231586Y60619D01*
X231579Y60579D01*
X231568Y60532D01*
X231550Y60481D01*
X231528Y60430D01*
X231499Y60379D01*
X231495Y60371D01*
X231484Y60357D01*
X231462Y60331D01*
X231433Y60302D01*
X231397Y60269D01*
X231353Y60233D01*
X231302Y60200D01*
X231240Y60168D01*
X231244D01*
X231251Y60164D01*
X231262Y60160D01*
X231277Y60157D01*
X231317Y60142D01*
X231368Y60120D01*
X231426Y60091D01*
X231484Y60055D01*
X231539Y60007D01*
X231590Y59953D01*
X231593Y59945D01*
X231608Y59924D01*
X231630Y59887D01*
X231652Y59840D01*
X231673Y59782D01*
X231695Y59713D01*
X231710Y59632D01*
X231714Y59545D01*
Y59541D01*
Y59531D01*
Y59512D01*
X231710Y59491D01*
X231706Y59461D01*
X231699Y59429D01*
X231692Y59392D01*
X231684Y59352D01*
X231655Y59265D01*
X231633Y59218D01*
X231612Y59174D01*
X231582Y59127D01*
X231550Y59079D01*
X231513Y59032D01*
X231470Y58988D01*
X231466Y58985D01*
X231459Y58977D01*
X231444Y58966D01*
X231426Y58952D01*
X231404Y58934D01*
X231375Y58915D01*
X231342Y58894D01*
X231302Y58875D01*
X231262Y58854D01*
X231215Y58832D01*
X231168Y58814D01*
X231113Y58795D01*
X231055Y58781D01*
X230993Y58770D01*
X230931Y58763D01*
X230862Y58759D01*
X230829D01*
X230807Y58763D01*
X230778Y58766D01*
X230745Y58770D01*
X230709Y58777D01*
X230669Y58784D01*
X230581Y58806D01*
X230490Y58843D01*
X230443Y58864D01*
X230399Y58890D01*
X230356Y58923D01*
X230312Y58955D01*
X230308Y58959D01*
X230301Y58966D01*
X230290Y58977D01*
X230279Y58992D01*
X230261Y59010D01*
X230243Y59035D01*
X230221Y59061D01*
X230199Y59094D01*
X230177Y59130D01*
X230156Y59167D01*
X230116Y59254D01*
X230083Y59356D01*
X230072Y59410D01*
X230065Y59469D01*
X230374Y59509D01*
Y59505D01*
X230378Y59498D01*
X230381Y59483D01*
X230385Y59465D01*
X230388Y59443D01*
X230396Y59418D01*
X230414Y59363D01*
X230439Y59298D01*
X230472Y59236D01*
X230509Y59178D01*
X230552Y59127D01*
X230560Y59123D01*
X230574Y59108D01*
X230603Y59090D01*
X230640Y59072D01*
X230683Y59050D01*
X230738Y59032D01*
X230800Y59017D01*
X230865Y59014D01*
X230887D01*
X230902Y59017D01*
X230942Y59021D01*
X230993Y59032D01*
X231051Y59050D01*
X231113Y59076D01*
X231175Y59112D01*
X231233Y59163D01*
X231240Y59170D01*
X231259Y59192D01*
X231280Y59225D01*
X231309Y59268D01*
X231339Y59323D01*
X231360Y59385D01*
X231379Y59458D01*
X231386Y59538D01*
Y59541D01*
Y59549D01*
Y59560D01*
X231382Y59574D01*
X231379Y59614D01*
X231368Y59662D01*
X231353Y59720D01*
X231328Y59778D01*
X231291Y59836D01*
X231244Y59891D01*
X231237Y59898D01*
X231218Y59913D01*
X231189Y59935D01*
X231149Y59960D01*
X231098Y59986D01*
X231036Y60007D01*
X230967Y60022D01*
X230891Y60029D01*
X230858D01*
X230833Y60026D01*
X230800Y60022D01*
X230763Y60015D01*
X230720Y60007D01*
X230672Y59996D01*
X230709Y60269D01*
X230727D01*
X230742Y60266D01*
X230789D01*
X230829Y60273D01*
X230876Y60280D01*
X230931Y60291D01*
X230993Y60309D01*
X231051Y60335D01*
X231113Y60368D01*
X231117D01*
X231120Y60371D01*
X231138Y60386D01*
X231164Y60411D01*
X231193Y60444D01*
X231222Y60492D01*
X231248Y60546D01*
X231266Y60608D01*
X231273Y60644D01*
Y60684D01*
Y60688D01*
Y60692D01*
Y60714D01*
X231266Y60743D01*
X231259Y60783D01*
X231244Y60826D01*
X231226Y60874D01*
X231197Y60921D01*
X231157Y60965D01*
X231153Y60968D01*
X231135Y60983D01*
X231109Y61001D01*
X231077Y61023D01*
X231033Y61041D01*
X230982Y61059D01*
X230924Y61074D01*
X230858Y61078D01*
X230829D01*
X230796Y61070D01*
X230752Y61063D01*
X230705Y61048D01*
X230658Y61030D01*
X230607Y61001D01*
X230560Y60965D01*
X230556Y60961D01*
X230541Y60943D01*
X230520Y60917D01*
X230494Y60881D01*
X230469Y60834D01*
X230443Y60775D01*
X230421Y60706D01*
X230407Y60626D01*
X230097Y60681D01*
Y60684D01*
X230101Y60695D01*
X230105Y60710D01*
X230108Y60732D01*
X230116Y60757D01*
X230126Y60786D01*
X230148Y60856D01*
X230185Y60936D01*
X230228Y61016D01*
X230283Y61092D01*
X230352Y61161D01*
X230356Y61165D01*
X230363Y61169D01*
X230374Y61176D01*
X230388Y61187D01*
X230407Y61201D01*
X230432Y61216D01*
X230458Y61230D01*
X230490Y61249D01*
X230563Y61278D01*
X230647Y61307D01*
X230745Y61325D01*
X230796Y61332D01*
X230887D01*
X230927Y61329D01*
D02*
G37*
G36*
X228929Y61318D02*
X228991Y61314D01*
X229056Y61310D01*
X229118Y61303D01*
X229173Y61296D01*
X229180D01*
X229205Y61289D01*
X229238Y61281D01*
X229282Y61270D01*
X229329Y61252D01*
X229380Y61230D01*
X229435Y61205D01*
X229482Y61176D01*
X229489Y61172D01*
X229504Y61161D01*
X229526Y61139D01*
X229555Y61114D01*
X229588Y61081D01*
X229621Y61037D01*
X229657Y60990D01*
X229686Y60936D01*
X229690Y60928D01*
X229697Y60910D01*
X229712Y60877D01*
X229726Y60834D01*
X229737Y60783D01*
X229751Y60725D01*
X229759Y60659D01*
X229762Y60590D01*
Y60586D01*
Y60575D01*
Y60561D01*
X229759Y60535D01*
X229755Y60510D01*
X229751Y60477D01*
X229744Y60441D01*
X229737Y60400D01*
X229712Y60317D01*
X229697Y60273D01*
X229675Y60226D01*
X229650Y60179D01*
X229624Y60135D01*
X229591Y60091D01*
X229555Y60047D01*
X229551Y60044D01*
X229544Y60036D01*
X229533Y60026D01*
X229515Y60015D01*
X229493Y59996D01*
X229464Y59978D01*
X229428Y59956D01*
X229387Y59938D01*
X229340Y59916D01*
X229286Y59895D01*
X229227Y59876D01*
X229158Y59862D01*
X229085Y59847D01*
X229005Y59836D01*
X228914Y59829D01*
X228820Y59825D01*
X228175D01*
Y58803D01*
X227840D01*
Y61321D01*
X228874D01*
X228929Y61318D01*
D02*
G37*
G36*
X227495Y61023D02*
X226665D01*
Y58803D01*
X226330D01*
Y61023D01*
X225500D01*
Y61321D01*
X227495D01*
Y61023D01*
D02*
G37*
G36*
X234873Y61329D02*
X234920Y61321D01*
X234975Y61310D01*
X235033Y61296D01*
X235095Y61278D01*
X235153Y61249D01*
X235157D01*
X235161Y61245D01*
X235179Y61234D01*
X235208Y61216D01*
X235244Y61190D01*
X235284Y61154D01*
X235328Y61114D01*
X235368Y61067D01*
X235408Y61012D01*
X235412Y61005D01*
X235426Y60987D01*
X235441Y60954D01*
X235466Y60906D01*
X235488Y60852D01*
X235517Y60790D01*
X235543Y60717D01*
X235565Y60637D01*
Y60633D01*
X235568Y60626D01*
X235572Y60615D01*
X235576Y60597D01*
X235579Y60575D01*
X235583Y60550D01*
X235590Y60517D01*
X235594Y60481D01*
X235601Y60441D01*
X235605Y60397D01*
X235608Y60346D01*
X235616Y60295D01*
X235619Y60237D01*
Y60179D01*
X235623Y60113D01*
Y60044D01*
Y60040D01*
Y60026D01*
Y60000D01*
Y59971D01*
X235619Y59931D01*
Y59887D01*
X235616Y59840D01*
X235612Y59789D01*
X235601Y59672D01*
X235583Y59552D01*
X235561Y59436D01*
X235546Y59381D01*
X235528Y59327D01*
Y59323D01*
X235525Y59316D01*
X235517Y59301D01*
X235510Y59283D01*
X235503Y59258D01*
X235488Y59232D01*
X235459Y59170D01*
X235423Y59105D01*
X235375Y59032D01*
X235321Y58966D01*
X235255Y58904D01*
X235252D01*
X235248Y58897D01*
X235237Y58890D01*
X235222Y58883D01*
X235204Y58872D01*
X235186Y58857D01*
X235131Y58832D01*
X235066Y58806D01*
X234990Y58781D01*
X234898Y58766D01*
X234800Y58759D01*
X234764D01*
X234738Y58763D01*
X234709Y58766D01*
X234673Y58773D01*
X234633Y58781D01*
X234589Y58792D01*
X234545Y58806D01*
X234498Y58821D01*
X234451Y58843D01*
X234403Y58868D01*
X234356Y58897D01*
X234309Y58934D01*
X234265Y58974D01*
X234225Y59017D01*
X234221Y59021D01*
X234214Y59032D01*
X234203Y59050D01*
X234185Y59079D01*
X234167Y59112D01*
X234149Y59156D01*
X234123Y59207D01*
X234101Y59265D01*
X234080Y59330D01*
X234058Y59407D01*
X234036Y59491D01*
X234018Y59585D01*
X233999Y59687D01*
X233988Y59796D01*
X233981Y59916D01*
X233978Y60044D01*
Y60047D01*
Y60062D01*
Y60088D01*
Y60117D01*
X233981Y60157D01*
Y60200D01*
X233985Y60248D01*
X233988Y60302D01*
X233999Y60415D01*
X234018Y60535D01*
X234039Y60655D01*
X234054Y60710D01*
X234069Y60764D01*
Y60768D01*
X234072Y60775D01*
X234080Y60790D01*
X234087Y60808D01*
X234094Y60834D01*
X234109Y60859D01*
X234138Y60921D01*
X234174Y60987D01*
X234221Y61056D01*
X234276Y61125D01*
X234342Y61183D01*
X234345D01*
X234349Y61190D01*
X234360Y61198D01*
X234374Y61205D01*
X234392Y61220D01*
X234414Y61230D01*
X234469Y61260D01*
X234535Y61285D01*
X234611Y61310D01*
X234702Y61325D01*
X234800Y61332D01*
X234833D01*
X234873Y61329D01*
D02*
G37*
G36*
X232915D02*
X232962Y61321D01*
X233017Y61310D01*
X233075Y61296D01*
X233137Y61278D01*
X233195Y61249D01*
X233199D01*
X233202Y61245D01*
X233220Y61234D01*
X233250Y61216D01*
X233286Y61190D01*
X233326Y61154D01*
X233370Y61114D01*
X233410Y61067D01*
X233450Y61012D01*
X233453Y61005D01*
X233468Y60987D01*
X233483Y60954D01*
X233508Y60906D01*
X233530Y60852D01*
X233559Y60790D01*
X233584Y60717D01*
X233606Y60637D01*
Y60633D01*
X233610Y60626D01*
X233614Y60615D01*
X233617Y60597D01*
X233621Y60575D01*
X233625Y60550D01*
X233632Y60517D01*
X233635Y60481D01*
X233643Y60441D01*
X233646Y60397D01*
X233650Y60346D01*
X233657Y60295D01*
X233661Y60237D01*
Y60179D01*
X233664Y60113D01*
Y60044D01*
Y60040D01*
Y60026D01*
Y60000D01*
Y59971D01*
X233661Y59931D01*
Y59887D01*
X233657Y59840D01*
X233654Y59789D01*
X233643Y59672D01*
X233625Y59552D01*
X233603Y59436D01*
X233588Y59381D01*
X233570Y59327D01*
Y59323D01*
X233566Y59316D01*
X233559Y59301D01*
X233552Y59283D01*
X233544Y59258D01*
X233530Y59232D01*
X233501Y59170D01*
X233464Y59105D01*
X233417Y59032D01*
X233362Y58966D01*
X233297Y58904D01*
X233293D01*
X233290Y58897D01*
X233279Y58890D01*
X233264Y58883D01*
X233246Y58872D01*
X233228Y58857D01*
X233173Y58832D01*
X233108Y58806D01*
X233031Y58781D01*
X232940Y58766D01*
X232842Y58759D01*
X232805D01*
X232780Y58763D01*
X232751Y58766D01*
X232715Y58773D01*
X232674Y58781D01*
X232631Y58792D01*
X232587Y58806D01*
X232540Y58821D01*
X232492Y58843D01*
X232445Y58868D01*
X232398Y58897D01*
X232350Y58934D01*
X232307Y58974D01*
X232267Y59017D01*
X232263Y59021D01*
X232256Y59032D01*
X232245Y59050D01*
X232227Y59079D01*
X232208Y59112D01*
X232190Y59156D01*
X232165Y59207D01*
X232143Y59265D01*
X232121Y59330D01*
X232099Y59407D01*
X232078Y59491D01*
X232059Y59585D01*
X232041Y59687D01*
X232030Y59796D01*
X232023Y59916D01*
X232019Y60044D01*
Y60047D01*
Y60062D01*
Y60088D01*
Y60117D01*
X232023Y60157D01*
Y60200D01*
X232027Y60248D01*
X232030Y60302D01*
X232041Y60415D01*
X232059Y60535D01*
X232081Y60655D01*
X232096Y60710D01*
X232110Y60764D01*
Y60768D01*
X232114Y60775D01*
X232121Y60790D01*
X232128Y60808D01*
X232136Y60834D01*
X232150Y60859D01*
X232179Y60921D01*
X232216Y60987D01*
X232263Y61056D01*
X232318Y61125D01*
X232383Y61183D01*
X232387D01*
X232390Y61190D01*
X232401Y61198D01*
X232416Y61205D01*
X232434Y61220D01*
X232456Y61230D01*
X232511Y61260D01*
X232576Y61285D01*
X232653Y61310D01*
X232744Y61325D01*
X232842Y61332D01*
X232875D01*
X232915Y61329D01*
D02*
G37*
G36*
X159321Y129117D02*
X157929Y127725D01*
X157934D01*
X157957Y127722D01*
X157988D01*
X158032Y127714D01*
X158083Y127709D01*
X158145Y127699D01*
X158215Y127686D01*
X158289Y127668D01*
X158292Y127665D01*
X158297D01*
X158323Y127660D01*
X158361Y127647D01*
X158408Y127632D01*
X158462Y127614D01*
X158518Y127593D01*
X158575Y127573D01*
X158629Y127550D01*
X158418Y127338D01*
X158415Y127341D01*
X158405D01*
X158392Y127349D01*
X158372Y127354D01*
X158348Y127362D01*
X158320Y127369D01*
X158251Y127387D01*
X158171Y127410D01*
X158083Y127426D01*
X157988Y127439D01*
X157890Y127449D01*
X157864D01*
X157846Y127452D01*
X157798Y127449D01*
X157736D01*
X157669Y127444D01*
X157594Y127436D01*
X157525Y127423D01*
X157455Y127405D01*
X157314Y127547D01*
X159102Y129336D01*
X159321Y129117D01*
D02*
G37*
G36*
X160335Y127959D02*
X160338Y127956D01*
X160346Y127959D01*
X160359Y127956D01*
X160374Y127951D01*
X160395Y127946D01*
X160418Y127943D01*
X160474Y127923D01*
X160539Y127894D01*
X160611Y127858D01*
X160686Y127804D01*
X160760Y127740D01*
X160786Y127714D01*
X160801Y127694D01*
X160819Y127671D01*
X160840Y127640D01*
X160863Y127606D01*
X160886Y127568D01*
X160907Y127526D01*
X160930Y127483D01*
X160948Y127434D01*
X160963Y127382D01*
X160976Y127328D01*
X160984Y127269D01*
X160987Y127210D01*
X160984Y127150D01*
Y127145D01*
X160982Y127132D01*
X160976Y127112D01*
X160969Y127078D01*
X160958Y127042D01*
X160940Y126999D01*
X160922Y126945D01*
X160897Y126888D01*
X160866Y126826D01*
X160827Y126757D01*
X160783Y126682D01*
X160729Y126602D01*
X160670Y126517D01*
X160600Y126432D01*
X160521Y126342D01*
X160433Y126250D01*
X160431Y126247D01*
X160420Y126237D01*
X160402Y126219D01*
X160382Y126198D01*
X160351Y126172D01*
X160320Y126142D01*
X160284Y126111D01*
X160243Y126075D01*
X160155Y126003D01*
X160057Y125931D01*
X159957Y125861D01*
X159908Y125833D01*
X159859Y125804D01*
X159857Y125802D01*
X159849Y125799D01*
X159834Y125794D01*
X159816Y125786D01*
X159792Y125774D01*
X159764Y125766D01*
X159700Y125743D01*
X159628Y125722D01*
X159545Y125707D01*
X159458Y125696D01*
X159370Y125701D01*
X159368Y125704D01*
X159360Y125701D01*
X159347Y125704D01*
X159332Y125709D01*
X159309Y125712D01*
X159285Y125719D01*
X159226Y125738D01*
X159162Y125766D01*
X159090Y125802D01*
X159015Y125856D01*
X158940Y125920D01*
X158917Y125943D01*
X158891Y125974D01*
X158863Y126013D01*
X158832Y126059D01*
X158801Y126111D01*
X158771Y126167D01*
X158750Y126229D01*
X158747Y126232D01*
Y126237D01*
X158742Y126257D01*
X158735Y126291D01*
X158727Y126335D01*
X158724Y126389D01*
X158722Y126448D01*
X158727Y126510D01*
X158737Y126576D01*
X158740Y126584D01*
X158742Y126607D01*
X158755Y126641D01*
X158771Y126692D01*
X158794Y126746D01*
X158817Y126811D01*
X158850Y126880D01*
X158891Y126952D01*
X158894Y126955D01*
X158897Y126963D01*
X158902Y126973D01*
X158912Y126988D01*
X158925Y127006D01*
X158940Y127027D01*
X158958Y127055D01*
X158982Y127084D01*
X159005Y127117D01*
X159033Y127150D01*
X159066Y127189D01*
X159097Y127230D01*
X159136Y127274D01*
X159177Y127315D01*
X159221Y127364D01*
X159270Y127413D01*
X159272Y127416D01*
X159283Y127426D01*
X159301Y127444D01*
X159321Y127464D01*
X159352Y127490D01*
X159383Y127521D01*
X159419Y127552D01*
X159458Y127585D01*
X159548Y127660D01*
X159646Y127732D01*
X159743Y127799D01*
X159792Y127827D01*
X159844Y127853D01*
X159846Y127856D01*
X159854Y127858D01*
X159870Y127864D01*
X159888Y127871D01*
X159911Y127884D01*
X159939Y127892D01*
X160003Y127915D01*
X160075Y127936D01*
X160160Y127954D01*
X160245Y127961D01*
X160335Y127959D01*
D02*
G37*
G36*
X161602Y126605D02*
X161625Y126602D01*
X161653Y126600D01*
X161687Y126592D01*
X161725Y126584D01*
X161767Y126569D01*
X161810Y126556D01*
X161859Y126538D01*
X161906Y126517D01*
X161957Y126492D01*
X162008Y126461D01*
X162060Y126425D01*
X162109Y126386D01*
X162160Y126340D01*
X162183Y126317D01*
X162196Y126299D01*
X162214Y126275D01*
X162235Y126250D01*
X162256Y126219D01*
X162279Y126185D01*
X162325Y126108D01*
X162364Y126018D01*
X162382Y125969D01*
X162394Y125920D01*
X162402Y125866D01*
X162410Y125812D01*
Y125807D01*
Y125797D01*
Y125781D01*
X162407Y125763D01*
Y125738D01*
X162402Y125707D01*
X162400Y125673D01*
X162392Y125635D01*
X162382Y125593D01*
X162371Y125552D01*
X162338Y125462D01*
X162289Y125367D01*
X162258Y125320D01*
X162222Y125274D01*
X161975Y125465D01*
X161978Y125467D01*
X161980Y125475D01*
X161988Y125488D01*
X161998Y125503D01*
X162011Y125521D01*
X162024Y125544D01*
X162050Y125596D01*
X162078Y125660D01*
X162099Y125727D01*
X162114Y125794D01*
X162119Y125861D01*
X162117Y125869D01*
Y125889D01*
X162109Y125923D01*
X162096Y125961D01*
X162081Y126008D01*
X162055Y126059D01*
X162021Y126113D01*
X161978Y126162D01*
X161962Y126178D01*
X161949Y126185D01*
X161918Y126211D01*
X161875Y126239D01*
X161821Y126268D01*
X161759Y126293D01*
X161689Y126311D01*
X161612Y126317D01*
X161602D01*
X161574Y126314D01*
X161535Y126306D01*
X161483Y126296D01*
X161424Y126278D01*
X161365Y126250D01*
X161301Y126211D01*
X161239Y126160D01*
X161236Y126157D01*
X161231Y126152D01*
X161223Y126144D01*
X161216Y126131D01*
X161190Y126100D01*
X161164Y126059D01*
X161133Y126008D01*
X161110Y125949D01*
X161095Y125882D01*
X161090Y125810D01*
Y125799D01*
X161092Y125776D01*
X161097Y125740D01*
X161108Y125694D01*
X161126Y125640D01*
X161154Y125581D01*
X161193Y125521D01*
X161241Y125462D01*
X161265Y125439D01*
X161285Y125424D01*
X161311Y125403D01*
X161342Y125382D01*
X161378Y125356D01*
X161419Y125331D01*
X161200Y125163D01*
X161187Y125176D01*
X161180Y125189D01*
X161146Y125223D01*
X161113Y125246D01*
X161074Y125274D01*
X161028Y125305D01*
X160971Y125336D01*
X160912Y125359D01*
X160845Y125380D01*
X160843Y125382D01*
X160837D01*
X160814Y125385D01*
X160778D01*
X160734Y125382D01*
X160680Y125369D01*
X160624Y125349D01*
X160567Y125318D01*
X160536Y125297D01*
X160508Y125269D01*
X160505Y125267D01*
X160503Y125264D01*
X160487Y125248D01*
X160472Y125223D01*
X160449Y125189D01*
X160428Y125148D01*
X160407Y125102D01*
X160395Y125048D01*
X160392Y124988D01*
Y124983D01*
X160395Y124960D01*
X160400Y124929D01*
X160407Y124891D01*
X160425Y124847D01*
X160449Y124798D01*
X160480Y124747D01*
X160523Y124698D01*
X160544Y124677D01*
X160572Y124659D01*
X160608Y124633D01*
X160652Y124610D01*
X160698Y124590D01*
X160755Y124574D01*
X160814Y124566D01*
X160819D01*
X160843Y124569D01*
X160876Y124572D01*
X160920Y124579D01*
X160971Y124595D01*
X161030Y124618D01*
X161095Y124651D01*
X161162Y124698D01*
X161342Y124440D01*
X161339Y124438D01*
X161329Y124433D01*
X161316Y124425D01*
X161298Y124412D01*
X161275Y124399D01*
X161247Y124386D01*
X161182Y124353D01*
X161100Y124322D01*
X161012Y124296D01*
X160920Y124281D01*
X160817D01*
X160809Y124283D01*
X160796Y124286D01*
X160778Y124288D01*
X160755Y124291D01*
X160727Y124299D01*
X160698Y124306D01*
X160662Y124317D01*
X160590Y124348D01*
X160510Y124386D01*
X160428Y124443D01*
X160387Y124474D01*
X160323Y124538D01*
X160297Y124569D01*
X160268Y124608D01*
X160235Y124656D01*
X160202Y124716D01*
X160171Y124777D01*
X160145Y124844D01*
X160142Y124847D01*
Y124852D01*
X160135Y124875D01*
X160127Y124914D01*
X160119Y124958D01*
X160114Y125014D01*
X160111Y125073D01*
X160114Y125138D01*
X160127Y125202D01*
X160129Y125210D01*
X160135Y125230D01*
X160148Y125264D01*
X160163Y125305D01*
X160184Y125351D01*
X160212Y125400D01*
X160248Y125452D01*
X160289Y125498D01*
X160294Y125503D01*
X160310Y125519D01*
X160333Y125537D01*
X160366Y125560D01*
X160407Y125586D01*
X160456Y125609D01*
X160508Y125629D01*
X160564Y125645D01*
X160572Y125647D01*
X160590Y125650D01*
X160624Y125653D01*
X160665D01*
X160714Y125650D01*
X160770Y125645D01*
X160830Y125632D01*
X160897Y125611D01*
X160894Y125614D01*
X160891Y125622D01*
X160886Y125632D01*
X160879Y125645D01*
X160861Y125683D01*
X160840Y125735D01*
X160819Y125797D01*
X160804Y125864D01*
X160799Y125936D01*
X160801Y126010D01*
X160804Y126018D01*
X160809Y126044D01*
X160819Y126085D01*
X160837Y126134D01*
X160863Y126190D01*
X160897Y126255D01*
X160943Y126322D01*
X161002Y126386D01*
X161005Y126389D01*
X161012Y126396D01*
X161025Y126409D01*
X161043Y126422D01*
X161066Y126440D01*
X161095Y126458D01*
X161126Y126479D01*
X161159Y126502D01*
X161241Y126543D01*
X161290Y126561D01*
X161337Y126576D01*
X161391Y126589D01*
X161447Y126600D01*
X161506Y126607D01*
X161584D01*
X161602Y126605D01*
D02*
G37*
G36*
X163120Y125107D02*
X163216Y125089D01*
X163218Y125086D01*
X163228D01*
X163239Y125081D01*
X163259Y125076D01*
X163283Y125068D01*
X163311Y125055D01*
X163339Y125042D01*
X163375Y125027D01*
X163414Y125009D01*
X163452Y124986D01*
X163494Y124960D01*
X163540Y124929D01*
X163584Y124896D01*
X163630Y124860D01*
X163728Y124772D01*
X163751Y124749D01*
X163766Y124729D01*
X163787Y124708D01*
X163810Y124680D01*
X163836Y124649D01*
X163862Y124618D01*
X163916Y124543D01*
X163970Y124458D01*
X164016Y124371D01*
X164052Y124278D01*
X164055Y124276D01*
Y124265D01*
X164057Y124252D01*
X164062Y124237D01*
X164070Y124188D01*
X164075Y124126D01*
X164078Y124052D01*
X164073Y123974D01*
X164057Y123887D01*
X164029Y123802D01*
X164026Y123799D01*
X164024Y123792D01*
X164016Y123779D01*
X164008Y123761D01*
X163998Y123740D01*
X163983Y123714D01*
X163967Y123684D01*
X163944Y123650D01*
X163918Y123614D01*
X163892Y123573D01*
X163862Y123532D01*
X163828Y123488D01*
X163790Y123439D01*
X163746Y123390D01*
X163699Y123339D01*
X163648Y123287D01*
X162619Y122258D01*
X162382Y122494D01*
X163411Y123524D01*
X163414Y123527D01*
X163421Y123534D01*
X163434Y123547D01*
X163450Y123563D01*
X163465Y123583D01*
X163488Y123606D01*
X163535Y123658D01*
X163586Y123720D01*
X163635Y123784D01*
X163679Y123848D01*
X163697Y123877D01*
X163712Y123907D01*
X163715Y123915D01*
X163723Y123933D01*
X163728Y123964D01*
X163738Y124005D01*
X163746Y124049D01*
X163748Y124103D01*
X163746Y124162D01*
X163733Y124222D01*
X163730Y124229D01*
X163725Y124250D01*
X163710Y124281D01*
X163689Y124322D01*
X163666Y124371D01*
X163627Y124425D01*
X163586Y124481D01*
X163535Y124538D01*
X163509Y124564D01*
X163491Y124577D01*
X163468Y124600D01*
X163442Y124620D01*
X163375Y124667D01*
X163301Y124716D01*
X163221Y124754D01*
X163136Y124783D01*
X163092Y124790D01*
X163048Y124793D01*
X163038D01*
X163025Y124790D01*
X163007Y124788D01*
X162984Y124780D01*
X162958Y124775D01*
X162925Y124762D01*
X162891Y124749D01*
X162853Y124731D01*
X162812Y124705D01*
X162763Y124677D01*
X162714Y124644D01*
X162660Y124605D01*
X162606Y124561D01*
X162544Y124510D01*
X162485Y124451D01*
X161455Y123421D01*
X161218Y123658D01*
X162248Y124687D01*
X162250Y124690D01*
X162261Y124700D01*
X162274Y124713D01*
X162292Y124731D01*
X162317Y124752D01*
X162343Y124777D01*
X162376Y124806D01*
X162410Y124834D01*
X162487Y124896D01*
X162570Y124958D01*
X162654Y125012D01*
X162698Y125035D01*
X162739Y125055D01*
X162742Y125058D01*
X162750Y125060D01*
X162763Y125063D01*
X162778Y125068D01*
X162822Y125081D01*
X162881Y125094D01*
X162953Y125104D01*
X163030Y125109D01*
X163120Y125107D01*
D02*
G37*
G36*
X207927Y151829D02*
X207975Y151821D01*
X208033Y151811D01*
X208098Y151792D01*
X208164Y151770D01*
X208229Y151741D01*
X208233D01*
X208237Y151738D01*
X208259Y151727D01*
X208291Y151705D01*
X208328Y151680D01*
X208371Y151643D01*
X208415Y151603D01*
X208459Y151556D01*
X208495Y151501D01*
X208499Y151494D01*
X208510Y151476D01*
X208524Y151443D01*
X208542Y151403D01*
X208561Y151356D01*
X208575Y151301D01*
X208586Y151239D01*
X208590Y151177D01*
Y151170D01*
Y151148D01*
X208586Y151119D01*
X208579Y151079D01*
X208568Y151032D01*
X208550Y150981D01*
X208528Y150930D01*
X208499Y150879D01*
X208495Y150871D01*
X208484Y150857D01*
X208462Y150831D01*
X208433Y150802D01*
X208397Y150769D01*
X208353Y150733D01*
X208302Y150700D01*
X208240Y150668D01*
X208244D01*
X208251Y150664D01*
X208262Y150660D01*
X208277Y150657D01*
X208317Y150642D01*
X208368Y150620D01*
X208426Y150591D01*
X208484Y150555D01*
X208539Y150507D01*
X208590Y150453D01*
X208593Y150445D01*
X208608Y150424D01*
X208630Y150387D01*
X208652Y150340D01*
X208673Y150282D01*
X208695Y150213D01*
X208710Y150133D01*
X208714Y150045D01*
Y150041D01*
Y150031D01*
Y150012D01*
X208710Y149990D01*
X208706Y149961D01*
X208699Y149929D01*
X208692Y149892D01*
X208684Y149852D01*
X208655Y149765D01*
X208633Y149717D01*
X208612Y149674D01*
X208582Y149627D01*
X208550Y149579D01*
X208513Y149532D01*
X208470Y149488D01*
X208466Y149485D01*
X208459Y149477D01*
X208444Y149466D01*
X208426Y149452D01*
X208404Y149434D01*
X208375Y149415D01*
X208342Y149394D01*
X208302Y149375D01*
X208262Y149354D01*
X208215Y149332D01*
X208168Y149313D01*
X208113Y149295D01*
X208055Y149281D01*
X207993Y149270D01*
X207931Y149262D01*
X207862Y149259D01*
X207829D01*
X207807Y149262D01*
X207778Y149266D01*
X207745Y149270D01*
X207709Y149277D01*
X207669Y149284D01*
X207581Y149306D01*
X207490Y149343D01*
X207443Y149364D01*
X207399Y149390D01*
X207356Y149423D01*
X207312Y149455D01*
X207308Y149459D01*
X207301Y149466D01*
X207290Y149477D01*
X207279Y149492D01*
X207261Y149510D01*
X207243Y149536D01*
X207221Y149561D01*
X207199Y149594D01*
X207177Y149630D01*
X207156Y149667D01*
X207116Y149754D01*
X207083Y149856D01*
X207072Y149910D01*
X207065Y149969D01*
X207374Y150009D01*
Y150005D01*
X207378Y149998D01*
X207381Y149983D01*
X207385Y149965D01*
X207388Y149943D01*
X207396Y149918D01*
X207414Y149863D01*
X207439Y149798D01*
X207472Y149736D01*
X207509Y149678D01*
X207552Y149627D01*
X207560Y149623D01*
X207574Y149608D01*
X207603Y149590D01*
X207640Y149572D01*
X207683Y149550D01*
X207738Y149532D01*
X207800Y149517D01*
X207865Y149514D01*
X207887D01*
X207902Y149517D01*
X207942Y149521D01*
X207993Y149532D01*
X208051Y149550D01*
X208113Y149576D01*
X208175Y149612D01*
X208233Y149663D01*
X208240Y149670D01*
X208259Y149692D01*
X208280Y149725D01*
X208309Y149768D01*
X208339Y149823D01*
X208360Y149885D01*
X208379Y149958D01*
X208386Y150038D01*
Y150041D01*
Y150049D01*
Y150060D01*
X208382Y150074D01*
X208379Y150114D01*
X208368Y150162D01*
X208353Y150220D01*
X208328Y150278D01*
X208291Y150336D01*
X208244Y150391D01*
X208237Y150398D01*
X208218Y150413D01*
X208189Y150435D01*
X208149Y150460D01*
X208098Y150486D01*
X208036Y150507D01*
X207967Y150522D01*
X207891Y150529D01*
X207858D01*
X207833Y150526D01*
X207800Y150522D01*
X207763Y150515D01*
X207720Y150507D01*
X207672Y150496D01*
X207709Y150769D01*
X207727D01*
X207742Y150766D01*
X207789D01*
X207829Y150773D01*
X207876Y150780D01*
X207931Y150791D01*
X207993Y150810D01*
X208051Y150835D01*
X208113Y150868D01*
X208117D01*
X208120Y150871D01*
X208138Y150886D01*
X208164Y150911D01*
X208193Y150944D01*
X208222Y150991D01*
X208248Y151046D01*
X208266Y151108D01*
X208273Y151144D01*
Y151184D01*
Y151188D01*
Y151192D01*
Y151214D01*
X208266Y151243D01*
X208259Y151283D01*
X208244Y151326D01*
X208226Y151374D01*
X208197Y151421D01*
X208157Y151465D01*
X208153Y151468D01*
X208135Y151483D01*
X208109Y151501D01*
X208077Y151523D01*
X208033Y151541D01*
X207982Y151559D01*
X207924Y151574D01*
X207858Y151578D01*
X207829D01*
X207796Y151570D01*
X207752Y151563D01*
X207705Y151548D01*
X207658Y151530D01*
X207607Y151501D01*
X207560Y151465D01*
X207556Y151461D01*
X207541Y151443D01*
X207520Y151417D01*
X207494Y151381D01*
X207469Y151334D01*
X207443Y151275D01*
X207421Y151206D01*
X207407Y151126D01*
X207097Y151181D01*
Y151184D01*
X207101Y151195D01*
X207105Y151210D01*
X207108Y151232D01*
X207116Y151257D01*
X207126Y151286D01*
X207148Y151356D01*
X207185Y151436D01*
X207228Y151516D01*
X207283Y151592D01*
X207352Y151661D01*
X207356Y151665D01*
X207363Y151669D01*
X207374Y151676D01*
X207388Y151687D01*
X207407Y151701D01*
X207432Y151716D01*
X207458Y151730D01*
X207490Y151749D01*
X207563Y151778D01*
X207647Y151807D01*
X207745Y151825D01*
X207796Y151832D01*
X207887D01*
X207927Y151829D01*
D02*
G37*
G36*
X211873D02*
X211902Y151825D01*
X211939Y151821D01*
X211979Y151814D01*
X212019Y151807D01*
X212113Y151781D01*
X212208Y151745D01*
X212255Y151723D01*
X212302Y151698D01*
X212346Y151665D01*
X212386Y151628D01*
X212390Y151625D01*
X212397Y151621D01*
X212404Y151607D01*
X212419Y151592D01*
X212437Y151574D01*
X212455Y151548D01*
X212474Y151523D01*
X212495Y151490D01*
X212532Y151421D01*
X212568Y151334D01*
X212583Y151290D01*
X212590Y151239D01*
X212597Y151188D01*
X212601Y151134D01*
Y151126D01*
Y151108D01*
X212597Y151079D01*
X212594Y151039D01*
X212586Y150995D01*
X212572Y150944D01*
X212557Y150890D01*
X212536Y150835D01*
X212532Y150828D01*
X212525Y150810D01*
X212510Y150780D01*
X212488Y150740D01*
X212459Y150697D01*
X212423Y150642D01*
X212379Y150587D01*
X212328Y150526D01*
X212321Y150518D01*
X212302Y150496D01*
X212284Y150478D01*
X212266Y150460D01*
X212244Y150438D01*
X212215Y150409D01*
X212186Y150380D01*
X212150Y150347D01*
X212113Y150311D01*
X212070Y150271D01*
X212022Y150231D01*
X211971Y150183D01*
X211913Y150136D01*
X211855Y150085D01*
X211851Y150082D01*
X211844Y150074D01*
X211829Y150063D01*
X211811Y150049D01*
X211789Y150027D01*
X211764Y150005D01*
X211706Y149958D01*
X211644Y149903D01*
X211585Y149849D01*
X211535Y149801D01*
X211513Y149783D01*
X211494Y149765D01*
X211491Y149761D01*
X211480Y149750D01*
X211465Y149736D01*
X211447Y149714D01*
X211429Y149688D01*
X211407Y149663D01*
X211363Y149601D01*
X212605D01*
Y149303D01*
X210934D01*
Y149306D01*
Y149321D01*
Y149343D01*
X210938Y149372D01*
X210941Y149405D01*
X210948Y149441D01*
X210956Y149477D01*
X210970Y149517D01*
Y149521D01*
X210974Y149525D01*
X210981Y149546D01*
X210996Y149579D01*
X211018Y149623D01*
X211047Y149674D01*
X211083Y149732D01*
X211123Y149790D01*
X211174Y149852D01*
Y149856D01*
X211181Y149859D01*
X211200Y149881D01*
X211232Y149914D01*
X211280Y149961D01*
X211334Y150016D01*
X211403Y150082D01*
X211487Y150154D01*
X211578Y150231D01*
X211582Y150234D01*
X211596Y150245D01*
X211618Y150264D01*
X211644Y150285D01*
X211676Y150314D01*
X211717Y150347D01*
X211756Y150384D01*
X211804Y150424D01*
X211895Y150511D01*
X211986Y150598D01*
X212030Y150642D01*
X212070Y150686D01*
X212106Y150726D01*
X212135Y150766D01*
Y150769D01*
X212142Y150773D01*
X212150Y150784D01*
X212157Y150799D01*
X212182Y150839D01*
X212211Y150886D01*
X212237Y150944D01*
X212263Y151006D01*
X212277Y151075D01*
X212284Y151141D01*
Y151144D01*
Y151148D01*
X212281Y151170D01*
X212277Y151206D01*
X212266Y151246D01*
X212252Y151297D01*
X212226Y151348D01*
X212193Y151399D01*
X212150Y151450D01*
X212142Y151457D01*
X212124Y151472D01*
X212099Y151490D01*
X212059Y151516D01*
X212008Y151538D01*
X211949Y151559D01*
X211880Y151574D01*
X211804Y151578D01*
X211782D01*
X211767Y151574D01*
X211724Y151570D01*
X211673Y151559D01*
X211618Y151545D01*
X211556Y151519D01*
X211498Y151487D01*
X211443Y151443D01*
X211436Y151436D01*
X211422Y151417D01*
X211400Y151388D01*
X211378Y151345D01*
X211352Y151294D01*
X211331Y151228D01*
X211316Y151155D01*
X211309Y151072D01*
X210992Y151104D01*
Y151108D01*
X210996Y151119D01*
Y151137D01*
X210999Y151163D01*
X211007Y151192D01*
X211014Y151225D01*
X211025Y151265D01*
X211036Y151305D01*
X211065Y151392D01*
X211109Y151479D01*
X211134Y151523D01*
X211167Y151567D01*
X211200Y151607D01*
X211236Y151643D01*
X211240Y151647D01*
X211247Y151650D01*
X211258Y151661D01*
X211276Y151672D01*
X211298Y151687D01*
X211323Y151701D01*
X211352Y151719D01*
X211389Y151738D01*
X211429Y151756D01*
X211473Y151774D01*
X211520Y151789D01*
X211571Y151803D01*
X211626Y151814D01*
X211684Y151825D01*
X211746Y151829D01*
X211811Y151832D01*
X211847D01*
X211873Y151829D01*
D02*
G37*
G36*
X205929Y151818D02*
X205991Y151814D01*
X206056Y151811D01*
X206118Y151803D01*
X206173Y151796D01*
X206180D01*
X206206Y151789D01*
X206238Y151781D01*
X206282Y151770D01*
X206329Y151752D01*
X206380Y151730D01*
X206435Y151705D01*
X206482Y151676D01*
X206489Y151672D01*
X206504Y151661D01*
X206526Y151639D01*
X206555Y151614D01*
X206588Y151581D01*
X206621Y151538D01*
X206657Y151490D01*
X206686Y151436D01*
X206690Y151428D01*
X206697Y151410D01*
X206712Y151377D01*
X206726Y151334D01*
X206737Y151283D01*
X206751Y151225D01*
X206759Y151159D01*
X206762Y151090D01*
Y151086D01*
Y151075D01*
Y151061D01*
X206759Y151035D01*
X206755Y151010D01*
X206751Y150977D01*
X206744Y150941D01*
X206737Y150900D01*
X206712Y150817D01*
X206697Y150773D01*
X206675Y150726D01*
X206650Y150679D01*
X206624Y150635D01*
X206591Y150591D01*
X206555Y150547D01*
X206551Y150544D01*
X206544Y150537D01*
X206533Y150526D01*
X206515Y150515D01*
X206493Y150496D01*
X206464Y150478D01*
X206428Y150456D01*
X206387Y150438D01*
X206340Y150416D01*
X206286Y150395D01*
X206227Y150376D01*
X206158Y150362D01*
X206085Y150347D01*
X206005Y150336D01*
X205914Y150329D01*
X205820Y150325D01*
X205175D01*
Y149303D01*
X204840D01*
Y151821D01*
X205874D01*
X205929Y151818D01*
D02*
G37*
G36*
X204495Y151523D02*
X203665D01*
Y149303D01*
X203330D01*
Y151523D01*
X202500D01*
Y151821D01*
X204495D01*
Y151523D01*
D02*
G37*
G36*
X209915Y151829D02*
X209962Y151821D01*
X210017Y151811D01*
X210075Y151796D01*
X210137Y151778D01*
X210195Y151749D01*
X210199D01*
X210202Y151745D01*
X210220Y151734D01*
X210250Y151716D01*
X210286Y151690D01*
X210326Y151654D01*
X210370Y151614D01*
X210410Y151567D01*
X210450Y151512D01*
X210453Y151505D01*
X210468Y151487D01*
X210483Y151454D01*
X210508Y151407D01*
X210530Y151352D01*
X210559Y151290D01*
X210584Y151217D01*
X210606Y151137D01*
Y151134D01*
X210610Y151126D01*
X210614Y151115D01*
X210617Y151097D01*
X210621Y151075D01*
X210625Y151050D01*
X210632Y151017D01*
X210635Y150981D01*
X210643Y150941D01*
X210646Y150897D01*
X210650Y150846D01*
X210657Y150795D01*
X210661Y150737D01*
Y150679D01*
X210665Y150613D01*
Y150544D01*
Y150540D01*
Y150526D01*
Y150500D01*
Y150471D01*
X210661Y150431D01*
Y150387D01*
X210657Y150340D01*
X210654Y150289D01*
X210643Y150172D01*
X210625Y150052D01*
X210603Y149936D01*
X210588Y149881D01*
X210570Y149827D01*
Y149823D01*
X210566Y149816D01*
X210559Y149801D01*
X210552Y149783D01*
X210544Y149758D01*
X210530Y149732D01*
X210501Y149670D01*
X210464Y149605D01*
X210417Y149532D01*
X210362Y149466D01*
X210297Y149405D01*
X210293D01*
X210290Y149397D01*
X210279Y149390D01*
X210264Y149383D01*
X210246Y149372D01*
X210228Y149357D01*
X210173Y149332D01*
X210108Y149306D01*
X210031Y149281D01*
X209940Y149266D01*
X209842Y149259D01*
X209805D01*
X209780Y149262D01*
X209751Y149266D01*
X209715Y149273D01*
X209674Y149281D01*
X209631Y149292D01*
X209587Y149306D01*
X209540Y149321D01*
X209492Y149343D01*
X209445Y149368D01*
X209398Y149397D01*
X209350Y149434D01*
X209307Y149474D01*
X209267Y149517D01*
X209263Y149521D01*
X209256Y149532D01*
X209245Y149550D01*
X209227Y149579D01*
X209208Y149612D01*
X209190Y149656D01*
X209165Y149707D01*
X209143Y149765D01*
X209121Y149830D01*
X209099Y149907D01*
X209078Y149990D01*
X209059Y150085D01*
X209041Y150187D01*
X209030Y150296D01*
X209023Y150416D01*
X209019Y150544D01*
Y150547D01*
Y150562D01*
Y150587D01*
Y150617D01*
X209023Y150657D01*
Y150700D01*
X209027Y150748D01*
X209030Y150802D01*
X209041Y150915D01*
X209059Y151035D01*
X209081Y151155D01*
X209096Y151210D01*
X209110Y151265D01*
Y151268D01*
X209114Y151275D01*
X209121Y151290D01*
X209128Y151308D01*
X209136Y151334D01*
X209150Y151359D01*
X209179Y151421D01*
X209216Y151487D01*
X209263Y151556D01*
X209318Y151625D01*
X209383Y151683D01*
X209387D01*
X209390Y151690D01*
X209401Y151698D01*
X209416Y151705D01*
X209434Y151719D01*
X209456Y151730D01*
X209511Y151760D01*
X209576Y151785D01*
X209653Y151811D01*
X209744Y151825D01*
X209842Y151832D01*
X209875D01*
X209915Y151829D01*
D02*
G37*
%LPC*%
G36*
X137396Y96023D02*
X136675D01*
Y95124D01*
X137352D01*
X137378Y95127D01*
X137403D01*
X137433Y95131D01*
X137502Y95138D01*
X137578Y95153D01*
X137655Y95175D01*
X137724Y95204D01*
X137757Y95222D01*
X137782Y95244D01*
X137789Y95251D01*
X137804Y95266D01*
X137826Y95295D01*
X137851Y95331D01*
X137877Y95379D01*
X137898Y95437D01*
X137913Y95502D01*
X137920Y95579D01*
Y95582D01*
Y95586D01*
Y95604D01*
X137917Y95637D01*
X137909Y95674D01*
X137902Y95714D01*
X137888Y95761D01*
X137866Y95805D01*
X137840Y95848D01*
X137837Y95852D01*
X137826Y95866D01*
X137807Y95885D01*
X137786Y95910D01*
X137753Y95936D01*
X137716Y95957D01*
X137676Y95979D01*
X137629Y95998D01*
X137625D01*
X137611Y96001D01*
X137589Y96005D01*
X137560Y96012D01*
X137516Y96016D01*
X137462Y96019D01*
X137396Y96023D01*
D02*
G37*
G36*
X141338Y96078D02*
X141316D01*
X141302Y96074D01*
X141262Y96067D01*
X141215Y96056D01*
X141160Y96034D01*
X141102Y96001D01*
X141072Y95979D01*
X141043Y95957D01*
X141018Y95928D01*
X140992Y95896D01*
Y95892D01*
X140985Y95885D01*
X140978Y95870D01*
X140967Y95852D01*
X140956Y95823D01*
X140942Y95790D01*
X140931Y95750D01*
X140916Y95703D01*
X140901Y95648D01*
X140887Y95586D01*
X140872Y95517D01*
X140861Y95441D01*
X140850Y95353D01*
X140843Y95259D01*
X140840Y95157D01*
X140836Y95044D01*
Y95037D01*
Y95018D01*
Y94986D01*
X140840Y94942D01*
Y94895D01*
X140843Y94836D01*
X140847Y94774D01*
X140854Y94709D01*
X140872Y94567D01*
X140883Y94498D01*
X140898Y94432D01*
X140912Y94370D01*
X140934Y94312D01*
X140956Y94261D01*
X140981Y94217D01*
Y94214D01*
X140989Y94210D01*
X141007Y94185D01*
X141040Y94152D01*
X141080Y94116D01*
X141134Y94079D01*
X141196Y94046D01*
X141265Y94021D01*
X141302Y94017D01*
X141342Y94014D01*
X141364D01*
X141378Y94017D01*
X141415Y94025D01*
X141466Y94039D01*
X141520Y94065D01*
X141582Y94101D01*
X141611Y94123D01*
X141640Y94152D01*
X141669Y94181D01*
X141699Y94217D01*
Y94221D01*
X141706Y94228D01*
X141713Y94239D01*
X141720Y94258D01*
X141735Y94283D01*
X141746Y94316D01*
X141761Y94352D01*
X141775Y94396D01*
X141786Y94450D01*
X141800Y94509D01*
X141815Y94578D01*
X141826Y94651D01*
X141833Y94738D01*
X141841Y94829D01*
X141848Y94931D01*
Y95044D01*
Y95047D01*
Y95051D01*
Y95069D01*
Y95102D01*
X141844Y95146D01*
Y95193D01*
X141841Y95251D01*
X141837Y95313D01*
X141830Y95382D01*
X141811Y95521D01*
X141800Y95590D01*
X141786Y95655D01*
X141771Y95717D01*
X141750Y95775D01*
X141728Y95826D01*
X141702Y95870D01*
Y95874D01*
X141695Y95877D01*
X141688Y95888D01*
X141677Y95903D01*
X141644Y95936D01*
X141604Y95976D01*
X141549Y96012D01*
X141488Y96045D01*
X141455Y96059D01*
X141418Y96070D01*
X141378Y96074D01*
X141338Y96078D01*
D02*
G37*
G36*
X121825Y61376D02*
X121148D01*
X121122Y61373D01*
X121097D01*
X121068Y61369D01*
X120998Y61362D01*
X120922Y61347D01*
X120845Y61325D01*
X120776Y61296D01*
X120744Y61278D01*
X120718Y61256D01*
X120711Y61249D01*
X120696Y61234D01*
X120674Y61205D01*
X120649Y61169D01*
X120623Y61121D01*
X120602Y61063D01*
X120587Y60998D01*
X120580Y60921D01*
Y60918D01*
Y60914D01*
Y60896D01*
X120583Y60863D01*
X120591Y60826D01*
X120598Y60786D01*
X120613Y60739D01*
X120634Y60695D01*
X120660Y60652D01*
X120663Y60648D01*
X120674Y60634D01*
X120693Y60615D01*
X120714Y60590D01*
X120747Y60564D01*
X120784Y60543D01*
X120824Y60521D01*
X120871Y60502D01*
X120875D01*
X120889Y60499D01*
X120911Y60495D01*
X120940Y60488D01*
X120984Y60484D01*
X121038Y60481D01*
X121104Y60477D01*
X121825D01*
Y61376D01*
D02*
G37*
G36*
X117158Y62486D02*
X117136D01*
X117122Y62483D01*
X117085Y62475D01*
X117034Y62461D01*
X116980Y62435D01*
X116918Y62399D01*
X116889Y62377D01*
X116860Y62348D01*
X116831Y62319D01*
X116801Y62283D01*
Y62279D01*
X116794Y62272D01*
X116787Y62261D01*
X116780Y62242D01*
X116765Y62217D01*
X116754Y62184D01*
X116739Y62148D01*
X116725Y62104D01*
X116714Y62050D01*
X116700Y61991D01*
X116685Y61922D01*
X116674Y61849D01*
X116667Y61762D01*
X116659Y61671D01*
X116652Y61569D01*
Y61456D01*
Y61453D01*
Y61449D01*
Y61431D01*
Y61398D01*
X116656Y61354D01*
Y61307D01*
X116659Y61249D01*
X116663Y61187D01*
X116670Y61118D01*
X116689Y60979D01*
X116700Y60910D01*
X116714Y60845D01*
X116729Y60783D01*
X116750Y60725D01*
X116772Y60674D01*
X116798Y60630D01*
Y60626D01*
X116805Y60623D01*
X116812Y60612D01*
X116823Y60597D01*
X116856Y60564D01*
X116896Y60524D01*
X116951Y60488D01*
X117013Y60455D01*
X117045Y60441D01*
X117082Y60430D01*
X117122Y60426D01*
X117162Y60422D01*
X117184D01*
X117198Y60426D01*
X117238Y60433D01*
X117286Y60444D01*
X117340Y60466D01*
X117398Y60499D01*
X117428Y60521D01*
X117457Y60543D01*
X117482Y60572D01*
X117508Y60604D01*
Y60608D01*
X117515Y60615D01*
X117522Y60630D01*
X117533Y60648D01*
X117544Y60677D01*
X117559Y60710D01*
X117569Y60750D01*
X117584Y60797D01*
X117599Y60852D01*
X117613Y60914D01*
X117628Y60983D01*
X117639Y61059D01*
X117649Y61147D01*
X117657Y61241D01*
X117660Y61343D01*
X117664Y61456D01*
Y61463D01*
Y61482D01*
Y61514D01*
X117660Y61558D01*
Y61605D01*
X117657Y61664D01*
X117653Y61726D01*
X117646Y61791D01*
X117628Y61933D01*
X117617Y62002D01*
X117602Y62068D01*
X117588Y62130D01*
X117566Y62188D01*
X117544Y62239D01*
X117518Y62283D01*
Y62286D01*
X117511Y62290D01*
X117493Y62315D01*
X117460Y62348D01*
X117420Y62384D01*
X117366Y62421D01*
X117304Y62454D01*
X117235Y62479D01*
X117198Y62483D01*
X117158Y62486D01*
D02*
G37*
G36*
X228896Y61023D02*
X228175D01*
Y60124D01*
X228852D01*
X228878Y60128D01*
X228903D01*
X228932Y60131D01*
X229002Y60138D01*
X229078Y60153D01*
X229155Y60175D01*
X229224Y60204D01*
X229257Y60222D01*
X229282Y60244D01*
X229289Y60251D01*
X229304Y60266D01*
X229326Y60295D01*
X229351Y60331D01*
X229377Y60379D01*
X229398Y60437D01*
X229413Y60502D01*
X229420Y60579D01*
Y60583D01*
Y60586D01*
Y60604D01*
X229417Y60637D01*
X229409Y60673D01*
X229402Y60714D01*
X229387Y60761D01*
X229366Y60805D01*
X229340Y60848D01*
X229337Y60852D01*
X229326Y60866D01*
X229307Y60885D01*
X229286Y60910D01*
X229253Y60936D01*
X229216Y60957D01*
X229176Y60979D01*
X229129Y60997D01*
X229125D01*
X229111Y61001D01*
X229089Y61005D01*
X229060Y61012D01*
X229016Y61016D01*
X228962Y61019D01*
X228896Y61023D01*
D02*
G37*
G36*
X234797Y61078D02*
X234775D01*
X234760Y61074D01*
X234720Y61067D01*
X234673Y61056D01*
X234618Y61034D01*
X234560Y61001D01*
X234531Y60979D01*
X234502Y60957D01*
X234476Y60928D01*
X234451Y60896D01*
Y60892D01*
X234443Y60885D01*
X234436Y60870D01*
X234425Y60852D01*
X234414Y60823D01*
X234400Y60790D01*
X234389Y60750D01*
X234374Y60703D01*
X234360Y60648D01*
X234345Y60586D01*
X234331Y60517D01*
X234320Y60441D01*
X234309Y60353D01*
X234301Y60259D01*
X234298Y60157D01*
X234294Y60044D01*
Y60036D01*
Y60018D01*
Y59986D01*
X234298Y59942D01*
Y59895D01*
X234301Y59836D01*
X234305Y59774D01*
X234312Y59709D01*
X234331Y59567D01*
X234342Y59498D01*
X234356Y59432D01*
X234371Y59370D01*
X234392Y59312D01*
X234414Y59261D01*
X234440Y59218D01*
Y59214D01*
X234447Y59210D01*
X234465Y59185D01*
X234498Y59152D01*
X234538Y59116D01*
X234593Y59079D01*
X234655Y59046D01*
X234724Y59021D01*
X234760Y59017D01*
X234800Y59014D01*
X234822D01*
X234837Y59017D01*
X234873Y59025D01*
X234924Y59039D01*
X234979Y59065D01*
X235040Y59101D01*
X235070Y59123D01*
X235099Y59152D01*
X235128Y59181D01*
X235157Y59218D01*
Y59221D01*
X235164Y59228D01*
X235172Y59239D01*
X235179Y59258D01*
X235193Y59283D01*
X235204Y59316D01*
X235219Y59352D01*
X235233Y59396D01*
X235244Y59451D01*
X235259Y59509D01*
X235273Y59578D01*
X235284Y59651D01*
X235292Y59738D01*
X235299Y59829D01*
X235306Y59931D01*
Y60044D01*
Y60047D01*
Y60051D01*
Y60069D01*
Y60102D01*
X235302Y60146D01*
Y60193D01*
X235299Y60251D01*
X235295Y60313D01*
X235288Y60382D01*
X235270Y60521D01*
X235259Y60590D01*
X235244Y60655D01*
X235230Y60717D01*
X235208Y60775D01*
X235186Y60826D01*
X235161Y60870D01*
Y60874D01*
X235153Y60877D01*
X235146Y60888D01*
X235135Y60903D01*
X235102Y60936D01*
X235062Y60976D01*
X235008Y61012D01*
X234946Y61045D01*
X234913Y61059D01*
X234877Y61070D01*
X234837Y61074D01*
X234797Y61078D01*
D02*
G37*
G36*
X232838D02*
X232816D01*
X232802Y61074D01*
X232762Y61067D01*
X232715Y61056D01*
X232660Y61034D01*
X232602Y61001D01*
X232573Y60979D01*
X232543Y60957D01*
X232518Y60928D01*
X232492Y60896D01*
Y60892D01*
X232485Y60885D01*
X232478Y60870D01*
X232467Y60852D01*
X232456Y60823D01*
X232441Y60790D01*
X232431Y60750D01*
X232416Y60703D01*
X232401Y60648D01*
X232387Y60586D01*
X232372Y60517D01*
X232361Y60441D01*
X232350Y60353D01*
X232343Y60259D01*
X232340Y60157D01*
X232336Y60044D01*
Y60036D01*
Y60018D01*
Y59986D01*
X232340Y59942D01*
Y59895D01*
X232343Y59836D01*
X232347Y59774D01*
X232354Y59709D01*
X232372Y59567D01*
X232383Y59498D01*
X232398Y59432D01*
X232412Y59370D01*
X232434Y59312D01*
X232456Y59261D01*
X232482Y59218D01*
Y59214D01*
X232489Y59210D01*
X232507Y59185D01*
X232540Y59152D01*
X232580Y59116D01*
X232634Y59079D01*
X232696Y59046D01*
X232765Y59021D01*
X232802Y59017D01*
X232842Y59014D01*
X232864D01*
X232878Y59017D01*
X232915Y59025D01*
X232966Y59039D01*
X233020Y59065D01*
X233082Y59101D01*
X233111Y59123D01*
X233140Y59152D01*
X233170Y59181D01*
X233199Y59218D01*
Y59221D01*
X233206Y59228D01*
X233213Y59239D01*
X233220Y59258D01*
X233235Y59283D01*
X233246Y59316D01*
X233260Y59352D01*
X233275Y59396D01*
X233286Y59451D01*
X233300Y59509D01*
X233315Y59578D01*
X233326Y59651D01*
X233333Y59738D01*
X233341Y59829D01*
X233348Y59931D01*
Y60044D01*
Y60047D01*
Y60051D01*
Y60069D01*
Y60102D01*
X233344Y60146D01*
Y60193D01*
X233341Y60251D01*
X233337Y60313D01*
X233330Y60382D01*
X233311Y60521D01*
X233300Y60590D01*
X233286Y60655D01*
X233271Y60717D01*
X233250Y60775D01*
X233228Y60826D01*
X233202Y60870D01*
Y60874D01*
X233195Y60877D01*
X233188Y60888D01*
X233177Y60903D01*
X233144Y60936D01*
X233104Y60976D01*
X233049Y61012D01*
X232987Y61045D01*
X232955Y61059D01*
X232918Y61070D01*
X232878Y61074D01*
X232838Y61078D01*
D02*
G37*
G36*
X160312Y127673D02*
X160230D01*
X160184Y127668D01*
X160181Y127665D01*
X160171D01*
X160158Y127663D01*
X160140Y127655D01*
X160111Y127647D01*
X160081Y127632D01*
X160045Y127616D01*
X160003Y127596D01*
X159957Y127565D01*
X159906Y127534D01*
X159846Y127495D01*
X159787Y127452D01*
X159720Y127395D01*
X159651Y127336D01*
X159574Y127269D01*
X159494Y127189D01*
X159491Y127187D01*
X159489Y127184D01*
X159476Y127171D01*
X159453Y127148D01*
X159424Y127114D01*
X159391Y127081D01*
X159352Y127037D01*
X159311Y126991D01*
X159267Y126937D01*
X159182Y126826D01*
X159141Y126770D01*
X159105Y126713D01*
X159072Y126659D01*
X159046Y126602D01*
X159025Y126551D01*
X159012Y126502D01*
X159010Y126499D01*
X159012Y126492D01*
X159010Y126479D01*
X159007Y126461D01*
Y126414D01*
Y126358D01*
X159020Y126293D01*
X159041Y126226D01*
X159054Y126193D01*
X159072Y126160D01*
X159097Y126129D01*
X159123Y126098D01*
X159139Y126082D01*
X159151Y126075D01*
X159185Y126051D01*
X159226Y126026D01*
X159280Y126003D01*
X159344Y125985D01*
X159380Y125979D01*
X159417Y125974D01*
X159455Y125977D01*
X159496Y125982D01*
X159499Y125985D01*
X159509D01*
X159525Y125990D01*
X159545Y125995D01*
X159574Y126008D01*
X159607Y126021D01*
X159643Y126041D01*
X159687Y126064D01*
X159736Y126093D01*
X159790Y126126D01*
X159849Y126165D01*
X159911Y126211D01*
X159980Y126265D01*
X160052Y126327D01*
X160127Y126396D01*
X160209Y126474D01*
X160214Y126479D01*
X160227Y126492D01*
X160250Y126515D01*
X160279Y126548D01*
X160312Y126582D01*
X160351Y126626D01*
X160392Y126672D01*
X160433Y126723D01*
X160521Y126837D01*
X160562Y126893D01*
X160598Y126950D01*
X160631Y127004D01*
X160657Y127060D01*
X160678Y127112D01*
X160691Y127161D01*
X160693Y127163D01*
X160691Y127171D01*
X160696Y127202D01*
Y127248D01*
X160693Y127302D01*
X160680Y127367D01*
X160660Y127434D01*
X160629Y127501D01*
X160606Y127529D01*
X160580Y127560D01*
X160564Y127575D01*
X160552Y127583D01*
X160521Y127603D01*
X160474Y127629D01*
X160418Y127650D01*
X160348Y127668D01*
X160312Y127673D01*
D02*
G37*
G36*
X205896Y151523D02*
X205175D01*
Y150624D01*
X205852D01*
X205878Y150628D01*
X205903D01*
X205932Y150631D01*
X206002Y150638D01*
X206078Y150653D01*
X206155Y150675D01*
X206224Y150704D01*
X206257Y150722D01*
X206282Y150744D01*
X206289Y150751D01*
X206304Y150766D01*
X206326Y150795D01*
X206351Y150831D01*
X206377Y150879D01*
X206398Y150937D01*
X206413Y151002D01*
X206420Y151079D01*
Y151083D01*
Y151086D01*
Y151104D01*
X206417Y151137D01*
X206409Y151173D01*
X206402Y151214D01*
X206387Y151261D01*
X206366Y151305D01*
X206340Y151348D01*
X206337Y151352D01*
X206326Y151366D01*
X206307Y151385D01*
X206286Y151410D01*
X206253Y151436D01*
X206216Y151457D01*
X206176Y151479D01*
X206129Y151497D01*
X206125D01*
X206111Y151501D01*
X206089Y151505D01*
X206060Y151512D01*
X206016Y151516D01*
X205962Y151519D01*
X205896Y151523D01*
D02*
G37*
G36*
X209838Y151578D02*
X209816D01*
X209802Y151574D01*
X209762Y151567D01*
X209715Y151556D01*
X209660Y151534D01*
X209602Y151501D01*
X209573Y151479D01*
X209543Y151457D01*
X209518Y151428D01*
X209492Y151396D01*
Y151392D01*
X209485Y151385D01*
X209478Y151370D01*
X209467Y151352D01*
X209456Y151323D01*
X209441Y151290D01*
X209431Y151250D01*
X209416Y151203D01*
X209401Y151148D01*
X209387Y151086D01*
X209372Y151017D01*
X209361Y150941D01*
X209350Y150853D01*
X209343Y150759D01*
X209340Y150657D01*
X209336Y150544D01*
Y150537D01*
Y150518D01*
Y150486D01*
X209340Y150442D01*
Y150395D01*
X209343Y150336D01*
X209347Y150274D01*
X209354Y150209D01*
X209372Y150067D01*
X209383Y149998D01*
X209398Y149932D01*
X209412Y149870D01*
X209434Y149812D01*
X209456Y149761D01*
X209482Y149717D01*
Y149714D01*
X209489Y149710D01*
X209507Y149685D01*
X209540Y149652D01*
X209580Y149616D01*
X209634Y149579D01*
X209696Y149546D01*
X209765Y149521D01*
X209802Y149517D01*
X209842Y149514D01*
X209864D01*
X209878Y149517D01*
X209915Y149525D01*
X209966Y149539D01*
X210020Y149565D01*
X210082Y149601D01*
X210111Y149623D01*
X210140Y149652D01*
X210170Y149681D01*
X210199Y149717D01*
Y149721D01*
X210206Y149728D01*
X210213Y149739D01*
X210220Y149758D01*
X210235Y149783D01*
X210246Y149816D01*
X210261Y149852D01*
X210275Y149896D01*
X210286Y149951D01*
X210300Y150009D01*
X210315Y150078D01*
X210326Y150151D01*
X210333Y150238D01*
X210341Y150329D01*
X210348Y150431D01*
Y150544D01*
Y150547D01*
Y150551D01*
Y150569D01*
Y150602D01*
X210344Y150646D01*
Y150693D01*
X210341Y150751D01*
X210337Y150813D01*
X210330Y150882D01*
X210311Y151021D01*
X210300Y151090D01*
X210286Y151155D01*
X210271Y151217D01*
X210250Y151275D01*
X210228Y151326D01*
X210202Y151370D01*
Y151374D01*
X210195Y151377D01*
X210188Y151388D01*
X210177Y151403D01*
X210144Y151436D01*
X210104Y151476D01*
X210049Y151512D01*
X209987Y151545D01*
X209955Y151559D01*
X209918Y151570D01*
X209878Y151574D01*
X209838Y151578D01*
D02*
G37*
%LPD*%
D13*
X129276Y97650D02*
X138724D01*
Y91350D02*
Y97650D01*
X129276Y91350D02*
X138724D01*
X129276D02*
Y97650D01*
X129224Y58850D02*
Y65150D01*
X119776D02*
X129224D01*
X119776Y58850D02*
Y65150D01*
Y58850D02*
X129224D01*
X220776Y62650D02*
X230224D01*
Y56350D02*
Y62650D01*
X220776Y56350D02*
X230224D01*
X220776D02*
Y62650D01*
X154896Y123304D02*
X163665Y114535D01*
X154896Y123304D02*
X165196Y133604D01*
X173965Y124835D01*
X163665Y114535D02*
X173965Y124835D01*
X197776Y153150D02*
X207224D01*
Y146850D02*
Y153150D01*
X197776Y146850D02*
X207224D01*
X197776D02*
Y153150D01*
M02*
